G04*
G04 #@! TF.GenerationSoftware,Altium Limited,Altium Designer,20.1.14 (287)*
G04*
G04 Layer_Color=11296232*
%FSAX25Y25*%
%MOIN*%
G70*
G04*
G04 #@! TF.SameCoordinates,A9E8F4E5-7F2A-47C3-BED5-AE4669AA653D*
G04*
G04*
G04 #@! TF.FilePolarity,Positive*
G04*
G01*
G75*
%ADD13C,0.01000*%
%ADD15C,0.00591*%
%ADD19C,0.00800*%
G54D13*
X0296200Y0590900D02*
G03*
X0296200Y0570900I0015167J-0010000D01*
G01*
X0299200Y0560900D02*
G03*
X0296200Y0570900I-0018167J0000000D01*
G01*
Y0590900D02*
G03*
X0299200Y0600900I-0015167J0010000D01*
G01*
X0069200Y0158400D02*
G03*
X0074200Y0153400I0005000J0000000D01*
G01*
X0299200Y0698400D02*
G03*
X0294200Y0703400I-0005000J0000000D01*
G01*
X0074200D02*
G03*
X0069200Y0698400I0000000J-0005000D01*
G01*
X0294200Y0153400D02*
G03*
X0299200Y0158400I0000000J0005000D01*
G01*
X0074200Y0703400D02*
X0098728D01*
X0135735D02*
X0294200D01*
X0299200Y0600900D02*
Y0698400D01*
Y0158400D02*
Y0560900D01*
X0074200Y0153400D02*
X0294200D01*
X0069200Y0158400D02*
Y0698400D01*
G54D15*
X0098728Y0686550D02*
G03*
X0096759Y0684581I0000000J-0001969D01*
G01*
D02*
G03*
X0098728Y0682613I0001969J0000000D01*
G01*
X0135735Y0682613D02*
G03*
X0137704Y0684581I0000000J0001969D01*
G01*
Y0684581D02*
G03*
X0135735Y0686550I-0001969J0000000D01*
G01*
X0098728D02*
Y0703400D01*
Y0682613D02*
X0135735D01*
Y0686550D02*
Y0703400D01*
G54D19*
X0126714Y0067570D02*
Y0073568D01*
X0128713Y0071569D01*
X0130712Y0073568D01*
Y0067570D01*
X0132712D02*
X0134711D01*
X0133712D01*
Y0073568D01*
X0132712Y0072569D01*
X0143708Y0073568D02*
Y0067570D01*
X0146707D01*
X0147707Y0068570D01*
Y0069570D01*
X0146707Y0070569D01*
X0143708D01*
X0146707D01*
X0147707Y0071569D01*
Y0072569D01*
X0146707Y0073568D01*
X0143708D01*
X0150706Y0067570D02*
X0152705D01*
X0153705Y0068570D01*
Y0070569D01*
X0152705Y0071569D01*
X0150706D01*
X0149706Y0070569D01*
Y0068570D01*
X0150706Y0067570D01*
X0156704Y0071569D02*
X0158703D01*
X0159703Y0070569D01*
Y0067570D01*
X0156704D01*
X0155704Y0068570D01*
X0156704Y0069570D01*
X0159703D01*
X0161703Y0071569D02*
Y0067570D01*
Y0069570D01*
X0162702Y0070569D01*
X0163702Y0071569D01*
X0164701D01*
X0171699Y0073568D02*
Y0067570D01*
X0168700D01*
X0167701Y0068570D01*
Y0070569D01*
X0168700Y0071569D01*
X0171699D01*
X0182696Y0073568D02*
X0180696D01*
X0179697Y0072569D01*
Y0068570D01*
X0180696Y0067570D01*
X0182696D01*
X0183695Y0068570D01*
Y0072569D01*
X0182696Y0073568D01*
X0185695Y0071569D02*
Y0068570D01*
X0186694Y0067570D01*
X0189693D01*
Y0071569D01*
X0192692Y0072569D02*
Y0071569D01*
X0191693D01*
X0193692D01*
X0192692D01*
Y0068570D01*
X0193692Y0067570D01*
X0196691D02*
X0198690D01*
X0197691D01*
Y0073568D01*
X0196691D01*
X0201690Y0067570D02*
X0203689D01*
X0202689D01*
Y0071569D01*
X0201690D01*
X0206688Y0067570D02*
Y0071569D01*
X0209687D01*
X0210687Y0070569D01*
Y0067570D01*
X0215685D02*
X0213686D01*
X0212686Y0068570D01*
Y0070569D01*
X0213686Y0071569D01*
X0215685D01*
X0216685Y0070569D01*
Y0069570D01*
X0212686D01*
M02*
