G04*
G04 #@! TF.GenerationSoftware,Altium Limited,Altium Designer,20.1.14 (287)*
G04*
G04 Layer_Color=8388736*
%FSAX25Y25*%
%MOIN*%
G70*
G04*
G04 #@! TF.SameCoordinates,A9E8F4E5-7F2A-47C3-BED5-AE4669AA653D*
G04*
G04*
G04 #@! TF.FilePolarity,Negative*
G04*
G01*
G75*
%ADD19C,0.00800*%
G04:AMPARAMS|DCode=32|XSize=62.99mil|YSize=49.21mil|CornerRadius=1.97mil|HoleSize=0mil|Usage=FLASHONLY|Rotation=45.000|XOffset=0mil|YOffset=0mil|HoleType=Round|Shape=RoundedRectangle|*
%AMROUNDEDRECTD32*
21,1,0.06299,0.04528,0,0,45.0*
21,1,0.05906,0.04921,0,0,45.0*
1,1,0.00394,0.03689,0.00487*
1,1,0.00394,-0.00487,-0.03689*
1,1,0.00394,-0.03689,-0.00487*
1,1,0.00394,0.00487,0.03689*
%
%ADD32ROUNDEDRECTD32*%
G04:AMPARAMS|DCode=33|XSize=19.68mil|YSize=19.68mil|CornerRadius=1.97mil|HoleSize=0mil|Usage=FLASHONLY|Rotation=180.000|XOffset=0mil|YOffset=0mil|HoleType=Round|Shape=RoundedRectangle|*
%AMROUNDEDRECTD33*
21,1,0.01968,0.01575,0,0,180.0*
21,1,0.01575,0.01968,0,0,180.0*
1,1,0.00394,-0.00787,0.00787*
1,1,0.00394,0.00787,0.00787*
1,1,0.00394,0.00787,-0.00787*
1,1,0.00394,-0.00787,-0.00787*
%
%ADD33ROUNDEDRECTD33*%
G04:AMPARAMS|DCode=38|XSize=19.68mil|YSize=19.68mil|CornerRadius=1.97mil|HoleSize=0mil|Usage=FLASHONLY|Rotation=90.000|XOffset=0mil|YOffset=0mil|HoleType=Round|Shape=RoundedRectangle|*
%AMROUNDEDRECTD38*
21,1,0.01968,0.01575,0,0,90.0*
21,1,0.01575,0.01968,0,0,90.0*
1,1,0.00394,0.00787,0.00787*
1,1,0.00394,0.00787,-0.00787*
1,1,0.00394,-0.00787,-0.00787*
1,1,0.00394,-0.00787,0.00787*
%
%ADD38ROUNDEDRECTD38*%
%ADD79R,0.02762X0.03550*%
%ADD80R,0.03550X0.02762*%
G04:AMPARAMS|DCode=81|XSize=27.62mil|YSize=35.5mil|CornerRadius=0mil|HoleSize=0mil|Usage=FLASHONLY|Rotation=225.000|XOffset=0mil|YOffset=0mil|HoleType=Round|Shape=Rectangle|*
%AMROTATEDRECTD81*
4,1,4,-0.00278,0.02232,0.02232,-0.00278,0.00278,-0.02232,-0.02232,0.00278,-0.00278,0.02232,0.0*
%
%ADD81ROTATEDRECTD81*%

%ADD82R,0.13786X0.06699*%
%ADD83C,0.07874*%
G04:AMPARAMS|DCode=84|XSize=33.13mil|YSize=113.84mil|CornerRadius=4.04mil|HoleSize=0mil|Usage=FLASHONLY|Rotation=0.000|XOffset=0mil|YOffset=0mil|HoleType=Round|Shape=RoundedRectangle|*
%AMROUNDEDRECTD84*
21,1,0.03313,0.10576,0,0,0.0*
21,1,0.02506,0.11384,0,0,0.0*
1,1,0.00808,0.01253,-0.05288*
1,1,0.00808,-0.01253,-0.05288*
1,1,0.00808,-0.01253,0.05288*
1,1,0.00808,0.01253,0.05288*
%
%ADD84ROUNDEDRECTD84*%
%ADD85R,0.05400X0.12400*%
%ADD86R,0.04731X0.05124*%
%ADD87R,0.05124X0.05124*%
%ADD88R,0.05124X0.04731*%
%ADD89R,0.04337X0.04140*%
G04:AMPARAMS|DCode=90|XSize=41.4mil|YSize=43.37mil|CornerRadius=0mil|HoleSize=0mil|Usage=FLASHONLY|Rotation=135.000|XOffset=0mil|YOffset=0mil|HoleType=Round|Shape=Rectangle|*
%AMROTATEDRECTD90*
4,1,4,0.02997,0.00070,-0.00070,-0.02997,-0.02997,-0.00070,0.00070,0.02997,0.02997,0.00070,0.0*
%
%ADD90ROTATEDRECTD90*%

%ADD91R,0.04140X0.04337*%
G04:AMPARAMS|DCode=92|XSize=61.09mil|YSize=43.37mil|CornerRadius=3.97mil|HoleSize=0mil|Usage=FLASHONLY|Rotation=270.000|XOffset=0mil|YOffset=0mil|HoleType=Round|Shape=RoundedRectangle|*
%AMROUNDEDRECTD92*
21,1,0.06109,0.03543,0,0,270.0*
21,1,0.05315,0.04337,0,0,270.0*
1,1,0.00794,-0.01772,-0.02657*
1,1,0.00794,-0.01772,0.02657*
1,1,0.00794,0.01772,0.02657*
1,1,0.00794,0.01772,-0.02657*
%
%ADD92ROUNDEDRECTD92*%
G04:AMPARAMS|DCode=93|XSize=39.43mil|YSize=55.18mil|CornerRadius=3.95mil|HoleSize=0mil|Usage=FLASHONLY|Rotation=270.000|XOffset=0mil|YOffset=0mil|HoleType=Round|Shape=RoundedRectangle|*
%AMROUNDEDRECTD93*
21,1,0.03943,0.04728,0,0,270.0*
21,1,0.03154,0.05518,0,0,270.0*
1,1,0.00790,-0.02364,-0.01577*
1,1,0.00790,-0.02364,0.01577*
1,1,0.00790,0.02364,0.01577*
1,1,0.00790,0.02364,-0.01577*
%
%ADD93ROUNDEDRECTD93*%
%ADD94R,0.06699X0.04337*%
%ADD95R,0.06699X0.04337*%
G04:AMPARAMS|DCode=96|XSize=15.81mil|YSize=66.99mil|CornerRadius=3.95mil|HoleSize=0mil|Usage=FLASHONLY|Rotation=315.000|XOffset=0mil|YOffset=0mil|HoleType=Round|Shape=RoundedRectangle|*
%AMROUNDEDRECTD96*
21,1,0.01581,0.05909,0,0,315.0*
21,1,0.00791,0.06699,0,0,315.0*
1,1,0.00790,-0.01810,-0.02369*
1,1,0.00790,-0.02369,-0.01810*
1,1,0.00790,0.01810,0.02369*
1,1,0.00790,0.02369,0.01810*
%
%ADD96ROUNDEDRECTD96*%
G04:AMPARAMS|DCode=97|XSize=66.99mil|YSize=15.81mil|CornerRadius=3.95mil|HoleSize=0mil|Usage=FLASHONLY|Rotation=315.000|XOffset=0mil|YOffset=0mil|HoleType=Round|Shape=RoundedRectangle|*
%AMROUNDEDRECTD97*
21,1,0.06699,0.00791,0,0,315.0*
21,1,0.05909,0.01581,0,0,315.0*
1,1,0.00790,0.01810,-0.02369*
1,1,0.00790,-0.02369,0.01810*
1,1,0.00790,-0.01810,0.02369*
1,1,0.00790,0.02369,-0.01810*
%
%ADD97ROUNDEDRECTD97*%
%ADD98O,0.05912X0.01187*%
%ADD99O,0.01187X0.05912*%
G04:AMPARAMS|DCode=100|XSize=68.96mil|YSize=27.62mil|CornerRadius=4.01mil|HoleSize=0mil|Usage=FLASHONLY|Rotation=0.000|XOffset=0mil|YOffset=0mil|HoleType=Round|Shape=RoundedRectangle|*
%AMROUNDEDRECTD100*
21,1,0.06896,0.01961,0,0,0.0*
21,1,0.06095,0.02762,0,0,0.0*
1,1,0.00802,0.03047,-0.00980*
1,1,0.00802,-0.03047,-0.00980*
1,1,0.00802,-0.03047,0.00980*
1,1,0.00802,0.03047,0.00980*
%
%ADD100ROUNDEDRECTD100*%
G04:AMPARAMS|DCode=101|XSize=15.81mil|YSize=19.75mil|CornerRadius=5.96mil|HoleSize=0mil|Usage=FLASHONLY|Rotation=0.000|XOffset=0mil|YOffset=0mil|HoleType=Round|Shape=RoundedRectangle|*
%AMROUNDEDRECTD101*
21,1,0.01581,0.00784,0,0,0.0*
21,1,0.00390,0.01975,0,0,0.0*
1,1,0.01191,0.00195,-0.00392*
1,1,0.01191,-0.00195,-0.00392*
1,1,0.01191,-0.00195,0.00392*
1,1,0.01191,0.00195,0.00392*
%
%ADD101ROUNDEDRECTD101*%
G04:AMPARAMS|DCode=102|XSize=15.81mil|YSize=21.72mil|CornerRadius=5.96mil|HoleSize=0mil|Usage=FLASHONLY|Rotation=0.000|XOffset=0mil|YOffset=0mil|HoleType=Round|Shape=RoundedRectangle|*
%AMROUNDEDRECTD102*
21,1,0.01581,0.00980,0,0,0.0*
21,1,0.00390,0.02172,0,0,0.0*
1,1,0.01191,0.00195,-0.00490*
1,1,0.01191,-0.00195,-0.00490*
1,1,0.01191,-0.00195,0.00490*
1,1,0.01191,0.00195,0.00490*
%
%ADD102ROUNDEDRECTD102*%
G04:AMPARAMS|DCode=103|XSize=15.81mil|YSize=21.72mil|CornerRadius=5.96mil|HoleSize=0mil|Usage=FLASHONLY|Rotation=90.000|XOffset=0mil|YOffset=0mil|HoleType=Round|Shape=RoundedRectangle|*
%AMROUNDEDRECTD103*
21,1,0.01581,0.00980,0,0,90.0*
21,1,0.00390,0.02172,0,0,90.0*
1,1,0.01191,0.00490,0.00195*
1,1,0.01191,0.00490,-0.00195*
1,1,0.01191,-0.00490,-0.00195*
1,1,0.01191,-0.00490,0.00195*
%
%ADD103ROUNDEDRECTD103*%
G04:AMPARAMS|DCode=104|XSize=15.81mil|YSize=19.75mil|CornerRadius=5.96mil|HoleSize=0mil|Usage=FLASHONLY|Rotation=90.000|XOffset=0mil|YOffset=0mil|HoleType=Round|Shape=RoundedRectangle|*
%AMROUNDEDRECTD104*
21,1,0.01581,0.00784,0,0,90.0*
21,1,0.00390,0.01975,0,0,90.0*
1,1,0.01191,0.00392,0.00195*
1,1,0.01191,0.00392,-0.00195*
1,1,0.01191,-0.00392,-0.00195*
1,1,0.01191,-0.00392,0.00195*
%
%ADD104ROUNDEDRECTD104*%
%ADD105O,0.05715X0.01581*%
G04:AMPARAMS|DCode=106|XSize=27.62mil|YSize=43.37mil|CornerRadius=4.01mil|HoleSize=0mil|Usage=FLASHONLY|Rotation=180.000|XOffset=0mil|YOffset=0mil|HoleType=Round|Shape=RoundedRectangle|*
%AMROUNDEDRECTD106*
21,1,0.02762,0.03535,0,0,180.0*
21,1,0.01961,0.04337,0,0,180.0*
1,1,0.00802,-0.00980,0.01768*
1,1,0.00802,0.00980,0.01768*
1,1,0.00802,0.00980,-0.01768*
1,1,0.00802,-0.00980,-0.01768*
%
%ADD106ROUNDEDRECTD106*%
%ADD107O,0.01581X0.05715*%
G04:AMPARAMS|DCode=108|XSize=63.06mil|YSize=21.72mil|CornerRadius=3.95mil|HoleSize=0mil|Usage=FLASHONLY|Rotation=180.000|XOffset=0mil|YOffset=0mil|HoleType=Round|Shape=RoundedRectangle|*
%AMROUNDEDRECTD108*
21,1,0.06306,0.01382,0,0,180.0*
21,1,0.05516,0.02172,0,0,180.0*
1,1,0.00790,-0.02758,0.00691*
1,1,0.00790,0.02758,0.00691*
1,1,0.00790,0.02758,-0.00691*
1,1,0.00790,-0.02758,-0.00691*
%
%ADD108ROUNDEDRECTD108*%
%ADD109O,0.02172X0.05912*%
%ADD110O,0.02762X0.06109*%
G04:AMPARAMS|DCode=111|XSize=11.87mil|YSize=26.24mil|CornerRadius=3.97mil|HoleSize=0mil|Usage=FLASHONLY|Rotation=180.000|XOffset=0mil|YOffset=0mil|HoleType=Round|Shape=RoundedRectangle|*
%AMROUNDEDRECTD111*
21,1,0.01187,0.01831,0,0,180.0*
21,1,0.00394,0.02624,0,0,180.0*
1,1,0.00794,-0.00197,0.00915*
1,1,0.00794,0.00197,0.00915*
1,1,0.00794,0.00197,-0.00915*
1,1,0.00794,-0.00197,-0.00915*
%
%ADD111ROUNDEDRECTD111*%
G04:AMPARAMS|DCode=112|XSize=19.75mil|YSize=26.24mil|CornerRadius=3.97mil|HoleSize=0mil|Usage=FLASHONLY|Rotation=180.000|XOffset=0mil|YOffset=0mil|HoleType=Round|Shape=RoundedRectangle|*
%AMROUNDEDRECTD112*
21,1,0.01975,0.01831,0,0,180.0*
21,1,0.01181,0.02624,0,0,180.0*
1,1,0.00794,-0.00591,0.00915*
1,1,0.00794,0.00591,0.00915*
1,1,0.00794,0.00591,-0.00915*
1,1,0.00794,-0.00591,-0.00915*
%
%ADD112ROUNDEDRECTD112*%
G04:AMPARAMS|DCode=113|XSize=12.37mil|YSize=57.36mil|CornerRadius=6.18mil|HoleSize=0mil|Usage=FLASHONLY|Rotation=315.000|XOffset=0mil|YOffset=0mil|HoleType=Round|Shape=RoundedRectangle|*
%AMROUNDEDRECTD113*
21,1,0.01237,0.04499,0,0,315.0*
21,1,0.00000,0.05736,0,0,315.0*
1,1,0.01237,-0.01591,-0.01591*
1,1,0.01237,-0.01591,-0.01591*
1,1,0.01237,0.01591,0.01591*
1,1,0.01237,0.01591,0.01591*
%
%ADD113ROUNDEDRECTD113*%
G04:AMPARAMS|DCode=114|XSize=57.36mil|YSize=12.37mil|CornerRadius=6.18mil|HoleSize=0mil|Usage=FLASHONLY|Rotation=315.000|XOffset=0mil|YOffset=0mil|HoleType=Round|Shape=RoundedRectangle|*
%AMROUNDEDRECTD114*
21,1,0.05736,0.00000,0,0,315.0*
21,1,0.04499,0.01237,0,0,315.0*
1,1,0.01237,0.01591,-0.01591*
1,1,0.01237,-0.01591,0.01591*
1,1,0.01237,-0.01591,0.01591*
1,1,0.01237,0.01591,-0.01591*
%
%ADD114ROUNDEDRECTD114*%
G04:AMPARAMS|DCode=115|XSize=57.36mil|YSize=12.37mil|CornerRadius=3.97mil|HoleSize=0mil|Usage=FLASHONLY|Rotation=315.000|XOffset=0mil|YOffset=0mil|HoleType=Round|Shape=RoundedRectangle|*
%AMROUNDEDRECTD115*
21,1,0.05736,0.00443,0,0,315.0*
21,1,0.04942,0.01237,0,0,315.0*
1,1,0.00793,0.01591,-0.01904*
1,1,0.00793,-0.01904,0.01591*
1,1,0.00793,-0.01591,0.01904*
1,1,0.00793,0.01904,-0.01591*
%
%ADD115ROUNDEDRECTD115*%
G04:AMPARAMS|DCode=116|XSize=43.37mil|YSize=66.99mil|CornerRadius=3.97mil|HoleSize=0mil|Usage=FLASHONLY|Rotation=180.000|XOffset=0mil|YOffset=0mil|HoleType=Round|Shape=RoundedRectangle|*
%AMROUNDEDRECTD116*
21,1,0.04337,0.05906,0,0,180.0*
21,1,0.03543,0.06699,0,0,180.0*
1,1,0.00794,-0.01772,0.02953*
1,1,0.00794,0.01772,0.02953*
1,1,0.00794,0.01772,-0.02953*
1,1,0.00794,-0.01772,-0.02953*
%
%ADD116ROUNDEDRECTD116*%
G04:AMPARAMS|DCode=117|XSize=15.81mil|YSize=21.72mil|CornerRadius=3.95mil|HoleSize=0mil|Usage=FLASHONLY|Rotation=270.000|XOffset=0mil|YOffset=0mil|HoleType=Round|Shape=RoundedRectangle|*
%AMROUNDEDRECTD117*
21,1,0.01581,0.01382,0,0,270.0*
21,1,0.00791,0.02172,0,0,270.0*
1,1,0.00790,-0.00691,-0.00396*
1,1,0.00790,-0.00691,0.00396*
1,1,0.00790,0.00691,0.00396*
1,1,0.00790,0.00691,-0.00396*
%
%ADD117ROUNDEDRECTD117*%
%ADD118C,0.05150*%
%ADD119C,0.05006*%
G04:AMPARAMS|DCode=120|XSize=14.63mil|YSize=39.43mil|CornerRadius=3.97mil|HoleSize=0mil|Usage=FLASHONLY|Rotation=180.000|XOffset=0mil|YOffset=0mil|HoleType=Round|Shape=RoundedRectangle|*
%AMROUNDEDRECTD120*
21,1,0.01463,0.03150,0,0,180.0*
21,1,0.00670,0.03943,0,0,180.0*
1,1,0.00793,-0.00335,0.01575*
1,1,0.00793,0.00335,0.01575*
1,1,0.00793,0.00335,-0.01575*
1,1,0.00793,-0.00335,-0.01575*
%
%ADD120ROUNDEDRECTD120*%
G04:AMPARAMS|DCode=121|XSize=14.63mil|YSize=35.5mil|CornerRadius=3.97mil|HoleSize=0mil|Usage=FLASHONLY|Rotation=180.000|XOffset=0mil|YOffset=0mil|HoleType=Round|Shape=RoundedRectangle|*
%AMROUNDEDRECTD121*
21,1,0.01463,0.02756,0,0,180.0*
21,1,0.00670,0.03550,0,0,180.0*
1,1,0.00793,-0.00335,0.01378*
1,1,0.00793,0.00335,0.01378*
1,1,0.00793,0.00335,-0.01378*
1,1,0.00793,-0.00335,-0.01378*
%
%ADD121ROUNDEDRECTD121*%
%ADD122R,0.05124X0.05912*%
G04:AMPARAMS|DCode=123|XSize=65.02mil|YSize=65.02mil|CornerRadius=3.83mil|HoleSize=0mil|Usage=FLASHONLY|Rotation=270.000|XOffset=0mil|YOffset=0mil|HoleType=Round|Shape=RoundedRectangle|*
%AMROUNDEDRECTD123*
21,1,0.06502,0.05736,0,0,270.0*
21,1,0.05736,0.06502,0,0,270.0*
1,1,0.00766,-0.02868,-0.02868*
1,1,0.00766,-0.02868,0.02868*
1,1,0.00766,0.02868,0.02868*
1,1,0.00766,0.02868,-0.02868*
%
%ADD123ROUNDEDRECTD123*%
%ADD124C,0.06502*%
%ADD125C,0.06896*%
G04:AMPARAMS|DCode=126|XSize=68.96mil|YSize=68.96mil|CornerRadius=10.12mil|HoleSize=0mil|Usage=FLASHONLY|Rotation=270.000|XOffset=0mil|YOffset=0mil|HoleType=Round|Shape=RoundedRectangle|*
%AMROUNDEDRECTD126*
21,1,0.06896,0.04872,0,0,270.0*
21,1,0.04872,0.06896,0,0,270.0*
1,1,0.02024,-0.02436,-0.02436*
1,1,0.02024,-0.02436,0.02436*
1,1,0.02024,0.02436,0.02436*
1,1,0.02024,0.02436,-0.02436*
%
%ADD126ROUNDEDRECTD126*%
G04:AMPARAMS|DCode=127|XSize=68.96mil|YSize=68.96mil|CornerRadius=18.24mil|HoleSize=0mil|Usage=FLASHONLY|Rotation=180.000|XOffset=0mil|YOffset=0mil|HoleType=Round|Shape=RoundedRectangle|*
%AMROUNDEDRECTD127*
21,1,0.06896,0.03248,0,0,180.0*
21,1,0.03248,0.06896,0,0,180.0*
1,1,0.03648,-0.01624,0.01624*
1,1,0.03648,0.01624,0.01624*
1,1,0.03648,0.01624,-0.01624*
1,1,0.03648,-0.01624,-0.01624*
%
%ADD127ROUNDEDRECTD127*%
%ADD128R,0.06896X0.06896*%
%ADD129R,0.06896X0.06896*%
G04:AMPARAMS|DCode=130|XSize=70.93mil|YSize=70.93mil|CornerRadius=4.01mil|HoleSize=0mil|Usage=FLASHONLY|Rotation=180.000|XOffset=0mil|YOffset=0mil|HoleType=Round|Shape=RoundedRectangle|*
%AMROUNDEDRECTD130*
21,1,0.07093,0.06291,0,0,180.0*
21,1,0.06291,0.07093,0,0,180.0*
1,1,0.00802,-0.03146,0.03146*
1,1,0.00802,0.03146,0.03146*
1,1,0.00802,0.03146,-0.03146*
1,1,0.00802,-0.03146,-0.03146*
%
%ADD130ROUNDEDRECTD130*%
%ADD131C,0.07093*%
G04:AMPARAMS|DCode=132|XSize=70.93mil|YSize=70.93mil|CornerRadius=4.01mil|HoleSize=0mil|Usage=FLASHONLY|Rotation=270.000|XOffset=0mil|YOffset=0mil|HoleType=Round|Shape=RoundedRectangle|*
%AMROUNDEDRECTD132*
21,1,0.07093,0.06291,0,0,270.0*
21,1,0.06291,0.07093,0,0,270.0*
1,1,0.00802,-0.03146,-0.03146*
1,1,0.00802,-0.03146,0.03146*
1,1,0.00802,0.03146,0.03146*
1,1,0.00802,0.03146,-0.03146*
%
%ADD132ROUNDEDRECTD132*%
%ADD133C,0.12400*%
%ADD134C,0.05400*%
G04:AMPARAMS|DCode=135|XSize=53.21mil|YSize=31.56mil|CornerRadius=15.78mil|HoleSize=0mil|Usage=FLASHONLY|Rotation=180.000|XOffset=0mil|YOffset=0mil|HoleType=Round|Shape=RoundedRectangle|*
%AMROUNDEDRECTD135*
21,1,0.05321,0.00000,0,0,180.0*
21,1,0.02165,0.03156,0,0,180.0*
1,1,0.03156,-0.01083,0.00000*
1,1,0.03156,0.01083,0.00000*
1,1,0.03156,0.01083,0.00000*
1,1,0.03156,-0.01083,0.00000*
%
%ADD135ROUNDEDRECTD135*%
G04:AMPARAMS|DCode=136|XSize=27.62mil|YSize=78.8mil|CornerRadius=13.81mil|HoleSize=0mil|Usage=FLASHONLY|Rotation=180.000|XOffset=0mil|YOffset=0mil|HoleType=Round|Shape=RoundedRectangle|*
%AMROUNDEDRECTD136*
21,1,0.02762,0.05118,0,0,180.0*
21,1,0.00000,0.07880,0,0,180.0*
1,1,0.02762,0.00000,0.02559*
1,1,0.02762,0.00000,0.02559*
1,1,0.02762,0.00000,-0.02559*
1,1,0.02762,0.00000,-0.02559*
%
%ADD136ROUNDEDRECTD136*%
G04:AMPARAMS|DCode=137|XSize=31.56mil|YSize=63.06mil|CornerRadius=15.78mil|HoleSize=0mil|Usage=FLASHONLY|Rotation=180.000|XOffset=0mil|YOffset=0mil|HoleType=Round|Shape=RoundedRectangle|*
%AMROUNDEDRECTD137*
21,1,0.03156,0.03150,0,0,180.0*
21,1,0.00000,0.06306,0,0,180.0*
1,1,0.03156,0.00000,0.01575*
1,1,0.03156,0.00000,0.01575*
1,1,0.03156,0.00000,-0.01575*
1,1,0.03156,0.00000,-0.01575*
%
%ADD137ROUNDEDRECTD137*%
%ADD138C,0.02368*%
G36*
X0103419Y0680315D02*
X0104028Y0679705D01*
X0104358Y0678910D01*
X0104358Y0678479D01*
X0104364Y0678095D01*
X0104112Y0677369D01*
X0103625Y0676774D01*
X0102964Y0676383D01*
X0102586Y0676314D01*
Y0676314D01*
X0102586D01*
Y0673558D01*
X0102586Y0673088D01*
X0102226Y0672220D01*
X0101562Y0671555D01*
X0100694Y0671195D01*
X0100224Y0671195D01*
X0099754D01*
X0098886Y0671555D01*
X0098221Y0672220D01*
X0097861Y0673088D01*
X0097861Y0673558D01*
X0097861Y0678282D01*
X0097861Y0678752D01*
X0098221Y0679620D01*
X0098886Y0680285D01*
X0099754Y0680644D01*
X0100224Y0680644D01*
X0102192D01*
X0102623Y0680644D01*
X0103419Y0680315D01*
D02*
G37*
G36*
X0094793Y0701262D02*
X0095293Y0701087D01*
X0095747Y0700814D01*
X0096135Y0700453D01*
X0096442Y0700021D01*
X0096653Y0699535D01*
X0096760Y0699016D01*
X0096759Y0698750D01*
X0096759Y0692451D01*
X0096759Y0692060D01*
X0096459Y0691336D01*
X0095906Y0690782D01*
X0095182Y0690483D01*
X0094791Y0690483D01*
Y0690483D01*
X0093609D01*
X0093218Y0690483D01*
X0092494Y0690782D01*
X0091941Y0691336D01*
X0091641Y0692060D01*
Y0692451D01*
X0091641D01*
X0091641Y0698751D01*
X0091640Y0699235D01*
X0091991Y0700138D01*
X0092648Y0700850D01*
X0093520Y0701272D01*
X0094003Y0701310D01*
X0094267Y0701330D01*
X0094793Y0701262D01*
D02*
G37*
G36*
X0135577Y0680285D02*
X0136242Y0679620D01*
X0136602Y0678752D01*
X0136602Y0678282D01*
Y0673558D01*
X0136602Y0673088D01*
X0136242Y0672220D01*
X0135577Y0671555D01*
X0134709Y0671196D01*
X0134239Y0671195D01*
X0133770Y0671195D01*
X0132901Y0671555D01*
X0132237Y0672220D01*
X0131877Y0673088D01*
X0131877Y0673558D01*
Y0676314D01*
X0131877Y0676314D01*
X0131499Y0676383D01*
X0130838Y0676774D01*
X0130351Y0677369D01*
X0130099Y0678095D01*
X0130105Y0678479D01*
Y0678910D01*
X0130435Y0679705D01*
X0131044Y0680315D01*
X0131840Y0680644D01*
X0134239D01*
X0134709Y0680644D01*
X0135577Y0680285D01*
D02*
G37*
G36*
X0140460Y0701310D02*
X0140460Y0701310D01*
X0140943Y0701272D01*
X0141815Y0700850D01*
X0142472Y0700138D01*
X0142824Y0699235D01*
X0142822Y0698751D01*
X0142822Y0692451D01*
Y0692060D01*
X0142522Y0691336D01*
X0141969Y0690782D01*
X0141245Y0690483D01*
X0140854Y0690483D01*
X0139672D01*
X0139672Y0690483D01*
X0139281Y0690483D01*
X0138557Y0690782D01*
X0138004Y0691336D01*
X0137704Y0692060D01*
X0137704Y0692451D01*
X0137704Y0698750D01*
X0137704Y0698751D01*
X0137703Y0699016D01*
X0137810Y0699535D01*
X0138021Y0700021D01*
X0138328Y0700453D01*
X0138716Y0700814D01*
X0139170Y0701087D01*
X0139670Y0701262D01*
X0140196Y0701330D01*
X0140460Y0701310D01*
D02*
G37*
G54D19*
X0126600Y0073049D02*
X0130599D01*
X0128599D01*
Y0067051D01*
X0133598D02*
X0135597D01*
X0136597Y0068050D01*
Y0070050D01*
X0135597Y0071049D01*
X0133598D01*
X0132598Y0070050D01*
Y0068050D01*
X0133598Y0067051D01*
X0138596Y0065051D02*
Y0071049D01*
X0141595D01*
X0142595Y0070050D01*
Y0068050D01*
X0141595Y0067051D01*
X0138596D01*
X0154591Y0072049D02*
X0153591Y0073049D01*
X0151592D01*
X0150592Y0072049D01*
Y0071049D01*
X0151592Y0070050D01*
X0153591D01*
X0154591Y0069050D01*
Y0068050D01*
X0153591Y0067051D01*
X0151592D01*
X0150592Y0068050D01*
X0157590Y0067051D02*
X0159589D01*
X0160589Y0068050D01*
Y0070050D01*
X0159589Y0071049D01*
X0157590D01*
X0156590Y0070050D01*
Y0068050D01*
X0157590Y0067051D01*
X0162588D02*
X0164588D01*
X0163588D01*
Y0073049D01*
X0162588D01*
X0171585D02*
Y0067051D01*
X0168586D01*
X0167587Y0068050D01*
Y0070050D01*
X0168586Y0071049D01*
X0171585D01*
X0176584Y0067051D02*
X0174584D01*
X0173585Y0068050D01*
Y0070050D01*
X0174584Y0071049D01*
X0176584D01*
X0177584Y0070050D01*
Y0069050D01*
X0173585D01*
X0179583Y0071049D02*
Y0067051D01*
Y0069050D01*
X0180582Y0070050D01*
X0181582Y0071049D01*
X0182582D01*
G54D32*
X0230901Y0378552D02*
D03*
X0241201Y0388853D02*
D03*
X0247326Y0382728D02*
D03*
X0237025Y0372428D02*
D03*
G54D33*
X0185968Y0656500D02*
D03*
X0182032D02*
D03*
X0186070Y0650337D02*
D03*
X0182133D02*
D03*
X0279857Y0683522D02*
D03*
X0275921D02*
D03*
X0255310Y0300664D02*
D03*
X0251373D02*
D03*
X0255310Y0310148D02*
D03*
X0251373D02*
D03*
X0251133Y0550187D02*
D03*
X0255070D02*
D03*
X0251133Y0560794D02*
D03*
X0255070D02*
D03*
X0108298Y0660679D02*
D03*
X0104361D02*
D03*
X0102499Y0597495D02*
D03*
X0106436D02*
D03*
G54D38*
X0127444Y0660931D02*
D03*
Y0664868D02*
D03*
Y0657900D02*
D03*
Y0653963D02*
D03*
G54D79*
X0274375Y0571040D02*
D03*
Y0575764D02*
D03*
X0278602Y0677624D02*
D03*
Y0672900D02*
D03*
Y0662400D02*
D03*
Y0667124D02*
D03*
X0080074Y0597400D02*
D03*
Y0592676D02*
D03*
X0112940Y0597676D02*
D03*
Y0602400D02*
D03*
X0217385Y0541868D02*
D03*
Y0546593D02*
D03*
X0238700Y0541868D02*
D03*
Y0546593D02*
D03*
X0218404Y0527691D02*
D03*
Y0532415D02*
D03*
X0238404Y0527691D02*
D03*
Y0532415D02*
D03*
X0197700Y0680061D02*
D03*
Y0675337D02*
D03*
X0189200Y0680061D02*
D03*
Y0675337D02*
D03*
X0278602Y0636747D02*
D03*
Y0641471D02*
D03*
Y0646900D02*
D03*
Y0651624D02*
D03*
X0254861Y0621152D02*
D03*
Y0616428D02*
D03*
X0278566Y0631321D02*
D03*
Y0626597D02*
D03*
G54D80*
X0135424Y0215012D02*
D03*
X0130700D02*
D03*
X0135424Y0521900D02*
D03*
X0130700D02*
D03*
X0135424Y0257400D02*
D03*
X0130700D02*
D03*
X0135424Y0538900D02*
D03*
X0130700D02*
D03*
X0135424Y0248900D02*
D03*
X0130700D02*
D03*
X0135424Y0488400D02*
D03*
X0130700D02*
D03*
X0135424Y0506400D02*
D03*
X0130700D02*
D03*
X0135424Y0497539D02*
D03*
X0130700D02*
D03*
X0135424Y0464664D02*
D03*
X0130700D02*
D03*
X0135424Y0513900D02*
D03*
X0130700D02*
D03*
Y0265524D02*
D03*
X0135424D02*
D03*
X0135424Y0471565D02*
D03*
X0130700D02*
D03*
X0135424Y0274024D02*
D03*
X0130700D02*
D03*
Y0223524D02*
D03*
X0135424D02*
D03*
X0130568Y0530400D02*
D03*
X0135292D02*
D03*
X0130700Y0240524D02*
D03*
X0135424D02*
D03*
X0219161Y0183400D02*
D03*
X0214436D02*
D03*
X0208487D02*
D03*
X0203763D02*
D03*
X0197487D02*
D03*
X0192763D02*
D03*
X0159062Y0182400D02*
D03*
X0154338D02*
D03*
X0148062D02*
D03*
X0143338D02*
D03*
X0137062D02*
D03*
X0132338D02*
D03*
X0130700Y0232024D02*
D03*
X0135424D02*
D03*
X0130700Y0479898D02*
D03*
X0135424D02*
D03*
X0130700Y0282024D02*
D03*
X0135424D02*
D03*
X0130700Y0289900D02*
D03*
X0135424D02*
D03*
X0187775Y0640585D02*
D03*
X0183050D02*
D03*
X0187775Y0635337D02*
D03*
X0183050D02*
D03*
X0139814Y0557459D02*
D03*
X0144539D02*
D03*
X0264329Y0571091D02*
D03*
X0269054D02*
D03*
X0268944Y0575900D02*
D03*
X0264220D02*
D03*
X0255058Y0555447D02*
D03*
X0250334D02*
D03*
X0255058Y0545172D02*
D03*
X0250334Y0545172D02*
D03*
X0125322Y0215012D02*
D03*
X0120598D02*
D03*
X0125322Y0464664D02*
D03*
X0120598D02*
D03*
X0125322Y0521900D02*
D03*
X0120598D02*
D03*
X0125322Y0513900D02*
D03*
X0120598D02*
D03*
X0125322Y0257400D02*
D03*
X0120598D02*
D03*
X0125322Y0265524D02*
D03*
X0120598D02*
D03*
X0125322Y0538900D02*
D03*
X0120598D02*
D03*
X0125322Y0471565D02*
D03*
X0120598D02*
D03*
X0125322Y0248900D02*
D03*
X0120598D02*
D03*
X0125322Y0274024D02*
D03*
X0120598D02*
D03*
X0125322Y0488400D02*
D03*
X0120598D02*
D03*
X0125322Y0223524D02*
D03*
X0120598D02*
D03*
X0125322Y0506400D02*
D03*
X0120598D02*
D03*
X0125190Y0530400D02*
D03*
X0120466D02*
D03*
X0125322Y0497539D02*
D03*
X0120598D02*
D03*
X0125322Y0240524D02*
D03*
X0120598D02*
D03*
X0255310Y0306026D02*
D03*
X0250586D02*
D03*
X0255310Y0295695D02*
D03*
X0250586D02*
D03*
X0264783Y0592077D02*
D03*
X0269507D02*
D03*
X0264767Y0611817D02*
D03*
X0269491D02*
D03*
X0264767Y0606817D02*
D03*
X0269491D02*
D03*
X0264767Y0601817D02*
D03*
X0269491D02*
D03*
X0264767Y0596817D02*
D03*
X0269491D02*
D03*
X0272909Y0689191D02*
D03*
X0277633D02*
D03*
X0219161Y0178400D02*
D03*
X0214436D02*
D03*
X0208487D02*
D03*
X0203763D02*
D03*
X0197487D02*
D03*
X0192763D02*
D03*
X0159062Y0177400D02*
D03*
X0154338D02*
D03*
X0148062D02*
D03*
X0143338D02*
D03*
X0137062D02*
D03*
X0132338D02*
D03*
X0120598Y0232024D02*
D03*
X0125322D02*
D03*
X0120598Y0282024D02*
D03*
X0125322D02*
D03*
X0120598Y0479845D02*
D03*
X0125322D02*
D03*
X0120598Y0289900D02*
D03*
X0125322D02*
D03*
X0103976Y0665900D02*
D03*
X0108700D02*
D03*
X0102338Y0592900D02*
D03*
X0107062D02*
D03*
Y0602700D02*
D03*
X0102338D02*
D03*
X0123984Y0640321D02*
D03*
X0128708D02*
D03*
X0123984Y0635687D02*
D03*
X0128708D02*
D03*
X0126476Y0606900D02*
D03*
X0131200D02*
D03*
G54D81*
X0228944Y0371935D02*
D03*
X0232285Y0368595D02*
D03*
X0249461Y0389541D02*
D03*
X0246120Y0392881D02*
D03*
G54D82*
X0106200Y0628774D02*
D03*
Y0613026D02*
D03*
G54D83*
X0079987Y0673088D02*
D03*
X0094200Y0161166D02*
D03*
X0274200Y0160769D02*
D03*
G54D84*
X0214720Y0595388D02*
D03*
X0219720D02*
D03*
X0224720D02*
D03*
X0229720D02*
D03*
X0234720D02*
D03*
X0239720D02*
D03*
X0244720D02*
D03*
X0214720Y0611412D02*
D03*
X0219720D02*
D03*
X0224720D02*
D03*
X0229720D02*
D03*
X0234720D02*
D03*
X0239720D02*
D03*
X0244720D02*
D03*
G54D85*
X0080003Y0610306D02*
D03*
X0090003D02*
D03*
Y0632294D02*
D03*
X0080003D02*
D03*
G54D86*
X0136666Y0606900D02*
D03*
X0144934D02*
D03*
X0145436Y0550900D02*
D03*
X0137169D02*
D03*
X0092015Y0575278D02*
D03*
X0100283D02*
D03*
X0089617Y0645038D02*
D03*
X0097885D02*
D03*
G54D87*
X0197700Y0694034D02*
D03*
Y0685766D02*
D03*
X0189200Y0694034D02*
D03*
Y0685766D02*
D03*
X0232263Y0549124D02*
D03*
Y0540857D02*
D03*
G54D88*
X0224200Y0541400D02*
D03*
Y0549668D02*
D03*
G54D89*
X0096869Y0652235D02*
D03*
X0090570Y0652235D02*
D03*
X0190397Y0251006D02*
D03*
X0196696D02*
D03*
X0107275Y0575278D02*
D03*
X0113574D02*
D03*
X0202043Y0230774D02*
D03*
X0195743D02*
D03*
X0212525Y0214995D02*
D03*
X0206225D02*
D03*
X0195794Y0236526D02*
D03*
X0202094D02*
D03*
X0212525Y0208900D02*
D03*
X0206225D02*
D03*
X0230291Y0176065D02*
D03*
X0236590D02*
D03*
G54D90*
X0224949Y0381010D02*
D03*
X0229403Y0385465D02*
D03*
X0233723Y0389937D02*
D03*
X0238177Y0394392D02*
D03*
X0220340Y0385595D02*
D03*
X0224795Y0390050D02*
D03*
X0229028Y0394326D02*
D03*
X0233482Y0398781D02*
D03*
G54D91*
X0218404Y0514903D02*
D03*
Y0521202D02*
D03*
X0238304Y0514903D02*
D03*
Y0521202D02*
D03*
X0109238Y0651038D02*
D03*
Y0644739D02*
D03*
X0115334Y0651038D02*
D03*
Y0644739D02*
D03*
G54D92*
X0291531Y0567613D02*
D03*
X0291531Y0594187D02*
D03*
G54D93*
X0284444Y0572632D02*
D03*
Y0589168D02*
D03*
G54D94*
X0204865Y0516553D02*
D03*
Y0509663D02*
D03*
Y0502773D02*
D03*
X0190298D02*
D03*
Y0509663D02*
D03*
Y0516553D02*
D03*
X0211511Y0322305D02*
D03*
Y0329195D02*
D03*
Y0336085D02*
D03*
X0196944D02*
D03*
Y0329195D02*
D03*
Y0322305D02*
D03*
X0183501Y0301560D02*
D03*
Y0308450D02*
D03*
Y0315340D02*
D03*
X0168934D02*
D03*
Y0308450D02*
D03*
Y0301560D02*
D03*
G54D95*
X0225850Y0224813D02*
D03*
Y0231703D02*
D03*
Y0238593D02*
D03*
X0240417D02*
D03*
Y0231703D02*
D03*
Y0224813D02*
D03*
G54D96*
X0188652Y0448316D02*
D03*
X0190044Y0446924D02*
D03*
X0191436Y0445532D02*
D03*
X0192828Y0444140D02*
D03*
X0194220Y0442748D02*
D03*
X0195612Y0441356D02*
D03*
X0197004Y0439964D02*
D03*
X0198396Y0438572D02*
D03*
X0199788Y0437180D02*
D03*
X0201180Y0435788D02*
D03*
X0202572Y0434396D02*
D03*
X0203964Y0433004D02*
D03*
X0205356Y0431612D02*
D03*
X0206748Y0430221D02*
D03*
X0208140Y0428829D02*
D03*
X0209531Y0427437D02*
D03*
X0210924Y0426045D02*
D03*
X0212315Y0424653D02*
D03*
X0213707Y0423261D02*
D03*
X0215099Y0421869D02*
D03*
X0216491Y0420477D02*
D03*
X0217883Y0419085D02*
D03*
X0219275Y0417693D02*
D03*
X0220667Y0416301D02*
D03*
X0222059Y0414909D02*
D03*
X0179744Y0372594D02*
D03*
X0178352Y0373986D02*
D03*
X0176960Y0375378D02*
D03*
X0175568Y0376770D02*
D03*
X0174176Y0378162D02*
D03*
X0172784Y0379554D02*
D03*
X0171392Y0380946D02*
D03*
X0170000Y0382338D02*
D03*
X0168608Y0383730D02*
D03*
X0167217Y0385122D02*
D03*
X0165824Y0386513D02*
D03*
X0164433Y0387906D02*
D03*
X0163041Y0389297D02*
D03*
X0161649Y0390689D02*
D03*
X0160257Y0392081D02*
D03*
X0158865Y0393473D02*
D03*
X0157473Y0394865D02*
D03*
X0156081Y0396257D02*
D03*
X0154689Y0397649D02*
D03*
X0153297Y0399041D02*
D03*
X0151905Y0400433D02*
D03*
X0150513Y0401825D02*
D03*
X0149121Y0403217D02*
D03*
X0147729Y0404609D02*
D03*
X0146337Y0406001D02*
D03*
G54D97*
X0222059D02*
D03*
X0220667Y0404609D02*
D03*
X0219275Y0403217D02*
D03*
X0217883Y0401825D02*
D03*
X0216491Y0400433D02*
D03*
X0215099Y0399041D02*
D03*
X0213707Y0397649D02*
D03*
X0212315Y0396257D02*
D03*
X0210924Y0394865D02*
D03*
X0209531Y0393473D02*
D03*
X0208140Y0392081D02*
D03*
X0206748Y0390689D02*
D03*
X0205356Y0389297D02*
D03*
X0203964Y0387906D02*
D03*
X0202572Y0386513D02*
D03*
X0201180Y0385122D02*
D03*
X0199788Y0383730D02*
D03*
X0198396Y0382338D02*
D03*
X0197004Y0380946D02*
D03*
X0195612Y0379554D02*
D03*
X0194220Y0378162D02*
D03*
X0192828Y0376770D02*
D03*
X0191436Y0375378D02*
D03*
X0190044Y0373986D02*
D03*
X0188652Y0372594D02*
D03*
X0146337Y0414909D02*
D03*
X0147729Y0416301D02*
D03*
X0149121Y0417693D02*
D03*
X0150513Y0419085D02*
D03*
X0151905Y0420477D02*
D03*
X0153297Y0421869D02*
D03*
X0154689Y0423261D02*
D03*
X0156081Y0424653D02*
D03*
X0157473Y0426045D02*
D03*
X0158865Y0427437D02*
D03*
X0160257Y0428829D02*
D03*
X0161649Y0430221D02*
D03*
X0163041Y0431612D02*
D03*
X0164433Y0433004D02*
D03*
X0165824Y0434396D02*
D03*
X0167217Y0435788D02*
D03*
X0168608Y0437180D02*
D03*
X0170000Y0438572D02*
D03*
X0171392Y0439964D02*
D03*
X0172784Y0441356D02*
D03*
X0174176Y0442748D02*
D03*
X0175568Y0444140D02*
D03*
X0176960Y0445532D02*
D03*
X0178352Y0446924D02*
D03*
X0179744Y0448316D02*
D03*
G54D98*
X0269535Y0679660D02*
D03*
Y0678085D02*
D03*
X0208905Y0682809D02*
D03*
Y0681235D02*
D03*
Y0679660D02*
D03*
Y0678085D02*
D03*
Y0676510D02*
D03*
Y0674935D02*
D03*
Y0673361D02*
D03*
Y0671786D02*
D03*
Y0670211D02*
D03*
Y0668636D02*
D03*
Y0667061D02*
D03*
Y0665487D02*
D03*
Y0663912D02*
D03*
Y0662337D02*
D03*
Y0660762D02*
D03*
Y0659187D02*
D03*
Y0657613D02*
D03*
Y0656038D02*
D03*
Y0654463D02*
D03*
Y0652888D02*
D03*
Y0651313D02*
D03*
Y0649739D02*
D03*
Y0648164D02*
D03*
Y0646589D02*
D03*
Y0645014D02*
D03*
Y0643439D02*
D03*
Y0641865D02*
D03*
Y0640290D02*
D03*
Y0638715D02*
D03*
Y0637140D02*
D03*
Y0635565D02*
D03*
Y0633990D02*
D03*
X0269535D02*
D03*
Y0635565D02*
D03*
Y0637140D02*
D03*
Y0638715D02*
D03*
Y0640290D02*
D03*
Y0641865D02*
D03*
Y0643439D02*
D03*
Y0645014D02*
D03*
Y0646589D02*
D03*
Y0648164D02*
D03*
Y0649739D02*
D03*
Y0651313D02*
D03*
Y0652888D02*
D03*
Y0654463D02*
D03*
Y0656038D02*
D03*
Y0657613D02*
D03*
Y0659187D02*
D03*
Y0660762D02*
D03*
Y0662337D02*
D03*
Y0663912D02*
D03*
Y0665487D02*
D03*
Y0667061D02*
D03*
Y0668636D02*
D03*
Y0670211D02*
D03*
Y0671786D02*
D03*
Y0673361D02*
D03*
Y0674935D02*
D03*
Y0676510D02*
D03*
Y0681235D02*
D03*
Y0682809D02*
D03*
G54D99*
X0214810Y0628085D02*
D03*
X0216385D02*
D03*
X0217960D02*
D03*
X0219535D02*
D03*
X0221110D02*
D03*
X0222684D02*
D03*
X0224259D02*
D03*
X0225834D02*
D03*
X0227409D02*
D03*
X0228983D02*
D03*
X0230558D02*
D03*
X0232133D02*
D03*
X0233708D02*
D03*
X0235283D02*
D03*
X0236858D02*
D03*
X0238432D02*
D03*
X0240007D02*
D03*
X0241582D02*
D03*
X0243157D02*
D03*
X0244731D02*
D03*
X0246306D02*
D03*
X0247881D02*
D03*
X0249456D02*
D03*
X0251031D02*
D03*
X0252606D02*
D03*
X0254180D02*
D03*
X0255755D02*
D03*
X0257330D02*
D03*
X0258905D02*
D03*
X0260479D02*
D03*
X0262054D02*
D03*
X0263629D02*
D03*
Y0688715D02*
D03*
X0262054D02*
D03*
X0260479D02*
D03*
X0258905D02*
D03*
X0257330D02*
D03*
X0255755D02*
D03*
X0254180D02*
D03*
X0252606D02*
D03*
X0251031D02*
D03*
X0249456D02*
D03*
X0247881D02*
D03*
X0246306D02*
D03*
X0244731D02*
D03*
X0243157D02*
D03*
X0241582D02*
D03*
X0240007D02*
D03*
X0238432D02*
D03*
X0236858D02*
D03*
X0235283D02*
D03*
X0233708D02*
D03*
X0232133D02*
D03*
X0230558D02*
D03*
X0228983D02*
D03*
X0227409D02*
D03*
X0225834D02*
D03*
X0224259D02*
D03*
X0222684D02*
D03*
X0221110D02*
D03*
X0219535D02*
D03*
X0217960D02*
D03*
X0216385D02*
D03*
X0214810D02*
D03*
G54D100*
X0136251Y0665400D02*
D03*
Y0660400D02*
D03*
Y0655400D02*
D03*
Y0650400D02*
D03*
Y0645400D02*
D03*
Y0640400D02*
D03*
Y0635400D02*
D03*
Y0630400D02*
D03*
X0174637D02*
D03*
Y0635400D02*
D03*
Y0640400D02*
D03*
Y0645400D02*
D03*
Y0650400D02*
D03*
Y0655400D02*
D03*
Y0660400D02*
D03*
Y0665400D02*
D03*
G54D101*
X0168676Y0598538D02*
D03*
X0166708D02*
D03*
X0164739Y0598538D02*
D03*
Y0600900D02*
D03*
X0166708Y0600900D02*
D03*
G54D102*
X0168676Y0600802D02*
D03*
G54D103*
X0199027Y0599487D02*
D03*
G54D104*
X0198928Y0597518D02*
D03*
Y0595550D02*
D03*
X0201291D02*
D03*
X0201291Y0597518D02*
D03*
Y0599487D02*
D03*
G54D105*
X0157850Y0537294D02*
D03*
Y0539262D02*
D03*
Y0541231D02*
D03*
Y0543199D02*
D03*
X0175369Y0537294D02*
D03*
Y0539262D02*
D03*
Y0541231D02*
D03*
Y0543199D02*
D03*
X0157850Y0545168D02*
D03*
X0175369D02*
D03*
G54D106*
X0224664Y0521639D02*
D03*
X0228404D02*
D03*
X0232144D02*
D03*
Y0532466D02*
D03*
X0228404D02*
D03*
X0224664D02*
D03*
G54D107*
X0113909Y0384695D02*
D03*
X0115877D02*
D03*
X0117846D02*
D03*
X0119814D02*
D03*
X0113909Y0367176D02*
D03*
X0115877D02*
D03*
X0117846D02*
D03*
X0119814D02*
D03*
X0121783Y0384695D02*
D03*
Y0367176D02*
D03*
X0195274Y0547533D02*
D03*
Y0530013D02*
D03*
X0197243Y0547533D02*
D03*
X0199211D02*
D03*
X0201180D02*
D03*
X0203148D02*
D03*
X0197243Y0530013D02*
D03*
X0199211D02*
D03*
X0201180D02*
D03*
X0203148D02*
D03*
G54D108*
X0190489Y0256215D02*
D03*
Y0258774D02*
D03*
Y0261333D02*
D03*
Y0263892D02*
D03*
Y0266451D02*
D03*
Y0269010D02*
D03*
Y0271569D02*
D03*
Y0274128D02*
D03*
X0167655D02*
D03*
Y0271569D02*
D03*
Y0269010D02*
D03*
Y0266451D02*
D03*
Y0263892D02*
D03*
Y0261333D02*
D03*
Y0258774D02*
D03*
Y0256215D02*
D03*
X0231226D02*
D03*
Y0258774D02*
D03*
Y0261333D02*
D03*
Y0263892D02*
D03*
Y0266451D02*
D03*
Y0269010D02*
D03*
Y0271569D02*
D03*
Y0274128D02*
D03*
X0208392D02*
D03*
Y0271569D02*
D03*
Y0269010D02*
D03*
Y0266451D02*
D03*
Y0263892D02*
D03*
Y0261333D02*
D03*
Y0258774D02*
D03*
Y0256215D02*
D03*
G54D109*
X0197948Y0222644D02*
D03*
X0195389D02*
D03*
X0192830D02*
D03*
X0190271D02*
D03*
X0187712D02*
D03*
X0185153D02*
D03*
X0182594D02*
D03*
X0180035D02*
D03*
X0177476D02*
D03*
X0174917D02*
D03*
X0172357D02*
D03*
X0169798D02*
D03*
X0197948Y0199416D02*
D03*
X0195389D02*
D03*
X0192830D02*
D03*
X0190271D02*
D03*
X0187712D02*
D03*
X0185153D02*
D03*
X0182594D02*
D03*
X0180035D02*
D03*
X0177476D02*
D03*
X0174917D02*
D03*
X0172357D02*
D03*
X0169798D02*
D03*
G54D110*
X0241200Y0206597D02*
D03*
X0236200D02*
D03*
X0231200D02*
D03*
X0226200D02*
D03*
X0241200Y0185140D02*
D03*
X0236200D02*
D03*
X0231200D02*
D03*
X0226200D02*
D03*
G54D111*
X0115747Y0662985D02*
D03*
X0117716Y0662985D02*
D03*
X0121653D02*
D03*
X0123621D02*
D03*
Y0666272D02*
D03*
X0121653D02*
D03*
X0117716D02*
D03*
X0115747D02*
D03*
G54D112*
X0119684Y0662985D02*
D03*
Y0666272D02*
D03*
G54D113*
X0189282Y0436361D02*
D03*
X0190674Y0434969D02*
D03*
X0192066Y0433577D02*
D03*
X0193458Y0432185D02*
D03*
X0194850Y0430793D02*
D03*
X0196242Y0429401D02*
D03*
X0197634Y0428009D02*
D03*
X0199025Y0426617D02*
D03*
X0200417Y0425225D02*
D03*
X0201809Y0423834D02*
D03*
X0203201Y0422442D02*
D03*
X0204593Y0421050D02*
D03*
X0205985Y0419658D02*
D03*
X0207377Y0418266D02*
D03*
X0208769Y0416874D02*
D03*
X0210161Y0415482D02*
D03*
X0179118Y0384439D02*
D03*
X0177726Y0385831D02*
D03*
X0176334Y0387223D02*
D03*
X0174942Y0388615D02*
D03*
X0173550Y0390007D02*
D03*
X0172158Y0391399D02*
D03*
X0170766Y0392791D02*
D03*
X0169375Y0394182D02*
D03*
X0167982Y0395574D02*
D03*
X0166591Y0396966D02*
D03*
X0165199Y0398358D02*
D03*
X0163807Y0399750D02*
D03*
X0162415Y0401142D02*
D03*
X0161023Y0402534D02*
D03*
X0159631Y0403926D02*
D03*
X0158239Y0405318D02*
D03*
G54D114*
X0210161D02*
D03*
X0208769Y0403926D02*
D03*
X0207377Y0402534D02*
D03*
X0205985Y0401142D02*
D03*
X0204593Y0399750D02*
D03*
X0203201Y0398358D02*
D03*
X0201809Y0396966D02*
D03*
X0200417Y0395574D02*
D03*
X0199025Y0394182D02*
D03*
X0197634Y0392791D02*
D03*
X0196242Y0391399D02*
D03*
X0194850Y0390007D02*
D03*
X0193458Y0388615D02*
D03*
X0192066Y0387223D02*
D03*
X0190674Y0385831D02*
D03*
X0189282Y0384439D02*
D03*
X0158239Y0415482D02*
D03*
X0159631Y0416874D02*
D03*
X0161023Y0418266D02*
D03*
X0162415Y0419658D02*
D03*
X0163807Y0421050D02*
D03*
X0165199Y0422442D02*
D03*
X0166591Y0423834D02*
D03*
X0167982Y0425225D02*
D03*
X0169375Y0426617D02*
D03*
X0170766Y0428009D02*
D03*
X0172158Y0429401D02*
D03*
X0173550Y0430793D02*
D03*
X0174942Y0432185D02*
D03*
X0176334Y0433577D02*
D03*
X0177726Y0434969D02*
D03*
G54D115*
X0179118Y0436361D02*
D03*
G54D116*
X0090700Y0595172D02*
D03*
G54D117*
X0086861Y0592613D02*
D03*
Y0595172D02*
D03*
Y0597731D02*
D03*
X0094539D02*
D03*
Y0595172D02*
D03*
Y0592613D02*
D03*
G54D118*
X0100501Y0678005D02*
D03*
X0133963D02*
D03*
G54D119*
X0094200Y0695900D02*
D03*
X0140263D02*
D03*
G54D120*
X0105913Y0673558D02*
D03*
X0107881D02*
D03*
X0109850D02*
D03*
X0111818D02*
D03*
X0113787D02*
D03*
X0115755D02*
D03*
X0117724D02*
D03*
X0119692D02*
D03*
X0121661D02*
D03*
X0123629D02*
D03*
X0125598D02*
D03*
X0127566D02*
D03*
G54D121*
X0128550Y0679857D02*
D03*
X0126582D02*
D03*
X0124613D02*
D03*
X0122645D02*
D03*
X0120676D02*
D03*
X0118708D02*
D03*
X0116739D02*
D03*
X0114771D02*
D03*
X0112802D02*
D03*
X0110834D02*
D03*
X0108865D02*
D03*
X0106897D02*
D03*
G54D122*
X0290369Y0665069D02*
D03*
Y0673731D02*
D03*
X0284070Y0665069D02*
D03*
Y0673731D02*
D03*
G54D123*
X0094200Y0555900D02*
D03*
G54D124*
Y0545900D02*
D03*
Y0535900D02*
D03*
Y0525900D02*
D03*
Y0515900D02*
D03*
Y0505900D02*
D03*
Y0495900D02*
D03*
Y0485900D02*
D03*
Y0475900D02*
D03*
Y0465900D02*
D03*
X0104200Y0555900D02*
D03*
Y0545900D02*
D03*
Y0535900D02*
D03*
Y0525900D02*
D03*
Y0515900D02*
D03*
Y0505900D02*
D03*
Y0495900D02*
D03*
Y0485900D02*
D03*
Y0475900D02*
D03*
Y0465900D02*
D03*
X0264200Y0555900D02*
D03*
Y0545900D02*
D03*
Y0535900D02*
D03*
Y0525900D02*
D03*
Y0515900D02*
D03*
Y0505900D02*
D03*
Y0495900D02*
D03*
Y0485900D02*
D03*
Y0475900D02*
D03*
Y0465900D02*
D03*
X0274200Y0555900D02*
D03*
Y0545900D02*
D03*
Y0535900D02*
D03*
Y0525900D02*
D03*
Y0515900D02*
D03*
Y0505900D02*
D03*
Y0495900D02*
D03*
Y0485900D02*
D03*
Y0475900D02*
D03*
Y0465900D02*
D03*
X0094200Y0305900D02*
D03*
Y0295900D02*
D03*
Y0285900D02*
D03*
Y0275900D02*
D03*
Y0265900D02*
D03*
Y0255900D02*
D03*
Y0245900D02*
D03*
Y0235900D02*
D03*
Y0225900D02*
D03*
Y0215900D02*
D03*
X0104200Y0305900D02*
D03*
Y0295900D02*
D03*
Y0285900D02*
D03*
Y0275900D02*
D03*
Y0265900D02*
D03*
Y0255900D02*
D03*
Y0245900D02*
D03*
Y0235900D02*
D03*
Y0225900D02*
D03*
Y0215900D02*
D03*
X0274200D02*
D03*
Y0225900D02*
D03*
Y0235900D02*
D03*
Y0245900D02*
D03*
Y0255900D02*
D03*
Y0265900D02*
D03*
Y0275900D02*
D03*
Y0285900D02*
D03*
Y0295900D02*
D03*
Y0305900D02*
D03*
X0264200Y0215900D02*
D03*
Y0225900D02*
D03*
Y0235900D02*
D03*
Y0245900D02*
D03*
Y0255900D02*
D03*
Y0265900D02*
D03*
Y0275900D02*
D03*
Y0285900D02*
D03*
Y0295900D02*
D03*
Y0305900D02*
D03*
G54D125*
Y0335900D02*
D03*
Y0345900D02*
D03*
Y0355900D02*
D03*
Y0365900D02*
D03*
X0274200Y0335900D02*
D03*
Y0345900D02*
D03*
Y0355900D02*
D03*
Y0365900D02*
D03*
Y0375900D02*
D03*
X0204200Y0163400D02*
D03*
X0194200D02*
D03*
X0184200D02*
D03*
X0174200D02*
D03*
X0144200D02*
D03*
X0134200D02*
D03*
X0124200D02*
D03*
X0114200D02*
D03*
X0244200D02*
D03*
X0234200D02*
D03*
X0094200Y0385900D02*
D03*
X0274200Y0435900D02*
D03*
Y0445900D02*
D03*
X0094200Y0435900D02*
D03*
Y0445900D02*
D03*
X0274200Y0185900D02*
D03*
Y0195900D02*
D03*
X0094200Y0185900D02*
D03*
Y0195900D02*
D03*
G54D126*
X0264200Y0375900D02*
D03*
G54D127*
X0214200Y0163400D02*
D03*
X0154200D02*
D03*
G54D128*
X0254200D02*
D03*
G54D129*
X0094200Y0395900D02*
D03*
X0274200Y0425900D02*
D03*
X0094200D02*
D03*
X0274200Y0175900D02*
D03*
X0094200D02*
D03*
G54D130*
X0201200Y0585900D02*
D03*
X0123200D02*
D03*
G54D131*
X0191200D02*
D03*
X0181200D02*
D03*
X0171200D02*
D03*
X0161200D02*
D03*
X0151200D02*
D03*
X0201200Y0575900D02*
D03*
X0191200D02*
D03*
X0181200D02*
D03*
X0171200D02*
D03*
X0161200D02*
D03*
X0151200D02*
D03*
X0133200D02*
D03*
X0123200D02*
D03*
X0133200Y0585900D02*
D03*
X0104200Y0325900D02*
D03*
Y0335900D02*
D03*
X0094200Y0325900D02*
D03*
G54D132*
Y0335900D02*
D03*
G54D133*
X0079200Y0693400D02*
D03*
X0289200D02*
D03*
X0079200Y0163400D02*
D03*
X0289200D02*
D03*
G54D134*
X0211523Y0439377D02*
D03*
X0154019Y0368348D02*
D03*
X0132519Y0398132D02*
D03*
X0167548Y0248585D02*
D03*
X0168901Y0177361D02*
D03*
X0274168Y0325963D02*
D03*
X0241000Y0213900D02*
D03*
X0225083Y0213786D02*
D03*
G54D135*
X0101503Y0678676D02*
D03*
X0132960D02*
D03*
G54D136*
X0100224Y0676314D02*
D03*
X0134239D02*
D03*
G54D137*
X0094200Y0697180D02*
D03*
X0140263D02*
D03*
G54D138*
X0090700Y0597337D02*
D03*
Y0593006D02*
D03*
M02*
