G04*
G04 #@! TF.GenerationSoftware,Altium Limited,Altium Designer,20.1.14 (287)*
G04*
G04 Layer_Color=128*
%FSAX25Y25*%
%MOIN*%
G70*
G04*
G04 #@! TF.SameCoordinates,A9E8F4E5-7F2A-47C3-BED5-AE4669AA653D*
G04*
G04*
G04 #@! TF.FilePolarity,Positive*
G04*
G01*
G75*
%ADD19C,0.00800*%
%ADD183C,0.00200*%
G54D19*
X0127600Y0073649D02*
Y0067651D01*
X0130599D01*
X0131599Y0068650D01*
Y0072649D01*
X0130599Y0073649D01*
X0127600D01*
X0133598Y0071649D02*
Y0067651D01*
Y0069650D01*
X0134598Y0070650D01*
X0135597Y0071649D01*
X0136597D01*
X0139596Y0067651D02*
X0141595D01*
X0140596D01*
Y0071649D01*
X0139596D01*
X0144595Y0067651D02*
X0146594D01*
X0145594D01*
Y0073649D01*
X0144595D01*
X0149593Y0067651D02*
X0151592D01*
X0150593D01*
Y0073649D01*
X0149593D01*
X0164588Y0072649D02*
X0163588Y0073649D01*
X0161589D01*
X0160589Y0072649D01*
Y0068650D01*
X0161589Y0067651D01*
X0163588D01*
X0164588Y0068650D01*
Y0070650D01*
X0162589D01*
X0166587Y0071649D02*
Y0068650D01*
X0167587Y0067651D01*
X0170586D01*
Y0071649D01*
X0172585Y0067651D02*
X0174585D01*
X0173585D01*
Y0071649D01*
X0172585D01*
X0181582Y0073649D02*
Y0067651D01*
X0178584D01*
X0177584Y0068650D01*
Y0070650D01*
X0178584Y0071649D01*
X0181582D01*
X0186581Y0067651D02*
X0184582D01*
X0183582Y0068650D01*
Y0070650D01*
X0184582Y0071649D01*
X0186581D01*
X0187581Y0070650D01*
Y0069650D01*
X0183582D01*
G54D183*
X0092192Y0555900D02*
X0096208D01*
X0094200Y0553892D02*
Y0557908D01*
X0092192Y0545900D02*
X0096208D01*
X0094200Y0543892D02*
Y0547908D01*
X0092192Y0535900D02*
X0096208D01*
X0094200Y0533892D02*
Y0537908D01*
X0092192Y0525900D02*
X0096208D01*
X0094200Y0523892D02*
Y0527908D01*
X0092192Y0515900D02*
X0096208D01*
X0094200Y0513892D02*
Y0517908D01*
X0092192Y0505900D02*
X0096208D01*
X0094200Y0503892D02*
Y0507908D01*
X0092192Y0495900D02*
X0096208D01*
X0094200Y0493892D02*
Y0497908D01*
X0092192Y0485900D02*
X0096208D01*
X0094200Y0483892D02*
Y0487908D01*
X0092192Y0475900D02*
X0096208D01*
X0094200Y0473892D02*
Y0477908D01*
X0092192Y0465900D02*
X0096208D01*
X0094200Y0463892D02*
Y0467908D01*
X0102192Y0555900D02*
X0106208D01*
X0104200Y0553892D02*
Y0557908D01*
X0102192Y0545900D02*
X0106208D01*
X0104200Y0543892D02*
Y0547908D01*
X0102192Y0535900D02*
X0106208D01*
X0104200Y0533892D02*
Y0537908D01*
X0102192Y0525900D02*
X0106208D01*
X0104200Y0523892D02*
Y0527908D01*
X0102192Y0515900D02*
X0106208D01*
X0104200Y0513892D02*
Y0517908D01*
X0102192Y0505900D02*
X0106208D01*
X0104200Y0503892D02*
Y0507908D01*
X0102192Y0495900D02*
X0106208D01*
X0104200Y0493892D02*
Y0497908D01*
X0102192Y0485900D02*
X0106208D01*
X0104200Y0483892D02*
Y0487908D01*
X0102192Y0475900D02*
X0106208D01*
X0104200Y0473892D02*
Y0477908D01*
X0102192Y0465900D02*
X0106208D01*
X0104200Y0463892D02*
Y0467908D01*
X0262192Y0555900D02*
X0266208D01*
X0264200Y0553892D02*
Y0557908D01*
X0262192Y0545900D02*
X0266208D01*
X0264200Y0543892D02*
Y0547908D01*
X0262192Y0535900D02*
X0266208D01*
X0264200Y0533892D02*
Y0537908D01*
X0262192Y0525900D02*
X0266208D01*
X0264200Y0523892D02*
Y0527908D01*
X0262192Y0515900D02*
X0266208D01*
X0264200Y0513892D02*
Y0517908D01*
X0262192Y0505900D02*
X0266208D01*
X0264200Y0503892D02*
Y0507908D01*
X0262192Y0495900D02*
X0266208D01*
X0264200Y0493892D02*
Y0497908D01*
X0262192Y0485900D02*
X0266208D01*
X0264200Y0483892D02*
Y0487908D01*
X0262192Y0475900D02*
X0266208D01*
X0264200Y0473892D02*
Y0477908D01*
X0262192Y0465900D02*
X0266208D01*
X0264200Y0463892D02*
Y0467908D01*
X0272192Y0555900D02*
X0276208D01*
X0274200Y0553892D02*
Y0557908D01*
X0272192Y0545900D02*
X0276208D01*
X0274200Y0543892D02*
Y0547908D01*
X0272192Y0535900D02*
X0276208D01*
X0274200Y0533892D02*
Y0537908D01*
X0272192Y0525900D02*
X0276208D01*
X0274200Y0523892D02*
Y0527908D01*
X0272192Y0515900D02*
X0276208D01*
X0274200Y0513892D02*
Y0517908D01*
X0272192Y0505900D02*
X0276208D01*
X0274200Y0503892D02*
Y0507908D01*
X0272192Y0495900D02*
X0276208D01*
X0274200Y0493892D02*
Y0497908D01*
X0272192Y0485900D02*
X0276208D01*
X0274200Y0483892D02*
Y0487908D01*
X0272192Y0475900D02*
X0276208D01*
X0274200Y0473892D02*
Y0477908D01*
X0272192Y0465900D02*
X0276208D01*
X0274200Y0463892D02*
Y0467908D01*
X0092192Y0305900D02*
X0096208D01*
X0094200Y0303892D02*
Y0307908D01*
X0092192Y0295900D02*
X0096208D01*
X0094200Y0293892D02*
Y0297908D01*
X0092192Y0285900D02*
X0096208D01*
X0094200Y0283892D02*
Y0287908D01*
X0092192Y0275900D02*
X0096208D01*
X0094200Y0273892D02*
Y0277908D01*
X0092192Y0265900D02*
X0096208D01*
X0094200Y0263892D02*
Y0267908D01*
X0092192Y0255900D02*
X0096208D01*
X0094200Y0253892D02*
Y0257908D01*
X0092192Y0245900D02*
X0096208D01*
X0094200Y0243892D02*
Y0247908D01*
X0092192Y0235900D02*
X0096208D01*
X0094200Y0233892D02*
Y0237908D01*
X0092192Y0225900D02*
X0096208D01*
X0094200Y0223892D02*
Y0227908D01*
X0092192Y0215900D02*
X0096208D01*
X0094200Y0213892D02*
Y0217908D01*
X0102192Y0305900D02*
X0106208D01*
X0104200Y0303892D02*
Y0307908D01*
X0102192Y0295900D02*
X0106208D01*
X0104200Y0293892D02*
Y0297908D01*
X0102192Y0285900D02*
X0106208D01*
X0104200Y0283892D02*
Y0287908D01*
X0102192Y0275900D02*
X0106208D01*
X0104200Y0273892D02*
Y0277908D01*
X0102192Y0265900D02*
X0106208D01*
X0104200Y0263892D02*
Y0267908D01*
X0102192Y0255900D02*
X0106208D01*
X0104200Y0253892D02*
Y0257908D01*
X0102192Y0245900D02*
X0106208D01*
X0104200Y0243892D02*
Y0247908D01*
X0102192Y0235900D02*
X0106208D01*
X0104200Y0233892D02*
Y0237908D01*
X0102192Y0225900D02*
X0106208D01*
X0104200Y0223892D02*
Y0227908D01*
X0102192Y0215900D02*
X0106208D01*
X0104200Y0213892D02*
Y0217908D01*
X0272192Y0215900D02*
X0276208D01*
X0274200Y0213892D02*
Y0217908D01*
X0272192Y0225900D02*
X0276208D01*
X0274200Y0223892D02*
Y0227908D01*
X0272192Y0235900D02*
X0276208D01*
X0274200Y0233892D02*
Y0237908D01*
X0272192Y0245900D02*
X0276208D01*
X0274200Y0243892D02*
Y0247908D01*
X0272192Y0255900D02*
X0276208D01*
X0274200Y0253892D02*
Y0257908D01*
X0272192Y0265900D02*
X0276208D01*
X0274200Y0263892D02*
Y0267908D01*
X0272192Y0275900D02*
X0276208D01*
X0274200Y0273892D02*
Y0277908D01*
X0272192Y0285900D02*
X0276208D01*
X0274200Y0283892D02*
Y0287908D01*
X0272192Y0295900D02*
X0276208D01*
X0274200Y0293892D02*
Y0297908D01*
X0272192Y0305900D02*
X0276208D01*
X0274200Y0303892D02*
Y0307908D01*
X0262192Y0215900D02*
X0266208D01*
X0264200Y0213892D02*
Y0217908D01*
X0262192Y0225900D02*
X0266208D01*
X0264200Y0223892D02*
Y0227908D01*
X0262192Y0235900D02*
X0266208D01*
X0264200Y0233892D02*
Y0237908D01*
X0262192Y0245900D02*
X0266208D01*
X0264200Y0243892D02*
Y0247908D01*
X0262192Y0255900D02*
X0266208D01*
X0264200Y0253892D02*
Y0257908D01*
X0262192Y0265900D02*
X0266208D01*
X0264200Y0263892D02*
Y0267908D01*
X0262192Y0275900D02*
X0266208D01*
X0264200Y0273892D02*
Y0277908D01*
X0262192Y0285900D02*
X0266208D01*
X0264200Y0283892D02*
Y0287908D01*
X0262192Y0295900D02*
X0266208D01*
X0264200Y0293892D02*
Y0297908D01*
X0262192Y0305900D02*
X0266208D01*
X0264200Y0303892D02*
Y0307908D01*
X0261936Y0335900D02*
X0266464D01*
X0264200Y0333636D02*
Y0338164D01*
X0261936Y0345900D02*
X0266464D01*
X0264200Y0343636D02*
Y0348164D01*
X0261936Y0355900D02*
X0266464D01*
X0264200Y0353636D02*
Y0358164D01*
X0261936Y0365900D02*
X0266464D01*
X0264200Y0363636D02*
Y0368164D01*
X0271936Y0335900D02*
X0276464D01*
X0274200Y0333636D02*
Y0338164D01*
X0271936Y0345900D02*
X0276464D01*
X0274200Y0343636D02*
Y0348164D01*
X0271936Y0355900D02*
X0276464D01*
X0274200Y0353636D02*
Y0358164D01*
X0271936Y0365900D02*
X0276464D01*
X0274200Y0363636D02*
Y0368164D01*
X0271936Y0375900D02*
X0276464D01*
X0274200Y0373636D02*
Y0378164D01*
X0261936Y0375900D02*
X0266464D01*
X0264200Y0373636D02*
Y0378164D01*
X0212035Y0163400D02*
X0216365D01*
X0214200Y0161235D02*
Y0165565D01*
X0202035Y0163400D02*
X0206365D01*
X0204200Y0161235D02*
Y0165565D01*
X0192035Y0163400D02*
X0196365D01*
X0194200Y0161235D02*
Y0165565D01*
X0182035Y0163400D02*
X0186365D01*
X0184200Y0161235D02*
Y0165565D01*
X0172035Y0163400D02*
X0176365D01*
X0174200Y0161235D02*
Y0165565D01*
X0152035Y0163400D02*
X0156365D01*
X0154200Y0161235D02*
Y0165565D01*
X0142035Y0163400D02*
X0146365D01*
X0144200Y0161235D02*
Y0165565D01*
X0132035Y0163400D02*
X0136365D01*
X0134200Y0161235D02*
Y0165565D01*
X0122035Y0163400D02*
X0126365D01*
X0124200Y0161235D02*
Y0165565D01*
X0112035Y0163400D02*
X0116365D01*
X0114200Y0161235D02*
Y0165565D01*
X0251936Y0163400D02*
X0256464D01*
X0254200Y0161136D02*
Y0165664D01*
X0241936Y0163400D02*
X0246464D01*
X0244200Y0161136D02*
Y0165664D01*
X0231936Y0163400D02*
X0236464D01*
X0234200Y0161136D02*
Y0165664D01*
X0091936Y0385900D02*
X0096464D01*
X0094200Y0383636D02*
Y0388164D01*
X0091936Y0395900D02*
X0096464D01*
X0094200Y0393636D02*
Y0398164D01*
X0199035Y0585900D02*
X0203365D01*
X0201200Y0583735D02*
Y0588065D01*
X0189035Y0585900D02*
X0193365D01*
X0191200Y0583735D02*
Y0588065D01*
X0179035Y0585900D02*
X0183365D01*
X0181200Y0583735D02*
Y0588065D01*
X0169035Y0585900D02*
X0173365D01*
X0171200Y0583735D02*
Y0588065D01*
X0159035Y0585900D02*
X0163365D01*
X0161200Y0583735D02*
Y0588065D01*
X0149035Y0585900D02*
X0153365D01*
X0151200Y0583735D02*
Y0588065D01*
X0199035Y0575900D02*
X0203365D01*
X0201200Y0573735D02*
Y0578065D01*
X0189035Y0575900D02*
X0193365D01*
X0191200Y0573735D02*
Y0578065D01*
X0179035Y0575900D02*
X0183365D01*
X0181200Y0573735D02*
Y0578065D01*
X0169035Y0575900D02*
X0173365D01*
X0171200Y0573735D02*
Y0578065D01*
X0159035Y0575900D02*
X0163365D01*
X0161200Y0573735D02*
Y0578065D01*
X0149035Y0575900D02*
X0153365D01*
X0151200Y0573735D02*
Y0578065D01*
X0131035Y0575900D02*
X0135365D01*
X0133200Y0573735D02*
Y0578065D01*
X0121035Y0575900D02*
X0125365D01*
X0123200Y0573735D02*
Y0578065D01*
X0131035Y0585900D02*
X0135365D01*
X0133200Y0583735D02*
Y0588065D01*
X0121035Y0585900D02*
X0125365D01*
X0123200Y0583735D02*
Y0588065D01*
X0271936Y0425900D02*
X0276464D01*
X0274200Y0423636D02*
Y0428164D01*
X0271936Y0435900D02*
X0276464D01*
X0274200Y0433636D02*
Y0438164D01*
X0271936Y0445900D02*
X0276464D01*
X0274200Y0443636D02*
Y0448164D01*
X0091936Y0425900D02*
X0096464D01*
X0094200Y0423636D02*
Y0428164D01*
X0091936Y0435900D02*
X0096464D01*
X0094200Y0433636D02*
Y0438164D01*
X0091936Y0445900D02*
X0096464D01*
X0094200Y0443636D02*
Y0448164D01*
X0271936Y0175900D02*
X0276464D01*
X0274200Y0173636D02*
Y0178164D01*
X0271936Y0185900D02*
X0276464D01*
X0274200Y0183636D02*
Y0188164D01*
X0271936Y0195900D02*
X0276464D01*
X0274200Y0193636D02*
Y0198164D01*
X0091936Y0175900D02*
X0096464D01*
X0094200Y0173636D02*
Y0178164D01*
X0091936Y0185900D02*
X0096464D01*
X0094200Y0183636D02*
Y0188164D01*
X0091936Y0195900D02*
X0096464D01*
X0094200Y0193636D02*
Y0198164D01*
X0102035Y0325900D02*
X0106365D01*
X0104200Y0323735D02*
Y0328065D01*
X0102035Y0335900D02*
X0106365D01*
X0104200Y0333735D02*
Y0338065D01*
X0092035Y0325900D02*
X0096365D01*
X0094200Y0323735D02*
Y0328065D01*
X0092035Y0335900D02*
X0096365D01*
X0094200Y0333735D02*
Y0338065D01*
X0072950Y0693400D02*
X0085450D01*
X0079200Y0687150D02*
Y0699650D01*
X0282950Y0693400D02*
X0295450D01*
X0289200Y0687150D02*
Y0699650D01*
X0072950Y0163400D02*
X0085450D01*
X0079200Y0157150D02*
Y0169650D01*
X0282950Y0163400D02*
X0295450D01*
X0289200Y0157150D02*
Y0169650D01*
X0286806Y0576372D02*
X0290350D01*
X0288578Y0574601D02*
Y0578144D01*
X0286806Y0585428D02*
X0290350D01*
X0288578Y0583656D02*
Y0587199D01*
X0210273Y0439377D02*
X0212773D01*
X0211523Y0438127D02*
Y0440627D01*
X0152769Y0368348D02*
X0155270D01*
X0154019Y0367098D02*
Y0369598D01*
X0131269Y0398132D02*
X0133769D01*
X0132519Y0396882D02*
Y0399382D01*
X0166298Y0248585D02*
X0168798D01*
X0167548Y0247335D02*
Y0249835D01*
X0167651Y0177361D02*
X0170151D01*
X0168901Y0176111D02*
Y0178611D01*
X0272919Y0325963D02*
X0275418D01*
X0274168Y0324713D02*
Y0327213D01*
X0239750Y0213900D02*
X0242250D01*
X0241000Y0212650D02*
Y0215150D01*
X0223833Y0213786D02*
X0226333D01*
X0225083Y0212536D02*
Y0215036D01*
X0100125Y0678676D02*
X0102881D01*
X0101503Y0677298D02*
Y0680054D01*
X0131582Y0678676D02*
X0134338D01*
X0132960Y0677298D02*
Y0680054D01*
X0096483Y0676314D02*
X0103964D01*
X0100224Y0672573D02*
Y0680054D01*
X0130499Y0676314D02*
X0137979D01*
X0134239Y0672573D02*
Y0680054D01*
X0091247Y0697180D02*
X0097153D01*
X0094200Y0694227D02*
Y0700132D01*
X0137310Y0697180D02*
X0143216D01*
X0140263Y0694227D02*
Y0700132D01*
X0090306Y0597337D02*
X0091094D01*
X0090700Y0596943D02*
Y0597731D01*
X0090306Y0593006D02*
X0091094D01*
X0090700Y0592613D02*
Y0593400D01*
X0190808Y0393913D02*
X0191792D01*
X0191300Y0393420D02*
Y0394405D01*
X0207752Y0434575D02*
X0208736D01*
X0208244Y0434083D02*
Y0435067D01*
X0264306Y0566983D02*
X0265290D01*
X0264798Y0566491D02*
Y0567475D01*
X0254854Y0570664D02*
X0255838D01*
X0255346Y0570172D02*
Y0571156D01*
X0258212Y0583337D02*
X0259196D01*
X0258704Y0582845D02*
Y0583829D01*
X0263807Y0578300D02*
X0264791D01*
X0264299Y0577808D02*
Y0578792D01*
X0243629Y0567455D02*
X0244613D01*
X0244121Y0566963D02*
Y0567947D01*
X0273883Y0567679D02*
X0274867D01*
X0274375Y0567187D02*
Y0568171D01*
X0256732Y0574542D02*
X0257716D01*
X0257224Y0574050D02*
Y0575034D01*
X0252795Y0574542D02*
X0253779D01*
X0253287Y0574050D02*
Y0575034D01*
X0143147Y0602569D02*
X0144721D01*
X0143934Y0601782D02*
Y0603357D01*
X0211019Y0593189D02*
X0212003D01*
X0211511Y0592697D02*
Y0593681D01*
X0204505Y0599487D02*
X0205489D01*
X0204997Y0598994D02*
Y0599979D01*
X0168137Y0596349D02*
X0169121D01*
X0168629Y0595857D02*
Y0596841D01*
X0166121Y0594211D02*
X0167105D01*
X0166613Y0593719D02*
Y0594703D01*
X0175531Y0595475D02*
X0176515D01*
X0176023Y0594983D02*
Y0595967D01*
X0185476Y0566983D02*
X0186460D01*
X0185968Y0566491D02*
Y0567475D01*
X0200673Y0593786D02*
X0201657D01*
X0201165Y0593294D02*
Y0594278D01*
X0206035Y0591743D02*
X0207019D01*
X0206527Y0591250D02*
Y0592235D01*
X0149330Y0568975D02*
X0150314D01*
X0149822Y0568483D02*
Y0569467D01*
X0163995Y0596412D02*
X0164980D01*
X0164487Y0595920D02*
Y0596904D01*
X0203972Y0565333D02*
X0204956D01*
X0204464Y0564841D02*
Y0565825D01*
X0176424Y0603168D02*
X0177409D01*
X0176917Y0602676D02*
Y0603660D01*
X0185495Y0597924D02*
X0186479D01*
X0185987Y0597432D02*
Y0598416D01*
X0162082Y0600857D02*
X0163066D01*
X0162574Y0600365D02*
Y0601349D01*
X0170708Y0599388D02*
X0171692D01*
X0171200Y0598896D02*
Y0599880D01*
X0164204Y0603065D02*
X0165188D01*
X0164696Y0602573D02*
Y0603557D01*
X0210212Y0587375D02*
X0211197D01*
X0210704Y0586882D02*
Y0587867D01*
X0213302Y0574805D02*
X0214287D01*
X0213794Y0574313D02*
Y0575298D01*
X0216238Y0444975D02*
X0217222D01*
X0216730Y0444483D02*
Y0445467D01*
X0218326Y0433940D02*
X0219310D01*
X0218818Y0433448D02*
Y0434432D01*
X0181578Y0654600D02*
X0182562D01*
X0182070Y0654108D02*
Y0655092D01*
X0181608Y0652500D02*
X0182592D01*
X0182100Y0652008D02*
Y0652992D01*
X0169731Y0660424D02*
X0170716D01*
X0170224Y0659932D02*
Y0660916D01*
X0169653Y0630329D02*
X0170637D01*
X0170145Y0629837D02*
Y0630821D01*
X0129696Y0626691D02*
X0130680D01*
X0130188Y0626199D02*
Y0627183D01*
X0178424Y0630345D02*
X0179409D01*
X0178917Y0629853D02*
Y0630837D01*
X0117259Y0626892D02*
X0118834D01*
X0118046Y0626105D02*
Y0627679D01*
X0177342Y0361589D02*
X0178523D01*
X0177932Y0360998D02*
Y0362179D01*
X0230472Y0673088D02*
X0231456D01*
X0230964Y0672596D02*
Y0673580D01*
X0219267Y0445727D02*
X0220251D01*
X0219759Y0445235D02*
Y0446219D01*
X0236208Y0403302D02*
X0237192D01*
X0236700Y0402809D02*
Y0403794D01*
X0126797Y0413513D02*
X0127781D01*
X0127289Y0413021D02*
Y0414005D01*
X0147037Y0411451D02*
X0148021D01*
X0147529Y0410959D02*
Y0411943D01*
X0132208Y0417054D02*
X0133192D01*
X0132700Y0416562D02*
Y0417547D01*
X0159272Y0354900D02*
X0160256D01*
X0159764Y0354408D02*
Y0355392D01*
X0239708Y0676939D02*
X0240692D01*
X0240200Y0676447D02*
Y0677431D01*
X0228641Y0675719D02*
X0229625D01*
X0229133Y0675227D02*
Y0676211D01*
X0174223Y0361624D02*
X0175405D01*
X0174814Y0361034D02*
Y0362215D01*
X0187941Y0362302D02*
X0189122D01*
X0188531Y0361711D02*
Y0362892D01*
X0130676Y0375899D02*
X0131858D01*
X0131267Y0375309D02*
Y0376490D01*
X0172881Y0502443D02*
X0173865D01*
X0173373Y0501951D02*
Y0502935D01*
X0177259Y0684011D02*
X0178243D01*
X0177751Y0683518D02*
Y0684503D01*
X0280438Y0342802D02*
X0281422D01*
X0280930Y0342309D02*
Y0343294D01*
X0235605Y0386135D02*
X0236589D01*
X0236097Y0385643D02*
Y0386627D01*
X0098275Y0231235D02*
X0099259D01*
X0098767Y0230743D02*
Y0231727D01*
X0115192Y0468542D02*
X0116176D01*
X0115684Y0468050D02*
Y0469034D01*
X0185569Y0524935D02*
X0186554D01*
X0186061Y0524442D02*
Y0525427D01*
X0191559Y0524971D02*
X0192543D01*
X0192051Y0524479D02*
Y0525463D01*
X0259298Y0675368D02*
X0260283D01*
X0259790Y0674876D02*
Y0675861D01*
X0261070Y0699189D02*
X0262054D01*
X0261562Y0698697D02*
Y0699682D01*
X0266287Y0685959D02*
X0267271D01*
X0266779Y0685467D02*
Y0686451D01*
X0246834Y0680329D02*
X0247818D01*
X0247326Y0679837D02*
Y0680821D01*
X0242448Y0672140D02*
X0243432D01*
X0242940Y0671648D02*
Y0672632D01*
X0242251Y0664262D02*
X0243235D01*
X0242743Y0663770D02*
Y0664754D01*
X0245007Y0656589D02*
X0245991D01*
X0245499Y0656097D02*
Y0657081D01*
X0250125Y0665280D02*
X0251109D01*
X0250617Y0664788D02*
Y0665772D01*
X0251857Y0673376D02*
X0252842D01*
X0252350Y0672884D02*
Y0673869D01*
X0274850Y0657461D02*
X0275834D01*
X0275342Y0656969D02*
Y0657953D01*
X0093424Y0351038D02*
X0094999D01*
X0094212Y0350250D02*
Y0351825D01*
X0203235Y0650723D02*
X0204220D01*
X0203728Y0650231D02*
Y0651215D01*
X0271976Y0686392D02*
X0272960D01*
X0272468Y0685900D02*
Y0686884D01*
X0250046Y0658951D02*
X0251031D01*
X0250539Y0658459D02*
Y0659443D01*
X0250046Y0661510D02*
X0251031D01*
X0250539Y0661018D02*
Y0662002D01*
X0214448Y0664065D02*
X0215432D01*
X0214940Y0663573D02*
Y0664558D01*
X0236365Y0693400D02*
X0237350D01*
X0236858Y0692908D02*
Y0693892D01*
X0237940Y0684849D02*
X0238924D01*
X0238432Y0684357D02*
Y0685341D01*
X0234791Y0684849D02*
X0235775D01*
X0235283Y0684357D02*
Y0685341D01*
X0191240Y0636794D02*
X0192224D01*
X0191732Y0636302D02*
Y0637286D01*
X0191240Y0639353D02*
X0192224D01*
X0191732Y0638861D02*
Y0639845D01*
X0212279Y0640290D02*
X0213263D01*
X0212771Y0639798D02*
Y0640782D01*
X0212279Y0643439D02*
X0213263D01*
X0212771Y0642947D02*
Y0643931D01*
X0114846Y0660495D02*
X0115830D01*
X0115338Y0660002D02*
Y0660987D01*
X0117661Y0660546D02*
X0118645D01*
X0118153Y0660053D02*
Y0661038D01*
X0115094Y0670498D02*
X0115881D01*
X0115487Y0670105D02*
Y0670892D01*
X0117543Y0670498D02*
X0118330D01*
X0117936Y0670105D02*
Y0670892D01*
X0119353Y0668384D02*
X0120338D01*
X0119846Y0667892D02*
Y0668876D01*
X0118657Y0677279D02*
X0119444D01*
X0119050Y0676885D02*
Y0677673D01*
X0116267Y0677325D02*
X0117054D01*
X0116661Y0676931D02*
Y0677719D01*
X0160964Y0460959D02*
X0161948D01*
X0161456Y0460467D02*
Y0461451D01*
X0165365Y0478054D02*
X0166350D01*
X0165858Y0477561D02*
Y0478546D01*
X0134220Y0448538D02*
X0135204D01*
X0134712Y0448046D02*
Y0449030D01*
X0140527Y0460857D02*
X0141511D01*
X0141019Y0460365D02*
Y0461349D01*
X0137609Y0471565D02*
X0138791D01*
X0138200Y0470975D02*
Y0472156D01*
X0142295Y0428132D02*
X0143279D01*
X0142787Y0427640D02*
Y0428624D01*
X0140893Y0425349D02*
X0141877D01*
X0141385Y0424857D02*
Y0425841D01*
X0134794Y0418939D02*
X0135779D01*
X0135287Y0418447D02*
Y0419431D01*
X0137275Y0464616D02*
X0138456D01*
X0137865Y0464026D02*
Y0465207D01*
X0144019Y0430042D02*
X0145003D01*
X0144511Y0429550D02*
Y0430534D01*
X0143401Y0475536D02*
X0144385D01*
X0143893Y0475044D02*
Y0476028D01*
X0186287Y0392333D02*
X0187271D01*
X0186779Y0391841D02*
Y0392825D01*
X0194668Y0395357D02*
X0195653D01*
X0195161Y0394865D02*
Y0395849D01*
X0197472Y0398113D02*
X0198456D01*
X0197964Y0397621D02*
Y0398605D01*
X0194668Y0398080D02*
X0195652D01*
X0195160Y0397587D02*
Y0398572D01*
X0186590Y0389168D02*
X0187574D01*
X0187082Y0388676D02*
Y0389660D01*
X0131586Y0459093D02*
X0132570D01*
X0132078Y0458601D02*
Y0459585D01*
X0136472Y0557502D02*
X0137456D01*
X0136964Y0557010D02*
Y0557995D01*
X0113822Y0676758D02*
X0114609D01*
X0114216Y0676365D02*
Y0677152D01*
X0083147Y0593189D02*
X0084722D01*
X0083934Y0592402D02*
Y0593977D01*
X0082570Y0597731D02*
X0084145D01*
X0083358Y0596943D02*
Y0598518D01*
X0150192Y0338246D02*
X0151176D01*
X0150684Y0337754D02*
Y0338739D01*
X0150751Y0305896D02*
X0151735D01*
X0151243Y0305404D02*
Y0306388D01*
X0150399Y0361950D02*
X0151384D01*
X0150892Y0361458D02*
Y0362442D01*
X0103389Y0178569D02*
X0104373D01*
X0103881Y0178077D02*
Y0179061D01*
X0108306Y0230853D02*
X0109291D01*
X0108798Y0230361D02*
Y0231345D01*
X0110373Y0220227D02*
X0111357D01*
X0110865Y0219735D02*
Y0220719D01*
X0144176Y0215207D02*
X0145161D01*
X0144668Y0214715D02*
Y0215699D01*
X0145798Y0221849D02*
X0146783D01*
X0146291Y0221357D02*
Y0222341D01*
X0109893Y0241172D02*
X0110877D01*
X0110385Y0240680D02*
Y0241664D01*
X0144495Y0230967D02*
X0145480D01*
X0144987Y0230475D02*
Y0231459D01*
X0124058Y0244372D02*
X0125042D01*
X0124550Y0243880D02*
Y0244865D01*
X0142775Y0248939D02*
X0143759D01*
X0143267Y0248447D02*
Y0249431D01*
X0109846Y0248376D02*
X0110830D01*
X0110338Y0247884D02*
Y0248868D01*
X0114039Y0254128D02*
X0115023D01*
X0114531Y0253636D02*
Y0254621D01*
X0111283Y0261077D02*
X0112267D01*
X0111775Y0260585D02*
Y0261569D01*
X0111503Y0270998D02*
X0112487D01*
X0111995Y0270506D02*
Y0271491D01*
X0087578Y0270227D02*
X0088562D01*
X0088070Y0269735D02*
Y0270719D01*
X0087468Y0281140D02*
X0088452D01*
X0087960Y0280648D02*
Y0281632D01*
X0108826Y0280687D02*
X0109810D01*
X0109318Y0280195D02*
Y0281179D01*
X0127420Y0269806D02*
X0128405D01*
X0127913Y0269313D02*
Y0270298D01*
X0127306Y0278235D02*
X0128291D01*
X0127798Y0277743D02*
Y0278727D01*
X0258361Y0441959D02*
X0259346D01*
X0258854Y0441467D02*
Y0442451D01*
X0249129Y0371101D02*
X0250113D01*
X0249621Y0370609D02*
Y0371593D01*
X0237739Y0360136D02*
X0238724D01*
X0238231Y0359644D02*
Y0360628D01*
X0247609Y0361069D02*
X0248594D01*
X0248102Y0360577D02*
Y0361561D01*
X0255145Y0496246D02*
X0256129D01*
X0255637Y0495754D02*
Y0496739D01*
X0259558Y0530829D02*
X0260542D01*
X0260050Y0530337D02*
Y0531321D01*
X0258724Y0540309D02*
X0259708D01*
X0259216Y0539817D02*
Y0540802D01*
X0242267Y0523388D02*
X0243251D01*
X0242759Y0522896D02*
Y0523880D01*
X0241940Y0496487D02*
X0242924D01*
X0242432Y0495995D02*
Y0496979D01*
X0240909Y0476451D02*
X0241893D01*
X0241401Y0475959D02*
Y0476943D01*
X0253424Y0520416D02*
X0254409D01*
X0253917Y0519924D02*
Y0520908D01*
X0255468Y0507955D02*
X0256452D01*
X0255960Y0507463D02*
Y0508447D01*
X0255275Y0503506D02*
X0256259D01*
X0255767Y0503014D02*
Y0503998D01*
X0251842Y0527947D02*
X0252826D01*
X0252334Y0527455D02*
Y0528439D01*
X0250633Y0537522D02*
X0251617D01*
X0251125Y0537030D02*
Y0538014D01*
X0184204Y0488357D02*
X0185188D01*
X0184696Y0487865D02*
Y0488849D01*
X0182771Y0478006D02*
X0183755D01*
X0183263Y0477514D02*
Y0478498D01*
X0258212Y0488313D02*
X0259196D01*
X0258704Y0487821D02*
Y0488805D01*
X0226326Y0488416D02*
X0227310D01*
X0226818Y0487924D02*
Y0488908D01*
X0257428Y0468325D02*
X0258413D01*
X0257921Y0467833D02*
Y0468817D01*
X0256157Y0463758D02*
X0257141D01*
X0256649Y0463266D02*
Y0464250D01*
X0184810Y0449959D02*
X0185794D01*
X0185302Y0449467D02*
Y0450451D01*
X0230889Y0277542D02*
X0231873D01*
X0231381Y0277050D02*
Y0278034D01*
X0212905Y0265014D02*
X0213889D01*
X0213397Y0264522D02*
Y0265506D01*
X0215283Y0208782D02*
X0216267D01*
X0215775Y0208290D02*
Y0209274D01*
X0256932Y0482932D02*
X0257916D01*
X0257424Y0482439D02*
Y0483424D01*
X0255247Y0459636D02*
X0256231D01*
X0255739Y0459144D02*
Y0460128D01*
X0232125Y0459321D02*
X0233109D01*
X0232617Y0458829D02*
Y0459813D01*
X0211873Y0459617D02*
X0212858D01*
X0212365Y0459124D02*
Y0460109D01*
X0249629Y0606424D02*
X0250613D01*
X0250121Y0605932D02*
Y0606916D01*
X0249539Y0594841D02*
X0250523D01*
X0250031Y0594349D02*
Y0595333D01*
X0286539Y0520876D02*
X0287523D01*
X0287031Y0520384D02*
Y0521369D01*
X0292617Y0495790D02*
X0293602D01*
X0293109Y0495298D02*
Y0496282D01*
X0286027Y0252691D02*
X0287011D01*
X0286519Y0252199D02*
Y0253184D01*
X0280586Y0222455D02*
X0281570D01*
X0281078Y0221963D02*
Y0222947D01*
X0260003Y0184829D02*
X0260987D01*
X0260495Y0184337D02*
Y0185321D01*
X0252570Y0222329D02*
X0253554D01*
X0253062Y0221837D02*
Y0222821D01*
X0231936Y0229207D02*
X0232921D01*
X0232428Y0228715D02*
Y0229699D01*
X0155893Y0265833D02*
X0156877D01*
X0156385Y0265341D02*
Y0266325D01*
X0167605Y0278912D02*
X0168590D01*
X0168098Y0278420D02*
Y0279404D01*
X0197129Y0289128D02*
X0198113D01*
X0197621Y0288636D02*
Y0289620D01*
X0203027Y0337707D02*
X0204011D01*
X0203519Y0337215D02*
Y0338199D01*
X0107129Y0443345D02*
X0108113D01*
X0107621Y0442853D02*
Y0443837D01*
X0128350Y0439569D02*
X0129334D01*
X0128842Y0439077D02*
Y0440061D01*
X0109511Y0480699D02*
X0110495D01*
X0110003Y0480207D02*
Y0481191D01*
X0129365Y0475593D02*
X0130350D01*
X0129858Y0475101D02*
Y0476085D01*
X0159775Y0515691D02*
X0160759D01*
X0160267Y0515199D02*
Y0516184D01*
X0134913Y0491247D02*
X0135897D01*
X0135405Y0490754D02*
Y0491739D01*
X0112547Y0497896D02*
X0113531D01*
X0113039Y0497404D02*
Y0498388D01*
X0134747Y0500892D02*
X0135731D01*
X0135239Y0500400D02*
Y0501384D01*
X0115873Y0502884D02*
X0116858D01*
X0116365Y0502392D02*
Y0503376D01*
X0114208Y0510368D02*
X0115192D01*
X0114700Y0509876D02*
Y0510861D01*
X0129590Y0510286D02*
X0130574D01*
X0130082Y0509794D02*
Y0510778D01*
X0129842Y0517935D02*
X0130826D01*
X0130334Y0517443D02*
Y0518428D01*
X0126602Y0534569D02*
X0127586D01*
X0127094Y0534077D02*
Y0535061D01*
X0112436Y0532932D02*
X0113420D01*
X0112928Y0532439D02*
Y0533424D01*
X0169149Y0541140D02*
X0170133D01*
X0169641Y0540648D02*
Y0541632D01*
X0176129Y0673152D02*
X0177113D01*
X0176621Y0672660D02*
Y0673644D01*
X0278999Y0698632D02*
X0279983D01*
X0279491Y0698140D02*
Y0699124D01*
X0240728Y0698313D02*
X0241712D01*
X0241220Y0697821D02*
Y0698806D01*
X0213031Y0697699D02*
X0214015D01*
X0213523Y0697207D02*
Y0698191D01*
X0201602Y0681235D02*
X0202586D01*
X0202094Y0680743D02*
Y0681727D01*
X0161732Y0627022D02*
X0162716D01*
X0162224Y0626530D02*
Y0627514D01*
X0163920Y0643140D02*
X0164905D01*
X0164413Y0642648D02*
Y0643632D01*
X0163728Y0658857D02*
X0164712D01*
X0164220Y0658365D02*
Y0659349D01*
X0163728Y0677451D02*
X0164712D01*
X0164220Y0676959D02*
Y0677943D01*
X0162960Y0698152D02*
X0163944D01*
X0163452Y0697660D02*
Y0698644D01*
X0126787Y0592506D02*
X0127771D01*
X0127279Y0592014D02*
Y0592998D01*
X0084220Y0627337D02*
X0085204D01*
X0084712Y0626845D02*
Y0627829D01*
X0084676Y0645124D02*
X0085661D01*
X0085168Y0644632D02*
Y0645616D01*
X0132369Y0670120D02*
X0133353D01*
X0132861Y0669628D02*
Y0670613D01*
X0120558Y0652000D02*
X0121542D01*
X0121050Y0651508D02*
Y0652492D01*
X0125291Y0643810D02*
X0126275D01*
X0125783Y0643317D02*
Y0644302D01*
X0076157Y0652306D02*
X0077141D01*
X0076649Y0651813D02*
Y0652798D01*
X0095011Y0639042D02*
X0095995D01*
X0095503Y0638550D02*
Y0639534D01*
X0102594Y0636172D02*
X0103578D01*
X0103086Y0635679D02*
Y0636664D01*
X0103511Y0644790D02*
X0104495D01*
X0104003Y0644298D02*
Y0645282D01*
X0103283Y0651223D02*
X0104267D01*
X0103775Y0650731D02*
Y0651715D01*
X0073527Y0640652D02*
X0074511D01*
X0074019Y0640160D02*
Y0641144D01*
X0083979Y0657656D02*
X0084964D01*
X0084472Y0657164D02*
Y0658148D01*
X0093747Y0662939D02*
X0094731D01*
X0094239Y0662447D02*
Y0663432D01*
X0088692Y0668802D02*
X0089676D01*
X0089184Y0668309D02*
Y0669294D01*
X0073295Y0662711D02*
X0074279D01*
X0073787Y0662219D02*
Y0663203D01*
X0073295Y0682932D02*
X0074279D01*
X0073787Y0682439D02*
Y0683424D01*
X0087082Y0698786D02*
X0088066D01*
X0087574Y0698294D02*
Y0699278D01*
X0143149Y0680061D02*
X0144133D01*
X0143641Y0679569D02*
Y0680553D01*
X0142751Y0657258D02*
X0143735D01*
X0143243Y0656766D02*
Y0657750D01*
X0143066Y0671463D02*
X0144050D01*
X0143558Y0670971D02*
Y0671955D01*
X0142960Y0644412D02*
X0143944D01*
X0143452Y0643920D02*
Y0644904D01*
X0142909Y0626794D02*
X0143893D01*
X0143401Y0626302D02*
Y0627286D01*
X0168865Y0372420D02*
X0169850D01*
X0169358Y0371928D02*
Y0372912D01*
X0223220Y0427687D02*
X0224204D01*
X0223712Y0427195D02*
Y0428180D01*
X0214885Y0427635D02*
X0215869D01*
X0215377Y0427142D02*
Y0428127D01*
X0217669Y0424851D02*
X0218653D01*
X0218161Y0424359D02*
Y0425343D01*
X0225027Y0429514D02*
X0226011D01*
X0225519Y0429022D02*
Y0430006D01*
X0210828Y0431674D02*
X0211812D01*
X0211320Y0431182D02*
Y0432166D01*
X0217459Y0427473D02*
X0218443D01*
X0217951Y0426981D02*
Y0427965D01*
X0207137Y0381132D02*
X0208121D01*
X0207629Y0380640D02*
Y0381624D01*
X0172070Y0365396D02*
X0173054D01*
X0172562Y0364903D02*
Y0365888D01*
X0157413Y0493620D02*
X0158397D01*
X0157905Y0493128D02*
Y0494113D01*
X0152460Y0505998D02*
X0153444D01*
X0152952Y0505506D02*
Y0506491D01*
X0149574Y0519613D02*
X0150558D01*
X0150066Y0519121D02*
Y0520105D01*
X0157137Y0528963D02*
X0158121D01*
X0157629Y0528471D02*
Y0529455D01*
X0143523Y0538451D02*
X0144507D01*
X0144015Y0537959D02*
Y0538943D01*
X0170200Y0493345D02*
X0171184D01*
X0170692Y0492853D02*
Y0493837D01*
X0170200Y0526211D02*
X0171184D01*
X0170692Y0525719D02*
Y0526703D01*
X0188678Y0530487D02*
X0189662D01*
X0189170Y0529994D02*
Y0530979D01*
X0208295Y0528687D02*
X0209279D01*
X0208787Y0528195D02*
Y0529179D01*
X0188432Y0548002D02*
X0189417D01*
X0188924Y0547510D02*
Y0548494D01*
X0172861Y0550050D02*
X0173846D01*
X0173354Y0549557D02*
Y0550542D01*
X0156157Y0549821D02*
X0157141D01*
X0156649Y0549329D02*
Y0550313D01*
X0133330Y0550676D02*
X0134314D01*
X0133822Y0550183D02*
Y0551168D01*
X0110806Y0549935D02*
X0111791D01*
X0111298Y0549443D02*
Y0550427D01*
X0157747Y0556983D02*
X0158731D01*
X0158239Y0556491D02*
Y0557475D01*
X0291944Y0683880D02*
X0292928D01*
X0292436Y0683388D02*
Y0684372D01*
X0215767Y0682581D02*
X0216751D01*
X0216259Y0682089D02*
Y0683073D01*
X0229495Y0665065D02*
X0230480D01*
X0229987Y0664573D02*
Y0665557D01*
X0245924Y0683735D02*
X0246909D01*
X0246416Y0683243D02*
Y0684227D01*
X0280015Y0605361D02*
X0280999D01*
X0280507Y0604869D02*
Y0605853D01*
X0273476Y0619920D02*
X0274460D01*
X0273968Y0619428D02*
Y0620412D01*
X0190834Y0629931D02*
X0191818D01*
X0191326Y0629439D02*
Y0630424D01*
X0196932Y0656522D02*
X0197916D01*
X0197424Y0656030D02*
Y0657014D01*
X0188508Y0668868D02*
X0189492D01*
X0189000Y0668376D02*
Y0669361D01*
X0195007Y0646073D02*
X0195991D01*
X0195499Y0645581D02*
Y0646565D01*
X0199338Y0633990D02*
X0200322D01*
X0199830Y0633498D02*
Y0634483D01*
X0290842Y0656176D02*
X0291826D01*
X0291334Y0655684D02*
Y0656668D01*
X0259062Y0646668D02*
X0260047D01*
X0259554Y0646176D02*
Y0647160D01*
X0250519Y0650526D02*
X0251503D01*
X0251011Y0650034D02*
Y0651018D01*
X0230086Y0648558D02*
X0231070D01*
X0230578Y0648065D02*
Y0649050D01*
X0242279Y0651105D02*
X0243263D01*
X0242771Y0650613D02*
Y0651597D01*
X0227960Y0656235D02*
X0228944D01*
X0228452Y0655743D02*
Y0656727D01*
X0240448Y0642943D02*
X0241432D01*
X0240940Y0642451D02*
Y0643435D01*
X0226936Y0638014D02*
X0227921D01*
X0227428Y0637522D02*
Y0638506D01*
X0214850Y0649502D02*
X0215834D01*
X0215342Y0649010D02*
Y0649995D01*
X0073228Y0548628D02*
X0074212D01*
X0073720Y0548136D02*
Y0549121D01*
X0072338Y0528121D02*
X0073322D01*
X0072830Y0527628D02*
Y0528613D01*
X0073610Y0493546D02*
X0074594D01*
X0074102Y0493053D02*
Y0494038D01*
X0072133Y0458475D02*
X0073117D01*
X0072625Y0457983D02*
Y0458967D01*
X0105909Y0424514D02*
X0106893D01*
X0106401Y0424022D02*
Y0425006D01*
X0106464Y0452939D02*
X0107448D01*
X0106956Y0452447D02*
Y0453432D01*
X0126456Y0325735D02*
X0127440D01*
X0126948Y0325242D02*
Y0326227D01*
X0176204Y0322951D02*
X0177188D01*
X0176696Y0322459D02*
Y0323443D01*
X0183633Y0336093D02*
X0184617D01*
X0184125Y0335601D02*
Y0336585D01*
X0167980Y0336207D02*
X0168964D01*
X0168472Y0335715D02*
Y0336699D01*
X0215070Y0229825D02*
X0216054D01*
X0215562Y0229333D02*
Y0230317D01*
X0242184Y0246365D02*
X0243168D01*
X0242676Y0245872D02*
Y0246857D01*
X0227342Y0246116D02*
X0228326D01*
X0227834Y0245624D02*
Y0246609D01*
X0219267Y0258231D02*
X0220251D01*
X0219759Y0257739D02*
Y0258723D01*
X0225420Y0288010D02*
X0226405D01*
X0225913Y0287518D02*
Y0288502D01*
X0212751Y0299581D02*
X0213735D01*
X0213243Y0299089D02*
Y0300073D01*
X0218456Y0315742D02*
X0219440D01*
X0218948Y0315250D02*
Y0316235D01*
X0208235Y0281514D02*
X0209220D01*
X0208728Y0281022D02*
Y0282006D01*
X0196826Y0301483D02*
X0197810D01*
X0197318Y0300991D02*
Y0301975D01*
X0114342Y0314085D02*
X0115326D01*
X0114834Y0313593D02*
Y0314577D01*
X0126393Y0312904D02*
X0127377D01*
X0126885Y0312412D02*
Y0313396D01*
X0112350Y0341912D02*
X0113334D01*
X0112842Y0341420D02*
Y0342404D01*
X0128141Y0345243D02*
X0129125D01*
X0128633Y0344750D02*
Y0345735D01*
X0097763Y0359077D02*
X0098747D01*
X0098255Y0358585D02*
Y0359569D01*
X0072503Y0367443D02*
X0073487D01*
X0072995Y0366951D02*
Y0367935D01*
X0073149Y0402038D02*
X0074133D01*
X0073641Y0401546D02*
Y0402530D01*
X0101787Y0378546D02*
X0102771D01*
X0102279Y0378053D02*
Y0379038D01*
X0115625Y0376455D02*
X0116609D01*
X0116117Y0375963D02*
Y0376947D01*
X0128562Y0369975D02*
X0129546D01*
X0129054Y0369483D02*
Y0370467D01*
X0128204Y0421809D02*
X0129188D01*
X0128696Y0421317D02*
Y0422302D01*
X0129621Y0454148D02*
X0130605D01*
X0130113Y0453656D02*
Y0454640D01*
X0247881Y0422699D02*
X0248865D01*
X0248373Y0422207D02*
Y0423191D01*
X0241692Y0402727D02*
X0242676D01*
X0242184Y0402235D02*
Y0403219D01*
X0230542Y0470097D02*
X0231527D01*
X0231035Y0469605D02*
Y0470589D01*
X0225448Y0480711D02*
X0226432D01*
X0225940Y0480219D02*
Y0481203D01*
X0212428Y0479581D02*
X0213413D01*
X0212920Y0479089D02*
Y0480073D01*
X0179709Y0505900D02*
X0180693D01*
X0180201Y0505408D02*
Y0506392D01*
X0233369Y0495471D02*
X0234353D01*
X0233861Y0494979D02*
Y0495963D01*
X0213846Y0495861D02*
X0214830D01*
X0214338Y0495368D02*
Y0496353D01*
X0230350Y0508786D02*
X0231334D01*
X0230842Y0508294D02*
Y0509278D01*
X0222058Y0508613D02*
X0223042D01*
X0222550Y0508120D02*
Y0509105D01*
X0227078Y0555278D02*
X0228062D01*
X0227570Y0554786D02*
Y0555770D01*
X0221535Y0565054D02*
X0222519D01*
X0222027Y0564561D02*
Y0565546D01*
X0210535Y0552798D02*
X0211519D01*
X0211027Y0552306D02*
Y0553290D01*
X0227078Y0579258D02*
X0228062D01*
X0227570Y0578766D02*
Y0579750D01*
X0237920Y0557900D02*
X0238905D01*
X0238413Y0557408D02*
Y0558392D01*
X0235314Y0569187D02*
X0236298D01*
X0235806Y0568695D02*
Y0569679D01*
X0271121Y0584396D02*
X0272105D01*
X0271613Y0583904D02*
Y0584888D01*
X0290861Y0637731D02*
X0291846D01*
X0291354Y0637239D02*
Y0638223D01*
X0290861Y0618136D02*
X0291846D01*
X0291354Y0617644D02*
Y0618628D01*
X0292027Y0548026D02*
X0293011D01*
X0292519Y0547534D02*
Y0548518D01*
X0294692Y0527589D02*
X0295676D01*
X0295184Y0527097D02*
Y0528081D01*
X0294184Y0471684D02*
X0295168D01*
X0294676Y0471191D02*
Y0472176D01*
X0295046Y0402435D02*
X0296031D01*
X0295539Y0401943D02*
Y0402928D01*
X0264586Y0329069D02*
X0265570D01*
X0265078Y0328577D02*
Y0329561D01*
X0293661Y0377943D02*
X0294645D01*
X0294153Y0377451D02*
Y0378435D01*
X0294381Y0350479D02*
X0295365D01*
X0294873Y0349987D02*
Y0350971D01*
X0294609Y0324865D02*
X0295594D01*
X0295102Y0324372D02*
Y0325357D01*
X0256062Y0274510D02*
X0257047D01*
X0256554Y0274018D02*
Y0275002D01*
X0254602Y0291644D02*
X0255586D01*
X0255094Y0291152D02*
Y0292136D01*
X0294350Y0296506D02*
X0295334D01*
X0294842Y0296014D02*
Y0296998D01*
X0293877Y0267900D02*
X0294861D01*
X0294369Y0267408D02*
Y0268392D01*
X0294416Y0240542D02*
X0295401D01*
X0294909Y0240050D02*
Y0241034D01*
X0294409Y0222030D02*
X0295393D01*
X0294901Y0221538D02*
Y0222522D01*
X0294476Y0203207D02*
X0295460D01*
X0294968Y0202715D02*
Y0203699D01*
X0278893Y0206022D02*
X0279877D01*
X0279385Y0205530D02*
Y0206514D01*
X0261334Y0204534D02*
X0262318D01*
X0261826Y0204042D02*
Y0205026D01*
X0264810Y0191817D02*
X0265794D01*
X0265302Y0191325D02*
Y0192309D01*
X0250535Y0193376D02*
X0251519D01*
X0251027Y0192884D02*
Y0193869D01*
X0245858Y0177782D02*
X0246842D01*
X0246350Y0177290D02*
Y0178274D01*
X0248023Y0208585D02*
X0249007D01*
X0248515Y0208093D02*
Y0209077D01*
X0238393Y0196077D02*
X0239377D01*
X0238885Y0195585D02*
Y0196569D01*
X0232444Y0202227D02*
X0233428D01*
X0232936Y0201735D02*
Y0202719D01*
X0220747Y0195187D02*
X0221731D01*
X0221239Y0194695D02*
Y0195679D01*
X0221342Y0204506D02*
X0222326D01*
X0221834Y0204014D02*
Y0204998D01*
X0201810Y0201431D02*
X0202795D01*
X0202302Y0200939D02*
Y0201924D01*
X0210436Y0196077D02*
X0211420D01*
X0210928Y0195585D02*
Y0196569D01*
X0185791Y0180412D02*
X0186775D01*
X0186283Y0179920D02*
Y0180904D01*
X0164499Y0184054D02*
X0165483D01*
X0164991Y0183561D02*
Y0184546D01*
X0183665Y0187912D02*
X0184649D01*
X0184157Y0187420D02*
Y0188404D01*
X0181369Y0205861D02*
X0182353D01*
X0181861Y0205368D02*
Y0206353D01*
X0184503Y0215585D02*
X0185487D01*
X0184995Y0215093D02*
Y0216077D01*
X0171487Y0208687D02*
X0172472D01*
X0171979Y0208195D02*
Y0209179D01*
X0174775Y0234502D02*
X0175759D01*
X0175267Y0234010D02*
Y0234995D01*
X0161806Y0234719D02*
X0162791D01*
X0162298Y0234227D02*
Y0235211D01*
X0162885Y0224451D02*
X0163869D01*
X0163377Y0223959D02*
Y0224943D01*
X0159074Y0208817D02*
X0160058D01*
X0159566Y0208325D02*
Y0209309D01*
X0160385Y0199857D02*
X0161369D01*
X0160877Y0199365D02*
Y0200349D01*
X0135708Y0200290D02*
X0136692D01*
X0136200Y0199798D02*
Y0200782D01*
X0118251Y0185849D02*
X0119235D01*
X0118743Y0185357D02*
Y0186341D01*
X0116637Y0200290D02*
X0117621D01*
X0117129Y0199798D02*
Y0200782D01*
X0102842Y0192746D02*
X0103826D01*
X0103334Y0192254D02*
Y0193239D01*
X0261909Y0171506D02*
X0262893D01*
X0262401Y0171014D02*
Y0171998D01*
X0263708Y0162197D02*
X0264692D01*
X0264200Y0161705D02*
Y0162689D01*
X0223531Y0158164D02*
X0224515D01*
X0224023Y0157672D02*
Y0158656D01*
X0160196Y0157424D02*
X0161180D01*
X0160688Y0156931D02*
Y0157916D01*
X0089090Y0168443D02*
X0090074D01*
X0089582Y0167951D02*
Y0168935D01*
X0103708Y0163526D02*
X0104692D01*
X0104200Y0163034D02*
Y0164018D01*
X0073708Y0181600D02*
X0074692D01*
X0074200Y0181108D02*
Y0182092D01*
X0073436Y0205302D02*
X0074420D01*
X0073928Y0204809D02*
Y0205794D01*
X0073924Y0229790D02*
X0074909D01*
X0074417Y0229298D02*
Y0230282D01*
X0073680Y0257459D02*
X0074665D01*
X0074172Y0256967D02*
Y0257951D01*
X0073680Y0275821D02*
X0074665D01*
X0074172Y0275329D02*
Y0276313D01*
X0073192Y0294924D02*
X0074176D01*
X0073684Y0294431D02*
Y0295416D01*
X0073436Y0318920D02*
X0074420D01*
X0073928Y0318428D02*
Y0319412D01*
X0073924Y0340223D02*
X0074909D01*
X0074417Y0339731D02*
Y0340715D01*
X0250909Y0302723D02*
X0251893D01*
X0251401Y0302231D02*
Y0303215D01*
X0250818Y0312191D02*
X0251802D01*
X0251310Y0311699D02*
Y0312684D01*
X0248940Y0310113D02*
X0249924D01*
X0249432Y0309620D02*
Y0310605D01*
X0248535Y0300664D02*
X0249519D01*
X0249027Y0300172D02*
Y0301156D01*
X0077172Y0592258D02*
X0078157D01*
X0077665Y0591766D02*
Y0592750D01*
X0244228Y0588546D02*
X0245212D01*
X0244720Y0588054D02*
Y0589038D01*
X0239228Y0588546D02*
X0240212D01*
X0239720Y0588054D02*
Y0589038D01*
X0234228Y0588546D02*
X0235212D01*
X0234720Y0588054D02*
Y0589038D01*
X0224228Y0588546D02*
X0225212D01*
X0224720Y0588054D02*
Y0589038D01*
X0219251Y0588522D02*
X0220235D01*
X0219743Y0588030D02*
Y0589014D01*
X0134291Y0410355D02*
X0135275D01*
X0134783Y0409863D02*
Y0410847D01*
X0248507Y0560746D02*
X0249491D01*
X0248999Y0560254D02*
Y0561239D01*
X0248507Y0550140D02*
X0249491D01*
X0248999Y0549648D02*
Y0550632D01*
X0198704Y0525963D02*
X0199688D01*
X0199196Y0525471D02*
Y0526455D01*
X0153307Y0541246D02*
X0154291D01*
X0153799Y0540754D02*
Y0541738D01*
X0254248Y0613133D02*
X0255232D01*
X0254740Y0612641D02*
Y0613625D01*
X0291089Y0598494D02*
X0292073D01*
X0291581Y0598001D02*
Y0598986D01*
X0291129Y0590211D02*
X0292113D01*
X0291621Y0589719D02*
Y0590703D01*
X0291059Y0563180D02*
X0292043D01*
X0291551Y0562688D02*
Y0563672D01*
X0287583Y0567679D02*
X0288567D01*
X0288075Y0567187D02*
Y0568171D01*
X0279874Y0572872D02*
X0280858D01*
X0280366Y0572380D02*
Y0573364D01*
X0283886Y0569176D02*
X0284870D01*
X0284378Y0568684D02*
Y0569668D01*
X0079519Y0589912D02*
X0080503D01*
X0080011Y0589420D02*
Y0590404D01*
X0091457Y0571822D02*
X0092441D01*
X0091949Y0571330D02*
Y0572314D01*
X0088067Y0575344D02*
X0089052D01*
X0088559Y0574852D02*
Y0575836D01*
X0204306Y0499317D02*
X0205291D01*
X0204798Y0498825D02*
Y0499809D01*
X0189739Y0499317D02*
X0190724D01*
X0190232Y0498825D02*
Y0499809D01*
X0177263Y0267510D02*
X0178247D01*
X0177755Y0267018D02*
Y0268002D01*
X0177090Y0256534D02*
X0178074D01*
X0177582Y0256042D02*
Y0257026D01*
X0177090Y0247699D02*
X0178074D01*
X0177582Y0247207D02*
Y0248191D01*
X0189700Y0279691D02*
X0190684D01*
X0190192Y0279199D02*
Y0280184D01*
X0183830Y0425880D02*
X0184814D01*
X0184322Y0425388D02*
Y0426372D01*
X0192858Y0413845D02*
X0193842D01*
X0193350Y0413353D02*
Y0414337D01*
X0185440Y0411884D02*
X0186424D01*
X0185932Y0411392D02*
Y0412376D01*
X0192228Y0403841D02*
X0193212D01*
X0192720Y0403349D02*
Y0404333D01*
X0198873Y0409928D02*
X0199857D01*
X0199365Y0409435D02*
Y0410420D01*
X0178373Y0420353D02*
X0179358D01*
X0178865Y0419861D02*
Y0420845D01*
X0190058Y0420912D02*
X0191042D01*
X0190550Y0420420D02*
Y0421404D01*
X0182921Y0390315D02*
X0183905D01*
X0183413Y0389823D02*
Y0390807D01*
X0207023Y0482113D02*
X0208007D01*
X0207515Y0481621D02*
Y0482605D01*
X0204176Y0668636D02*
X0205161D01*
X0204668Y0668144D02*
Y0669128D01*
X0204176Y0657613D02*
X0205161D01*
X0204668Y0657121D02*
Y0658105D01*
X0248964Y0623849D02*
X0249948D01*
X0249456Y0623357D02*
Y0624341D01*
X0263605Y0623632D02*
X0264590D01*
X0264098Y0623140D02*
Y0624124D01*
X0264924Y0655947D02*
X0265909D01*
X0265417Y0655455D02*
Y0656439D01*
X0253688Y0632321D02*
X0254672D01*
X0254180Y0631829D02*
Y0632813D01*
X0263137Y0632321D02*
X0264121D01*
X0263629Y0631829D02*
Y0632813D01*
X0264806Y0635565D02*
X0265791D01*
X0265298Y0635073D02*
Y0636058D01*
X0270161Y0631892D02*
X0271145D01*
X0270653Y0631400D02*
Y0632384D01*
X0251763Y0616353D02*
X0252747D01*
X0252255Y0615861D02*
Y0616845D01*
X0280960Y0651624D02*
X0281944D01*
X0281452Y0651132D02*
Y0652116D01*
X0277976Y0654518D02*
X0278960D01*
X0278468Y0654026D02*
Y0655010D01*
X0289995Y0677561D02*
X0290980D01*
X0290487Y0677069D02*
Y0678054D01*
X0293594Y0673376D02*
X0294578D01*
X0294086Y0672884D02*
Y0673869D01*
X0283444Y0661026D02*
X0284428D01*
X0283936Y0660534D02*
Y0661518D01*
X0278015Y0659660D02*
X0278999D01*
X0278507Y0659168D02*
Y0660152D01*
X0278212Y0680640D02*
X0279196D01*
X0278704Y0680148D02*
Y0681132D01*
X0281448Y0683424D02*
X0282432D01*
X0281940Y0682932D02*
Y0683916D01*
X0193180Y0694124D02*
X0194165D01*
X0193672Y0693632D02*
Y0694617D01*
X0200853Y0694018D02*
X0201838D01*
X0201346Y0693526D02*
Y0694510D01*
X0184897Y0694038D02*
X0185881D01*
X0185389Y0693546D02*
Y0694530D01*
X0187641Y0650408D02*
X0188625D01*
X0188133Y0649916D02*
Y0650900D01*
X0187539Y0656445D02*
X0188524D01*
X0188031Y0655953D02*
Y0656937D01*
X0260208Y0663876D02*
X0261192D01*
X0260700Y0663384D02*
Y0664368D01*
X0260208Y0659148D02*
X0261192D01*
X0260700Y0658656D02*
Y0659640D01*
X0239373Y0632632D02*
X0240357D01*
X0239865Y0632140D02*
Y0633124D01*
X0247397Y0632380D02*
X0248381D01*
X0247889Y0631888D02*
Y0632872D01*
X0234491Y0676841D02*
X0235476D01*
X0234983Y0676349D02*
Y0677333D01*
X0223885Y0676939D02*
X0224869D01*
X0224377Y0676447D02*
Y0677431D01*
X0222554Y0671475D02*
X0223539D01*
X0223046Y0670983D02*
Y0671967D01*
X0220598Y0667506D02*
X0221582D01*
X0221090Y0667014D02*
Y0667998D01*
X0219802Y0641810D02*
X0220787D01*
X0220294Y0641317D02*
Y0642302D01*
X0273358Y0637947D02*
X0274342D01*
X0273850Y0637455D02*
Y0638439D01*
X0265235Y0668577D02*
X0266220D01*
X0265728Y0668085D02*
Y0669069D01*
X0265176Y0640290D02*
X0266161D01*
X0265669Y0639798D02*
Y0640782D01*
X0265176Y0673361D02*
X0266161D01*
X0265669Y0672868D02*
Y0673853D01*
X0256838Y0684849D02*
X0257822D01*
X0257330Y0684357D02*
Y0685341D01*
X0223767Y0684849D02*
X0224751D01*
X0224259Y0684357D02*
Y0685341D01*
X0212279Y0671786D02*
X0213263D01*
X0212771Y0671294D02*
Y0672278D01*
X0243428Y0632065D02*
X0244413D01*
X0243920Y0631573D02*
Y0632557D01*
X0236365Y0631951D02*
X0237350D01*
X0236858Y0631459D02*
Y0632443D01*
X0223767Y0631951D02*
X0224751D01*
X0224259Y0631459D02*
Y0632443D01*
X0244133Y0605144D02*
X0245117D01*
X0244625Y0604652D02*
Y0605636D01*
X0239279Y0605144D02*
X0240263D01*
X0239771Y0604652D02*
Y0605636D01*
X0213991Y0624065D02*
X0214976D01*
X0214483Y0623573D02*
Y0624557D01*
X0208542Y0609782D02*
X0209527D01*
X0209035Y0609290D02*
Y0610274D01*
X0211649Y0613341D02*
X0212633D01*
X0212141Y0612849D02*
Y0613833D01*
X0225074Y0618668D02*
X0226058D01*
X0225566Y0618176D02*
Y0619160D01*
X0221617Y0618668D02*
X0222602D01*
X0222110Y0618176D02*
Y0619160D01*
X0213747Y0621069D02*
X0214732D01*
X0214239Y0620577D02*
Y0621561D01*
X0231393Y0623337D02*
X0232377D01*
X0231885Y0622845D02*
Y0623829D01*
X0229058Y0621420D02*
X0230043D01*
X0229550Y0620928D02*
Y0621912D01*
X0144147Y0611290D02*
X0145721D01*
X0144934Y0610502D02*
Y0612077D01*
X0114011Y0613054D02*
X0115586D01*
X0114798Y0612266D02*
Y0613841D01*
X0106279Y0608388D02*
X0107853D01*
X0107066Y0607601D02*
Y0609176D01*
X0114948Y0602624D02*
X0116523D01*
X0115735Y0601837D02*
Y0603412D01*
X0090066Y0602487D02*
X0091641D01*
X0090854Y0601699D02*
Y0603274D01*
X0093424Y0613117D02*
X0094999D01*
X0094212Y0612329D02*
Y0613904D01*
X0111680Y0590183D02*
X0112665D01*
X0112172Y0589691D02*
Y0590676D01*
X0093070Y0585695D02*
X0094054D01*
X0093562Y0585203D02*
Y0586187D01*
X0089200Y0640408D02*
X0090775D01*
X0089987Y0639620D02*
Y0641195D01*
X0093397Y0628719D02*
X0094972D01*
X0094184Y0627931D02*
Y0629506D01*
X0108668Y0634290D02*
X0110243D01*
X0109456Y0633502D02*
Y0635077D01*
X0123135Y0668319D02*
X0124119D01*
X0123627Y0667827D02*
Y0668811D01*
X0130062Y0660333D02*
X0131046D01*
X0130554Y0659841D02*
Y0660825D01*
X0126479Y0668868D02*
X0128054D01*
X0127267Y0668081D02*
Y0669656D01*
X0109322Y0669498D02*
X0110897D01*
X0110109Y0668711D02*
Y0670286D01*
X0103822Y0668790D02*
X0104806D01*
X0104314Y0668298D02*
Y0669282D01*
X0119436Y0648239D02*
X0121011D01*
X0120224Y0647451D02*
Y0649026D01*
X0124781Y0657879D02*
X0125765D01*
X0125273Y0657387D02*
Y0658372D01*
X0100657Y0666018D02*
X0101641D01*
X0101149Y0665526D02*
Y0666510D01*
X0128771Y0673558D02*
X0129755D01*
X0129263Y0673066D02*
Y0674050D01*
X0119641Y0636668D02*
X0120625D01*
X0120133Y0636176D02*
Y0637160D01*
X0119779Y0639491D02*
X0120763D01*
X0120271Y0638998D02*
Y0639983D01*
X0271633Y0592077D02*
X0272617D01*
X0272125Y0591585D02*
Y0592569D01*
X0271617Y0596817D02*
X0272602D01*
X0272110Y0596325D02*
Y0597309D01*
X0271617Y0601817D02*
X0272602D01*
X0272110Y0601325D02*
Y0602309D01*
X0271617Y0606817D02*
X0272602D01*
X0272110Y0606325D02*
Y0607309D01*
X0271731Y0611703D02*
X0272716D01*
X0272224Y0611211D02*
Y0612195D01*
X0235622Y0511282D02*
X0236606D01*
X0236114Y0510790D02*
Y0511774D01*
X0235622Y0506282D02*
X0236606D01*
X0236114Y0505790D02*
Y0506774D01*
X0234688Y0530920D02*
X0235672D01*
X0235180Y0530428D02*
Y0531412D01*
X0292747Y0409121D02*
X0293731D01*
X0293239Y0408628D02*
Y0409613D01*
X0287932Y0383337D02*
X0288916D01*
X0288424Y0382845D02*
Y0383829D01*
X0285566Y0384660D02*
X0286550D01*
X0286058Y0384168D02*
Y0385152D01*
X0281417Y0453644D02*
X0282401D01*
X0281909Y0453152D02*
Y0454136D01*
X0279326Y0457711D02*
X0280310D01*
X0279818Y0457219D02*
Y0458203D01*
X0277279Y0459868D02*
X0278263D01*
X0277771Y0459376D02*
Y0460361D01*
X0268220Y0455553D02*
X0269204D01*
X0268712Y0455061D02*
Y0456046D01*
X0265279Y0458085D02*
X0266263D01*
X0265771Y0457593D02*
Y0458577D01*
X0269271Y0451648D02*
X0270255D01*
X0269763Y0451156D02*
Y0452140D01*
X0254897Y0449361D02*
X0255881D01*
X0255389Y0448869D02*
Y0449853D01*
X0259263Y0446979D02*
X0260247D01*
X0259755Y0446487D02*
Y0447471D01*
X0256921Y0444648D02*
X0257905D01*
X0257413Y0444156D02*
Y0445140D01*
X0252043Y0445935D02*
X0253027D01*
X0252535Y0445443D02*
Y0446427D01*
X0255645Y0425388D02*
X0256629D01*
X0256137Y0424896D02*
Y0425880D01*
X0283432Y0380628D02*
X0284417D01*
X0283924Y0380136D02*
Y0381120D01*
X0283818Y0406931D02*
X0284802D01*
X0284310Y0406439D02*
Y0407424D01*
X0154239Y0354254D02*
X0155224D01*
X0154732Y0353762D02*
Y0354747D01*
X0154314Y0351431D02*
X0155298D01*
X0154806Y0350939D02*
Y0351924D01*
X0156704Y0350187D02*
X0157688D01*
X0157196Y0349695D02*
Y0350679D01*
X0162200Y0355329D02*
X0163184D01*
X0162692Y0354837D02*
Y0355821D01*
X0121294Y0356817D02*
X0122279D01*
X0121787Y0356325D02*
Y0357309D01*
X0186826Y0359266D02*
X0187810D01*
X0187318Y0358774D02*
Y0359758D01*
X0200107Y0400887D02*
X0201091D01*
X0200599Y0400395D02*
Y0401379D01*
X0203290Y0403903D02*
X0204275D01*
X0203782Y0403411D02*
Y0404395D01*
X0152777Y0390613D02*
X0153761D01*
X0153269Y0390121D02*
Y0391105D01*
X0149993Y0393397D02*
X0150977D01*
X0150485Y0392904D02*
Y0393889D01*
X0163224Y0405272D02*
X0164209D01*
X0163717Y0404780D02*
Y0405764D01*
X0171242Y0396834D02*
X0172226D01*
X0171734Y0396342D02*
Y0397326D01*
X0167247Y0400920D02*
X0168231D01*
X0167739Y0400428D02*
Y0401412D01*
X0143894Y0401266D02*
X0144878D01*
X0144386Y0400774D02*
Y0401758D01*
X0142502Y0402658D02*
X0143486D01*
X0142994Y0402166D02*
Y0403150D01*
X0150580Y0407952D02*
X0151564D01*
X0151072Y0407460D02*
Y0408444D01*
X0149188Y0409344D02*
X0150172D01*
X0149680Y0408852D02*
Y0409836D01*
X0138617Y0399435D02*
X0139602D01*
X0139109Y0398943D02*
Y0399928D01*
X0104456Y0385310D02*
X0105440D01*
X0104948Y0384817D02*
Y0385802D01*
X0176983Y0218656D02*
X0177968D01*
X0177476Y0218164D02*
Y0219148D01*
X0174424Y0218656D02*
X0175409D01*
X0174917Y0218164D02*
Y0219148D01*
X0171865Y0218656D02*
X0172850D01*
X0172357Y0218164D02*
Y0219148D01*
X0169306Y0218656D02*
X0170291D01*
X0169798Y0218164D02*
Y0219148D01*
X0169306Y0226630D02*
X0170291D01*
X0169798Y0226138D02*
Y0227122D01*
X0171865Y0226630D02*
X0172850D01*
X0172357Y0226138D02*
Y0227122D01*
X0174424Y0226630D02*
X0175409D01*
X0174917Y0226138D02*
Y0227122D01*
X0176983Y0226630D02*
X0177968D01*
X0177476Y0226138D02*
Y0227122D01*
X0174424Y0203402D02*
X0175409D01*
X0174917Y0202910D02*
Y0203894D01*
X0171865Y0203402D02*
X0172850D01*
X0172357Y0202910D02*
Y0203894D01*
X0169306Y0203402D02*
X0170291D01*
X0169798Y0202910D02*
Y0203894D01*
X0226748Y0274128D02*
X0227732D01*
X0227240Y0273636D02*
Y0274621D01*
X0186011Y0269010D02*
X0186995D01*
X0186503Y0268518D02*
Y0269502D01*
X0186009Y0274128D02*
X0186993D01*
X0186501Y0273636D02*
Y0274621D01*
X0186011Y0271569D02*
X0186995D01*
X0186503Y0271077D02*
Y0272061D01*
X0193983Y0274128D02*
X0194968D01*
X0194476Y0273636D02*
Y0274621D01*
X0215791Y0322250D02*
X0216775D01*
X0216283Y0321758D02*
Y0322743D01*
X0200728Y0322333D02*
X0201712D01*
X0201220Y0321841D02*
Y0322825D01*
X0173058Y0301455D02*
X0174042D01*
X0173550Y0300963D02*
Y0301947D01*
X0187712Y0301294D02*
X0188696D01*
X0188204Y0300802D02*
Y0301786D01*
X0183009Y0297808D02*
X0183993D01*
X0183501Y0297316D02*
Y0298300D01*
X0168442Y0297808D02*
X0169427D01*
X0168934Y0297316D02*
Y0298300D01*
X0211019Y0318554D02*
X0212003D01*
X0211511Y0318061D02*
Y0319046D01*
X0196452Y0318554D02*
X0197436D01*
X0196944Y0318061D02*
Y0319046D01*
X0249699Y0386325D02*
X0250684D01*
X0250192Y0385833D02*
Y0386817D01*
X0233062Y0375899D02*
X0234046D01*
X0233554Y0375407D02*
Y0376391D01*
X0227912Y0528714D02*
X0228896D01*
X0228404Y0528222D02*
Y0529206D01*
X0227912Y0517887D02*
X0228896D01*
X0228404Y0517395D02*
Y0518379D01*
X0238023Y0535424D02*
X0239007D01*
X0238515Y0534932D02*
Y0535916D01*
X0217794Y0535739D02*
X0218779D01*
X0218287Y0535247D02*
Y0536231D01*
X0189712Y0519813D02*
X0190696D01*
X0190204Y0519321D02*
Y0520305D01*
X0204334Y0519932D02*
X0205318D01*
X0204826Y0519439D02*
Y0520424D01*
X0136515Y0547030D02*
X0137499D01*
X0137007Y0546538D02*
Y0547522D01*
X0204936Y0549372D02*
X0205921D01*
X0205428Y0548880D02*
Y0549865D01*
X0198672Y0551739D02*
X0199657D01*
X0199165Y0551247D02*
Y0552231D01*
X0178676Y0541278D02*
X0179661D01*
X0179168Y0540786D02*
Y0541770D01*
X0161133Y0535002D02*
X0162117D01*
X0161625Y0534510D02*
Y0535495D01*
X0181649Y0534841D02*
X0182633D01*
X0182141Y0534349D02*
Y0535333D01*
X0140472Y0475742D02*
X0141456D01*
X0140964Y0475250D02*
Y0476235D01*
X0160082Y0475506D02*
X0161066D01*
X0160574Y0475014D02*
Y0475998D01*
X0142283Y0471321D02*
X0143267D01*
X0142775Y0470829D02*
Y0471813D01*
X0140810Y0422435D02*
X0141795D01*
X0141302Y0421943D02*
Y0422928D01*
X0140665Y0419199D02*
X0141649D01*
X0141157Y0418707D02*
Y0419691D01*
X0161751Y0455720D02*
X0162735D01*
X0162243Y0455228D02*
Y0456212D01*
X0169791Y0451443D02*
X0170775D01*
X0170283Y0450951D02*
Y0451935D01*
X0201039Y0459213D02*
X0202023D01*
X0201531Y0458721D02*
Y0459705D01*
X0163306Y0471329D02*
X0164291D01*
X0163798Y0470837D02*
Y0471821D01*
X0164338Y0451589D02*
X0165322D01*
X0164830Y0451097D02*
Y0452081D01*
X0200649Y0543207D02*
X0201633D01*
X0201141Y0542715D02*
Y0543699D01*
X0193743Y0543199D02*
X0194728D01*
X0194235Y0542707D02*
Y0543691D01*
X0146494Y0425281D02*
X0147479D01*
X0146987Y0424789D02*
Y0425773D01*
X0117243Y0451199D02*
X0118228D01*
X0117735Y0450707D02*
Y0451691D01*
X0124956Y0451719D02*
X0125940D01*
X0125448Y0451227D02*
Y0452211D01*
X0121184Y0453609D02*
X0122169D01*
X0121676Y0453117D02*
Y0454101D01*
X0199232Y0468408D02*
X0200216D01*
X0199724Y0467916D02*
Y0468900D01*
X0197409Y0470920D02*
X0198393D01*
X0197901Y0470428D02*
Y0471412D01*
X0196314Y0473609D02*
X0197298D01*
X0196806Y0473116D02*
Y0474101D01*
X0167586Y0485624D02*
X0168570D01*
X0168078Y0485132D02*
Y0486117D01*
X0147755Y0494510D02*
X0148739D01*
X0148247Y0494018D02*
Y0495002D01*
X0140759Y0482282D02*
X0141743D01*
X0141251Y0481790D02*
Y0482774D01*
X0117358Y0388349D02*
X0118342D01*
X0117850Y0387857D02*
Y0388841D01*
X0172991Y0308569D02*
X0173976D01*
X0173484Y0308077D02*
Y0309061D01*
X0202775Y0308514D02*
X0203759D01*
X0203267Y0308022D02*
Y0309006D01*
X0216613Y0337813D02*
X0217794D01*
X0217204Y0337223D02*
Y0338404D01*
X0191669Y0336085D02*
X0192850D01*
X0192260Y0335494D02*
Y0336676D01*
X0182911Y0318410D02*
X0184092D01*
X0183501Y0317819D02*
Y0319001D01*
X0168519Y0318585D02*
X0169700D01*
X0169109Y0317994D02*
Y0319176D01*
X0145377Y0386105D02*
X0146558D01*
X0145968Y0385514D02*
Y0386695D01*
X0141853Y0380455D02*
X0143035D01*
X0142444Y0379865D02*
Y0381046D01*
X0184436Y0365601D02*
X0185617D01*
X0185027Y0365010D02*
Y0366191D01*
X0184149Y0361589D02*
X0185330D01*
X0184739Y0360998D02*
Y0362179D01*
X0123703Y0365885D02*
X0124688D01*
X0124196Y0365393D02*
Y0366377D01*
X0113259Y0358644D02*
X0114243D01*
X0113751Y0358152D02*
Y0359136D01*
X0117334Y0363719D02*
X0118318D01*
X0117826Y0363227D02*
Y0364211D01*
X0158570Y0185073D02*
X0159554D01*
X0159062Y0184581D02*
Y0185565D01*
X0147570Y0185073D02*
X0148554D01*
X0148062Y0184581D02*
Y0185565D01*
X0136570Y0185073D02*
X0137554D01*
X0137062Y0184581D02*
Y0185565D01*
X0135940Y0174408D02*
X0136924D01*
X0136432Y0173916D02*
Y0174900D01*
X0147570Y0174727D02*
X0148554D01*
X0148062Y0174235D02*
Y0175219D01*
X0158570Y0174727D02*
X0159554D01*
X0159062Y0174235D02*
Y0175219D01*
X0196995Y0186073D02*
X0197979D01*
X0197487Y0185581D02*
Y0186565D01*
X0218669Y0186073D02*
X0219653D01*
X0219161Y0185581D02*
Y0186565D01*
X0207995Y0186073D02*
X0208980D01*
X0208487Y0185581D02*
Y0186565D01*
X0218669Y0175727D02*
X0219653D01*
X0219161Y0175235D02*
Y0176219D01*
X0207995Y0175727D02*
X0208980D01*
X0208487Y0175235D02*
Y0176219D01*
X0197019Y0175703D02*
X0198003D01*
X0197511Y0175211D02*
Y0176195D01*
X0193263Y0208660D02*
X0194247D01*
X0193755Y0208168D02*
Y0209152D01*
X0235696Y0210658D02*
X0236680D01*
X0236188Y0210166D02*
Y0211150D01*
X0230696Y0210658D02*
X0231680D01*
X0231188Y0210166D02*
Y0211150D01*
X0197499Y0203589D02*
X0198484D01*
X0197991Y0203097D02*
Y0204081D01*
X0212102Y0218093D02*
X0213086D01*
X0212594Y0217601D02*
Y0218585D01*
X0193594Y0217640D02*
X0194578D01*
X0194086Y0217148D02*
Y0218132D01*
X0199633Y0222550D02*
X0200617D01*
X0200125Y0222058D02*
Y0223042D01*
X0201550Y0227554D02*
X0202535D01*
X0202043Y0227061D02*
Y0228046D01*
X0204814Y0235967D02*
X0205798D01*
X0205306Y0235475D02*
Y0236459D01*
X0208015Y0254258D02*
X0208999D01*
X0208507Y0253766D02*
Y0254750D01*
X0196231Y0247924D02*
X0197216D01*
X0196724Y0247431D02*
Y0248416D01*
X0196255Y0254471D02*
X0197239D01*
X0196747Y0253979D02*
Y0254963D01*
X0200724Y0329211D02*
X0201708D01*
X0201216Y0328719D02*
Y0329703D01*
X0215602Y0329282D02*
X0216586D01*
X0216094Y0328790D02*
Y0329774D01*
X0241200Y0335802D02*
X0242184D01*
X0241692Y0335310D02*
Y0336294D01*
X0212295Y0340561D02*
X0213279D01*
X0212787Y0340069D02*
Y0341054D01*
X0233204Y0354463D02*
X0234188D01*
X0233696Y0353971D02*
Y0354955D01*
X0155940Y0238400D02*
X0156924D01*
X0156432Y0237908D02*
Y0238892D01*
X0244184Y0238400D02*
X0245168D01*
X0244676Y0237908D02*
Y0238892D01*
X0225700Y0241687D02*
X0226684D01*
X0226192Y0241195D02*
Y0242179D01*
X0282633Y0241262D02*
X0283617D01*
X0283125Y0240770D02*
Y0241754D01*
X0282338Y0261211D02*
X0283322D01*
X0282830Y0260719D02*
Y0261703D01*
X0234763Y0261270D02*
X0235747D01*
X0235255Y0260778D02*
Y0261762D01*
X0250850Y0269243D02*
X0251834D01*
X0251342Y0268750D02*
Y0269735D01*
X0241653Y0256124D02*
X0242637D01*
X0242145Y0255632D02*
Y0256616D01*
X0234613Y0256156D02*
X0235598D01*
X0235105Y0255664D02*
Y0256648D01*
X0216814Y0378451D02*
X0217798D01*
X0217306Y0377959D02*
Y0378943D01*
X0226469Y0349939D02*
X0227454D01*
X0226961Y0349447D02*
Y0350431D01*
X0224539Y0352231D02*
X0225523D01*
X0225031Y0351739D02*
Y0352723D01*
X0231342Y0350420D02*
X0232326D01*
X0231834Y0349928D02*
Y0350912D01*
X0248984Y0350168D02*
X0249968D01*
X0249476Y0349676D02*
Y0350660D01*
X0218759Y0350443D02*
X0219743D01*
X0219251Y0349951D02*
Y0350935D01*
X0220783Y0352479D02*
X0221767D01*
X0221275Y0351987D02*
Y0352971D01*
X0197787Y0271357D02*
X0198771D01*
X0198279Y0270865D02*
Y0271849D01*
X0195491Y0269140D02*
X0196476D01*
X0195984Y0268648D02*
Y0269632D01*
X0241062Y0251176D02*
X0242046D01*
X0241554Y0250683D02*
Y0251668D01*
X0218649Y0251176D02*
X0219633D01*
X0219141Y0250683D02*
Y0251668D01*
X0201031Y0242372D02*
X0202015D01*
X0201523Y0241880D02*
Y0242865D01*
X0200987Y0248333D02*
X0201972D01*
X0201480Y0247841D02*
Y0248825D01*
X0174180Y0243530D02*
X0175165D01*
X0174672Y0243038D02*
Y0244022D01*
X0184661Y0243605D02*
X0185645D01*
X0185153Y0243113D02*
Y0244097D01*
X0222728Y0350333D02*
X0223712D01*
X0223220Y0349841D02*
Y0350825D01*
X0209602Y0354435D02*
X0210586D01*
X0210094Y0353943D02*
Y0354928D01*
X0238826Y0342546D02*
X0239810D01*
X0239318Y0342054D02*
Y0343038D01*
X0234846Y0346018D02*
X0235830D01*
X0235338Y0345526D02*
Y0346510D01*
X0232287Y0344892D02*
X0233271D01*
X0232779Y0344400D02*
Y0345384D01*
X0164633Y0342369D02*
X0165617D01*
X0165125Y0341876D02*
Y0342861D01*
X0245121Y0348191D02*
X0246106D01*
X0245613Y0347699D02*
Y0348684D01*
X0166865Y0344628D02*
X0167850D01*
X0167358Y0344136D02*
Y0345121D01*
X0169235Y0346475D02*
X0170220D01*
X0169728Y0345983D02*
Y0346967D01*
X0172117Y0347916D02*
X0173102D01*
X0172609Y0347424D02*
Y0348408D01*
X0230810Y0405747D02*
X0231795D01*
X0231302Y0405254D02*
Y0406239D01*
X0210381Y0515502D02*
X0211365D01*
X0210873Y0515010D02*
Y0515995D01*
X0211645Y0413172D02*
X0212629D01*
X0212137Y0412679D02*
Y0413664D01*
X0214003Y0414983D02*
X0214987D01*
X0214495Y0414491D02*
Y0415475D01*
X0216082Y0431558D02*
X0217066D01*
X0216574Y0431065D02*
Y0432050D01*
X0229361Y0410042D02*
X0230346D01*
X0229854Y0409550D02*
Y0410534D01*
X0183314Y0438365D02*
X0184298D01*
X0183806Y0437873D02*
Y0438857D01*
X0185672Y0441317D02*
X0186657D01*
X0186165Y0440825D02*
Y0441809D01*
X0176515Y0440002D02*
X0177499D01*
X0177007Y0439510D02*
Y0440494D01*
X0205220Y0446593D02*
X0206204D01*
X0205712Y0446101D02*
Y0447085D01*
X0204688Y0440093D02*
X0205672D01*
X0205180Y0439601D02*
Y0440585D01*
X0187677Y0429711D02*
X0188661D01*
X0188169Y0429219D02*
Y0430203D01*
X0209105Y0362680D02*
X0210090D01*
X0209598Y0362187D02*
Y0363172D01*
X0165617Y0403325D02*
X0166602D01*
X0166109Y0402833D02*
Y0403817D01*
X0171356Y0421328D02*
X0172341D01*
X0171848Y0420836D02*
Y0421821D01*
X0226149Y0388294D02*
X0227133D01*
X0226641Y0387802D02*
Y0388786D01*
X0205011Y0383105D02*
X0205995D01*
X0205503Y0382613D02*
Y0383597D01*
X0195554Y0447187D02*
X0196539D01*
X0196046Y0446695D02*
Y0447680D01*
X0199613Y0446805D02*
X0200598D01*
X0200106Y0446313D02*
Y0447298D01*
X0192381Y0449821D02*
X0193365D01*
X0192873Y0449329D02*
Y0450313D01*
X0179315Y0442671D02*
X0180300D01*
X0179808Y0442179D02*
Y0443163D01*
X0204342Y0359479D02*
X0205326D01*
X0204834Y0358987D02*
Y0359971D01*
X0198255Y0444471D02*
X0199239D01*
X0198747Y0443979D02*
Y0444963D01*
X0145735Y0391861D02*
X0146720D01*
X0146228Y0391369D02*
Y0392353D01*
X0160199Y0407593D02*
X0161183D01*
X0160691Y0407101D02*
Y0408085D01*
X0200260Y0403673D02*
X0201245D01*
X0200753Y0403181D02*
Y0404165D01*
X0159371Y0382897D02*
X0160355D01*
X0159863Y0382405D02*
Y0383389D01*
X0205098Y0437408D02*
X0206082D01*
X0205590Y0436916D02*
Y0437900D01*
X0169255Y0365203D02*
X0170239D01*
X0169747Y0364711D02*
Y0365695D01*
X0213035Y0383621D02*
X0214019D01*
X0213527Y0383128D02*
Y0384113D01*
X0162137Y0453159D02*
X0163121D01*
X0162629Y0452667D02*
Y0453651D01*
X0244283Y0356778D02*
X0245267D01*
X0244775Y0356286D02*
Y0357270D01*
X0201054Y0359628D02*
X0202039D01*
X0201547Y0359136D02*
Y0360121D01*
X0207672Y0358585D02*
X0208657D01*
X0208165Y0358093D02*
Y0359077D01*
X0245243Y0430613D02*
X0246228D01*
X0245735Y0430121D02*
Y0431105D01*
X0233153Y0451565D02*
X0234137D01*
X0233645Y0451073D02*
Y0452058D01*
X0240062Y0470711D02*
X0241047D01*
X0240554Y0470219D02*
Y0471203D01*
X0234338Y0396408D02*
X0235322D01*
X0234830Y0395916D02*
Y0396900D01*
X0109539Y0538042D02*
X0110523D01*
X0110031Y0537550D02*
Y0538534D01*
X0165586Y0461557D02*
X0166570D01*
X0166078Y0461065D02*
Y0462050D01*
X0176924Y0426896D02*
X0177908D01*
X0177416Y0426404D02*
Y0427388D01*
X0179708Y0429680D02*
X0180692D01*
X0180200Y0429188D02*
Y0430172D01*
X0190461Y0426928D02*
X0191445D01*
X0190953Y0426435D02*
Y0427420D01*
X0171506Y0423901D02*
X0172491D01*
X0171999Y0423409D02*
Y0424393D01*
X0177145Y0429681D02*
X0178129D01*
X0177637Y0429189D02*
Y0430173D01*
X0179946Y0432332D02*
X0180930D01*
X0180438Y0431840D02*
Y0432824D01*
X0176878Y0391056D02*
X0177863D01*
X0177370Y0390564D02*
Y0391548D01*
X0171314Y0449168D02*
X0172298D01*
X0171806Y0448676D02*
Y0449660D01*
X0159188Y0457250D02*
X0160172D01*
X0159680Y0456758D02*
Y0457743D01*
X0220566Y0398888D02*
X0221550D01*
X0221058Y0398396D02*
Y0399380D01*
X0198795Y0421237D02*
X0199779D01*
X0199287Y0420745D02*
Y0421729D01*
X0193035Y0426765D02*
X0194019D01*
X0193527Y0426273D02*
Y0427257D01*
X0201399Y0418400D02*
X0202383D01*
X0201891Y0417908D02*
Y0418893D01*
X0237889Y0479979D02*
X0238873D01*
X0238381Y0479487D02*
Y0480471D01*
X0196590Y0466010D02*
X0197574D01*
X0197082Y0465518D02*
Y0466502D01*
X0162755Y0448518D02*
X0163739D01*
X0163247Y0448026D02*
Y0449010D01*
X0137322Y0215012D02*
X0138306D01*
X0137814Y0214520D02*
Y0215504D01*
X0137322Y0223524D02*
X0138306D01*
X0137814Y0223031D02*
Y0224016D01*
X0137322Y0232024D02*
X0138306D01*
X0137814Y0231532D02*
Y0232516D01*
X0137322Y0240524D02*
X0138306D01*
X0137814Y0240032D02*
Y0241016D01*
X0137322Y0248900D02*
X0138306D01*
X0137814Y0248408D02*
Y0249392D01*
X0137322Y0257400D02*
X0138306D01*
X0137814Y0256908D02*
Y0257892D01*
X0137338Y0265539D02*
X0138322D01*
X0137830Y0265047D02*
Y0266032D01*
X0134932Y0271634D02*
X0135916D01*
X0135424Y0271142D02*
Y0272126D01*
X0134932Y0279634D02*
X0135916D01*
X0135424Y0279142D02*
Y0280126D01*
X0134916Y0287494D02*
X0135901D01*
X0135409Y0287002D02*
Y0287987D01*
X0147599Y0277092D02*
X0148583D01*
X0148091Y0276600D02*
Y0277585D01*
X0133192Y0300853D02*
X0134176D01*
X0133684Y0300361D02*
Y0301345D01*
X0149511Y0300754D02*
X0150495D01*
X0150003Y0300262D02*
Y0301247D01*
X0149515Y0297026D02*
X0150499D01*
X0150007Y0296534D02*
Y0297518D01*
X0135121Y0297148D02*
X0136106D01*
X0135613Y0296656D02*
Y0297640D01*
X0149212Y0282731D02*
X0150196D01*
X0149704Y0282239D02*
Y0283223D01*
X0139665Y0282715D02*
X0140649D01*
X0140157Y0282223D02*
Y0283207D01*
X0138354Y0277097D02*
X0139338D01*
X0138846Y0276605D02*
Y0277589D01*
X0152600Y0393291D02*
X0153585D01*
X0153093Y0392799D02*
Y0393783D01*
X0168088Y0375301D02*
X0169073D01*
X0168580Y0374809D02*
Y0375794D01*
X0170872Y0372517D02*
X0171856D01*
X0171364Y0372025D02*
Y0373010D01*
X0170696Y0375196D02*
X0171680D01*
X0171188Y0374704D02*
Y0375688D01*
X0174131Y0396696D02*
X0175116D01*
X0174624Y0396204D02*
Y0397188D01*
X0176915Y0393913D02*
X0177900D01*
X0177407Y0393420D02*
Y0394405D01*
X0209144Y0387667D02*
X0210128D01*
X0209636Y0387174D02*
Y0388159D01*
X0214711Y0393234D02*
X0215696D01*
X0215203Y0392742D02*
Y0393726D01*
X0217495Y0396018D02*
X0218479D01*
X0217987Y0395526D02*
Y0396510D01*
X0220185Y0396297D02*
X0221169D01*
X0220677Y0395805D02*
Y0396789D01*
X0196028Y0421360D02*
X0197013D01*
X0196520Y0420868D02*
Y0421852D01*
X0193244Y0424144D02*
X0194229D01*
X0193737Y0423652D02*
Y0424636D01*
X0198812Y0418576D02*
X0199796D01*
X0199304Y0418084D02*
Y0419068D01*
X0204170Y0415630D02*
X0205154D01*
X0204662Y0415138D02*
Y0416123D01*
X0204380Y0413008D02*
X0205364D01*
X0204872Y0412516D02*
Y0413500D01*
X0168572Y0418545D02*
X0169557D01*
X0169064Y0418052D02*
Y0419037D01*
X0155208Y0433332D02*
X0156192D01*
X0155700Y0432840D02*
Y0433824D01*
X0149849Y0424801D02*
X0150833D01*
X0150341Y0424309D02*
Y0425293D01*
X0152609Y0427593D02*
X0153594D01*
X0153102Y0427101D02*
Y0428085D01*
X0152062Y0430849D02*
X0153047D01*
X0152554Y0430357D02*
Y0431341D01*
X0140708Y0494400D02*
X0141692D01*
X0141200Y0493908D02*
Y0494892D01*
X0137609Y0479898D02*
X0138791D01*
X0138200Y0479307D02*
Y0480488D01*
X0137609Y0488400D02*
X0138791D01*
X0138200Y0487810D02*
Y0488990D01*
X0137609Y0497539D02*
X0138791D01*
X0138200Y0496949D02*
Y0498130D01*
X0137609Y0506400D02*
X0138791D01*
X0138200Y0505809D02*
Y0506990D01*
X0137609Y0513900D02*
X0138791D01*
X0138200Y0513309D02*
Y0514491D01*
X0137609Y0521900D02*
X0138791D01*
X0138200Y0521310D02*
Y0522491D01*
X0137609Y0538900D02*
X0138791D01*
X0138200Y0538309D02*
Y0539491D01*
X0137478Y0530400D02*
X0138659D01*
X0138068Y0529810D02*
Y0530991D01*
X0165950Y0418334D02*
X0166934D01*
X0166442Y0417842D02*
Y0418827D01*
X0174140Y0424112D02*
X0175124D01*
X0174632Y0423620D02*
Y0424605D01*
M02*
