G04*
G04 #@! TF.GenerationSoftware,Altium Limited,Altium Designer,20.1.14 (287)*
G04*
G04 Layer_Physical_Order=2*
G04 Layer_Color=36540*
%FSAX25Y25*%
%MOIN*%
G70*
G04*
G04 #@! TF.SameCoordinates,A9E8F4E5-7F2A-47C3-BED5-AE4669AA653D*
G04*
G04*
G04 #@! TF.FilePolarity,Positive*
G04*
G01*
G75*
%ADD19C,0.00800*%
%ADD140C,0.00787*%
%ADD141C,0.03000*%
%ADD149C,0.06102*%
%ADD150C,0.06496*%
%ADD159C,0.05000*%
G04:AMPARAMS|DCode=160|XSize=49.21mil|YSize=27.56mil|CornerRadius=13.78mil|HoleSize=0mil|Usage=FLASHONLY|Rotation=180.000|XOffset=0mil|YOffset=0mil|HoleType=Round|Shape=RoundedRectangle|*
%AMROUNDEDRECTD160*
21,1,0.04921,0.00000,0,0,180.0*
21,1,0.02165,0.02756,0,0,180.0*
1,1,0.02756,-0.01083,0.00000*
1,1,0.02756,0.01083,0.00000*
1,1,0.02756,0.01083,0.00000*
1,1,0.02756,-0.01083,0.00000*
%
%ADD160ROUNDEDRECTD160*%
G04:AMPARAMS|DCode=161|XSize=23.62mil|YSize=74.8mil|CornerRadius=11.81mil|HoleSize=0mil|Usage=FLASHONLY|Rotation=180.000|XOffset=0mil|YOffset=0mil|HoleType=Round|Shape=RoundedRectangle|*
%AMROUNDEDRECTD161*
21,1,0.02362,0.05118,0,0,180.0*
21,1,0.00000,0.07480,0,0,180.0*
1,1,0.02362,0.00000,0.02559*
1,1,0.02362,0.00000,0.02559*
1,1,0.02362,0.00000,-0.02559*
1,1,0.02362,0.00000,-0.02559*
%
%ADD161ROUNDEDRECTD161*%
G04:AMPARAMS|DCode=162|XSize=27.56mil|YSize=59.06mil|CornerRadius=13.78mil|HoleSize=0mil|Usage=FLASHONLY|Rotation=180.000|XOffset=0mil|YOffset=0mil|HoleType=Round|Shape=RoundedRectangle|*
%AMROUNDEDRECTD162*
21,1,0.02756,0.03150,0,0,180.0*
21,1,0.00000,0.05906,0,0,180.0*
1,1,0.02756,0.00000,0.01575*
1,1,0.02756,0.00000,0.01575*
1,1,0.02756,0.00000,-0.01575*
1,1,0.02756,0.00000,-0.01575*
%
%ADD162ROUNDEDRECTD162*%
%ADD163C,0.01968*%
%ADD164C,0.01772*%
%ADD165C,0.02756*%
%ADD166C,0.01575*%
G36*
X0148905Y0627089D02*
X0147534Y0625718D01*
X0071749Y0625718D01*
Y0690641D01*
X0072249Y0690715D01*
X0072301Y0690543D01*
X0072991Y0689252D01*
X0073920Y0688120D01*
X0075051Y0687191D01*
X0076342Y0686501D01*
X0077743Y0686076D01*
X0079200Y0685933D01*
X0080657Y0686076D01*
X0082057Y0686501D01*
X0083349Y0687191D01*
X0084480Y0688120D01*
X0085409Y0689252D01*
X0086099Y0690543D01*
X0086524Y0691943D01*
X0086667Y0693400D01*
X0086524Y0694857D01*
X0086099Y0696257D01*
X0085409Y0697548D01*
X0084480Y0698680D01*
X0083349Y0699609D01*
X0082057Y0700299D01*
X0081885Y0700351D01*
X0081959Y0700851D01*
X0091032D01*
X0091239Y0700351D01*
X0090940Y0699628D01*
X0090825Y0698755D01*
Y0698180D01*
X0094200D01*
Y0697180D01*
X0095200D01*
Y0692397D01*
X0095679Y0692595D01*
X0096179Y0692319D01*
Y0688252D01*
X0095832Y0688020D01*
X0095288Y0687477D01*
X0094736Y0686650D01*
X0094442Y0685941D01*
X0094369Y0685573D01*
X0094260Y0685215D01*
X0094222Y0684831D01*
X0094247Y0684581D01*
X0094222Y0684332D01*
X0094260Y0683947D01*
X0094369Y0683589D01*
X0094442Y0683222D01*
X0094736Y0682512D01*
X0095288Y0681685D01*
X0095832Y0681142D01*
X0096658Y0680590D01*
X0097368Y0680296D01*
X0097388Y0680258D01*
X0097155Y0679695D01*
X0097153Y0679676D01*
X0101503D01*
X0105824D01*
X0106083Y0680064D01*
X0128380D01*
X0128639Y0679676D01*
X0132960D01*
X0137310D01*
X0137308Y0679695D01*
X0137075Y0680258D01*
X0137095Y0680296D01*
X0137804Y0680590D01*
X0138631Y0681142D01*
X0139174Y0681685D01*
X0139727Y0682512D01*
X0140021Y0683222D01*
X0140094Y0683589D01*
X0140203Y0683947D01*
X0140241Y0684331D01*
X0140216Y0684581D01*
X0140241Y0684831D01*
X0140203Y0685215D01*
X0140094Y0685573D01*
X0140021Y0685941D01*
X0139727Y0686650D01*
X0139174Y0687477D01*
X0138631Y0688020D01*
X0138284Y0688252D01*
Y0692319D01*
X0138784Y0692595D01*
X0139263Y0692397D01*
Y0697180D01*
X0140263D01*
Y0698180D01*
X0143638D01*
Y0698755D01*
X0143523Y0699628D01*
X0143224Y0700351D01*
X0143430Y0700851D01*
X0148905D01*
Y0627089D01*
D02*
G37*
G36*
X0286515Y0700351D02*
X0286343Y0700299D01*
X0285051Y0699609D01*
X0283920Y0698680D01*
X0282991Y0697548D01*
X0282301Y0696257D01*
X0281876Y0694857D01*
X0281733Y0693400D01*
X0281876Y0691943D01*
X0282301Y0690543D01*
X0282991Y0689252D01*
X0283920Y0688120D01*
X0285051Y0687191D01*
X0286343Y0686501D01*
X0287743Y0686076D01*
X0289200Y0685933D01*
X0290657Y0686076D01*
X0292057Y0686501D01*
X0293349Y0687191D01*
X0294480Y0688120D01*
X0295409Y0689252D01*
X0296099Y0690543D01*
X0296151Y0690715D01*
X0296651Y0690641D01*
X0296651Y0600900D01*
Y0599760D01*
X0296320Y0597504D01*
X0295665Y0595320D01*
X0294700Y0593255D01*
X0294072Y0592303D01*
X0294054Y0592259D01*
X0294022Y0592225D01*
X0293335Y0591094D01*
X0293286Y0590962D01*
X0293203Y0590848D01*
X0292083Y0588452D01*
X0292038Y0588271D01*
X0291951Y0588105D01*
X0291616Y0586989D01*
X0291096Y0586996D01*
X0290684Y0587534D01*
X0290067Y0588007D01*
X0289349Y0588304D01*
X0288578Y0588406D01*
X0287807Y0588304D01*
X0287089Y0588007D01*
X0286472Y0587534D01*
X0285999Y0586917D01*
X0285701Y0586198D01*
X0285600Y0585428D01*
X0285701Y0584657D01*
X0285999Y0583939D01*
X0286472Y0583322D01*
X0287089Y0582848D01*
X0287807Y0582551D01*
X0288578Y0582449D01*
X0289349Y0582551D01*
X0290067Y0582848D01*
X0290283Y0583014D01*
X0290748Y0582741D01*
X0290726Y0582593D01*
X0290736Y0582406D01*
X0290699Y0582223D01*
Y0579577D01*
X0290736Y0579394D01*
X0290726Y0579207D01*
X0290748Y0579059D01*
X0290283Y0578786D01*
X0290067Y0578952D01*
X0289349Y0579249D01*
X0288578Y0579351D01*
X0287807Y0579249D01*
X0287089Y0578952D01*
X0286472Y0578478D01*
X0285999Y0577861D01*
X0285701Y0577143D01*
X0285600Y0576372D01*
X0285701Y0575602D01*
X0285999Y0574883D01*
X0286472Y0574266D01*
X0287089Y0573793D01*
X0287807Y0573496D01*
X0288578Y0573394D01*
X0289349Y0573496D01*
X0290067Y0573793D01*
X0290684Y0574266D01*
X0291096Y0574804D01*
X0291616Y0574811D01*
X0291951Y0573695D01*
X0292038Y0573529D01*
X0292083Y0573348D01*
X0293203Y0570952D01*
X0293286Y0570838D01*
X0293335Y0570706D01*
X0294022Y0569575D01*
X0294054Y0569541D01*
X0294072Y0569497D01*
X0294700Y0568545D01*
X0295665Y0566480D01*
X0296320Y0564296D01*
X0296651Y0562040D01*
Y0560900D01*
Y0166159D01*
X0296151Y0166085D01*
X0296099Y0166258D01*
X0295409Y0167549D01*
X0294480Y0168680D01*
X0293349Y0169609D01*
X0292057Y0170299D01*
X0290657Y0170724D01*
X0289200Y0170867D01*
X0287743Y0170724D01*
X0286343Y0170299D01*
X0285051Y0169609D01*
X0283920Y0168680D01*
X0282991Y0167549D01*
X0282301Y0166258D01*
X0281876Y0164857D01*
X0281733Y0163400D01*
X0281876Y0161943D01*
X0282301Y0160543D01*
X0282991Y0159251D01*
X0283920Y0158120D01*
X0285051Y0157191D01*
X0286343Y0156501D01*
X0286515Y0156449D01*
X0286441Y0155949D01*
X0081959D01*
X0081885Y0156449D01*
X0082057Y0156501D01*
X0083349Y0157191D01*
X0084480Y0158120D01*
X0085409Y0159251D01*
X0086099Y0160543D01*
X0086524Y0161943D01*
X0086667Y0163400D01*
X0086524Y0164857D01*
X0086099Y0166258D01*
X0085409Y0167549D01*
X0084480Y0168680D01*
X0083349Y0169609D01*
X0082057Y0170299D01*
X0080657Y0170724D01*
X0079200Y0170867D01*
X0077743Y0170724D01*
X0076342Y0170299D01*
X0075051Y0169609D01*
X0073920Y0168680D01*
X0072991Y0167549D01*
X0072301Y0166258D01*
X0072249Y0166085D01*
X0071749Y0166159D01*
Y0615219D01*
X0152369D01*
X0159003Y0621853D01*
Y0700851D01*
X0286441D01*
X0286515Y0700351D01*
D02*
G37*
%LPC*%
G36*
X0143638Y0696180D02*
X0141263D01*
Y0692397D01*
X0141951Y0692682D01*
X0142650Y0693218D01*
X0143186Y0693917D01*
X0143523Y0694731D01*
X0143638Y0695605D01*
Y0696180D01*
D02*
G37*
G36*
X0093200D02*
X0090825D01*
Y0695605D01*
X0090940Y0694731D01*
X0091277Y0693917D01*
X0091813Y0693218D01*
X0092512Y0692682D01*
X0093200Y0692397D01*
Y0696180D01*
D02*
G37*
G36*
X0116661Y0679332D02*
X0115893Y0679179D01*
X0115241Y0678744D01*
X0115101Y0678534D01*
X0114984Y0678613D01*
X0114216Y0678765D01*
X0113448Y0678613D01*
X0113076Y0678364D01*
X0111377D01*
X0111377Y0678364D01*
X0110763Y0678242D01*
X0110242Y0677894D01*
X0105970Y0673622D01*
X0105622Y0673101D01*
X0105500Y0672487D01*
X0105500Y0672487D01*
Y0667947D01*
X0105500Y0667947D01*
X0105622Y0667333D01*
X0105970Y0666812D01*
X0107943Y0664840D01*
X0107943Y0664839D01*
X0108464Y0664491D01*
X0109078Y0664369D01*
X0109078Y0664369D01*
X0121283D01*
X0121283Y0664369D01*
X0121898Y0664491D01*
X0122419Y0664839D01*
X0123831Y0666252D01*
X0124434Y0666372D01*
X0125117Y0666828D01*
X0125652Y0666728D01*
X0125915Y0666527D01*
X0126567Y0666256D01*
X0127267Y0666164D01*
X0127967Y0666256D01*
X0128619Y0666527D01*
X0129179Y0666956D01*
X0129609Y0667516D01*
X0129879Y0668169D01*
X0129971Y0668868D01*
Y0670475D01*
X0129971Y0670475D01*
X0129879Y0671175D01*
X0129609Y0671827D01*
X0129179Y0672387D01*
X0129179Y0672387D01*
X0125951Y0675615D01*
X0125391Y0676045D01*
X0124739Y0676315D01*
X0124389Y0676361D01*
X0124039Y0676407D01*
X0124039Y0676407D01*
X0121391D01*
X0120984Y0676907D01*
X0121057Y0677279D01*
X0120905Y0678047D01*
X0120470Y0678698D01*
X0119818Y0679133D01*
X0119050Y0679286D01*
X0118282Y0679133D01*
X0117890Y0678871D01*
X0117429Y0679179D01*
X0116661Y0679332D01*
D02*
G37*
G36*
X0137416Y0675314D02*
X0135239D01*
Y0670760D01*
X0135828Y0671003D01*
X0136486Y0671508D01*
X0136990Y0672166D01*
X0137308Y0672932D01*
X0137416Y0673755D01*
Y0675314D01*
D02*
G37*
G36*
X0105794Y0677676D02*
X0101503D01*
X0097047D01*
Y0677314D01*
X0100224D01*
Y0676313D01*
X0101224D01*
Y0670760D01*
X0101812Y0671003D01*
X0102470Y0671508D01*
X0102975Y0672166D01*
X0103292Y0672932D01*
X0103400Y0673755D01*
Y0675408D01*
X0103459Y0675415D01*
X0104273Y0675753D01*
X0104973Y0676289D01*
X0105509Y0676988D01*
X0105794Y0677676D01*
D02*
G37*
G36*
X0137416D02*
X0132960D01*
X0128669D01*
X0128954Y0676988D01*
X0129490Y0676289D01*
X0130190Y0675753D01*
X0131004Y0675415D01*
X0131063Y0675408D01*
Y0673755D01*
X0131171Y0672932D01*
X0131488Y0672166D01*
X0131993Y0671508D01*
X0132651Y0671003D01*
X0133239Y0670760D01*
Y0676313D01*
X0134239D01*
Y0677314D01*
X0137416D01*
Y0677676D01*
D02*
G37*
G36*
X0099224Y0675314D02*
X0097047D01*
Y0673755D01*
X0097155Y0672932D01*
X0097473Y0672166D01*
X0097977Y0671508D01*
X0098635Y0671003D01*
X0099224Y0670760D01*
Y0675314D01*
D02*
G37*
G36*
X0118153Y0662653D02*
X0117346Y0662493D01*
X0116707Y0662066D01*
X0116144Y0662441D01*
X0115338Y0662602D01*
X0114531Y0662441D01*
X0113848Y0661985D01*
X0113391Y0661301D01*
X0113230Y0660495D01*
X0113391Y0659688D01*
X0113848Y0659004D01*
X0114531Y0658547D01*
X0115338Y0658387D01*
X0116144Y0658547D01*
X0116784Y0658975D01*
X0117346Y0658599D01*
X0118153Y0658438D01*
X0118959Y0658599D01*
X0119643Y0659056D01*
X0120100Y0659739D01*
X0120260Y0660546D01*
X0120100Y0661352D01*
X0119643Y0662036D01*
X0118959Y0662493D01*
X0118153Y0662653D01*
D02*
G37*
G36*
X0120271Y0641598D02*
X0119464Y0641437D01*
X0118781Y0640981D01*
X0118324Y0640297D01*
X0118164Y0639491D01*
X0118324Y0638684D01*
X0118665Y0638173D01*
X0118643Y0638158D01*
X0118186Y0637474D01*
X0118026Y0636668D01*
X0118186Y0635861D01*
X0118643Y0635178D01*
X0119327Y0634721D01*
X0120133Y0634560D01*
X0120940Y0634721D01*
X0121623Y0635178D01*
X0122080Y0635861D01*
X0122240Y0636668D01*
X0122080Y0637474D01*
X0121739Y0637985D01*
X0121761Y0638000D01*
X0122218Y0638684D01*
X0122378Y0639491D01*
X0122218Y0640297D01*
X0121761Y0640981D01*
X0121077Y0641437D01*
X0120271Y0641598D01*
D02*
G37*
%LPD*%
G36*
X0113653Y0676207D02*
X0113620Y0676237D01*
X0113580Y0676264D01*
X0113535Y0676287D01*
X0113485Y0676308D01*
X0113428Y0676325D01*
X0113366Y0676339D01*
X0113298Y0676350D01*
X0113225Y0676358D01*
X0113061Y0676365D01*
Y0677152D01*
X0113146Y0677153D01*
X0113298Y0677166D01*
X0113366Y0677177D01*
X0113428Y0677191D01*
X0113485Y0677209D01*
X0113535Y0677229D01*
X0113580Y0677253D01*
X0113620Y0677280D01*
X0113653Y0677310D01*
Y0676207D01*
D02*
G37*
G36*
X0123618Y0667433D02*
X0123555Y0667430D01*
X0123491Y0667421D01*
X0123427Y0667405D01*
X0123362Y0667382D01*
X0123297Y0667352D01*
X0123232Y0667316D01*
X0123167Y0667273D01*
X0123101Y0667223D01*
X0123035Y0667167D01*
X0122969Y0667103D01*
X0122412Y0667660D01*
X0122475Y0667726D01*
X0122531Y0667793D01*
X0122581Y0667858D01*
X0122624Y0667924D01*
X0122661Y0667989D01*
X0122690Y0668054D01*
X0122713Y0668118D01*
X0122729Y0668182D01*
X0122739Y0668246D01*
X0122741Y0668310D01*
X0123618Y0667433D01*
D02*
G37*
%LPC*%
G36*
X0238432Y0686956D02*
X0237626Y0686796D01*
X0236942Y0686339D01*
X0236773D01*
X0236089Y0686796D01*
X0235283Y0686956D01*
X0234476Y0686796D01*
X0233792Y0686339D01*
X0233336Y0685655D01*
X0233175Y0684849D01*
X0233336Y0684042D01*
X0233792Y0683359D01*
X0234476Y0682902D01*
X0235283Y0682741D01*
X0236089Y0682902D01*
X0236773Y0683359D01*
X0236942D01*
X0237626Y0682902D01*
X0238432Y0682741D01*
X0239239Y0682902D01*
X0239922Y0683359D01*
X0240379Y0684042D01*
X0240540Y0684849D01*
X0240379Y0685655D01*
X0239922Y0686339D01*
X0239239Y0686796D01*
X0238432Y0686956D01*
D02*
G37*
G36*
X0272468Y0688499D02*
X0271661Y0688339D01*
X0270978Y0687882D01*
X0270521Y0687199D01*
X0270360Y0686392D01*
X0270521Y0685586D01*
X0270978Y0684902D01*
X0271661Y0684445D01*
X0272468Y0684285D01*
X0273274Y0684445D01*
X0273958Y0684902D01*
X0274415Y0685586D01*
X0274575Y0686392D01*
X0274415Y0687199D01*
X0273958Y0687882D01*
X0273274Y0688339D01*
X0272468Y0688499D01*
D02*
G37*
G36*
X0257330Y0686956D02*
X0256523Y0686796D01*
X0255840Y0686339D01*
X0255383Y0685655D01*
X0255223Y0684849D01*
X0255383Y0684042D01*
X0255840Y0683359D01*
X0256523Y0682902D01*
X0257330Y0682741D01*
X0258136Y0682902D01*
X0258820Y0683359D01*
X0259277Y0684042D01*
X0259437Y0684849D01*
X0259277Y0685655D01*
X0258820Y0686339D01*
X0258136Y0686796D01*
X0257330Y0686956D01*
D02*
G37*
G36*
X0224259D02*
X0223453Y0686796D01*
X0222769Y0686339D01*
X0222312Y0685655D01*
X0222152Y0684849D01*
X0222312Y0684042D01*
X0222769Y0683359D01*
X0223453Y0682902D01*
X0224259Y0682741D01*
X0225065Y0682902D01*
X0225749Y0683359D01*
X0226206Y0684042D01*
X0226366Y0684849D01*
X0226206Y0685655D01*
X0225749Y0686339D01*
X0225065Y0686796D01*
X0224259Y0686956D01*
D02*
G37*
G36*
X0265669Y0675468D02*
X0264862Y0675308D01*
X0264178Y0674851D01*
X0263721Y0674167D01*
X0263561Y0673361D01*
X0263721Y0672554D01*
X0264178Y0671871D01*
X0264862Y0671414D01*
X0265669Y0671253D01*
X0266475Y0671414D01*
X0267159Y0671871D01*
X0267616Y0672554D01*
X0267776Y0673361D01*
X0267616Y0674167D01*
X0267159Y0674851D01*
X0266475Y0675308D01*
X0265669Y0675468D01*
D02*
G37*
G36*
X0212771Y0673893D02*
X0211964Y0673733D01*
X0211281Y0673276D01*
X0210824Y0672592D01*
X0210664Y0671786D01*
X0210824Y0670979D01*
X0211281Y0670296D01*
X0211964Y0669839D01*
X0212771Y0669678D01*
X0213577Y0669839D01*
X0214261Y0670296D01*
X0214718Y0670979D01*
X0214878Y0671786D01*
X0214718Y0672592D01*
X0214261Y0673276D01*
X0213577Y0673733D01*
X0212771Y0673893D01*
D02*
G37*
G36*
X0265728Y0670685D02*
X0264921Y0670524D01*
X0264237Y0670067D01*
X0263781Y0669384D01*
X0263620Y0668577D01*
X0263781Y0667771D01*
X0264237Y0667087D01*
X0264921Y0666630D01*
X0265728Y0666470D01*
X0266534Y0666630D01*
X0267218Y0667087D01*
X0267675Y0667771D01*
X0267835Y0668577D01*
X0267675Y0669384D01*
X0267218Y0670067D01*
X0266534Y0670524D01*
X0265728Y0670685D01*
D02*
G37*
G36*
X0214940Y0666173D02*
X0214134Y0666012D01*
X0213450Y0665555D01*
X0212993Y0664872D01*
X0212833Y0664065D01*
X0212993Y0663259D01*
X0213450Y0662575D01*
X0214134Y0662118D01*
X0214940Y0661958D01*
X0215747Y0662118D01*
X0216430Y0662575D01*
X0216887Y0663259D01*
X0217048Y0664065D01*
X0216887Y0664872D01*
X0216430Y0665555D01*
X0215747Y0666012D01*
X0214940Y0666173D01*
D02*
G37*
G36*
X0250539Y0663618D02*
X0249732Y0663457D01*
X0249048Y0663000D01*
X0248592Y0662317D01*
X0248431Y0661510D01*
X0248592Y0660704D01*
X0248908Y0660231D01*
X0248592Y0659758D01*
X0248431Y0658951D01*
X0248592Y0658145D01*
X0249048Y0657461D01*
X0249732Y0657004D01*
X0250539Y0656844D01*
X0251345Y0657004D01*
X0252029Y0657461D01*
X0252486Y0658145D01*
X0252646Y0658951D01*
X0252486Y0659758D01*
X0252169Y0660231D01*
X0252486Y0660704D01*
X0252646Y0661510D01*
X0252486Y0662317D01*
X0252029Y0663000D01*
X0251345Y0663457D01*
X0250539Y0663618D01*
D02*
G37*
G36*
X0265417Y0658055D02*
X0264610Y0657894D01*
X0263926Y0657437D01*
X0263470Y0656754D01*
X0263309Y0655947D01*
X0263470Y0655141D01*
X0263926Y0654457D01*
X0264610Y0654000D01*
X0265417Y0653840D01*
X0266223Y0654000D01*
X0266907Y0654457D01*
X0267364Y0655141D01*
X0267524Y0655947D01*
X0267364Y0656754D01*
X0266907Y0657437D01*
X0266223Y0657894D01*
X0265417Y0658055D01*
D02*
G37*
G36*
X0182070Y0656707D02*
X0181264Y0656547D01*
X0180580Y0656090D01*
X0180123Y0655407D01*
X0179963Y0654600D01*
X0180123Y0653793D01*
X0180301Y0653528D01*
X0180153Y0653306D01*
X0179993Y0652500D01*
X0180153Y0651693D01*
X0180610Y0651010D01*
X0181293Y0650553D01*
X0182100Y0650393D01*
X0182906Y0650553D01*
X0183590Y0651010D01*
X0184047Y0651693D01*
X0184207Y0652500D01*
X0184047Y0653306D01*
X0183869Y0653572D01*
X0184017Y0653793D01*
X0184177Y0654600D01*
X0184017Y0655407D01*
X0183560Y0656090D01*
X0182877Y0656547D01*
X0182070Y0656707D01*
D02*
G37*
G36*
X0265669Y0642397D02*
X0264862Y0642237D01*
X0264178Y0641780D01*
X0263721Y0641096D01*
X0263561Y0640290D01*
X0263721Y0639483D01*
X0264178Y0638800D01*
X0264862Y0638343D01*
X0265669Y0638182D01*
X0266475Y0638343D01*
X0267159Y0638800D01*
X0267616Y0639483D01*
X0267776Y0640290D01*
X0267616Y0641096D01*
X0267159Y0641780D01*
X0266475Y0642237D01*
X0265669Y0642397D01*
D02*
G37*
G36*
X0212771Y0645547D02*
X0211964Y0645386D01*
X0211281Y0644930D01*
X0210824Y0644246D01*
X0210664Y0643439D01*
X0210824Y0642633D01*
X0211281Y0641949D01*
Y0641780D01*
X0210824Y0641096D01*
X0210664Y0640290D01*
X0210824Y0639483D01*
X0211281Y0638800D01*
X0211964Y0638343D01*
X0212771Y0638182D01*
X0213577Y0638343D01*
X0214261Y0638800D01*
X0214718Y0639483D01*
X0214878Y0640290D01*
X0214718Y0641096D01*
X0214261Y0641780D01*
Y0641949D01*
X0214718Y0642633D01*
X0214878Y0643439D01*
X0214718Y0644246D01*
X0214261Y0644930D01*
X0213577Y0645386D01*
X0212771Y0645547D01*
D02*
G37*
G36*
X0273850Y0640055D02*
X0273043Y0639894D01*
X0272359Y0639437D01*
X0271903Y0638754D01*
X0271742Y0637947D01*
X0271903Y0637141D01*
X0272359Y0636457D01*
X0273043Y0636000D01*
X0273850Y0635840D01*
X0274656Y0636000D01*
X0275340Y0636457D01*
X0275797Y0637141D01*
X0275957Y0637947D01*
X0275797Y0638754D01*
X0275340Y0639437D01*
X0274656Y0639894D01*
X0273850Y0640055D01*
D02*
G37*
G36*
X0191732Y0641460D02*
X0190925Y0641300D01*
X0190242Y0640843D01*
X0189785Y0640160D01*
X0189624Y0639353D01*
X0189785Y0638547D01*
X0190101Y0638073D01*
X0189785Y0637600D01*
X0189624Y0636794D01*
X0189785Y0635987D01*
X0190242Y0635303D01*
X0190925Y0634847D01*
X0191732Y0634686D01*
X0192538Y0634847D01*
X0193222Y0635303D01*
X0193679Y0635987D01*
X0193839Y0636794D01*
X0193679Y0637600D01*
X0193362Y0638073D01*
X0193679Y0638547D01*
X0193839Y0639353D01*
X0193679Y0640160D01*
X0193222Y0640843D01*
X0192538Y0641300D01*
X0191732Y0641460D01*
D02*
G37*
G36*
X0243920Y0634173D02*
X0243114Y0634012D01*
X0242430Y0633556D01*
X0241973Y0632872D01*
X0241813Y0632065D01*
X0241973Y0631259D01*
X0242430Y0630575D01*
X0243114Y0630118D01*
X0243920Y0629958D01*
X0244727Y0630118D01*
X0245411Y0630575D01*
X0245867Y0631259D01*
X0246028Y0632065D01*
X0245867Y0632872D01*
X0245411Y0633556D01*
X0244727Y0634012D01*
X0243920Y0634173D01*
D02*
G37*
G36*
X0236858Y0634059D02*
X0236051Y0633898D01*
X0235367Y0633441D01*
X0234910Y0632758D01*
X0234750Y0631951D01*
X0234910Y0631145D01*
X0235367Y0630461D01*
X0236051Y0630004D01*
X0236858Y0629844D01*
X0237664Y0630004D01*
X0238348Y0630461D01*
X0238805Y0631145D01*
X0238965Y0631951D01*
X0238805Y0632758D01*
X0238348Y0633441D01*
X0237664Y0633898D01*
X0236858Y0634059D01*
D02*
G37*
G36*
X0224259D02*
X0223453Y0633898D01*
X0222769Y0633441D01*
X0222312Y0632758D01*
X0222152Y0631951D01*
X0222312Y0631145D01*
X0222769Y0630461D01*
X0223453Y0630004D01*
X0224259Y0629844D01*
X0225065Y0630004D01*
X0225749Y0630461D01*
X0226206Y0631145D01*
X0226366Y0631951D01*
X0226206Y0632758D01*
X0225749Y0633441D01*
X0225065Y0633898D01*
X0224259Y0634059D01*
D02*
G37*
G36*
X0231885Y0625444D02*
X0231079Y0625284D01*
X0230395Y0624827D01*
X0229938Y0624144D01*
X0229805Y0623476D01*
X0229550Y0623527D01*
X0228744Y0623367D01*
X0228060Y0622910D01*
X0227603Y0622226D01*
X0227443Y0621420D01*
X0227603Y0620613D01*
X0228060Y0619930D01*
X0228744Y0619473D01*
X0229550Y0619312D01*
X0230357Y0619473D01*
X0231041Y0619930D01*
X0231497Y0620613D01*
X0231630Y0621280D01*
X0231885Y0621230D01*
X0232692Y0621390D01*
X0233375Y0621847D01*
X0233832Y0622531D01*
X0233993Y0623337D01*
X0233832Y0624144D01*
X0233375Y0624827D01*
X0232692Y0625284D01*
X0231885Y0625444D01*
D02*
G37*
G36*
X0225566Y0620775D02*
X0224760Y0620615D01*
X0224162Y0620216D01*
X0223838Y0620175D01*
X0223513Y0620216D01*
X0222916Y0620615D01*
X0222110Y0620775D01*
X0221303Y0620615D01*
X0220619Y0620158D01*
X0220163Y0619474D01*
X0220002Y0618668D01*
X0220163Y0617861D01*
X0220619Y0617178D01*
X0221303Y0616721D01*
X0222110Y0616560D01*
X0222916Y0616721D01*
X0223513Y0617120D01*
X0223838Y0617160D01*
X0224162Y0617120D01*
X0224760Y0616721D01*
X0225566Y0616560D01*
X0226373Y0616721D01*
X0227056Y0617178D01*
X0227513Y0617861D01*
X0227674Y0618668D01*
X0227513Y0619474D01*
X0227056Y0620158D01*
X0226373Y0620615D01*
X0225566Y0620775D01*
D02*
G37*
G36*
X0214483Y0626173D02*
X0213677Y0626012D01*
X0212993Y0625556D01*
X0212537Y0624872D01*
X0212376Y0624065D01*
X0212537Y0623259D01*
X0212925Y0622677D01*
X0212749Y0622559D01*
X0212292Y0621876D01*
X0212132Y0621069D01*
X0212292Y0620263D01*
X0212749Y0619579D01*
X0213433Y0619122D01*
X0214239Y0618962D01*
X0215046Y0619122D01*
X0215729Y0619579D01*
X0216186Y0620263D01*
X0216347Y0621069D01*
X0216186Y0621876D01*
X0215798Y0622458D01*
X0215974Y0622575D01*
X0216430Y0623259D01*
X0216591Y0624065D01*
X0216430Y0624872D01*
X0215974Y0625556D01*
X0215290Y0626012D01*
X0214483Y0626173D01*
D02*
G37*
G36*
X0212141Y0615448D02*
X0211334Y0615288D01*
X0210651Y0614831D01*
X0210194Y0614147D01*
X0210033Y0613341D01*
X0210194Y0612535D01*
X0210651Y0611851D01*
X0211334Y0611394D01*
X0212141Y0611234D01*
X0212947Y0611394D01*
X0213631Y0611851D01*
X0214088Y0612535D01*
X0214248Y0613341D01*
X0214088Y0614147D01*
X0213631Y0614831D01*
X0212947Y0615288D01*
X0212141Y0615448D01*
D02*
G37*
G36*
X0272224Y0613811D02*
X0271417Y0613650D01*
X0270733Y0613193D01*
X0270277Y0612510D01*
X0270116Y0611703D01*
X0270277Y0610897D01*
X0270733Y0610213D01*
X0271417Y0609756D01*
X0272224Y0609596D01*
X0273030Y0609756D01*
X0273714Y0610213D01*
X0274171Y0610897D01*
X0274331Y0611703D01*
X0274171Y0612510D01*
X0273714Y0613193D01*
X0273030Y0613650D01*
X0272224Y0613811D01*
D02*
G37*
G36*
X0209035Y0611889D02*
X0208228Y0611729D01*
X0207544Y0611272D01*
X0207088Y0610588D01*
X0206927Y0609782D01*
X0207088Y0608975D01*
X0207544Y0608292D01*
X0208228Y0607835D01*
X0209035Y0607675D01*
X0209841Y0607835D01*
X0210525Y0608292D01*
X0210982Y0608975D01*
X0211142Y0609782D01*
X0210982Y0610588D01*
X0210525Y0611272D01*
X0209841Y0611729D01*
X0209035Y0611889D01*
D02*
G37*
G36*
X0272110Y0608925D02*
X0271303Y0608764D01*
X0270619Y0608308D01*
X0270163Y0607624D01*
X0270002Y0606817D01*
X0270163Y0606011D01*
X0270619Y0605327D01*
X0271303Y0604870D01*
X0272110Y0604710D01*
X0272916Y0604870D01*
X0273600Y0605327D01*
X0274056Y0606011D01*
X0274217Y0606817D01*
X0274056Y0607624D01*
X0273600Y0608308D01*
X0272916Y0608764D01*
X0272110Y0608925D01*
D02*
G37*
G36*
X0244625Y0607252D02*
X0243819Y0607091D01*
X0243135Y0606634D01*
X0242678Y0605951D01*
X0242518Y0605144D01*
X0242678Y0604338D01*
X0243135Y0603654D01*
X0243819Y0603197D01*
X0244625Y0603037D01*
X0245432Y0603197D01*
X0246115Y0603654D01*
X0246572Y0604338D01*
X0246733Y0605144D01*
X0246572Y0605951D01*
X0246115Y0606634D01*
X0245432Y0607091D01*
X0244625Y0607252D01*
D02*
G37*
G36*
X0239771D02*
X0238964Y0607091D01*
X0238281Y0606634D01*
X0237824Y0605951D01*
X0237664Y0605144D01*
X0237824Y0604338D01*
X0238281Y0603654D01*
X0238964Y0603197D01*
X0239771Y0603037D01*
X0240577Y0603197D01*
X0241261Y0603654D01*
X0241718Y0604338D01*
X0241878Y0605144D01*
X0241718Y0605951D01*
X0241261Y0606634D01*
X0240577Y0607091D01*
X0239771Y0607252D01*
D02*
G37*
G36*
X0176917Y0605275D02*
X0176110Y0605115D01*
X0175426Y0604658D01*
X0174970Y0603974D01*
X0174809Y0603168D01*
X0174970Y0602361D01*
X0175426Y0601678D01*
X0176110Y0601221D01*
X0176917Y0601060D01*
X0177723Y0601221D01*
X0178407Y0601678D01*
X0178864Y0602361D01*
X0179024Y0603168D01*
X0178864Y0603974D01*
X0178407Y0604658D01*
X0177723Y0605115D01*
X0176917Y0605275D01*
D02*
G37*
G36*
X0272110Y0603925D02*
X0271303Y0603764D01*
X0270619Y0603307D01*
X0270163Y0602624D01*
X0270002Y0601817D01*
X0270163Y0601011D01*
X0270619Y0600327D01*
X0271303Y0599870D01*
X0272110Y0599710D01*
X0272916Y0599870D01*
X0273600Y0600327D01*
X0274056Y0601011D01*
X0274217Y0601817D01*
X0274056Y0602624D01*
X0273600Y0603307D01*
X0272916Y0603764D01*
X0272110Y0603925D01*
D02*
G37*
G36*
X0171200Y0601496D02*
X0170394Y0601335D01*
X0169710Y0600878D01*
X0169253Y0600195D01*
X0169093Y0599388D01*
X0169199Y0598853D01*
X0168805Y0598421D01*
X0168629Y0598456D01*
X0167823Y0598296D01*
X0167139Y0597839D01*
X0166864Y0597427D01*
X0166279Y0597451D01*
X0165978Y0597902D01*
X0165294Y0598359D01*
X0164487Y0598519D01*
X0163681Y0598359D01*
X0162997Y0597902D01*
X0162540Y0597218D01*
X0162380Y0596412D01*
X0162540Y0595605D01*
X0162997Y0594922D01*
X0163681Y0594465D01*
X0164487Y0594304D01*
X0164585Y0593814D01*
X0164666Y0593405D01*
X0165123Y0592721D01*
X0165807Y0592264D01*
X0166613Y0592104D01*
X0167420Y0592264D01*
X0168104Y0592721D01*
X0168560Y0593405D01*
X0168721Y0594211D01*
X0168711Y0594258D01*
X0169436Y0594402D01*
X0170119Y0594859D01*
X0170576Y0595542D01*
X0170737Y0596349D01*
X0170630Y0596884D01*
X0171025Y0597316D01*
X0171200Y0597281D01*
X0172006Y0597441D01*
X0172690Y0597898D01*
X0173147Y0598582D01*
X0173307Y0599388D01*
X0173147Y0600195D01*
X0172690Y0600878D01*
X0172006Y0601335D01*
X0171200Y0601496D01*
D02*
G37*
G36*
X0204997Y0601594D02*
X0204191Y0601434D01*
X0203507Y0600977D01*
X0203050Y0600293D01*
X0202890Y0599487D01*
X0203050Y0598680D01*
X0203507Y0597997D01*
X0204191Y0597540D01*
X0204997Y0597379D01*
X0205804Y0597540D01*
X0206487Y0597997D01*
X0206944Y0598680D01*
X0207105Y0599487D01*
X0206944Y0600293D01*
X0206487Y0600977D01*
X0205804Y0601434D01*
X0204997Y0601594D01*
D02*
G37*
G36*
X0272110Y0598925D02*
X0271303Y0598764D01*
X0270619Y0598308D01*
X0270163Y0597624D01*
X0270002Y0596817D01*
X0270163Y0596011D01*
X0270619Y0595327D01*
X0271303Y0594870D01*
X0272110Y0594710D01*
X0272916Y0594870D01*
X0273600Y0595327D01*
X0274056Y0596011D01*
X0274217Y0596817D01*
X0274056Y0597624D01*
X0273600Y0598308D01*
X0272916Y0598764D01*
X0272110Y0598925D01*
D02*
G37*
G36*
X0201165Y0595893D02*
X0200358Y0595733D01*
X0199674Y0595276D01*
X0199218Y0594592D01*
X0199057Y0593786D01*
X0199218Y0592979D01*
X0199674Y0592296D01*
X0200358Y0591839D01*
X0201165Y0591678D01*
X0201971Y0591839D01*
X0202655Y0592296D01*
X0203112Y0592979D01*
X0203272Y0593786D01*
X0203112Y0594592D01*
X0202655Y0595276D01*
X0201971Y0595733D01*
X0201165Y0595893D01*
D02*
G37*
G36*
X0211511Y0595297D02*
X0210704Y0595136D01*
X0210021Y0594679D01*
X0209564Y0593996D01*
X0209404Y0593189D01*
X0209564Y0592383D01*
X0210021Y0591699D01*
X0210704Y0591242D01*
X0211511Y0591082D01*
X0212317Y0591242D01*
X0213001Y0591699D01*
X0213458Y0592383D01*
X0213618Y0593189D01*
X0213458Y0593996D01*
X0213001Y0594679D01*
X0212317Y0595136D01*
X0211511Y0595297D01*
D02*
G37*
G36*
X0083358Y0600312D02*
X0082689Y0600224D01*
X0082067Y0599966D01*
X0081532Y0599556D01*
X0081122Y0599021D01*
X0080864Y0598399D01*
X0080776Y0597731D01*
X0080864Y0597063D01*
X0081122Y0596440D01*
X0081532Y0595906D01*
X0081991Y0595554D01*
X0082065Y0595214D01*
X0082064Y0594955D01*
X0081699Y0594480D01*
X0081441Y0593857D01*
X0081353Y0593189D01*
X0081441Y0592521D01*
X0081699Y0591899D01*
X0082109Y0591364D01*
X0082644Y0590954D01*
X0083266Y0590696D01*
X0083934Y0590608D01*
X0084602Y0590696D01*
X0085225Y0590954D01*
X0085759Y0591364D01*
X0086170Y0591899D01*
X0086427Y0592521D01*
X0086515Y0593189D01*
X0086427Y0593857D01*
X0086170Y0594480D01*
X0085759Y0595014D01*
X0085301Y0595366D01*
X0085226Y0595706D01*
X0085228Y0595965D01*
X0085593Y0596440D01*
X0085851Y0597063D01*
X0085939Y0597731D01*
X0085851Y0598399D01*
X0085593Y0599021D01*
X0085183Y0599556D01*
X0084648Y0599966D01*
X0084026Y0600224D01*
X0083358Y0600312D01*
D02*
G37*
G36*
X0272125Y0594185D02*
X0271319Y0594024D01*
X0270635Y0593567D01*
X0270178Y0592884D01*
X0270018Y0592077D01*
X0270178Y0591271D01*
X0270635Y0590587D01*
X0271319Y0590130D01*
X0272125Y0589970D01*
X0272932Y0590130D01*
X0273615Y0590587D01*
X0274072Y0591271D01*
X0274233Y0592077D01*
X0274072Y0592884D01*
X0273615Y0593567D01*
X0272932Y0594024D01*
X0272125Y0594185D01*
D02*
G37*
G36*
X0206527Y0593850D02*
X0205720Y0593689D01*
X0205037Y0593233D01*
X0204580Y0592549D01*
X0204419Y0591743D01*
X0204580Y0590936D01*
X0204594Y0590915D01*
X0204406Y0590567D01*
X0204300Y0590455D01*
X0198054D01*
X0197515Y0590347D01*
X0197058Y0590042D01*
X0196753Y0589585D01*
X0196645Y0589046D01*
Y0582754D01*
X0196753Y0582215D01*
X0197058Y0581758D01*
X0197515Y0581453D01*
X0198054Y0581345D01*
X0204346D01*
X0204885Y0581453D01*
X0205342Y0581758D01*
X0205647Y0582215D01*
X0205755Y0582754D01*
Y0589046D01*
X0205706Y0589289D01*
X0206115Y0589717D01*
X0206527Y0589635D01*
X0207333Y0589795D01*
X0208017Y0590252D01*
X0208474Y0590936D01*
X0208634Y0591743D01*
X0208474Y0592549D01*
X0208017Y0593233D01*
X0207333Y0593689D01*
X0206527Y0593850D01*
D02*
G37*
G36*
X0126346Y0590455D02*
X0120054D01*
X0119515Y0590347D01*
X0119058Y0590042D01*
X0118753Y0589585D01*
X0118645Y0589046D01*
Y0582754D01*
X0118753Y0582215D01*
X0119058Y0581758D01*
X0119515Y0581453D01*
X0120054Y0581345D01*
X0126346D01*
X0126885Y0581453D01*
X0127342Y0581758D01*
X0127647Y0582215D01*
X0127755Y0582754D01*
Y0589046D01*
X0127647Y0589585D01*
X0127342Y0590042D01*
X0126885Y0590347D01*
X0126346Y0590455D01*
D02*
G37*
G36*
X0191200Y0590467D02*
X0190018Y0590311D01*
X0188917Y0589855D01*
X0187971Y0589129D01*
X0187245Y0588183D01*
X0186789Y0587082D01*
X0186633Y0585900D01*
X0186789Y0584718D01*
X0187245Y0583617D01*
X0187971Y0582671D01*
X0188917Y0581945D01*
X0190018Y0581489D01*
X0191200Y0581333D01*
X0192382Y0581489D01*
X0193483Y0581945D01*
X0194429Y0582671D01*
X0195155Y0583617D01*
X0195611Y0584718D01*
X0195767Y0585900D01*
X0195611Y0587082D01*
X0195155Y0588183D01*
X0194429Y0589129D01*
X0193483Y0589855D01*
X0192382Y0590311D01*
X0191200Y0590467D01*
D02*
G37*
G36*
X0181200D02*
X0180018Y0590311D01*
X0178917Y0589855D01*
X0177971Y0589129D01*
X0177245Y0588183D01*
X0176789Y0587082D01*
X0176633Y0585900D01*
X0176789Y0584718D01*
X0177245Y0583617D01*
X0177971Y0582671D01*
X0178917Y0581945D01*
X0180018Y0581489D01*
X0181200Y0581333D01*
X0182382Y0581489D01*
X0183483Y0581945D01*
X0184429Y0582671D01*
X0185155Y0583617D01*
X0185611Y0584718D01*
X0185767Y0585900D01*
X0185611Y0587082D01*
X0185155Y0588183D01*
X0184429Y0589129D01*
X0183483Y0589855D01*
X0182382Y0590311D01*
X0181200Y0590467D01*
D02*
G37*
G36*
X0171200D02*
X0170018Y0590311D01*
X0168917Y0589855D01*
X0167971Y0589129D01*
X0167245Y0588183D01*
X0166789Y0587082D01*
X0166633Y0585900D01*
X0166789Y0584718D01*
X0167245Y0583617D01*
X0167971Y0582671D01*
X0168917Y0581945D01*
X0170018Y0581489D01*
X0171200Y0581333D01*
X0172382Y0581489D01*
X0173483Y0581945D01*
X0174429Y0582671D01*
X0175155Y0583617D01*
X0175611Y0584718D01*
X0175767Y0585900D01*
X0175611Y0587082D01*
X0175155Y0588183D01*
X0174429Y0589129D01*
X0173483Y0589855D01*
X0172382Y0590311D01*
X0171200Y0590467D01*
D02*
G37*
G36*
X0161200D02*
X0160018Y0590311D01*
X0158917Y0589855D01*
X0157971Y0589129D01*
X0157245Y0588183D01*
X0156789Y0587082D01*
X0156633Y0585900D01*
X0156789Y0584718D01*
X0157245Y0583617D01*
X0157971Y0582671D01*
X0158917Y0581945D01*
X0160018Y0581489D01*
X0161200Y0581333D01*
X0162382Y0581489D01*
X0163483Y0581945D01*
X0164429Y0582671D01*
X0165155Y0583617D01*
X0165611Y0584718D01*
X0165767Y0585900D01*
X0165611Y0587082D01*
X0165155Y0588183D01*
X0164429Y0589129D01*
X0163483Y0589855D01*
X0162382Y0590311D01*
X0161200Y0590467D01*
D02*
G37*
G36*
X0151200D02*
X0150018Y0590311D01*
X0148917Y0589855D01*
X0147971Y0589129D01*
X0147245Y0588183D01*
X0146789Y0587082D01*
X0146633Y0585900D01*
X0146789Y0584718D01*
X0147245Y0583617D01*
X0147971Y0582671D01*
X0148917Y0581945D01*
X0150018Y0581489D01*
X0151200Y0581333D01*
X0152382Y0581489D01*
X0153483Y0581945D01*
X0154429Y0582671D01*
X0155155Y0583617D01*
X0155611Y0584718D01*
X0155767Y0585900D01*
X0155611Y0587082D01*
X0155155Y0588183D01*
X0154429Y0589129D01*
X0153483Y0589855D01*
X0152382Y0590311D01*
X0151200Y0590467D01*
D02*
G37*
G36*
X0133200D02*
X0132018Y0590311D01*
X0130917Y0589855D01*
X0129971Y0589129D01*
X0129245Y0588183D01*
X0128789Y0587082D01*
X0128633Y0585900D01*
X0128789Y0584718D01*
X0129245Y0583617D01*
X0129971Y0582671D01*
X0130917Y0581945D01*
X0132018Y0581489D01*
X0133200Y0581333D01*
X0134382Y0581489D01*
X0135483Y0581945D01*
X0136429Y0582671D01*
X0137155Y0583617D01*
X0137611Y0584718D01*
X0137767Y0585900D01*
X0137611Y0587082D01*
X0137155Y0588183D01*
X0136429Y0589129D01*
X0135483Y0589855D01*
X0134382Y0590311D01*
X0133200Y0590467D01*
D02*
G37*
G36*
X0264299Y0580407D02*
X0263493Y0580247D01*
X0262809Y0579790D01*
X0262352Y0579107D01*
X0262192Y0578300D01*
X0262352Y0577493D01*
X0262809Y0576810D01*
X0263493Y0576353D01*
X0264299Y0576193D01*
X0265106Y0576353D01*
X0265789Y0576810D01*
X0266246Y0577493D01*
X0266406Y0578300D01*
X0266246Y0579107D01*
X0265789Y0579790D01*
X0265106Y0580247D01*
X0264299Y0580407D01*
D02*
G37*
G36*
X0201200Y0580467D02*
X0200018Y0580311D01*
X0198917Y0579855D01*
X0197971Y0579129D01*
X0197245Y0578183D01*
X0196789Y0577082D01*
X0196633Y0575900D01*
X0196789Y0574718D01*
X0197245Y0573617D01*
X0197971Y0572671D01*
X0198917Y0571945D01*
X0200018Y0571489D01*
X0201200Y0571333D01*
X0202382Y0571489D01*
X0203483Y0571945D01*
X0204429Y0572671D01*
X0205155Y0573617D01*
X0205611Y0574718D01*
X0205767Y0575900D01*
X0205611Y0577082D01*
X0205155Y0578183D01*
X0204429Y0579129D01*
X0203483Y0579855D01*
X0202382Y0580311D01*
X0201200Y0580467D01*
D02*
G37*
G36*
X0191200D02*
X0190018Y0580311D01*
X0188917Y0579855D01*
X0187971Y0579129D01*
X0187245Y0578183D01*
X0186789Y0577082D01*
X0186633Y0575900D01*
X0186789Y0574718D01*
X0187245Y0573617D01*
X0187971Y0572671D01*
X0188917Y0571945D01*
X0190018Y0571489D01*
X0191200Y0571333D01*
X0192382Y0571489D01*
X0193483Y0571945D01*
X0194429Y0572671D01*
X0195155Y0573617D01*
X0195611Y0574718D01*
X0195767Y0575900D01*
X0195611Y0577082D01*
X0195155Y0578183D01*
X0194429Y0579129D01*
X0193483Y0579855D01*
X0192382Y0580311D01*
X0191200Y0580467D01*
D02*
G37*
G36*
X0181200D02*
X0180018Y0580311D01*
X0178917Y0579855D01*
X0177971Y0579129D01*
X0177245Y0578183D01*
X0176789Y0577082D01*
X0176633Y0575900D01*
X0176789Y0574718D01*
X0177245Y0573617D01*
X0177971Y0572671D01*
X0178917Y0571945D01*
X0180018Y0571489D01*
X0181200Y0571333D01*
X0182382Y0571489D01*
X0183483Y0571945D01*
X0184429Y0572671D01*
X0185155Y0573617D01*
X0185611Y0574718D01*
X0185767Y0575900D01*
X0185611Y0577082D01*
X0185155Y0578183D01*
X0184429Y0579129D01*
X0183483Y0579855D01*
X0182382Y0580311D01*
X0181200Y0580467D01*
D02*
G37*
G36*
X0171200D02*
X0170018Y0580311D01*
X0168917Y0579855D01*
X0167971Y0579129D01*
X0167245Y0578183D01*
X0166789Y0577082D01*
X0166633Y0575900D01*
X0166789Y0574718D01*
X0167245Y0573617D01*
X0167971Y0572671D01*
X0168917Y0571945D01*
X0170018Y0571489D01*
X0171200Y0571333D01*
X0172382Y0571489D01*
X0173483Y0571945D01*
X0174429Y0572671D01*
X0175155Y0573617D01*
X0175611Y0574718D01*
X0175767Y0575900D01*
X0175611Y0577082D01*
X0175155Y0578183D01*
X0174429Y0579129D01*
X0173483Y0579855D01*
X0172382Y0580311D01*
X0171200Y0580467D01*
D02*
G37*
G36*
X0161200D02*
X0160018Y0580311D01*
X0158917Y0579855D01*
X0157971Y0579129D01*
X0157245Y0578183D01*
X0156789Y0577082D01*
X0156633Y0575900D01*
X0156789Y0574718D01*
X0157245Y0573617D01*
X0157971Y0572671D01*
X0158917Y0571945D01*
X0160018Y0571489D01*
X0161200Y0571333D01*
X0162382Y0571489D01*
X0163483Y0571945D01*
X0164429Y0572671D01*
X0165155Y0573617D01*
X0165611Y0574718D01*
X0165767Y0575900D01*
X0165611Y0577082D01*
X0165155Y0578183D01*
X0164429Y0579129D01*
X0163483Y0579855D01*
X0162382Y0580311D01*
X0161200Y0580467D01*
D02*
G37*
G36*
X0151200D02*
X0150018Y0580311D01*
X0148917Y0579855D01*
X0147971Y0579129D01*
X0147245Y0578183D01*
X0146789Y0577082D01*
X0146633Y0575900D01*
X0146789Y0574718D01*
X0147245Y0573617D01*
X0147971Y0572671D01*
X0148917Y0571945D01*
X0150018Y0571489D01*
X0151200Y0571333D01*
X0152382Y0571489D01*
X0153483Y0571945D01*
X0154429Y0572671D01*
X0155155Y0573617D01*
X0155611Y0574718D01*
X0155767Y0575900D01*
X0155611Y0577082D01*
X0155155Y0578183D01*
X0154429Y0579129D01*
X0153483Y0579855D01*
X0152382Y0580311D01*
X0151200Y0580467D01*
D02*
G37*
G36*
X0133200D02*
X0132018Y0580311D01*
X0130917Y0579855D01*
X0129971Y0579129D01*
X0129245Y0578183D01*
X0128789Y0577082D01*
X0128633Y0575900D01*
X0128789Y0574718D01*
X0129245Y0573617D01*
X0129971Y0572671D01*
X0130917Y0571945D01*
X0132018Y0571489D01*
X0133200Y0571333D01*
X0134382Y0571489D01*
X0135483Y0571945D01*
X0136429Y0572671D01*
X0137155Y0573617D01*
X0137611Y0574718D01*
X0137767Y0575900D01*
X0137611Y0577082D01*
X0137155Y0578183D01*
X0136429Y0579129D01*
X0135483Y0579855D01*
X0134382Y0580311D01*
X0133200Y0580467D01*
D02*
G37*
G36*
X0123200D02*
X0122018Y0580311D01*
X0120917Y0579855D01*
X0119971Y0579129D01*
X0119245Y0578183D01*
X0118789Y0577082D01*
X0118633Y0575900D01*
X0118789Y0574718D01*
X0119245Y0573617D01*
X0119971Y0572671D01*
X0120917Y0571945D01*
X0122018Y0571489D01*
X0123200Y0571333D01*
X0124382Y0571489D01*
X0125483Y0571945D01*
X0126429Y0572671D01*
X0127155Y0573617D01*
X0127611Y0574718D01*
X0127767Y0575900D01*
X0127611Y0577082D01*
X0127155Y0578183D01*
X0126429Y0579129D01*
X0125483Y0579855D01*
X0124382Y0580311D01*
X0123200Y0580467D01*
D02*
G37*
G36*
X0253287Y0576649D02*
X0252480Y0576489D01*
X0251797Y0576032D01*
X0251340Y0575348D01*
X0251179Y0574542D01*
X0251340Y0573735D01*
X0251797Y0573052D01*
X0252480Y0572595D01*
X0253287Y0572434D01*
X0253510Y0572479D01*
X0253766Y0572020D01*
X0253399Y0571470D01*
X0253238Y0570664D01*
X0253399Y0569857D01*
X0253855Y0569174D01*
X0254539Y0568717D01*
X0255346Y0568556D01*
X0256152Y0568717D01*
X0256836Y0569174D01*
X0257293Y0569857D01*
X0257453Y0570664D01*
X0257293Y0571470D01*
X0256836Y0572154D01*
X0256152Y0572611D01*
X0255346Y0572771D01*
X0255122Y0572727D01*
X0254866Y0573186D01*
X0255234Y0573735D01*
X0255394Y0574542D01*
X0255234Y0575348D01*
X0254777Y0576032D01*
X0254093Y0576489D01*
X0253287Y0576649D01*
D02*
G37*
G36*
X0244121Y0569562D02*
X0243315Y0569402D01*
X0242631Y0568945D01*
X0242174Y0568262D01*
X0242014Y0567455D01*
X0242174Y0566649D01*
X0242631Y0565965D01*
X0243315Y0565508D01*
X0244121Y0565348D01*
X0244928Y0565508D01*
X0245611Y0565965D01*
X0246068Y0566649D01*
X0246229Y0567455D01*
X0246068Y0568262D01*
X0245611Y0568945D01*
X0244928Y0569402D01*
X0244121Y0569562D01*
D02*
G37*
G36*
X0264798Y0569090D02*
X0263992Y0568930D01*
X0263308Y0568473D01*
X0262851Y0567789D01*
X0262691Y0566983D01*
X0262851Y0566176D01*
X0263308Y0565492D01*
X0263992Y0565036D01*
X0264798Y0564875D01*
X0265605Y0565036D01*
X0266289Y0565492D01*
X0266745Y0566176D01*
X0266906Y0566983D01*
X0266745Y0567789D01*
X0266289Y0568473D01*
X0265605Y0568930D01*
X0264798Y0569090D01*
D02*
G37*
G36*
X0275200Y0560831D02*
Y0556900D01*
X0279131D01*
X0279090Y0557210D01*
X0278585Y0558431D01*
X0277780Y0559480D01*
X0276731Y0560285D01*
X0275510Y0560790D01*
X0275200Y0560831D01*
D02*
G37*
G36*
X0273200D02*
X0272890Y0560790D01*
X0271669Y0560285D01*
X0270620Y0559480D01*
X0269815Y0558431D01*
X0269309Y0557210D01*
X0269269Y0556900D01*
X0273200D01*
Y0560831D01*
D02*
G37*
G36*
X0136964Y0559610D02*
X0136157Y0559449D01*
X0135474Y0558992D01*
X0135017Y0558309D01*
X0134856Y0557502D01*
X0135017Y0556696D01*
X0135474Y0556012D01*
X0136157Y0555555D01*
X0136964Y0555395D01*
X0137770Y0555555D01*
X0138454Y0556012D01*
X0138911Y0556696D01*
X0139071Y0557502D01*
X0138911Y0558309D01*
X0138454Y0558992D01*
X0137770Y0559449D01*
X0136964Y0559610D01*
D02*
G37*
G36*
X0097068Y0560159D02*
X0091332D01*
X0090800Y0560053D01*
X0090348Y0559752D01*
X0090047Y0559300D01*
X0089941Y0558768D01*
Y0553032D01*
X0090047Y0552500D01*
X0090348Y0552048D01*
X0090800Y0551747D01*
X0091332Y0551641D01*
X0097068D01*
X0097600Y0551747D01*
X0098052Y0552048D01*
X0098353Y0552500D01*
X0098459Y0553032D01*
Y0558768D01*
X0098353Y0559300D01*
X0098052Y0559752D01*
X0097600Y0560053D01*
X0097068Y0560159D01*
D02*
G37*
G36*
X0264200Y0560169D02*
X0263095Y0560023D01*
X0262066Y0559597D01*
X0261181Y0558919D01*
X0260503Y0558034D01*
X0260077Y0557005D01*
X0259931Y0555900D01*
X0260077Y0554795D01*
X0260503Y0553766D01*
X0261181Y0552881D01*
X0262066Y0552203D01*
X0263095Y0551777D01*
X0264200Y0551631D01*
X0265305Y0551777D01*
X0266334Y0552203D01*
X0267218Y0552881D01*
X0267897Y0553766D01*
X0268323Y0554795D01*
X0268469Y0555900D01*
X0268323Y0557005D01*
X0267897Y0558034D01*
X0267218Y0558919D01*
X0266334Y0559597D01*
X0265305Y0560023D01*
X0264200Y0560169D01*
D02*
G37*
G36*
X0104200D02*
X0103095Y0560023D01*
X0102066Y0559597D01*
X0101181Y0558919D01*
X0100503Y0558034D01*
X0100077Y0557005D01*
X0099931Y0555900D01*
X0100077Y0554795D01*
X0100503Y0553766D01*
X0101181Y0552881D01*
X0102066Y0552203D01*
X0103095Y0551777D01*
X0104200Y0551631D01*
X0105305Y0551777D01*
X0106334Y0552203D01*
X0107219Y0552881D01*
X0107897Y0553766D01*
X0108323Y0554795D01*
X0108469Y0555900D01*
X0108323Y0557005D01*
X0107897Y0558034D01*
X0107219Y0558919D01*
X0106334Y0559597D01*
X0105305Y0560023D01*
X0104200Y0560169D01*
D02*
G37*
G36*
X0279131Y0554900D02*
X0275200D01*
Y0550969D01*
X0275510Y0551010D01*
X0276731Y0551515D01*
X0277780Y0552320D01*
X0278585Y0553369D01*
X0279090Y0554590D01*
X0279131Y0554900D01*
D02*
G37*
G36*
X0273200D02*
X0269269D01*
X0269309Y0554590D01*
X0269815Y0553369D01*
X0270620Y0552320D01*
X0271669Y0551515D01*
X0272890Y0551010D01*
X0273200Y0550969D01*
Y0554900D01*
D02*
G37*
G36*
X0199165Y0553846D02*
X0198358Y0553686D01*
X0197674Y0553229D01*
X0197218Y0552545D01*
X0197057Y0551739D01*
X0197218Y0550932D01*
X0197674Y0550248D01*
X0198358Y0549792D01*
X0199165Y0549631D01*
X0199971Y0549792D01*
X0200655Y0550248D01*
X0201112Y0550932D01*
X0201272Y0551739D01*
X0201112Y0552545D01*
X0200655Y0553229D01*
X0199971Y0553686D01*
X0199165Y0553846D01*
D02*
G37*
G36*
X0105200Y0550831D02*
Y0546900D01*
X0109131D01*
X0109090Y0547210D01*
X0108585Y0548431D01*
X0107780Y0549480D01*
X0106731Y0550285D01*
X0105510Y0550791D01*
X0105200Y0550831D01*
D02*
G37*
G36*
X0103200D02*
X0102890Y0550791D01*
X0101669Y0550285D01*
X0100620Y0549480D01*
X0099815Y0548431D01*
X0099309Y0547210D01*
X0099269Y0546900D01*
X0103200D01*
Y0550831D01*
D02*
G37*
G36*
X0274200Y0550169D02*
X0273095Y0550023D01*
X0272066Y0549597D01*
X0271182Y0548918D01*
X0270503Y0548034D01*
X0270077Y0547005D01*
X0269931Y0545900D01*
X0270077Y0544795D01*
X0270503Y0543766D01*
X0271182Y0542881D01*
X0272066Y0542203D01*
X0273095Y0541777D01*
X0274200Y0541631D01*
X0275305Y0541777D01*
X0276334Y0542203D01*
X0277219Y0542881D01*
X0277897Y0543766D01*
X0278323Y0544795D01*
X0278469Y0545900D01*
X0278323Y0547005D01*
X0277897Y0548034D01*
X0277219Y0548918D01*
X0276334Y0549597D01*
X0275305Y0550023D01*
X0274200Y0550169D01*
D02*
G37*
G36*
X0264200D02*
X0263095Y0550023D01*
X0262066Y0549597D01*
X0261181Y0548918D01*
X0260503Y0548034D01*
X0260077Y0547005D01*
X0259931Y0545900D01*
X0260077Y0544795D01*
X0260503Y0543766D01*
X0261181Y0542881D01*
X0262066Y0542203D01*
X0263095Y0541777D01*
X0264200Y0541631D01*
X0265305Y0541777D01*
X0266334Y0542203D01*
X0267218Y0542881D01*
X0267897Y0543766D01*
X0268323Y0544795D01*
X0268469Y0545900D01*
X0268323Y0547005D01*
X0267897Y0548034D01*
X0267218Y0548918D01*
X0266334Y0549597D01*
X0265305Y0550023D01*
X0264200Y0550169D01*
D02*
G37*
G36*
X0094200D02*
X0093095Y0550023D01*
X0092066Y0549597D01*
X0091181Y0548918D01*
X0090503Y0548034D01*
X0090077Y0547005D01*
X0089931Y0545900D01*
X0090077Y0544795D01*
X0090503Y0543766D01*
X0091181Y0542881D01*
X0092066Y0542203D01*
X0093095Y0541777D01*
X0094200Y0541631D01*
X0095305Y0541777D01*
X0096334Y0542203D01*
X0097219Y0542881D01*
X0097897Y0543766D01*
X0098323Y0544795D01*
X0098469Y0545900D01*
X0098323Y0547005D01*
X0097897Y0548034D01*
X0097219Y0548918D01*
X0096334Y0549597D01*
X0095305Y0550023D01*
X0094200Y0550169D01*
D02*
G37*
G36*
X0201141Y0545315D02*
X0200335Y0545154D01*
X0199651Y0544697D01*
X0199194Y0544014D01*
X0199033Y0543207D01*
X0199194Y0542401D01*
X0199651Y0541717D01*
X0200335Y0541260D01*
X0201141Y0541100D01*
X0201947Y0541260D01*
X0202631Y0541717D01*
X0203088Y0542401D01*
X0203248Y0543207D01*
X0203088Y0544014D01*
X0202631Y0544697D01*
X0201947Y0545154D01*
X0201141Y0545315D01*
D02*
G37*
G36*
X0194235Y0545307D02*
X0193429Y0545146D01*
X0192745Y0544689D01*
X0192288Y0544006D01*
X0192128Y0543199D01*
X0192288Y0542393D01*
X0192745Y0541709D01*
X0193429Y0541252D01*
X0194235Y0541092D01*
X0195042Y0541252D01*
X0195726Y0541709D01*
X0196182Y0542393D01*
X0196343Y0543199D01*
X0196182Y0544006D01*
X0195726Y0544689D01*
X0195042Y0545146D01*
X0194235Y0545307D01*
D02*
G37*
G36*
X0109131Y0544900D02*
X0105200D01*
Y0540969D01*
X0105510Y0541010D01*
X0106731Y0541515D01*
X0107780Y0542320D01*
X0108585Y0543368D01*
X0109090Y0544590D01*
X0109131Y0544900D01*
D02*
G37*
G36*
X0103200D02*
X0099269D01*
X0099309Y0544590D01*
X0099815Y0543368D01*
X0100620Y0542320D01*
X0101669Y0541515D01*
X0102890Y0541010D01*
X0103200Y0540969D01*
Y0544900D01*
D02*
G37*
G36*
X0179168Y0543385D02*
X0178362Y0543225D01*
X0177678Y0542768D01*
X0177222Y0542084D01*
X0177061Y0541278D01*
X0177222Y0540472D01*
X0177678Y0539788D01*
X0178362Y0539331D01*
X0179168Y0539171D01*
X0179975Y0539331D01*
X0180659Y0539788D01*
X0181115Y0540472D01*
X0181276Y0541278D01*
X0181115Y0542084D01*
X0180659Y0542768D01*
X0179975Y0543225D01*
X0179168Y0543385D01*
D02*
G37*
G36*
X0104200Y0540169D02*
X0103095Y0540023D01*
X0102066Y0539597D01*
X0101181Y0538918D01*
X0100503Y0538034D01*
X0100077Y0537005D01*
X0099931Y0535900D01*
X0100077Y0534795D01*
X0100503Y0533766D01*
X0101181Y0532881D01*
X0102066Y0532203D01*
X0103095Y0531777D01*
X0104200Y0531631D01*
X0105305Y0531777D01*
X0106334Y0532203D01*
X0107219Y0532881D01*
X0107897Y0533766D01*
X0108323Y0534795D01*
X0108469Y0535900D01*
X0108455Y0536008D01*
X0108921Y0536298D01*
X0109224Y0536095D01*
X0110031Y0535934D01*
X0110837Y0536095D01*
X0111521Y0536552D01*
X0111978Y0537235D01*
X0112138Y0538042D01*
X0111978Y0538848D01*
X0111521Y0539532D01*
X0110837Y0539989D01*
X0110031Y0540149D01*
X0109224Y0539989D01*
X0108541Y0539532D01*
X0108084Y0538848D01*
X0108046Y0538661D01*
X0107512Y0538536D01*
X0107219Y0538918D01*
X0106334Y0539597D01*
X0105305Y0540023D01*
X0104200Y0540169D01*
D02*
G37*
G36*
X0218287Y0537846D02*
X0217480Y0537686D01*
X0216796Y0537229D01*
X0216340Y0536545D01*
X0216179Y0535739D01*
X0216340Y0534932D01*
X0216796Y0534248D01*
X0217480Y0533792D01*
X0218287Y0533631D01*
X0219093Y0533792D01*
X0219777Y0534248D01*
X0220234Y0534932D01*
X0220394Y0535739D01*
X0220234Y0536545D01*
X0219777Y0537229D01*
X0219093Y0537686D01*
X0218287Y0537846D01*
D02*
G37*
G36*
X0238515Y0537531D02*
X0237708Y0537371D01*
X0237025Y0536914D01*
X0236568Y0536230D01*
X0236407Y0535424D01*
X0236568Y0534617D01*
X0237025Y0533933D01*
X0237708Y0533477D01*
X0238515Y0533316D01*
X0239321Y0533477D01*
X0240005Y0533933D01*
X0240462Y0534617D01*
X0240622Y0535424D01*
X0240462Y0536230D01*
X0240005Y0536914D01*
X0239321Y0537371D01*
X0238515Y0537531D01*
D02*
G37*
G36*
X0161625Y0537110D02*
X0160819Y0536949D01*
X0160135Y0536492D01*
X0159678Y0535809D01*
X0159518Y0535002D01*
X0159678Y0534196D01*
X0160135Y0533512D01*
X0160819Y0533055D01*
X0161625Y0532895D01*
X0162432Y0533055D01*
X0163115Y0533512D01*
X0163572Y0534196D01*
X0163733Y0535002D01*
X0163572Y0535809D01*
X0163115Y0536492D01*
X0162432Y0536949D01*
X0161625Y0537110D01*
D02*
G37*
G36*
X0182141Y0536948D02*
X0181334Y0536788D01*
X0180651Y0536331D01*
X0180194Y0535647D01*
X0180034Y0534841D01*
X0180194Y0534034D01*
X0180651Y0533351D01*
X0181334Y0532894D01*
X0182141Y0532733D01*
X0182947Y0532894D01*
X0183631Y0533351D01*
X0184088Y0534034D01*
X0184248Y0534841D01*
X0184088Y0535647D01*
X0183631Y0536331D01*
X0182947Y0536788D01*
X0182141Y0536948D01*
D02*
G37*
G36*
X0274200Y0540169D02*
X0273095Y0540023D01*
X0272066Y0539597D01*
X0271182Y0538918D01*
X0270503Y0538034D01*
X0270077Y0537005D01*
X0269931Y0535900D01*
X0270077Y0534795D01*
X0270503Y0533766D01*
X0271182Y0532881D01*
X0272066Y0532203D01*
X0273095Y0531777D01*
X0274200Y0531631D01*
X0275305Y0531777D01*
X0276334Y0532203D01*
X0277219Y0532881D01*
X0277897Y0533766D01*
X0278323Y0534795D01*
X0278469Y0535900D01*
X0278323Y0537005D01*
X0277897Y0538034D01*
X0277219Y0538918D01*
X0276334Y0539597D01*
X0275305Y0540023D01*
X0274200Y0540169D01*
D02*
G37*
G36*
X0264200D02*
X0263095Y0540023D01*
X0262066Y0539597D01*
X0261181Y0538918D01*
X0260503Y0538034D01*
X0260077Y0537005D01*
X0259931Y0535900D01*
X0260077Y0534795D01*
X0260503Y0533766D01*
X0261181Y0532881D01*
X0262066Y0532203D01*
X0263095Y0531777D01*
X0264200Y0531631D01*
X0265305Y0531777D01*
X0266334Y0532203D01*
X0267218Y0532881D01*
X0267897Y0533766D01*
X0268323Y0534795D01*
X0268469Y0535900D01*
X0268323Y0537005D01*
X0267897Y0538034D01*
X0267218Y0538918D01*
X0266334Y0539597D01*
X0265305Y0540023D01*
X0264200Y0540169D01*
D02*
G37*
G36*
X0094200D02*
X0093095Y0540023D01*
X0092066Y0539597D01*
X0091181Y0538918D01*
X0090503Y0538034D01*
X0090077Y0537005D01*
X0089931Y0535900D01*
X0090077Y0534795D01*
X0090503Y0533766D01*
X0091181Y0532881D01*
X0092066Y0532203D01*
X0093095Y0531777D01*
X0094200Y0531631D01*
X0095305Y0531777D01*
X0096334Y0532203D01*
X0097219Y0532881D01*
X0097897Y0533766D01*
X0098323Y0534795D01*
X0098469Y0535900D01*
X0098323Y0537005D01*
X0097897Y0538034D01*
X0097219Y0538918D01*
X0096334Y0539597D01*
X0095305Y0540023D01*
X0094200Y0540169D01*
D02*
G37*
G36*
X0228404Y0530822D02*
X0227597Y0530661D01*
X0226914Y0530204D01*
X0226457Y0529521D01*
X0226296Y0528714D01*
X0226457Y0527908D01*
X0226914Y0527224D01*
X0227597Y0526767D01*
X0228404Y0526607D01*
X0229210Y0526767D01*
X0229894Y0527224D01*
X0230351Y0527908D01*
X0230511Y0528714D01*
X0230351Y0529521D01*
X0229894Y0530204D01*
X0229210Y0530661D01*
X0228404Y0530822D01*
D02*
G37*
G36*
X0274200Y0530169D02*
X0273095Y0530023D01*
X0272066Y0529597D01*
X0271182Y0528919D01*
X0270503Y0528034D01*
X0270077Y0527005D01*
X0269931Y0525900D01*
X0270077Y0524795D01*
X0270503Y0523766D01*
X0271182Y0522882D01*
X0272066Y0522203D01*
X0273095Y0521777D01*
X0274200Y0521631D01*
X0275305Y0521777D01*
X0276334Y0522203D01*
X0277219Y0522882D01*
X0277897Y0523766D01*
X0278323Y0524795D01*
X0278469Y0525900D01*
X0278323Y0527005D01*
X0277897Y0528034D01*
X0277219Y0528919D01*
X0276334Y0529597D01*
X0275305Y0530023D01*
X0274200Y0530169D01*
D02*
G37*
G36*
X0264200D02*
X0263095Y0530023D01*
X0262066Y0529597D01*
X0261181Y0528919D01*
X0260503Y0528034D01*
X0260077Y0527005D01*
X0259931Y0525900D01*
X0260077Y0524795D01*
X0260503Y0523766D01*
X0261181Y0522882D01*
X0262066Y0522203D01*
X0263095Y0521777D01*
X0264200Y0521631D01*
X0265305Y0521777D01*
X0266334Y0522203D01*
X0267218Y0522882D01*
X0267897Y0523766D01*
X0268323Y0524795D01*
X0268469Y0525900D01*
X0268323Y0527005D01*
X0267897Y0528034D01*
X0267218Y0528919D01*
X0266334Y0529597D01*
X0265305Y0530023D01*
X0264200Y0530169D01*
D02*
G37*
G36*
X0104200D02*
X0103095Y0530023D01*
X0102066Y0529597D01*
X0101181Y0528919D01*
X0100503Y0528034D01*
X0100077Y0527005D01*
X0099931Y0525900D01*
X0100077Y0524795D01*
X0100503Y0523766D01*
X0101181Y0522882D01*
X0102066Y0522203D01*
X0103095Y0521777D01*
X0104200Y0521631D01*
X0105305Y0521777D01*
X0106334Y0522203D01*
X0107219Y0522882D01*
X0107897Y0523766D01*
X0108323Y0524795D01*
X0108469Y0525900D01*
X0108323Y0527005D01*
X0107897Y0528034D01*
X0107219Y0528919D01*
X0106334Y0529597D01*
X0105305Y0530023D01*
X0104200Y0530169D01*
D02*
G37*
G36*
X0094200D02*
X0093095Y0530023D01*
X0092066Y0529597D01*
X0091181Y0528919D01*
X0090503Y0528034D01*
X0090077Y0527005D01*
X0089931Y0525900D01*
X0090077Y0524795D01*
X0090503Y0523766D01*
X0091181Y0522882D01*
X0092066Y0522203D01*
X0093095Y0521777D01*
X0094200Y0521631D01*
X0095305Y0521777D01*
X0096334Y0522203D01*
X0097219Y0522882D01*
X0097897Y0523766D01*
X0098323Y0524795D01*
X0098469Y0525900D01*
X0098323Y0527005D01*
X0097897Y0528034D01*
X0097219Y0528919D01*
X0096334Y0529597D01*
X0095305Y0530023D01*
X0094200Y0530169D01*
D02*
G37*
G36*
X0204826Y0522039D02*
X0204019Y0521878D01*
X0203336Y0521422D01*
X0202879Y0520738D01*
X0202719Y0519932D01*
X0202879Y0519125D01*
X0203336Y0518441D01*
X0204019Y0517984D01*
X0204826Y0517824D01*
X0205632Y0517984D01*
X0206316Y0518441D01*
X0206773Y0519125D01*
X0206933Y0519932D01*
X0206773Y0520738D01*
X0206316Y0521422D01*
X0205632Y0521878D01*
X0204826Y0522039D01*
D02*
G37*
G36*
X0190204Y0521921D02*
X0189398Y0521760D01*
X0188714Y0521304D01*
X0188257Y0520620D01*
X0188096Y0519813D01*
X0188257Y0519007D01*
X0188714Y0518323D01*
X0189398Y0517866D01*
X0190204Y0517706D01*
X0191010Y0517866D01*
X0191694Y0518323D01*
X0192151Y0519007D01*
X0192311Y0519813D01*
X0192151Y0520620D01*
X0191694Y0521304D01*
X0191010Y0521760D01*
X0190204Y0521921D01*
D02*
G37*
G36*
X0210873Y0517610D02*
X0210067Y0517449D01*
X0209383Y0516993D01*
X0208926Y0516309D01*
X0208766Y0515502D01*
X0208926Y0514696D01*
X0209383Y0514012D01*
X0210067Y0513555D01*
X0210873Y0513395D01*
X0211680Y0513555D01*
X0212363Y0514012D01*
X0212820Y0514696D01*
X0212981Y0515502D01*
X0212820Y0516309D01*
X0212363Y0516993D01*
X0211680Y0517449D01*
X0210873Y0517610D01*
D02*
G37*
G36*
X0274200Y0520169D02*
X0273095Y0520023D01*
X0272066Y0519597D01*
X0271182Y0518919D01*
X0270503Y0518034D01*
X0270077Y0517005D01*
X0269931Y0515900D01*
X0270077Y0514795D01*
X0270503Y0513766D01*
X0271182Y0512882D01*
X0272066Y0512203D01*
X0273095Y0511777D01*
X0274200Y0511631D01*
X0275305Y0511777D01*
X0276334Y0512203D01*
X0277219Y0512882D01*
X0277897Y0513766D01*
X0278323Y0514795D01*
X0278469Y0515900D01*
X0278323Y0517005D01*
X0277897Y0518034D01*
X0277219Y0518919D01*
X0276334Y0519597D01*
X0275305Y0520023D01*
X0274200Y0520169D01*
D02*
G37*
G36*
X0264200D02*
X0263095Y0520023D01*
X0262066Y0519597D01*
X0261181Y0518919D01*
X0260503Y0518034D01*
X0260077Y0517005D01*
X0259931Y0515900D01*
X0260077Y0514795D01*
X0260503Y0513766D01*
X0261181Y0512882D01*
X0262066Y0512203D01*
X0263095Y0511777D01*
X0264200Y0511631D01*
X0265305Y0511777D01*
X0266334Y0512203D01*
X0267218Y0512882D01*
X0267897Y0513766D01*
X0268323Y0514795D01*
X0268469Y0515900D01*
X0268323Y0517005D01*
X0267897Y0518034D01*
X0267218Y0518919D01*
X0266334Y0519597D01*
X0265305Y0520023D01*
X0264200Y0520169D01*
D02*
G37*
G36*
X0104200D02*
X0103095Y0520023D01*
X0102066Y0519597D01*
X0101181Y0518919D01*
X0100503Y0518034D01*
X0100077Y0517005D01*
X0099931Y0515900D01*
X0100077Y0514795D01*
X0100503Y0513766D01*
X0101181Y0512882D01*
X0102066Y0512203D01*
X0103095Y0511777D01*
X0104200Y0511631D01*
X0105305Y0511777D01*
X0106334Y0512203D01*
X0107219Y0512882D01*
X0107897Y0513766D01*
X0108323Y0514795D01*
X0108469Y0515900D01*
X0108323Y0517005D01*
X0107897Y0518034D01*
X0107219Y0518919D01*
X0106334Y0519597D01*
X0105305Y0520023D01*
X0104200Y0520169D01*
D02*
G37*
G36*
X0094200D02*
X0093095Y0520023D01*
X0092066Y0519597D01*
X0091181Y0518919D01*
X0090503Y0518034D01*
X0090077Y0517005D01*
X0089931Y0515900D01*
X0090077Y0514795D01*
X0090503Y0513766D01*
X0091181Y0512882D01*
X0092066Y0512203D01*
X0093095Y0511777D01*
X0094200Y0511631D01*
X0095305Y0511777D01*
X0096334Y0512203D01*
X0097219Y0512882D01*
X0097897Y0513766D01*
X0098323Y0514795D01*
X0098469Y0515900D01*
X0098323Y0517005D01*
X0097897Y0518034D01*
X0097219Y0518919D01*
X0096334Y0519597D01*
X0095305Y0520023D01*
X0094200Y0520169D01*
D02*
G37*
G36*
X0236114Y0508389D02*
X0235308Y0508229D01*
X0234624Y0507772D01*
X0234167Y0507088D01*
X0234007Y0506282D01*
X0234167Y0505475D01*
X0234624Y0504792D01*
X0235308Y0504335D01*
X0236114Y0504175D01*
X0236921Y0504335D01*
X0237604Y0504792D01*
X0238061Y0505475D01*
X0238222Y0506282D01*
X0238061Y0507088D01*
X0237604Y0507772D01*
X0236921Y0508229D01*
X0236114Y0508389D01*
D02*
G37*
G36*
X0274200Y0510169D02*
X0273095Y0510023D01*
X0272066Y0509597D01*
X0271182Y0508919D01*
X0270503Y0508034D01*
X0270077Y0507005D01*
X0269931Y0505900D01*
X0270077Y0504795D01*
X0270503Y0503766D01*
X0271182Y0502881D01*
X0272066Y0502203D01*
X0273095Y0501777D01*
X0274200Y0501631D01*
X0275305Y0501777D01*
X0276334Y0502203D01*
X0277219Y0502881D01*
X0277897Y0503766D01*
X0278323Y0504795D01*
X0278469Y0505900D01*
X0278323Y0507005D01*
X0277897Y0508034D01*
X0277219Y0508919D01*
X0276334Y0509597D01*
X0275305Y0510023D01*
X0274200Y0510169D01*
D02*
G37*
G36*
X0264200D02*
X0263095Y0510023D01*
X0262066Y0509597D01*
X0261181Y0508919D01*
X0260503Y0508034D01*
X0260077Y0507005D01*
X0259931Y0505900D01*
X0260077Y0504795D01*
X0260503Y0503766D01*
X0261181Y0502881D01*
X0262066Y0502203D01*
X0263095Y0501777D01*
X0264200Y0501631D01*
X0265305Y0501777D01*
X0266334Y0502203D01*
X0267218Y0502881D01*
X0267897Y0503766D01*
X0268323Y0504795D01*
X0268469Y0505900D01*
X0268323Y0507005D01*
X0267897Y0508034D01*
X0267218Y0508919D01*
X0266334Y0509597D01*
X0265305Y0510023D01*
X0264200Y0510169D01*
D02*
G37*
G36*
X0104200D02*
X0103095Y0510023D01*
X0102066Y0509597D01*
X0101181Y0508919D01*
X0100503Y0508034D01*
X0100077Y0507005D01*
X0099931Y0505900D01*
X0100077Y0504795D01*
X0100503Y0503766D01*
X0101181Y0502881D01*
X0102066Y0502203D01*
X0103095Y0501777D01*
X0104200Y0501631D01*
X0105305Y0501777D01*
X0106334Y0502203D01*
X0107219Y0502881D01*
X0107897Y0503766D01*
X0108323Y0504795D01*
X0108469Y0505900D01*
X0108323Y0507005D01*
X0107897Y0508034D01*
X0107219Y0508919D01*
X0106334Y0509597D01*
X0105305Y0510023D01*
X0104200Y0510169D01*
D02*
G37*
G36*
X0094200D02*
X0093095Y0510023D01*
X0092066Y0509597D01*
X0091181Y0508919D01*
X0090503Y0508034D01*
X0090077Y0507005D01*
X0089931Y0505900D01*
X0090077Y0504795D01*
X0090503Y0503766D01*
X0091181Y0502881D01*
X0092066Y0502203D01*
X0093095Y0501777D01*
X0094200Y0501631D01*
X0095305Y0501777D01*
X0096334Y0502203D01*
X0097219Y0502881D01*
X0097897Y0503766D01*
X0098323Y0504795D01*
X0098469Y0505900D01*
X0098323Y0507005D01*
X0097897Y0508034D01*
X0097219Y0508919D01*
X0096334Y0509597D01*
X0095305Y0510023D01*
X0094200Y0510169D01*
D02*
G37*
G36*
X0173373Y0504551D02*
X0172567Y0504390D01*
X0171883Y0503933D01*
X0171426Y0503250D01*
X0171266Y0502443D01*
X0171426Y0501637D01*
X0171883Y0500953D01*
X0172567Y0500496D01*
X0173373Y0500336D01*
X0174180Y0500496D01*
X0174863Y0500953D01*
X0175320Y0501637D01*
X0175481Y0502443D01*
X0175320Y0503250D01*
X0174863Y0503933D01*
X0174180Y0504390D01*
X0173373Y0504551D01*
D02*
G37*
G36*
X0148247Y0496618D02*
X0147441Y0496457D01*
X0146757Y0496000D01*
X0146300Y0495317D01*
X0146140Y0494510D01*
X0146300Y0493704D01*
X0146757Y0493020D01*
X0147441Y0492563D01*
X0148247Y0492403D01*
X0149054Y0492563D01*
X0149737Y0493020D01*
X0150194Y0493704D01*
X0150355Y0494510D01*
X0150194Y0495317D01*
X0149737Y0496000D01*
X0149054Y0496457D01*
X0148247Y0496618D01*
D02*
G37*
G36*
X0141200Y0496507D02*
X0140393Y0496347D01*
X0139710Y0495890D01*
X0139253Y0495206D01*
X0139093Y0494400D01*
X0139253Y0493594D01*
X0139710Y0492910D01*
X0140393Y0492453D01*
X0141200Y0492293D01*
X0142007Y0492453D01*
X0142690Y0492910D01*
X0143147Y0493594D01*
X0143307Y0494400D01*
X0143147Y0495206D01*
X0142690Y0495890D01*
X0142007Y0496347D01*
X0141200Y0496507D01*
D02*
G37*
G36*
X0274200Y0500169D02*
X0273095Y0500023D01*
X0272066Y0499597D01*
X0271182Y0498918D01*
X0270503Y0498034D01*
X0270077Y0497005D01*
X0269931Y0495900D01*
X0270077Y0494795D01*
X0270503Y0493766D01*
X0271182Y0492881D01*
X0272066Y0492203D01*
X0273095Y0491777D01*
X0274200Y0491631D01*
X0275305Y0491777D01*
X0276334Y0492203D01*
X0277219Y0492881D01*
X0277897Y0493766D01*
X0278323Y0494795D01*
X0278469Y0495900D01*
X0278323Y0497005D01*
X0277897Y0498034D01*
X0277219Y0498918D01*
X0276334Y0499597D01*
X0275305Y0500023D01*
X0274200Y0500169D01*
D02*
G37*
G36*
X0264200D02*
X0263095Y0500023D01*
X0262066Y0499597D01*
X0261181Y0498918D01*
X0260503Y0498034D01*
X0260077Y0497005D01*
X0259931Y0495900D01*
X0260077Y0494795D01*
X0260503Y0493766D01*
X0261181Y0492881D01*
X0262066Y0492203D01*
X0263095Y0491777D01*
X0264200Y0491631D01*
X0265305Y0491777D01*
X0266334Y0492203D01*
X0267218Y0492881D01*
X0267897Y0493766D01*
X0268323Y0494795D01*
X0268469Y0495900D01*
X0268323Y0497005D01*
X0267897Y0498034D01*
X0267218Y0498918D01*
X0266334Y0499597D01*
X0265305Y0500023D01*
X0264200Y0500169D01*
D02*
G37*
G36*
X0104200D02*
X0103095Y0500023D01*
X0102066Y0499597D01*
X0101181Y0498918D01*
X0100503Y0498034D01*
X0100077Y0497005D01*
X0099931Y0495900D01*
X0100077Y0494795D01*
X0100503Y0493766D01*
X0101181Y0492881D01*
X0102066Y0492203D01*
X0103095Y0491777D01*
X0104200Y0491631D01*
X0105305Y0491777D01*
X0106334Y0492203D01*
X0107219Y0492881D01*
X0107897Y0493766D01*
X0108323Y0494795D01*
X0108469Y0495900D01*
X0108323Y0497005D01*
X0107897Y0498034D01*
X0107219Y0498918D01*
X0106334Y0499597D01*
X0105305Y0500023D01*
X0104200Y0500169D01*
D02*
G37*
G36*
X0094200D02*
X0093095Y0500023D01*
X0092066Y0499597D01*
X0091181Y0498918D01*
X0090503Y0498034D01*
X0090077Y0497005D01*
X0089931Y0495900D01*
X0090077Y0494795D01*
X0090503Y0493766D01*
X0091181Y0492881D01*
X0092066Y0492203D01*
X0093095Y0491777D01*
X0094200Y0491631D01*
X0095305Y0491777D01*
X0096334Y0492203D01*
X0097219Y0492881D01*
X0097897Y0493766D01*
X0098323Y0494795D01*
X0098469Y0495900D01*
X0098323Y0497005D01*
X0097897Y0498034D01*
X0097219Y0498918D01*
X0096334Y0499597D01*
X0095305Y0500023D01*
X0094200Y0500169D01*
D02*
G37*
G36*
X0168078Y0487732D02*
X0167271Y0487571D01*
X0166588Y0487115D01*
X0166131Y0486431D01*
X0165971Y0485624D01*
X0166131Y0484818D01*
X0166588Y0484134D01*
X0167271Y0483677D01*
X0168078Y0483517D01*
X0168884Y0483677D01*
X0169568Y0484134D01*
X0170025Y0484818D01*
X0170185Y0485624D01*
X0170025Y0486431D01*
X0169568Y0487115D01*
X0168884Y0487571D01*
X0168078Y0487732D01*
D02*
G37*
G36*
X0274200Y0490169D02*
X0273095Y0490023D01*
X0272066Y0489597D01*
X0271182Y0488918D01*
X0270503Y0488034D01*
X0270077Y0487005D01*
X0269931Y0485900D01*
X0270077Y0484795D01*
X0270503Y0483766D01*
X0271182Y0482881D01*
X0272066Y0482203D01*
X0273095Y0481777D01*
X0274200Y0481631D01*
X0275305Y0481777D01*
X0276334Y0482203D01*
X0277219Y0482881D01*
X0277897Y0483766D01*
X0278323Y0484795D01*
X0278469Y0485900D01*
X0278323Y0487005D01*
X0277897Y0488034D01*
X0277219Y0488918D01*
X0276334Y0489597D01*
X0275305Y0490023D01*
X0274200Y0490169D01*
D02*
G37*
G36*
X0264200D02*
X0263095Y0490023D01*
X0262066Y0489597D01*
X0261181Y0488918D01*
X0260503Y0488034D01*
X0260077Y0487005D01*
X0259931Y0485900D01*
X0260077Y0484795D01*
X0260503Y0483766D01*
X0261181Y0482881D01*
X0262066Y0482203D01*
X0263095Y0481777D01*
X0264200Y0481631D01*
X0265305Y0481777D01*
X0266334Y0482203D01*
X0267218Y0482881D01*
X0267897Y0483766D01*
X0268323Y0484795D01*
X0268469Y0485900D01*
X0268323Y0487005D01*
X0267897Y0488034D01*
X0267218Y0488918D01*
X0266334Y0489597D01*
X0265305Y0490023D01*
X0264200Y0490169D01*
D02*
G37*
G36*
X0104200D02*
X0103095Y0490023D01*
X0102066Y0489597D01*
X0101181Y0488918D01*
X0100503Y0488034D01*
X0100077Y0487005D01*
X0099931Y0485900D01*
X0100077Y0484795D01*
X0100503Y0483766D01*
X0101181Y0482881D01*
X0102066Y0482203D01*
X0103095Y0481777D01*
X0104200Y0481631D01*
X0105305Y0481777D01*
X0106334Y0482203D01*
X0107219Y0482881D01*
X0107897Y0483766D01*
X0108323Y0484795D01*
X0108469Y0485900D01*
X0108323Y0487005D01*
X0107897Y0488034D01*
X0107219Y0488918D01*
X0106334Y0489597D01*
X0105305Y0490023D01*
X0104200Y0490169D01*
D02*
G37*
G36*
X0094200D02*
X0093095Y0490023D01*
X0092066Y0489597D01*
X0091181Y0488918D01*
X0090503Y0488034D01*
X0090077Y0487005D01*
X0089931Y0485900D01*
X0090077Y0484795D01*
X0090503Y0483766D01*
X0091181Y0482881D01*
X0092066Y0482203D01*
X0093095Y0481777D01*
X0094200Y0481631D01*
X0095305Y0481777D01*
X0096334Y0482203D01*
X0097219Y0482881D01*
X0097897Y0483766D01*
X0098323Y0484795D01*
X0098469Y0485900D01*
X0098323Y0487005D01*
X0097897Y0488034D01*
X0097219Y0488918D01*
X0096334Y0489597D01*
X0095305Y0490023D01*
X0094200Y0490169D01*
D02*
G37*
G36*
X0141251Y0484389D02*
X0140445Y0484229D01*
X0139761Y0483772D01*
X0139304Y0483088D01*
X0139144Y0482282D01*
X0139304Y0481475D01*
X0139761Y0480792D01*
X0140445Y0480335D01*
X0141251Y0480174D01*
X0142058Y0480335D01*
X0142741Y0480792D01*
X0143198Y0481475D01*
X0143359Y0482282D01*
X0143198Y0483088D01*
X0142741Y0483772D01*
X0142058Y0484229D01*
X0141251Y0484389D01*
D02*
G37*
G36*
X0207515Y0484220D02*
X0206709Y0484060D01*
X0206025Y0483603D01*
X0205568Y0482919D01*
X0205408Y0482113D01*
X0205568Y0481306D01*
X0206025Y0480622D01*
X0206709Y0480166D01*
X0207515Y0480005D01*
X0208321Y0480166D01*
X0209005Y0480622D01*
X0209462Y0481306D01*
X0209622Y0482113D01*
X0209462Y0482919D01*
X0209005Y0483603D01*
X0208321Y0484060D01*
X0207515Y0484220D01*
D02*
G37*
G36*
X0238381Y0482086D02*
X0237575Y0481926D01*
X0236891Y0481469D01*
X0236434Y0480785D01*
X0236274Y0479979D01*
X0236434Y0479172D01*
X0236891Y0478489D01*
X0237575Y0478032D01*
X0238381Y0477871D01*
X0239188Y0478032D01*
X0239871Y0478489D01*
X0240328Y0479172D01*
X0240489Y0479979D01*
X0240328Y0480785D01*
X0239871Y0481469D01*
X0239188Y0481926D01*
X0238381Y0482086D01*
D02*
G37*
G36*
X0165858Y0480161D02*
X0165051Y0480000D01*
X0164367Y0479544D01*
X0163910Y0478860D01*
X0163750Y0478054D01*
X0163910Y0477247D01*
X0164367Y0476563D01*
X0165051Y0476107D01*
X0165858Y0475946D01*
X0166664Y0476107D01*
X0167348Y0476563D01*
X0167805Y0477247D01*
X0167965Y0478054D01*
X0167805Y0478860D01*
X0167348Y0479544D01*
X0166664Y0480000D01*
X0165858Y0480161D01*
D02*
G37*
G36*
X0160574Y0477614D02*
X0159768Y0477453D01*
X0159084Y0476997D01*
X0158627Y0476313D01*
X0158467Y0475506D01*
X0158627Y0474700D01*
X0159084Y0474016D01*
X0159768Y0473559D01*
X0160574Y0473399D01*
X0161381Y0473559D01*
X0162064Y0474016D01*
X0162521Y0474700D01*
X0162681Y0475506D01*
X0162521Y0476313D01*
X0162064Y0476997D01*
X0161381Y0477453D01*
X0160574Y0477614D01*
D02*
G37*
G36*
X0274200Y0480169D02*
X0273095Y0480023D01*
X0272066Y0479597D01*
X0271182Y0478919D01*
X0270503Y0478034D01*
X0270077Y0477005D01*
X0269931Y0475900D01*
X0270077Y0474795D01*
X0270503Y0473766D01*
X0271182Y0472882D01*
X0272066Y0472203D01*
X0273095Y0471777D01*
X0274200Y0471631D01*
X0275305Y0471777D01*
X0276334Y0472203D01*
X0277219Y0472882D01*
X0277897Y0473766D01*
X0278323Y0474795D01*
X0278469Y0475900D01*
X0278323Y0477005D01*
X0277897Y0478034D01*
X0277219Y0478919D01*
X0276334Y0479597D01*
X0275305Y0480023D01*
X0274200Y0480169D01*
D02*
G37*
G36*
X0264200D02*
X0263095Y0480023D01*
X0262066Y0479597D01*
X0261181Y0478919D01*
X0260503Y0478034D01*
X0260077Y0477005D01*
X0259931Y0475900D01*
X0260077Y0474795D01*
X0260503Y0473766D01*
X0261181Y0472882D01*
X0262066Y0472203D01*
X0263095Y0471777D01*
X0264200Y0471631D01*
X0265305Y0471777D01*
X0266334Y0472203D01*
X0267218Y0472882D01*
X0267897Y0473766D01*
X0268323Y0474795D01*
X0268469Y0475900D01*
X0268323Y0477005D01*
X0267897Y0478034D01*
X0267218Y0478919D01*
X0266334Y0479597D01*
X0265305Y0480023D01*
X0264200Y0480169D01*
D02*
G37*
G36*
X0104200D02*
X0103095Y0480023D01*
X0102066Y0479597D01*
X0101181Y0478919D01*
X0100503Y0478034D01*
X0100077Y0477005D01*
X0099931Y0475900D01*
X0100077Y0474795D01*
X0100503Y0473766D01*
X0101181Y0472882D01*
X0102066Y0472203D01*
X0103095Y0471777D01*
X0104200Y0471631D01*
X0105305Y0471777D01*
X0106334Y0472203D01*
X0107219Y0472882D01*
X0107897Y0473766D01*
X0108323Y0474795D01*
X0108469Y0475900D01*
X0108323Y0477005D01*
X0107897Y0478034D01*
X0107219Y0478919D01*
X0106334Y0479597D01*
X0105305Y0480023D01*
X0104200Y0480169D01*
D02*
G37*
G36*
X0094200D02*
X0093095Y0480023D01*
X0092066Y0479597D01*
X0091181Y0478919D01*
X0090503Y0478034D01*
X0090077Y0477005D01*
X0089931Y0475900D01*
X0090077Y0474795D01*
X0090503Y0473766D01*
X0091181Y0472882D01*
X0092066Y0472203D01*
X0093095Y0471777D01*
X0094200Y0471631D01*
X0095305Y0471777D01*
X0096334Y0472203D01*
X0097219Y0472882D01*
X0097897Y0473766D01*
X0098323Y0474795D01*
X0098469Y0475900D01*
X0098323Y0477005D01*
X0097897Y0478034D01*
X0097219Y0478919D01*
X0096334Y0479597D01*
X0095305Y0480023D01*
X0094200Y0480169D01*
D02*
G37*
G36*
X0163798Y0473436D02*
X0162992Y0473276D01*
X0162308Y0472819D01*
X0161851Y0472136D01*
X0161691Y0471329D01*
X0161851Y0470523D01*
X0162308Y0469839D01*
X0162992Y0469382D01*
X0163798Y0469222D01*
X0164605Y0469382D01*
X0165289Y0469839D01*
X0165745Y0470523D01*
X0165906Y0471329D01*
X0165745Y0472136D01*
X0165289Y0472819D01*
X0164605Y0473276D01*
X0163798Y0473436D01*
D02*
G37*
G36*
X0140964Y0477850D02*
X0140157Y0477690D01*
X0139474Y0477233D01*
X0139017Y0476549D01*
X0138856Y0475742D01*
X0139017Y0474936D01*
X0139474Y0474252D01*
X0140157Y0473796D01*
X0140964Y0473635D01*
X0141770Y0473796D01*
X0142153Y0474051D01*
X0142403Y0473864D01*
X0142285Y0473331D01*
X0141968Y0473268D01*
X0141285Y0472811D01*
X0140828Y0472128D01*
X0140667Y0471321D01*
X0140828Y0470515D01*
X0141285Y0469831D01*
X0141968Y0469374D01*
X0142775Y0469214D01*
X0143581Y0469374D01*
X0144265Y0469831D01*
X0144722Y0470515D01*
X0144882Y0471321D01*
X0144722Y0472128D01*
X0144265Y0472811D01*
X0144056Y0472951D01*
X0144162Y0473482D01*
X0144699Y0473589D01*
X0145383Y0474046D01*
X0145840Y0474729D01*
X0146000Y0475536D01*
X0145840Y0476342D01*
X0145383Y0477026D01*
X0144699Y0477483D01*
X0143893Y0477643D01*
X0143086Y0477483D01*
X0142534Y0477113D01*
X0142454Y0477233D01*
X0141770Y0477690D01*
X0140964Y0477850D01*
D02*
G37*
G36*
X0240554Y0472818D02*
X0239748Y0472658D01*
X0239064Y0472201D01*
X0238607Y0471518D01*
X0238447Y0470711D01*
X0238607Y0469905D01*
X0239064Y0469221D01*
X0239748Y0468764D01*
X0240554Y0468604D01*
X0241361Y0468764D01*
X0242044Y0469221D01*
X0242501Y0469905D01*
X0242662Y0470711D01*
X0242501Y0471518D01*
X0242044Y0472201D01*
X0241361Y0472658D01*
X0240554Y0472818D01*
D02*
G37*
G36*
X0196806Y0475716D02*
X0196000Y0475556D01*
X0195316Y0475099D01*
X0194859Y0474415D01*
X0194699Y0473609D01*
X0194859Y0472802D01*
X0195316Y0472119D01*
X0195948Y0471696D01*
X0195793Y0470920D01*
X0195954Y0470113D01*
X0196411Y0469429D01*
X0197094Y0468973D01*
X0197398Y0468912D01*
X0197497Y0468487D01*
X0197151Y0468104D01*
X0197082Y0468118D01*
X0196275Y0467957D01*
X0195592Y0467500D01*
X0195135Y0466817D01*
X0194975Y0466010D01*
X0195135Y0465204D01*
X0195592Y0464520D01*
X0196275Y0464063D01*
X0197082Y0463903D01*
X0197888Y0464063D01*
X0198572Y0464520D01*
X0199029Y0465204D01*
X0199189Y0466010D01*
X0199520Y0466341D01*
X0199724Y0466300D01*
X0200530Y0466461D01*
X0201214Y0466918D01*
X0201671Y0467601D01*
X0201831Y0468408D01*
X0201671Y0469214D01*
X0201214Y0469898D01*
X0200530Y0470355D01*
X0199920Y0470476D01*
X0200008Y0470920D01*
X0199848Y0471726D01*
X0199391Y0472410D01*
X0198759Y0472832D01*
X0198914Y0473609D01*
X0198753Y0474415D01*
X0198296Y0475099D01*
X0197613Y0475556D01*
X0196806Y0475716D01*
D02*
G37*
G36*
X0274200Y0470169D02*
X0273095Y0470023D01*
X0272066Y0469597D01*
X0271182Y0468919D01*
X0270503Y0468034D01*
X0270077Y0467005D01*
X0269931Y0465900D01*
X0270077Y0464795D01*
X0270503Y0463766D01*
X0271182Y0462882D01*
X0272066Y0462203D01*
X0273095Y0461777D01*
X0274200Y0461631D01*
X0275305Y0461777D01*
X0276334Y0462203D01*
X0277219Y0462882D01*
X0277897Y0463766D01*
X0278323Y0464795D01*
X0278469Y0465900D01*
X0278323Y0467005D01*
X0277897Y0468034D01*
X0277219Y0468919D01*
X0276334Y0469597D01*
X0275305Y0470023D01*
X0274200Y0470169D01*
D02*
G37*
G36*
X0264200D02*
X0263095Y0470023D01*
X0262066Y0469597D01*
X0261181Y0468919D01*
X0260503Y0468034D01*
X0260077Y0467005D01*
X0259931Y0465900D01*
X0260077Y0464795D01*
X0260503Y0463766D01*
X0261181Y0462882D01*
X0262066Y0462203D01*
X0263095Y0461777D01*
X0264200Y0461631D01*
X0265305Y0461777D01*
X0266334Y0462203D01*
X0267218Y0462882D01*
X0267897Y0463766D01*
X0268323Y0464795D01*
X0268469Y0465900D01*
X0268323Y0467005D01*
X0267897Y0468034D01*
X0267218Y0468919D01*
X0266334Y0469597D01*
X0265305Y0470023D01*
X0264200Y0470169D01*
D02*
G37*
G36*
X0104200D02*
X0103095Y0470023D01*
X0102066Y0469597D01*
X0101181Y0468919D01*
X0100503Y0468034D01*
X0100077Y0467005D01*
X0099931Y0465900D01*
X0100077Y0464795D01*
X0100503Y0463766D01*
X0101181Y0462882D01*
X0102066Y0462203D01*
X0103095Y0461777D01*
X0104200Y0461631D01*
X0105305Y0461777D01*
X0106334Y0462203D01*
X0107219Y0462882D01*
X0107897Y0463766D01*
X0108323Y0464795D01*
X0108469Y0465900D01*
X0108323Y0467005D01*
X0107897Y0468034D01*
X0107219Y0468919D01*
X0106334Y0469597D01*
X0105305Y0470023D01*
X0104200Y0470169D01*
D02*
G37*
G36*
X0094200D02*
X0093095Y0470023D01*
X0092066Y0469597D01*
X0091181Y0468919D01*
X0090503Y0468034D01*
X0090077Y0467005D01*
X0089931Y0465900D01*
X0090077Y0464795D01*
X0090503Y0463766D01*
X0091181Y0462882D01*
X0092066Y0462203D01*
X0093095Y0461777D01*
X0094200Y0461631D01*
X0095305Y0461777D01*
X0096334Y0462203D01*
X0097219Y0462882D01*
X0097897Y0463766D01*
X0098323Y0464795D01*
X0098469Y0465900D01*
X0098323Y0467005D01*
X0097897Y0468034D01*
X0097219Y0468919D01*
X0096334Y0469597D01*
X0095305Y0470023D01*
X0094200Y0470169D01*
D02*
G37*
G36*
X0166078Y0463665D02*
X0165271Y0463505D01*
X0164588Y0463048D01*
X0164131Y0462364D01*
X0163970Y0461557D01*
X0164131Y0460751D01*
X0164588Y0460067D01*
X0165271Y0459611D01*
X0166078Y0459450D01*
X0166884Y0459611D01*
X0167568Y0460067D01*
X0168025Y0460751D01*
X0168185Y0461557D01*
X0168025Y0462364D01*
X0167568Y0463048D01*
X0166884Y0463505D01*
X0166078Y0463665D01*
D02*
G37*
G36*
X0141019Y0462964D02*
X0140212Y0462804D01*
X0139529Y0462347D01*
X0139072Y0461663D01*
X0138911Y0460857D01*
X0139072Y0460050D01*
X0139529Y0459367D01*
X0140212Y0458910D01*
X0141019Y0458749D01*
X0141825Y0458910D01*
X0142509Y0459367D01*
X0142966Y0460050D01*
X0143126Y0460857D01*
X0142966Y0461663D01*
X0142509Y0462347D01*
X0141825Y0462804D01*
X0141019Y0462964D01*
D02*
G37*
G36*
X0201531Y0461320D02*
X0200724Y0461160D01*
X0200041Y0460703D01*
X0199584Y0460019D01*
X0199423Y0459213D01*
X0199584Y0458406D01*
X0200041Y0457723D01*
X0200724Y0457266D01*
X0201531Y0457106D01*
X0202337Y0457266D01*
X0203021Y0457723D01*
X0203478Y0458406D01*
X0203638Y0459213D01*
X0203478Y0460019D01*
X0203021Y0460703D01*
X0202337Y0461160D01*
X0201531Y0461320D01*
D02*
G37*
G36*
X0132078Y0461200D02*
X0131272Y0461040D01*
X0130588Y0460583D01*
X0130131Y0459899D01*
X0129971Y0459093D01*
X0130131Y0458286D01*
X0130588Y0457603D01*
X0131272Y0457146D01*
X0132078Y0456986D01*
X0132884Y0457146D01*
X0133568Y0457603D01*
X0134025Y0458286D01*
X0134185Y0459093D01*
X0134025Y0459899D01*
X0133568Y0460583D01*
X0132884Y0461040D01*
X0132078Y0461200D01*
D02*
G37*
G36*
X0121676Y0455716D02*
X0120870Y0455556D01*
X0120186Y0455099D01*
X0119729Y0454415D01*
X0119569Y0453609D01*
X0119729Y0452802D01*
X0119304Y0452572D01*
X0119226Y0452689D01*
X0118542Y0453146D01*
X0117735Y0453307D01*
X0116929Y0453146D01*
X0116245Y0452689D01*
X0115788Y0452006D01*
X0115628Y0451199D01*
X0115788Y0450393D01*
X0116245Y0449709D01*
X0116929Y0449252D01*
X0117735Y0449092D01*
X0118542Y0449252D01*
X0119226Y0449709D01*
X0119682Y0450393D01*
X0119843Y0451199D01*
X0119682Y0452006D01*
X0120107Y0452236D01*
X0120186Y0452118D01*
X0120870Y0451662D01*
X0121676Y0451501D01*
X0122483Y0451662D01*
X0122871Y0451921D01*
X0123099Y0451823D01*
X0123356Y0451644D01*
X0123501Y0450912D01*
X0123958Y0450229D01*
X0124642Y0449772D01*
X0125448Y0449612D01*
X0126254Y0449772D01*
X0126938Y0450229D01*
X0127395Y0450912D01*
X0127555Y0451719D01*
X0127395Y0452525D01*
X0126938Y0453209D01*
X0126254Y0453666D01*
X0125448Y0453826D01*
X0124642Y0453666D01*
X0124253Y0453406D01*
X0124025Y0453505D01*
X0123769Y0453684D01*
X0123623Y0454415D01*
X0123167Y0455099D01*
X0122483Y0455556D01*
X0121676Y0455716D01*
D02*
G37*
G36*
X0277771Y0461976D02*
X0276964Y0461816D01*
X0276281Y0461359D01*
X0275824Y0460675D01*
X0275663Y0459868D01*
X0275824Y0459062D01*
X0276281Y0458378D01*
X0276964Y0457922D01*
X0277723Y0457771D01*
X0277711Y0457711D01*
X0277871Y0456905D01*
X0278328Y0456221D01*
X0279012Y0455764D01*
X0279818Y0455604D01*
X0280392Y0455718D01*
X0280587Y0455247D01*
X0280418Y0455134D01*
X0279962Y0454451D01*
X0279801Y0453644D01*
X0279962Y0452838D01*
X0280418Y0452154D01*
X0281102Y0451697D01*
X0281909Y0451537D01*
X0282715Y0451697D01*
X0283399Y0452154D01*
X0283856Y0452838D01*
X0284016Y0453644D01*
X0283856Y0454451D01*
X0283399Y0455134D01*
X0282715Y0455591D01*
X0281909Y0455752D01*
X0281335Y0455637D01*
X0281140Y0456108D01*
X0281308Y0456221D01*
X0281765Y0456905D01*
X0281926Y0457711D01*
X0281765Y0458518D01*
X0281308Y0459201D01*
X0280625Y0459658D01*
X0279866Y0459809D01*
X0279878Y0459868D01*
X0279718Y0460675D01*
X0279261Y0461359D01*
X0278577Y0461816D01*
X0277771Y0461976D01*
D02*
G37*
G36*
X0233645Y0453673D02*
X0232838Y0453512D01*
X0232155Y0453055D01*
X0231698Y0452372D01*
X0231538Y0451565D01*
X0231698Y0450759D01*
X0232155Y0450075D01*
X0232838Y0449618D01*
X0233645Y0449458D01*
X0234451Y0449618D01*
X0235135Y0450075D01*
X0235592Y0450759D01*
X0235752Y0451565D01*
X0235592Y0452372D01*
X0235135Y0453055D01*
X0234451Y0453512D01*
X0233645Y0453673D01*
D02*
G37*
G36*
X0255389Y0451468D02*
X0254583Y0451308D01*
X0253899Y0450851D01*
X0253442Y0450167D01*
X0253282Y0449361D01*
X0253442Y0448554D01*
X0253612Y0448300D01*
X0253434Y0448025D01*
X0253282Y0447894D01*
X0252535Y0448043D01*
X0251728Y0447882D01*
X0251045Y0447426D01*
X0250588Y0446742D01*
X0250427Y0445935D01*
X0250588Y0445129D01*
X0251045Y0444445D01*
X0251728Y0443988D01*
X0252535Y0443828D01*
X0253341Y0443988D01*
X0254025Y0444445D01*
X0254482Y0445129D01*
X0254642Y0445935D01*
X0254482Y0446742D01*
X0254311Y0446997D01*
X0254490Y0447271D01*
X0254642Y0447402D01*
X0255389Y0447253D01*
X0256195Y0447414D01*
X0256879Y0447870D01*
X0257336Y0448554D01*
X0257496Y0449361D01*
X0257336Y0450167D01*
X0256879Y0450851D01*
X0256195Y0451308D01*
X0255389Y0451468D01*
D02*
G37*
G36*
X0170283Y0453551D02*
X0169476Y0453390D01*
X0168792Y0452934D01*
X0168336Y0452250D01*
X0168175Y0451443D01*
X0168336Y0450637D01*
X0168792Y0449953D01*
X0169476Y0449496D01*
X0169753Y0449441D01*
X0169699Y0449168D01*
X0169859Y0448361D01*
X0170316Y0447678D01*
X0171000Y0447221D01*
X0171806Y0447060D01*
X0172613Y0447221D01*
X0173296Y0447678D01*
X0173753Y0448361D01*
X0173914Y0449168D01*
X0173753Y0449974D01*
X0173296Y0450658D01*
X0172613Y0451115D01*
X0172336Y0451170D01*
X0172390Y0451443D01*
X0172230Y0452250D01*
X0171773Y0452934D01*
X0171089Y0453390D01*
X0170283Y0453551D01*
D02*
G37*
G36*
X0275200Y0451030D02*
Y0446900D01*
X0279330D01*
X0279282Y0447262D01*
X0278757Y0448531D01*
X0277921Y0449620D01*
X0276831Y0450457D01*
X0275562Y0450982D01*
X0275200Y0451030D01*
D02*
G37*
G36*
X0095200D02*
Y0446900D01*
X0099330D01*
X0099282Y0447262D01*
X0098757Y0448531D01*
X0097921Y0449620D01*
X0096831Y0450457D01*
X0095562Y0450982D01*
X0095200Y0451030D01*
D02*
G37*
G36*
X0265771Y0460192D02*
X0264964Y0460032D01*
X0264281Y0459575D01*
X0263824Y0458891D01*
X0263664Y0458085D01*
X0263824Y0457279D01*
X0264281Y0456595D01*
X0264964Y0456138D01*
X0265771Y0455978D01*
X0266196Y0456062D01*
X0266621Y0455637D01*
X0266604Y0455553D01*
X0266765Y0454747D01*
X0267222Y0454063D01*
X0267905Y0453607D01*
X0268035Y0453581D01*
X0268121Y0453421D01*
X0268205Y0453037D01*
X0267816Y0452455D01*
X0267656Y0451648D01*
X0267816Y0450842D01*
X0268273Y0450158D01*
X0268956Y0449701D01*
X0269763Y0449541D01*
X0269793Y0449546D01*
X0270075Y0449093D01*
X0269643Y0448531D01*
X0269118Y0447262D01*
X0269070Y0446900D01*
X0273200D01*
Y0451030D01*
X0272838Y0450982D01*
X0272176Y0450708D01*
X0271757Y0451075D01*
X0271870Y0451648D01*
X0271710Y0452455D01*
X0271253Y0453138D01*
X0270569Y0453595D01*
X0270440Y0453621D01*
X0270354Y0453780D01*
X0270269Y0454165D01*
X0270659Y0454747D01*
X0270819Y0455553D01*
X0270659Y0456360D01*
X0270202Y0457044D01*
X0269518Y0457501D01*
X0268712Y0457661D01*
X0268287Y0457576D01*
X0267862Y0458002D01*
X0267878Y0458085D01*
X0267718Y0458891D01*
X0267261Y0459575D01*
X0266577Y0460032D01*
X0265771Y0460192D01*
D02*
G37*
G36*
X0093200Y0451030D02*
X0092838Y0450982D01*
X0091569Y0450457D01*
X0090479Y0449620D01*
X0089643Y0448531D01*
X0089118Y0447262D01*
X0089070Y0446900D01*
X0093200D01*
Y0451030D01*
D02*
G37*
G36*
X0259755Y0449086D02*
X0258949Y0448926D01*
X0258265Y0448469D01*
X0257808Y0447785D01*
X0257648Y0446979D01*
X0257422Y0446754D01*
X0257413Y0446755D01*
X0256606Y0446595D01*
X0255922Y0446138D01*
X0255466Y0445455D01*
X0255305Y0444648D01*
X0255466Y0443842D01*
X0255922Y0443158D01*
X0256606Y0442701D01*
X0256883Y0442646D01*
X0256746Y0441959D01*
X0256907Y0441153D01*
X0257363Y0440469D01*
X0258047Y0440012D01*
X0258854Y0439852D01*
X0259660Y0440012D01*
X0260344Y0440469D01*
X0260801Y0441153D01*
X0260961Y0441959D01*
X0260801Y0442766D01*
X0260344Y0443449D01*
X0259660Y0443906D01*
X0259383Y0443961D01*
X0259520Y0444648D01*
X0259745Y0444873D01*
X0259755Y0444871D01*
X0260562Y0445032D01*
X0261245Y0445489D01*
X0261702Y0446172D01*
X0261862Y0446979D01*
X0261702Y0447785D01*
X0261245Y0448469D01*
X0260562Y0448926D01*
X0259755Y0449086D01*
D02*
G37*
G36*
X0219759Y0447834D02*
X0218953Y0447674D01*
X0218269Y0447217D01*
X0217907Y0446675D01*
X0217536Y0446922D01*
X0216730Y0447083D01*
X0215923Y0446922D01*
X0215240Y0446465D01*
X0214783Y0445782D01*
X0214622Y0444975D01*
X0214783Y0444169D01*
X0215240Y0443485D01*
X0215923Y0443028D01*
X0216730Y0442868D01*
X0217536Y0443028D01*
X0218220Y0443485D01*
X0218582Y0444027D01*
X0218953Y0443780D01*
X0219759Y0443619D01*
X0220566Y0443780D01*
X0221249Y0444237D01*
X0221706Y0444920D01*
X0221866Y0445727D01*
X0221706Y0446533D01*
X0221249Y0447217D01*
X0220566Y0447674D01*
X0219759Y0447834D01*
D02*
G37*
G36*
X0134712Y0450645D02*
X0133905Y0450485D01*
X0133222Y0450028D01*
X0132765Y0449344D01*
X0132604Y0448538D01*
X0132765Y0447731D01*
X0133222Y0447048D01*
X0133905Y0446591D01*
X0134712Y0446430D01*
X0135518Y0446591D01*
X0136202Y0447048D01*
X0136659Y0447731D01*
X0136819Y0448538D01*
X0136659Y0449344D01*
X0136202Y0450028D01*
X0135518Y0450485D01*
X0134712Y0450645D01*
D02*
G37*
G36*
X0161456Y0463066D02*
X0160649Y0462906D01*
X0159966Y0462449D01*
X0159509Y0461765D01*
X0159348Y0460959D01*
X0159509Y0460153D01*
X0159720Y0459837D01*
X0159716Y0459788D01*
X0159467Y0459315D01*
X0158874Y0459197D01*
X0158190Y0458741D01*
X0157733Y0458057D01*
X0157573Y0457250D01*
X0157733Y0456444D01*
X0158190Y0455760D01*
X0158874Y0455303D01*
X0159680Y0455143D01*
X0160229Y0455252D01*
X0160296Y0454914D01*
X0160753Y0454230D01*
X0160826Y0454181D01*
X0160682Y0453966D01*
X0160522Y0453159D01*
X0160682Y0452353D01*
X0161139Y0451669D01*
X0161823Y0451212D01*
X0162298Y0451118D01*
X0162376Y0450962D01*
X0162441Y0450465D01*
X0161757Y0450008D01*
X0161300Y0449325D01*
X0161140Y0448518D01*
X0161300Y0447712D01*
X0161757Y0447028D01*
X0162441Y0446571D01*
X0163247Y0446411D01*
X0164054Y0446571D01*
X0164737Y0447028D01*
X0165194Y0447712D01*
X0165355Y0448518D01*
X0165248Y0449055D01*
X0165549Y0449625D01*
X0165636Y0449642D01*
X0166320Y0450099D01*
X0166777Y0450782D01*
X0166937Y0451589D01*
X0166777Y0452395D01*
X0166320Y0453079D01*
X0165636Y0453536D01*
X0164830Y0453696D01*
X0164637Y0453658D01*
X0164576Y0453966D01*
X0164119Y0454649D01*
X0164046Y0454698D01*
X0164190Y0454914D01*
X0164350Y0455720D01*
X0164190Y0456527D01*
X0163733Y0457210D01*
X0163050Y0457667D01*
X0162243Y0457828D01*
X0161695Y0457719D01*
X0161627Y0458057D01*
X0161416Y0458373D01*
X0161420Y0458422D01*
X0161669Y0458894D01*
X0162262Y0459012D01*
X0162946Y0459469D01*
X0163403Y0460153D01*
X0163563Y0460959D01*
X0163403Y0461765D01*
X0162946Y0462449D01*
X0162262Y0462906D01*
X0161456Y0463066D01*
D02*
G37*
G36*
X0205712Y0448700D02*
X0204905Y0448540D01*
X0204222Y0448083D01*
X0203765Y0447399D01*
X0203604Y0446593D01*
X0203765Y0445786D01*
X0204222Y0445103D01*
X0204905Y0444646D01*
X0205712Y0444486D01*
X0206518Y0444646D01*
X0207202Y0445103D01*
X0207659Y0445786D01*
X0207819Y0446593D01*
X0207659Y0447399D01*
X0207202Y0448083D01*
X0206518Y0448540D01*
X0205712Y0448700D01*
D02*
G37*
G36*
X0192873Y0451929D02*
X0192067Y0451768D01*
X0191383Y0451311D01*
X0190926Y0450628D01*
X0190766Y0449821D01*
X0190926Y0449015D01*
X0191383Y0448331D01*
X0192067Y0447874D01*
X0192873Y0447714D01*
X0193561Y0447851D01*
X0193883Y0447626D01*
X0193998Y0447486D01*
X0193939Y0447187D01*
X0194099Y0446381D01*
X0194556Y0445697D01*
X0195240Y0445240D01*
X0196046Y0445080D01*
X0196349Y0445140D01*
X0196703Y0444787D01*
X0196640Y0444471D01*
X0196800Y0443664D01*
X0197257Y0442981D01*
X0197941Y0442524D01*
X0198747Y0442364D01*
X0199554Y0442524D01*
X0200237Y0442981D01*
X0200694Y0443664D01*
X0200855Y0444471D01*
X0200783Y0444833D01*
X0200912Y0444859D01*
X0201596Y0445315D01*
X0202052Y0445999D01*
X0202213Y0446805D01*
X0202052Y0447612D01*
X0201596Y0448296D01*
X0200912Y0448752D01*
X0200106Y0448913D01*
X0199299Y0448752D01*
X0198615Y0448296D01*
X0198481Y0448095D01*
X0198347Y0448067D01*
X0197903Y0448129D01*
X0197537Y0448678D01*
X0196853Y0449134D01*
X0196046Y0449295D01*
X0195359Y0449158D01*
X0195036Y0449382D01*
X0194921Y0449523D01*
X0194981Y0449821D01*
X0194820Y0450628D01*
X0194363Y0451311D01*
X0193680Y0451768D01*
X0192873Y0451929D01*
D02*
G37*
G36*
X0179808Y0444778D02*
X0179001Y0444618D01*
X0178317Y0444161D01*
X0177861Y0443477D01*
X0177700Y0442671D01*
X0177861Y0441864D01*
X0178317Y0441181D01*
X0179001Y0440724D01*
X0179808Y0440563D01*
X0180614Y0440724D01*
X0181298Y0441181D01*
X0181755Y0441864D01*
X0181915Y0442671D01*
X0181755Y0443477D01*
X0181298Y0444161D01*
X0180614Y0444618D01*
X0179808Y0444778D01*
D02*
G37*
G36*
X0211523Y0443089D02*
X0210562Y0442963D01*
X0209666Y0442592D01*
X0208897Y0442002D01*
X0208307Y0441233D01*
X0207937Y0440338D01*
X0207810Y0439377D01*
X0207917Y0438566D01*
X0207920Y0438541D01*
X0207439Y0438360D01*
X0207414Y0438398D01*
X0207080Y0438898D01*
X0206933Y0438996D01*
X0207127Y0439286D01*
X0207288Y0440093D01*
X0207127Y0440899D01*
X0206670Y0441583D01*
X0205987Y0442040D01*
X0205180Y0442200D01*
X0204374Y0442040D01*
X0203690Y0441583D01*
X0203233Y0440899D01*
X0203073Y0440093D01*
X0203233Y0439286D01*
X0203690Y0438603D01*
X0203837Y0438505D01*
X0203643Y0438214D01*
X0203482Y0437408D01*
X0203643Y0436601D01*
X0204100Y0435918D01*
X0204783Y0435461D01*
X0205590Y0435300D01*
X0205778Y0435338D01*
X0206204Y0434913D01*
X0206136Y0434575D01*
X0206297Y0433769D01*
X0206754Y0433085D01*
X0207437Y0432628D01*
X0208244Y0432468D01*
X0209050Y0432628D01*
X0209734Y0433085D01*
X0210191Y0433769D01*
X0210351Y0434575D01*
X0210191Y0435381D01*
X0210171Y0435411D01*
X0210503Y0435815D01*
X0210562Y0435790D01*
X0211523Y0435664D01*
X0212484Y0435790D01*
X0213379Y0436161D01*
X0214148Y0436751D01*
X0214738Y0437520D01*
X0215109Y0438416D01*
X0215236Y0439377D01*
X0215109Y0440338D01*
X0214738Y0441233D01*
X0214148Y0442002D01*
X0213379Y0442592D01*
X0212484Y0442963D01*
X0211523Y0443089D01*
D02*
G37*
G36*
X0279330Y0444900D02*
X0274200D01*
X0269070D01*
X0269118Y0444538D01*
X0269643Y0443269D01*
X0270479Y0442179D01*
X0271569Y0441343D01*
X0272036Y0441150D01*
Y0440650D01*
X0271569Y0440457D01*
X0270479Y0439620D01*
X0269643Y0438531D01*
X0269118Y0437262D01*
X0269070Y0436900D01*
X0274200D01*
X0279330D01*
X0279282Y0437262D01*
X0278757Y0438531D01*
X0277921Y0439620D01*
X0276831Y0440457D01*
X0276364Y0440650D01*
Y0441150D01*
X0276831Y0441343D01*
X0277921Y0442179D01*
X0278757Y0443269D01*
X0279282Y0444538D01*
X0279330Y0444900D01*
D02*
G37*
G36*
X0099330D02*
X0094200D01*
X0089070D01*
X0089118Y0444538D01*
X0089643Y0443269D01*
X0090479Y0442179D01*
X0091569Y0441343D01*
X0092036Y0441150D01*
Y0440650D01*
X0091569Y0440457D01*
X0090479Y0439620D01*
X0089643Y0438531D01*
X0089118Y0437262D01*
X0089070Y0436900D01*
X0094200D01*
X0099330D01*
X0099282Y0437262D01*
X0098757Y0438531D01*
X0097921Y0439620D01*
X0096831Y0440457D01*
X0096364Y0440650D01*
Y0441150D01*
X0096831Y0441343D01*
X0097921Y0442179D01*
X0098757Y0443269D01*
X0099282Y0444538D01*
X0099330Y0444900D01*
D02*
G37*
G36*
X0186165Y0443425D02*
X0185358Y0443264D01*
X0184674Y0442807D01*
X0184218Y0442124D01*
X0184057Y0441317D01*
X0184137Y0440916D01*
X0183806Y0440472D01*
X0183000Y0440312D01*
X0182316Y0439855D01*
X0181859Y0439171D01*
X0181699Y0438365D01*
X0181859Y0437558D01*
X0182316Y0436874D01*
X0183000Y0436418D01*
X0183806Y0436257D01*
X0184613Y0436418D01*
X0185296Y0436874D01*
X0185753Y0437558D01*
X0185914Y0438365D01*
X0185834Y0438766D01*
X0186165Y0439210D01*
X0186971Y0439370D01*
X0187655Y0439827D01*
X0188112Y0440511D01*
X0188272Y0441317D01*
X0188112Y0442124D01*
X0187655Y0442807D01*
X0186971Y0443264D01*
X0186165Y0443425D01*
D02*
G37*
G36*
X0155700Y0435440D02*
X0154894Y0435279D01*
X0154210Y0434822D01*
X0153753Y0434139D01*
X0153593Y0433332D01*
X0153624Y0433176D01*
X0153182Y0432831D01*
X0152554Y0432956D01*
X0151748Y0432796D01*
X0151064Y0432339D01*
X0150607Y0431655D01*
X0150447Y0430849D01*
X0150607Y0430042D01*
X0151064Y0429359D01*
X0151570Y0429021D01*
X0151155Y0428399D01*
X0150994Y0427593D01*
X0151057Y0427275D01*
X0150632Y0426850D01*
X0150341Y0426908D01*
X0149534Y0426748D01*
X0149230Y0426544D01*
X0148546Y0426667D01*
X0148477Y0426771D01*
X0147793Y0427228D01*
X0146987Y0427388D01*
X0146180Y0427228D01*
X0145496Y0426771D01*
X0145040Y0426088D01*
X0144879Y0425281D01*
X0145040Y0424475D01*
X0145496Y0423791D01*
X0146180Y0423334D01*
X0146987Y0423174D01*
X0147793Y0423334D01*
X0148098Y0423538D01*
X0148781Y0423415D01*
X0148851Y0423311D01*
X0149534Y0422854D01*
X0150341Y0422693D01*
X0151147Y0422854D01*
X0151831Y0423311D01*
X0152288Y0423994D01*
X0152448Y0424801D01*
X0152385Y0425118D01*
X0152810Y0425543D01*
X0153102Y0425486D01*
X0153908Y0425646D01*
X0154592Y0426103D01*
X0155049Y0426786D01*
X0155209Y0427593D01*
X0155049Y0428399D01*
X0154592Y0429083D01*
X0154086Y0429421D01*
X0154501Y0430042D01*
X0154662Y0430849D01*
X0154631Y0431005D01*
X0155072Y0431350D01*
X0155700Y0431225D01*
X0156507Y0431385D01*
X0157190Y0431842D01*
X0157647Y0432526D01*
X0157807Y0433332D01*
X0157647Y0434139D01*
X0157190Y0434822D01*
X0156507Y0435279D01*
X0155700Y0435440D01*
D02*
G37*
G36*
X0180438Y0434440D02*
X0179631Y0434279D01*
X0178948Y0433822D01*
X0178491Y0433139D01*
X0178331Y0432332D01*
X0178366Y0432153D01*
X0177941Y0431728D01*
X0177637Y0431788D01*
X0176830Y0431628D01*
X0176146Y0431171D01*
X0175690Y0430487D01*
X0175529Y0429681D01*
X0175690Y0428874D01*
X0176146Y0428191D01*
X0176830Y0427734D01*
X0177637Y0427573D01*
X0178443Y0427734D01*
X0178918Y0428051D01*
X0179393Y0427733D01*
X0180200Y0427573D01*
X0181007Y0427733D01*
X0181690Y0428190D01*
X0182147Y0428874D01*
X0182307Y0429680D01*
X0182147Y0430487D01*
X0181915Y0430833D01*
X0181928Y0430842D01*
X0182385Y0431526D01*
X0182545Y0432332D01*
X0182385Y0433139D01*
X0181928Y0433822D01*
X0181245Y0434279D01*
X0180438Y0434440D01*
D02*
G37*
G36*
X0245735Y0432720D02*
X0244929Y0432560D01*
X0244245Y0432103D01*
X0243788Y0431419D01*
X0243628Y0430613D01*
X0243788Y0429806D01*
X0244245Y0429122D01*
X0244929Y0428666D01*
X0245735Y0428505D01*
X0246542Y0428666D01*
X0247226Y0429122D01*
X0247682Y0429806D01*
X0247843Y0430613D01*
X0247682Y0431419D01*
X0247226Y0432103D01*
X0246542Y0432560D01*
X0245735Y0432720D01*
D02*
G37*
G36*
X0174632Y0426220D02*
X0173826Y0426059D01*
X0173157Y0425612D01*
X0172805Y0425848D01*
X0171999Y0426008D01*
X0171192Y0425848D01*
X0170508Y0425391D01*
X0170052Y0424707D01*
X0169891Y0423901D01*
X0170052Y0423094D01*
X0170297Y0422727D01*
X0169901Y0422135D01*
X0169741Y0421328D01*
X0169803Y0421015D01*
X0169378Y0420590D01*
X0169064Y0420652D01*
X0168258Y0420492D01*
X0167596Y0420049D01*
X0167248Y0420282D01*
X0166442Y0420442D01*
X0165636Y0420282D01*
X0164952Y0419825D01*
X0164495Y0419141D01*
X0164335Y0418334D01*
X0164495Y0417528D01*
X0164952Y0416844D01*
X0165636Y0416388D01*
X0166442Y0416227D01*
X0167248Y0416388D01*
X0167910Y0416830D01*
X0168258Y0416598D01*
X0169064Y0416437D01*
X0169871Y0416598D01*
X0170555Y0417054D01*
X0171011Y0417738D01*
X0171172Y0418545D01*
X0171109Y0418858D01*
X0171535Y0419283D01*
X0171848Y0419221D01*
X0172655Y0419382D01*
X0173338Y0419838D01*
X0173795Y0420522D01*
X0173956Y0421328D01*
X0173893Y0421642D01*
X0174319Y0422067D01*
X0174632Y0422005D01*
X0175439Y0422165D01*
X0176122Y0422622D01*
X0176579Y0423306D01*
X0176740Y0424112D01*
X0176579Y0424919D01*
X0176122Y0425602D01*
X0175439Y0426059D01*
X0174632Y0426220D01*
D02*
G37*
G36*
X0225519Y0431622D02*
X0224712Y0431461D01*
X0224029Y0431004D01*
X0223572Y0430321D01*
X0223457Y0429744D01*
X0222905Y0429634D01*
X0222222Y0429178D01*
X0221765Y0428494D01*
X0221604Y0427687D01*
X0221765Y0426881D01*
X0222222Y0426197D01*
X0222905Y0425740D01*
X0223712Y0425580D01*
X0224518Y0425740D01*
X0225202Y0426197D01*
X0225659Y0426881D01*
X0225774Y0427457D01*
X0226325Y0427567D01*
X0227009Y0428024D01*
X0227466Y0428708D01*
X0227626Y0429514D01*
X0227466Y0430321D01*
X0227009Y0431004D01*
X0226325Y0431461D01*
X0225519Y0431622D01*
D02*
G37*
G36*
X0188169Y0431819D02*
X0187362Y0431658D01*
X0186679Y0431202D01*
X0186222Y0430518D01*
X0186061Y0429711D01*
X0186222Y0428905D01*
X0186679Y0428221D01*
X0187362Y0427764D01*
X0188169Y0427604D01*
X0188482Y0427666D01*
X0188908Y0427241D01*
X0188845Y0426928D01*
X0189006Y0426121D01*
X0189462Y0425437D01*
X0190146Y0424980D01*
X0190953Y0424820D01*
X0191759Y0424980D01*
X0192118Y0425220D01*
X0192720Y0424818D01*
X0193527Y0424658D01*
X0194333Y0424818D01*
X0195017Y0425275D01*
X0195474Y0425959D01*
X0195634Y0426765D01*
X0195474Y0427572D01*
X0195017Y0428255D01*
X0194333Y0428712D01*
X0193527Y0428872D01*
X0192720Y0428712D01*
X0192361Y0428472D01*
X0191759Y0428874D01*
X0190953Y0429035D01*
X0190639Y0428972D01*
X0190214Y0429398D01*
X0190276Y0429711D01*
X0190116Y0430518D01*
X0189659Y0431202D01*
X0188975Y0431658D01*
X0188169Y0431819D01*
D02*
G37*
G36*
X0256137Y0427496D02*
X0255330Y0427335D01*
X0254647Y0426878D01*
X0254190Y0426195D01*
X0254030Y0425388D01*
X0254190Y0424582D01*
X0254647Y0423898D01*
X0255330Y0423441D01*
X0256137Y0423281D01*
X0256943Y0423441D01*
X0257627Y0423898D01*
X0258084Y0424582D01*
X0258244Y0425388D01*
X0258084Y0426195D01*
X0257627Y0426878D01*
X0256943Y0427335D01*
X0256137Y0427496D01*
D02*
G37*
G36*
X0216574Y0433665D02*
X0215768Y0433504D01*
X0215084Y0433048D01*
X0214627Y0432364D01*
X0214467Y0431558D01*
X0214627Y0430751D01*
X0215009Y0430179D01*
X0214917Y0429779D01*
X0214833Y0429634D01*
X0214571Y0429582D01*
X0213887Y0429125D01*
X0213430Y0428441D01*
X0213270Y0427635D01*
X0213430Y0426828D01*
X0213887Y0426145D01*
X0214571Y0425688D01*
X0215377Y0425527D01*
X0215691Y0425590D01*
X0216116Y0425164D01*
X0216054Y0424851D01*
X0216214Y0424044D01*
X0216671Y0423361D01*
X0217355Y0422904D01*
X0218161Y0422743D01*
X0218968Y0422904D01*
X0219651Y0423361D01*
X0220108Y0424044D01*
X0220269Y0424851D01*
X0220108Y0425657D01*
X0219666Y0426319D01*
X0219898Y0426667D01*
X0220058Y0427473D01*
X0219898Y0428280D01*
X0219441Y0428963D01*
X0218758Y0429420D01*
X0218170Y0429537D01*
X0218064Y0430067D01*
X0218521Y0430751D01*
X0218681Y0431558D01*
X0218521Y0432364D01*
X0218064Y0433048D01*
X0217380Y0433504D01*
X0216574Y0433665D01*
D02*
G37*
G36*
X0279330Y0434900D02*
X0274200D01*
X0269070D01*
X0269118Y0434538D01*
X0269643Y0433269D01*
X0270479Y0432179D01*
X0271569Y0431343D01*
X0272838Y0430818D01*
X0272761Y0430329D01*
X0269771D01*
Y0421471D01*
X0278629D01*
Y0430329D01*
X0275639D01*
X0275562Y0430818D01*
X0276831Y0431343D01*
X0277921Y0432179D01*
X0278757Y0433269D01*
X0279282Y0434538D01*
X0279330Y0434900D01*
D02*
G37*
G36*
X0099330D02*
X0094200D01*
X0089070D01*
X0089118Y0434538D01*
X0089643Y0433269D01*
X0090479Y0432179D01*
X0091569Y0431343D01*
X0092838Y0430818D01*
X0092761Y0430329D01*
X0089771D01*
Y0421471D01*
X0098629D01*
Y0430329D01*
X0095639D01*
X0095562Y0430818D01*
X0096831Y0431343D01*
X0097921Y0432179D01*
X0098757Y0433269D01*
X0099282Y0434538D01*
X0099330Y0434900D01*
D02*
G37*
G36*
X0135287Y0421047D02*
X0134480Y0420886D01*
X0133797Y0420430D01*
X0133340Y0419746D01*
X0133203Y0419062D01*
X0132700Y0419162D01*
X0131894Y0419001D01*
X0131210Y0418545D01*
X0130753Y0417861D01*
X0130593Y0417054D01*
X0130753Y0416248D01*
X0131210Y0415564D01*
X0131894Y0415107D01*
X0132700Y0414947D01*
X0133507Y0415107D01*
X0134190Y0415564D01*
X0134647Y0416248D01*
X0134783Y0416932D01*
X0135287Y0416832D01*
X0136093Y0416992D01*
X0136777Y0417449D01*
X0137234Y0418133D01*
X0137394Y0418939D01*
X0137234Y0419746D01*
X0136777Y0420430D01*
X0136093Y0420886D01*
X0135287Y0421047D01*
D02*
G37*
G36*
X0144511Y0432149D02*
X0143704Y0431989D01*
X0143021Y0431532D01*
X0142564Y0430848D01*
X0142429Y0430168D01*
X0141980Y0430079D01*
X0141297Y0429623D01*
X0140840Y0428939D01*
X0140679Y0428132D01*
X0140835Y0427347D01*
X0140579Y0427296D01*
X0139895Y0426839D01*
X0139438Y0426155D01*
X0139278Y0425349D01*
X0139438Y0424542D01*
X0139838Y0423943D01*
X0139812Y0423926D01*
X0139355Y0423242D01*
X0139195Y0422435D01*
X0139355Y0421629D01*
X0139812Y0420945D01*
X0139552Y0420518D01*
X0139210Y0420006D01*
X0139049Y0419199D01*
X0139210Y0418393D01*
X0139666Y0417709D01*
X0140350Y0417252D01*
X0141157Y0417092D01*
X0141963Y0417252D01*
X0142647Y0417709D01*
X0143104Y0418393D01*
X0143264Y0419199D01*
X0143104Y0420006D01*
X0142647Y0420689D01*
X0142907Y0421117D01*
X0143249Y0421629D01*
X0143410Y0422435D01*
X0143249Y0423242D01*
X0142849Y0423841D01*
X0142875Y0423859D01*
X0143332Y0424542D01*
X0143492Y0425349D01*
X0143336Y0426134D01*
X0143593Y0426185D01*
X0144277Y0426642D01*
X0144734Y0427326D01*
X0144869Y0428006D01*
X0145317Y0428095D01*
X0146001Y0428552D01*
X0146458Y0429235D01*
X0146618Y0430042D01*
X0146458Y0430848D01*
X0146001Y0431532D01*
X0145317Y0431989D01*
X0144511Y0432149D01*
D02*
G37*
G36*
X0214495Y0417090D02*
X0213689Y0416930D01*
X0213005Y0416473D01*
X0212548Y0415789D01*
X0212435Y0415220D01*
X0212137Y0415279D01*
X0211331Y0415119D01*
X0210647Y0414662D01*
X0210190Y0413978D01*
X0210030Y0413172D01*
X0210190Y0412365D01*
X0210647Y0411682D01*
X0211331Y0411225D01*
X0212137Y0411064D01*
X0212944Y0411225D01*
X0213627Y0411682D01*
X0214084Y0412365D01*
X0214197Y0412935D01*
X0214495Y0412875D01*
X0215302Y0413036D01*
X0215985Y0413492D01*
X0216442Y0414176D01*
X0216603Y0414983D01*
X0216442Y0415789D01*
X0215985Y0416473D01*
X0215302Y0416930D01*
X0214495Y0417090D01*
D02*
G37*
G36*
X0196520Y0423467D02*
X0195714Y0423307D01*
X0195030Y0422850D01*
X0194573Y0422166D01*
X0194413Y0421360D01*
X0194573Y0420553D01*
X0195030Y0419870D01*
X0195714Y0419413D01*
X0196520Y0419252D01*
X0196834Y0419315D01*
X0197259Y0418890D01*
X0197197Y0418576D01*
X0197357Y0417769D01*
X0197814Y0417086D01*
X0198498Y0416629D01*
X0199304Y0416468D01*
X0200111Y0416629D01*
X0200467Y0416867D01*
X0201085Y0416454D01*
X0201891Y0416293D01*
X0202188Y0416352D01*
X0202614Y0415927D01*
X0202555Y0415630D01*
X0202715Y0414824D01*
X0203157Y0414162D01*
X0202925Y0413814D01*
X0202765Y0413008D01*
X0202925Y0412202D01*
X0203382Y0411518D01*
X0204066Y0411061D01*
X0204872Y0410901D01*
X0205679Y0411061D01*
X0206362Y0411518D01*
X0206819Y0412202D01*
X0206979Y0413008D01*
X0206819Y0413814D01*
X0206377Y0414476D01*
X0206609Y0414824D01*
X0206769Y0415630D01*
X0206609Y0416437D01*
X0206152Y0417121D01*
X0205469Y0417578D01*
X0204662Y0417738D01*
X0204365Y0417679D01*
X0203940Y0418104D01*
X0203999Y0418400D01*
X0203838Y0419207D01*
X0203381Y0419891D01*
X0202698Y0420347D01*
X0201891Y0420508D01*
X0201754Y0420480D01*
X0201328Y0420906D01*
X0201394Y0421237D01*
X0201234Y0422044D01*
X0200777Y0422727D01*
X0200094Y0423184D01*
X0199287Y0423345D01*
X0198480Y0423184D01*
X0197995Y0422860D01*
X0197327Y0423307D01*
X0196520Y0423467D01*
D02*
G37*
G36*
X0147529Y0413558D02*
X0146722Y0413398D01*
X0146039Y0412941D01*
X0145582Y0412258D01*
X0145421Y0411451D01*
X0145582Y0410645D01*
X0146039Y0409961D01*
X0146722Y0409504D01*
X0147529Y0409344D01*
X0148335Y0409504D01*
X0149019Y0409961D01*
X0149476Y0410645D01*
X0149636Y0411451D01*
X0149476Y0412258D01*
X0149019Y0412941D01*
X0148335Y0413398D01*
X0147529Y0413558D01*
D02*
G37*
G36*
X0293239Y0411228D02*
X0292433Y0411067D01*
X0291749Y0410611D01*
X0291292Y0409927D01*
X0291132Y0409121D01*
X0291292Y0408314D01*
X0291749Y0407630D01*
X0292433Y0407173D01*
X0293239Y0407013D01*
X0294046Y0407173D01*
X0294729Y0407630D01*
X0295186Y0408314D01*
X0295347Y0409121D01*
X0295186Y0409927D01*
X0294729Y0410611D01*
X0294046Y0411067D01*
X0293239Y0411228D01*
D02*
G37*
G36*
X0284310Y0409039D02*
X0283504Y0408879D01*
X0282820Y0408422D01*
X0282363Y0407738D01*
X0282203Y0406931D01*
X0282363Y0406125D01*
X0282820Y0405441D01*
X0283504Y0404985D01*
X0284310Y0404824D01*
X0285117Y0404985D01*
X0285800Y0405441D01*
X0286257Y0406125D01*
X0286418Y0406931D01*
X0286257Y0407738D01*
X0285800Y0408422D01*
X0285117Y0408879D01*
X0284310Y0409039D01*
D02*
G37*
G36*
X0229854Y0412149D02*
X0229047Y0411989D01*
X0228363Y0411532D01*
X0227907Y0410848D01*
X0227746Y0410042D01*
X0227907Y0409235D01*
X0228363Y0408552D01*
X0229047Y0408095D01*
X0229854Y0407934D01*
X0230000Y0407964D01*
X0230195Y0407492D01*
X0229812Y0407237D01*
X0229355Y0406553D01*
X0229195Y0405747D01*
X0229355Y0404940D01*
X0229812Y0404256D01*
X0230496Y0403799D01*
X0231302Y0403639D01*
X0232109Y0403799D01*
X0232792Y0404256D01*
X0233249Y0404940D01*
X0233410Y0405747D01*
X0233249Y0406553D01*
X0232792Y0407237D01*
X0232109Y0407693D01*
X0231302Y0407854D01*
X0231156Y0407825D01*
X0230961Y0408296D01*
X0231344Y0408552D01*
X0231801Y0409235D01*
X0231961Y0410042D01*
X0231801Y0410848D01*
X0231344Y0411532D01*
X0230660Y0411989D01*
X0229854Y0412149D01*
D02*
G37*
G36*
X0163717Y0407380D02*
X0162910Y0407219D01*
X0162226Y0406763D01*
X0161770Y0406079D01*
X0161609Y0405272D01*
X0161770Y0404466D01*
X0162226Y0403782D01*
X0162910Y0403325D01*
X0163717Y0403165D01*
X0164523Y0403325D01*
X0165207Y0403782D01*
X0165664Y0404466D01*
X0165824Y0405272D01*
X0165664Y0406079D01*
X0165207Y0406763D01*
X0164523Y0407219D01*
X0163717Y0407380D01*
D02*
G37*
G36*
X0236700Y0405409D02*
X0235894Y0405249D01*
X0235210Y0404792D01*
X0234753Y0404108D01*
X0234593Y0403302D01*
X0234753Y0402495D01*
X0235210Y0401811D01*
X0235894Y0401355D01*
X0236700Y0401194D01*
X0237507Y0401355D01*
X0238190Y0401811D01*
X0238647Y0402495D01*
X0238807Y0403302D01*
X0238647Y0404108D01*
X0238190Y0404792D01*
X0237507Y0405249D01*
X0236700Y0405409D01*
D02*
G37*
G36*
X0200753Y0405780D02*
X0199946Y0405620D01*
X0199262Y0405163D01*
X0198806Y0404479D01*
X0198645Y0403673D01*
X0198806Y0402866D01*
X0199125Y0402388D01*
X0199109Y0402377D01*
X0198652Y0401694D01*
X0198492Y0400887D01*
X0198564Y0400525D01*
X0198210Y0400171D01*
X0197964Y0400220D01*
X0197157Y0400060D01*
X0196537Y0399645D01*
X0195966Y0400027D01*
X0195160Y0400187D01*
X0194353Y0400027D01*
X0193670Y0399570D01*
X0193213Y0398886D01*
X0193052Y0398080D01*
X0193213Y0397273D01*
X0193584Y0396717D01*
X0193214Y0396163D01*
X0193128Y0395732D01*
X0193123Y0395728D01*
X0192580Y0395543D01*
X0192106Y0395860D01*
X0191300Y0396020D01*
X0190494Y0395860D01*
X0189810Y0395403D01*
X0189353Y0394719D01*
X0189193Y0393913D01*
X0189353Y0393106D01*
X0189810Y0392422D01*
X0190494Y0391966D01*
X0191300Y0391805D01*
X0192106Y0391966D01*
X0192790Y0392422D01*
X0193247Y0393106D01*
X0193333Y0393537D01*
X0193337Y0393541D01*
X0193880Y0393726D01*
X0194354Y0393410D01*
X0195161Y0393249D01*
X0195967Y0393410D01*
X0196651Y0393866D01*
X0197108Y0394550D01*
X0197268Y0395357D01*
X0197211Y0395645D01*
X0197636Y0396070D01*
X0197964Y0396005D01*
X0198770Y0396166D01*
X0199454Y0396622D01*
X0199911Y0397306D01*
X0200071Y0398113D01*
X0199999Y0398475D01*
X0200353Y0398829D01*
X0200599Y0398780D01*
X0201406Y0398940D01*
X0202089Y0399397D01*
X0202546Y0400081D01*
X0202706Y0400887D01*
X0202546Y0401694D01*
X0202226Y0402172D01*
X0202243Y0402183D01*
X0202700Y0402866D01*
X0202860Y0403673D01*
X0202700Y0404479D01*
X0202243Y0405163D01*
X0201559Y0405620D01*
X0200753Y0405780D01*
D02*
G37*
G36*
X0167739Y0403027D02*
X0166933Y0402867D01*
X0166249Y0402410D01*
X0165792Y0401726D01*
X0165632Y0400920D01*
X0165792Y0400113D01*
X0166249Y0399429D01*
X0166933Y0398973D01*
X0167739Y0398812D01*
X0168546Y0398973D01*
X0169229Y0399429D01*
X0169686Y0400113D01*
X0169847Y0400920D01*
X0169686Y0401726D01*
X0169229Y0402410D01*
X0168546Y0402867D01*
X0167739Y0403027D01*
D02*
G37*
G36*
X0220677Y0398405D02*
X0219871Y0398244D01*
X0219187Y0397787D01*
X0219148Y0397729D01*
X0218794Y0397965D01*
X0217987Y0398126D01*
X0217181Y0397965D01*
X0216497Y0397508D01*
X0216040Y0396825D01*
X0215880Y0396018D01*
X0215942Y0395705D01*
X0215517Y0395279D01*
X0215203Y0395342D01*
X0214397Y0395181D01*
X0213713Y0394724D01*
X0213257Y0394041D01*
X0213096Y0393234D01*
X0213257Y0392428D01*
X0213713Y0391744D01*
X0214397Y0391287D01*
X0215203Y0391127D01*
X0216010Y0391287D01*
X0216694Y0391744D01*
X0217150Y0392428D01*
X0217311Y0393234D01*
X0217249Y0393548D01*
X0217674Y0393973D01*
X0217987Y0393911D01*
X0218794Y0394071D01*
X0219478Y0394528D01*
X0219517Y0394587D01*
X0219871Y0394350D01*
X0220677Y0394190D01*
X0221484Y0394350D01*
X0222167Y0394807D01*
X0222624Y0395491D01*
X0222785Y0396297D01*
X0222624Y0397104D01*
X0222167Y0397787D01*
X0221484Y0398244D01*
X0220677Y0398405D01*
D02*
G37*
G36*
X0139109Y0401543D02*
X0138303Y0401382D01*
X0137619Y0400926D01*
X0137162Y0400242D01*
X0137002Y0399435D01*
X0137162Y0398629D01*
X0137619Y0397945D01*
X0138303Y0397488D01*
X0139109Y0397328D01*
X0139916Y0397488D01*
X0140600Y0397945D01*
X0141056Y0398629D01*
X0141217Y0399435D01*
X0141056Y0400242D01*
X0140600Y0400926D01*
X0139916Y0401382D01*
X0139109Y0401543D01*
D02*
G37*
G36*
X0171734Y0398941D02*
X0170927Y0398781D01*
X0170244Y0398324D01*
X0169787Y0397640D01*
X0169626Y0396834D01*
X0169787Y0396027D01*
X0170244Y0395344D01*
X0170927Y0394887D01*
X0171734Y0394726D01*
X0172540Y0394887D01*
X0173224Y0395344D01*
X0173681Y0396027D01*
X0173841Y0396834D01*
X0173681Y0397640D01*
X0173224Y0398324D01*
X0172540Y0398781D01*
X0171734Y0398941D01*
D02*
G37*
G36*
X0132519Y0401845D02*
X0131558Y0401719D01*
X0130663Y0401348D01*
X0129894Y0400758D01*
X0129304Y0399989D01*
X0128932Y0399093D01*
X0128806Y0398132D01*
X0128932Y0397171D01*
X0129304Y0396276D01*
X0129894Y0395507D01*
X0130663Y0394917D01*
X0131558Y0394546D01*
X0132519Y0394419D01*
X0133480Y0394546D01*
X0134375Y0394917D01*
X0135144Y0395507D01*
X0135734Y0396276D01*
X0136105Y0397171D01*
X0136232Y0398132D01*
X0136105Y0399093D01*
X0135734Y0399989D01*
X0135144Y0400758D01*
X0134375Y0401348D01*
X0133480Y0401719D01*
X0132519Y0401845D01*
D02*
G37*
G36*
X0234830Y0398515D02*
X0234023Y0398355D01*
X0233340Y0397898D01*
X0232883Y0397214D01*
X0232722Y0396408D01*
X0232883Y0395601D01*
X0233340Y0394918D01*
X0234023Y0394461D01*
X0234830Y0394301D01*
X0235636Y0394461D01*
X0236320Y0394918D01*
X0236777Y0395601D01*
X0236937Y0396408D01*
X0236777Y0397214D01*
X0236320Y0397898D01*
X0235636Y0398355D01*
X0234830Y0398515D01*
D02*
G37*
G36*
X0150485Y0395504D02*
X0149679Y0395344D01*
X0148995Y0394887D01*
X0148538Y0394203D01*
X0148378Y0393397D01*
X0148416Y0393206D01*
X0147945Y0393011D01*
X0147718Y0393351D01*
X0147034Y0393808D01*
X0146228Y0393968D01*
X0145421Y0393808D01*
X0144737Y0393351D01*
X0144281Y0392667D01*
X0144120Y0391861D01*
X0144281Y0391054D01*
X0144737Y0390370D01*
X0145421Y0389914D01*
X0146228Y0389753D01*
X0147034Y0389914D01*
X0147718Y0390370D01*
X0148175Y0391054D01*
X0148335Y0391861D01*
X0148297Y0392051D01*
X0148768Y0392246D01*
X0148995Y0391906D01*
X0149679Y0391450D01*
X0150485Y0391289D01*
X0150799Y0391352D01*
X0151224Y0390926D01*
X0151162Y0390613D01*
X0151322Y0389806D01*
X0151779Y0389123D01*
X0152463Y0388666D01*
X0153269Y0388505D01*
X0154076Y0388666D01*
X0154759Y0389123D01*
X0155216Y0389806D01*
X0155377Y0390613D01*
X0155216Y0391419D01*
X0154759Y0392103D01*
X0154076Y0392560D01*
X0153269Y0392720D01*
X0152955Y0392658D01*
X0152530Y0393083D01*
X0152593Y0393397D01*
X0152432Y0394203D01*
X0151975Y0394887D01*
X0151292Y0395344D01*
X0150485Y0395504D01*
D02*
G37*
G36*
X0177407Y0396020D02*
X0176601Y0395860D01*
X0175917Y0395403D01*
X0175460Y0394719D01*
X0175300Y0393913D01*
X0175460Y0393106D01*
X0175857Y0392512D01*
X0175423Y0391863D01*
X0175263Y0391056D01*
X0175423Y0390250D01*
X0175880Y0389566D01*
X0176564Y0389109D01*
X0177370Y0388949D01*
X0178177Y0389109D01*
X0178860Y0389566D01*
X0179317Y0390250D01*
X0179478Y0391056D01*
X0179317Y0391863D01*
X0178921Y0392457D01*
X0179354Y0393106D01*
X0179515Y0393913D01*
X0179354Y0394719D01*
X0178898Y0395403D01*
X0178214Y0395860D01*
X0177407Y0396020D01*
D02*
G37*
G36*
X0186779Y0394441D02*
X0185972Y0394280D01*
X0185289Y0393823D01*
X0184832Y0393140D01*
X0184671Y0392333D01*
X0184832Y0391527D01*
X0185289Y0390843D01*
X0185584Y0390646D01*
X0185135Y0389974D01*
X0184975Y0389168D01*
X0185135Y0388361D01*
X0185592Y0387678D01*
X0186275Y0387221D01*
X0187082Y0387060D01*
X0187888Y0387221D01*
X0188572Y0387678D01*
X0189029Y0388361D01*
X0189189Y0389168D01*
X0189029Y0389974D01*
X0188572Y0390658D01*
X0188277Y0390855D01*
X0188726Y0391527D01*
X0188886Y0392333D01*
X0188726Y0393140D01*
X0188269Y0393823D01*
X0187585Y0394280D01*
X0186779Y0394441D01*
D02*
G37*
G36*
X0098629Y0400329D02*
X0089771D01*
Y0391471D01*
X0092761D01*
X0092838Y0390982D01*
X0091569Y0390457D01*
X0090479Y0389620D01*
X0089643Y0388531D01*
X0089118Y0387262D01*
X0089070Y0386900D01*
X0094200D01*
X0099330D01*
X0099282Y0387262D01*
X0098757Y0388531D01*
X0097921Y0389620D01*
X0096831Y0390457D01*
X0095562Y0390982D01*
X0095639Y0391471D01*
X0098629D01*
Y0400329D01*
D02*
G37*
G36*
X0226641Y0390401D02*
X0225834Y0390241D01*
X0225151Y0389784D01*
X0224694Y0389100D01*
X0224534Y0388294D01*
X0224694Y0387487D01*
X0225151Y0386804D01*
X0225834Y0386347D01*
X0226641Y0386186D01*
X0227447Y0386347D01*
X0228131Y0386804D01*
X0228588Y0387487D01*
X0228748Y0388294D01*
X0228588Y0389100D01*
X0228131Y0389784D01*
X0227447Y0390241D01*
X0226641Y0390401D01*
D02*
G37*
G36*
X0209636Y0389774D02*
X0208829Y0389614D01*
X0208146Y0389157D01*
X0207689Y0388473D01*
X0207528Y0387667D01*
X0207689Y0386860D01*
X0208146Y0386176D01*
X0208829Y0385719D01*
X0209636Y0385559D01*
X0210442Y0385719D01*
X0211126Y0386176D01*
X0211583Y0386860D01*
X0211743Y0387667D01*
X0211583Y0388473D01*
X0211126Y0389157D01*
X0210442Y0389614D01*
X0209636Y0389774D01*
D02*
G37*
G36*
X0286058Y0386767D02*
X0285252Y0386607D01*
X0284568Y0386150D01*
X0284111Y0385466D01*
X0283951Y0384660D01*
X0284111Y0383853D01*
X0284568Y0383170D01*
X0284679Y0383095D01*
X0284484Y0382624D01*
X0283924Y0382736D01*
X0283118Y0382575D01*
X0282434Y0382119D01*
X0281977Y0381435D01*
X0281817Y0380628D01*
X0281977Y0379822D01*
X0282434Y0379138D01*
X0283118Y0378681D01*
X0283924Y0378521D01*
X0284731Y0378681D01*
X0285415Y0379138D01*
X0285871Y0379822D01*
X0286032Y0380628D01*
X0285871Y0381435D01*
X0285415Y0382119D01*
X0285303Y0382193D01*
X0285498Y0382664D01*
X0286058Y0382552D01*
X0286457Y0382632D01*
X0286477Y0382530D01*
X0286934Y0381847D01*
X0287618Y0381390D01*
X0288424Y0381230D01*
X0289231Y0381390D01*
X0289915Y0381847D01*
X0290371Y0382530D01*
X0290532Y0383337D01*
X0290371Y0384143D01*
X0289915Y0384827D01*
X0289231Y0385284D01*
X0288424Y0385444D01*
X0288025Y0385365D01*
X0288005Y0385466D01*
X0287548Y0386150D01*
X0286865Y0386607D01*
X0286058Y0386767D01*
D02*
G37*
G36*
X0213527Y0385728D02*
X0212720Y0385567D01*
X0212037Y0385111D01*
X0211580Y0384427D01*
X0211419Y0383621D01*
X0211580Y0382814D01*
X0212037Y0382130D01*
X0212720Y0381674D01*
X0213527Y0381513D01*
X0214333Y0381674D01*
X0215017Y0382130D01*
X0215474Y0382814D01*
X0215634Y0383621D01*
X0215474Y0384427D01*
X0215017Y0385111D01*
X0214333Y0385567D01*
X0213527Y0385728D01*
D02*
G37*
G36*
X0159863Y0385004D02*
X0159057Y0384844D01*
X0158373Y0384387D01*
X0157916Y0383704D01*
X0157756Y0382897D01*
X0157916Y0382091D01*
X0158373Y0381407D01*
X0159057Y0380950D01*
X0159863Y0380790D01*
X0160670Y0380950D01*
X0161354Y0381407D01*
X0161810Y0382091D01*
X0161971Y0382897D01*
X0161810Y0383704D01*
X0161354Y0384387D01*
X0160670Y0384844D01*
X0159863Y0385004D01*
D02*
G37*
G36*
X0099330Y0384900D02*
X0095200D01*
Y0380770D01*
X0095562Y0380818D01*
X0096831Y0381343D01*
X0097921Y0382179D01*
X0098757Y0383269D01*
X0099282Y0384538D01*
X0099330Y0384900D01*
D02*
G37*
G36*
X0093200D02*
X0089070D01*
X0089118Y0384538D01*
X0089643Y0383269D01*
X0090479Y0382179D01*
X0091569Y0381343D01*
X0092838Y0380818D01*
X0093200Y0380770D01*
Y0384900D01*
D02*
G37*
G36*
X0205503Y0385212D02*
X0204697Y0385052D01*
X0204013Y0384595D01*
X0203556Y0383911D01*
X0203396Y0383105D01*
X0203556Y0382298D01*
X0204013Y0381615D01*
X0204697Y0381158D01*
X0205503Y0380997D01*
X0205547Y0381006D01*
X0205682Y0380326D01*
X0206139Y0379642D01*
X0206823Y0379185D01*
X0207629Y0379025D01*
X0208436Y0379185D01*
X0209119Y0379642D01*
X0209576Y0380326D01*
X0209736Y0381132D01*
X0209576Y0381939D01*
X0209119Y0382622D01*
X0208436Y0383079D01*
X0207629Y0383240D01*
X0207585Y0383231D01*
X0207450Y0383911D01*
X0206993Y0384595D01*
X0206310Y0385052D01*
X0205503Y0385212D01*
D02*
G37*
G36*
X0217306Y0380559D02*
X0216500Y0380398D01*
X0215816Y0379941D01*
X0215359Y0379258D01*
X0215199Y0378451D01*
X0215359Y0377645D01*
X0215816Y0376961D01*
X0216500Y0376504D01*
X0217306Y0376344D01*
X0218113Y0376504D01*
X0218796Y0376961D01*
X0219253Y0377645D01*
X0219414Y0378451D01*
X0219253Y0379258D01*
X0218796Y0379941D01*
X0218113Y0380398D01*
X0217306Y0380559D01*
D02*
G37*
G36*
X0131267Y0378107D02*
X0130422Y0377939D01*
X0129706Y0377460D01*
X0129227Y0376744D01*
X0129059Y0375899D01*
X0129227Y0375054D01*
X0129706Y0374338D01*
X0130422Y0373860D01*
X0131267Y0373691D01*
X0132112Y0373860D01*
X0132828Y0374338D01*
X0133307Y0375054D01*
X0133475Y0375899D01*
X0133307Y0376744D01*
X0132828Y0377460D01*
X0132112Y0377939D01*
X0131267Y0378107D01*
D02*
G37*
G36*
X0171188Y0377303D02*
X0170381Y0377143D01*
X0169698Y0376686D01*
X0169241Y0376002D01*
X0169080Y0375196D01*
X0169219Y0374500D01*
X0168551Y0374367D01*
X0167867Y0373910D01*
X0167411Y0373226D01*
X0167250Y0372420D01*
X0167411Y0371613D01*
X0167867Y0370930D01*
X0168551Y0370473D01*
X0169358Y0370312D01*
X0170164Y0370473D01*
X0170434Y0370653D01*
X0170558Y0370570D01*
X0171364Y0370410D01*
X0172171Y0370570D01*
X0172855Y0371027D01*
X0173311Y0371711D01*
X0173472Y0372517D01*
X0173311Y0373324D01*
X0172867Y0373989D01*
X0173135Y0374389D01*
X0173295Y0375196D01*
X0173135Y0376002D01*
X0172678Y0376686D01*
X0171994Y0377143D01*
X0171188Y0377303D01*
D02*
G37*
G36*
X0172562Y0367503D02*
X0171756Y0367343D01*
X0171072Y0366886D01*
X0171034Y0366829D01*
X0170554Y0367150D01*
X0169747Y0367311D01*
X0168941Y0367150D01*
X0168257Y0366693D01*
X0167800Y0366010D01*
X0167640Y0365203D01*
X0167800Y0364397D01*
X0168257Y0363713D01*
X0168941Y0363256D01*
X0169747Y0363096D01*
X0170554Y0363256D01*
X0171237Y0363713D01*
X0171275Y0363770D01*
X0171756Y0363449D01*
X0172562Y0363288D01*
X0172744Y0363324D01*
X0173045Y0362875D01*
X0172774Y0362469D01*
X0172606Y0361624D01*
X0172774Y0360780D01*
X0173253Y0360063D01*
X0173969Y0359585D01*
X0174814Y0359417D01*
X0175659Y0359585D01*
X0176356Y0360051D01*
X0176371Y0360028D01*
X0177087Y0359549D01*
X0177932Y0359381D01*
X0178777Y0359549D01*
X0179493Y0360028D01*
X0179972Y0360744D01*
X0180140Y0361589D01*
X0179972Y0362434D01*
X0179493Y0363150D01*
X0178777Y0363629D01*
X0177932Y0363797D01*
X0177087Y0363629D01*
X0176390Y0363163D01*
X0176375Y0363186D01*
X0175659Y0363664D01*
X0174814Y0363832D01*
X0174572Y0363784D01*
X0174272Y0364234D01*
X0174509Y0364589D01*
X0174669Y0365396D01*
X0174509Y0366202D01*
X0174052Y0366886D01*
X0173368Y0367343D01*
X0172562Y0367503D01*
D02*
G37*
G36*
X0154019Y0372061D02*
X0153059Y0371935D01*
X0152163Y0371564D01*
X0151394Y0370974D01*
X0150804Y0370205D01*
X0150433Y0369309D01*
X0150307Y0368348D01*
X0150433Y0367387D01*
X0150804Y0366492D01*
X0151394Y0365723D01*
X0152163Y0365133D01*
X0153059Y0364762D01*
X0154019Y0364635D01*
X0154981Y0364762D01*
X0155876Y0365133D01*
X0156645Y0365723D01*
X0157235Y0366492D01*
X0157606Y0367387D01*
X0157732Y0368348D01*
X0157606Y0369309D01*
X0157235Y0370205D01*
X0156645Y0370974D01*
X0155876Y0371564D01*
X0154981Y0371935D01*
X0154019Y0372061D01*
D02*
G37*
G36*
X0117826Y0365826D02*
X0117019Y0365666D01*
X0116336Y0365209D01*
X0115879Y0364525D01*
X0115719Y0363719D01*
X0115879Y0362912D01*
X0116336Y0362229D01*
X0117019Y0361772D01*
X0117826Y0361612D01*
X0118632Y0361772D01*
X0119316Y0362229D01*
X0119773Y0362912D01*
X0119933Y0363719D01*
X0119773Y0364525D01*
X0119316Y0365209D01*
X0118632Y0365666D01*
X0117826Y0365826D01*
D02*
G37*
G36*
X0209598Y0364787D02*
X0208791Y0364627D01*
X0208107Y0364170D01*
X0207651Y0363486D01*
X0207490Y0362680D01*
X0207651Y0361873D01*
X0208107Y0361189D01*
X0208138Y0361169D01*
X0208000Y0360660D01*
X0207358Y0360532D01*
X0207221Y0360440D01*
X0206567Y0360605D01*
X0206324Y0360969D01*
X0205640Y0361426D01*
X0204834Y0361586D01*
X0204027Y0361426D01*
X0203344Y0360969D01*
X0203137D01*
X0203037Y0361119D01*
X0202353Y0361575D01*
X0201547Y0361736D01*
X0200740Y0361575D01*
X0200056Y0361119D01*
X0199600Y0360435D01*
X0199439Y0359628D01*
X0199600Y0358822D01*
X0200056Y0358138D01*
X0200740Y0357681D01*
X0201547Y0357521D01*
X0202353Y0357681D01*
X0203037Y0358138D01*
X0203244D01*
X0203344Y0357989D01*
X0204027Y0357532D01*
X0204834Y0357371D01*
X0205640Y0357532D01*
X0205778Y0357623D01*
X0206431Y0357459D01*
X0206674Y0357095D01*
X0207358Y0356638D01*
X0208165Y0356478D01*
X0208684Y0356581D01*
X0208880Y0356110D01*
X0208604Y0355926D01*
X0208147Y0355242D01*
X0207986Y0354435D01*
X0208147Y0353629D01*
X0208604Y0352945D01*
X0209287Y0352488D01*
X0210094Y0352328D01*
X0210900Y0352488D01*
X0211584Y0352945D01*
X0212041Y0353629D01*
X0212201Y0354435D01*
X0212041Y0355242D01*
X0211584Y0355926D01*
X0210900Y0356382D01*
X0210094Y0356543D01*
X0209574Y0356439D01*
X0209379Y0356910D01*
X0209655Y0357095D01*
X0210112Y0357779D01*
X0210272Y0358585D01*
X0210112Y0359391D01*
X0209655Y0360075D01*
X0209624Y0360096D01*
X0209762Y0360605D01*
X0210404Y0360733D01*
X0211088Y0361189D01*
X0211545Y0361873D01*
X0211705Y0362680D01*
X0211545Y0363486D01*
X0211088Y0364170D01*
X0210404Y0364627D01*
X0209598Y0364787D01*
D02*
G37*
G36*
X0187318Y0361373D02*
X0186512Y0361213D01*
X0185828Y0360756D01*
X0185371Y0360073D01*
X0185211Y0359266D01*
X0185371Y0358460D01*
X0185828Y0357776D01*
X0186512Y0357319D01*
X0187318Y0357159D01*
X0188125Y0357319D01*
X0188808Y0357776D01*
X0189265Y0358460D01*
X0189426Y0359266D01*
X0189265Y0360073D01*
X0188808Y0360756D01*
X0188125Y0361213D01*
X0187318Y0361373D01*
D02*
G37*
G36*
X0162692Y0357436D02*
X0161886Y0357276D01*
X0161202Y0356819D01*
X0161020Y0356547D01*
X0160570Y0356847D01*
X0159764Y0357007D01*
X0158957Y0356847D01*
X0158274Y0356390D01*
X0157817Y0355707D01*
X0157656Y0354900D01*
X0157817Y0354094D01*
X0158274Y0353410D01*
X0158957Y0352953D01*
X0159764Y0352793D01*
X0160570Y0352953D01*
X0161254Y0353410D01*
X0161436Y0353682D01*
X0161886Y0353382D01*
X0162692Y0353222D01*
X0163499Y0353382D01*
X0164182Y0353839D01*
X0164639Y0354523D01*
X0164799Y0355329D01*
X0164639Y0356136D01*
X0164182Y0356819D01*
X0163499Y0357276D01*
X0162692Y0357436D01*
D02*
G37*
G36*
X0113751Y0360752D02*
X0112945Y0360591D01*
X0112261Y0360134D01*
X0111804Y0359451D01*
X0111644Y0358644D01*
X0111804Y0357838D01*
X0112261Y0357154D01*
X0112945Y0356697D01*
X0113751Y0356537D01*
X0114558Y0356697D01*
X0115241Y0357154D01*
X0115698Y0357838D01*
X0115859Y0358644D01*
X0115698Y0359451D01*
X0115241Y0360134D01*
X0114558Y0360591D01*
X0113751Y0360752D01*
D02*
G37*
G36*
X0121787Y0358925D02*
X0120980Y0358764D01*
X0120297Y0358308D01*
X0119840Y0357624D01*
X0119679Y0356817D01*
X0119840Y0356011D01*
X0120297Y0355327D01*
X0120980Y0354870D01*
X0121787Y0354710D01*
X0122593Y0354870D01*
X0123277Y0355327D01*
X0123734Y0356011D01*
X0123894Y0356817D01*
X0123734Y0357624D01*
X0123277Y0358308D01*
X0122593Y0358764D01*
X0121787Y0358925D01*
D02*
G37*
G36*
X0244775Y0358885D02*
X0243968Y0358725D01*
X0243285Y0358268D01*
X0242828Y0357584D01*
X0242667Y0356778D01*
X0242828Y0355972D01*
X0243285Y0355288D01*
X0243968Y0354831D01*
X0244775Y0354671D01*
X0245581Y0354831D01*
X0246265Y0355288D01*
X0246722Y0355972D01*
X0246882Y0356778D01*
X0246722Y0357584D01*
X0246265Y0358268D01*
X0245581Y0358725D01*
X0244775Y0358885D01*
D02*
G37*
G36*
X0233696Y0356570D02*
X0232890Y0356410D01*
X0232206Y0355953D01*
X0231749Y0355270D01*
X0231589Y0354463D01*
X0231749Y0353657D01*
X0232206Y0352973D01*
X0232227Y0352959D01*
X0232032Y0352488D01*
X0231834Y0352527D01*
X0231027Y0352367D01*
X0230344Y0351910D01*
X0229887Y0351226D01*
X0229727Y0350420D01*
X0229887Y0349613D01*
X0230344Y0348930D01*
X0231027Y0348473D01*
X0231834Y0348312D01*
X0232640Y0348473D01*
X0233324Y0348930D01*
X0233781Y0349613D01*
X0233941Y0350420D01*
X0233781Y0351226D01*
X0233324Y0351910D01*
X0233303Y0351924D01*
X0233498Y0352395D01*
X0233696Y0352356D01*
X0234503Y0352516D01*
X0235186Y0352973D01*
X0235643Y0353657D01*
X0235804Y0354463D01*
X0235643Y0355270D01*
X0235186Y0355953D01*
X0234503Y0356410D01*
X0233696Y0356570D01*
D02*
G37*
G36*
X0266636Y0380368D02*
X0261764D01*
X0260986Y0380213D01*
X0260327Y0379773D01*
X0259887Y0379114D01*
X0259732Y0378336D01*
Y0373464D01*
X0259887Y0372686D01*
X0260327Y0372027D01*
X0260986Y0371586D01*
X0261764Y0371432D01*
X0262617D01*
X0262716Y0370932D01*
X0261569Y0370457D01*
X0260479Y0369620D01*
X0259643Y0368531D01*
X0259118Y0367262D01*
X0259070Y0366900D01*
X0264200D01*
Y0364900D01*
X0259070D01*
X0259118Y0364538D01*
X0259643Y0363269D01*
X0260479Y0362179D01*
X0261569Y0361343D01*
X0262838Y0360818D01*
X0263314Y0360755D01*
Y0360251D01*
X0263044Y0360215D01*
X0261966Y0359769D01*
X0261041Y0359059D01*
X0260331Y0358134D01*
X0259885Y0357056D01*
X0259733Y0355900D01*
X0259885Y0354744D01*
X0260331Y0353666D01*
X0261041Y0352741D01*
X0261966Y0352031D01*
X0263044Y0351585D01*
X0264200Y0351433D01*
X0265356Y0351585D01*
X0266434Y0352031D01*
X0267359Y0352741D01*
X0268069Y0353666D01*
X0268515Y0354744D01*
X0268667Y0355900D01*
X0268515Y0357056D01*
X0268069Y0358134D01*
X0267359Y0359059D01*
X0266434Y0359769D01*
X0265356Y0360215D01*
X0265086Y0360251D01*
Y0360755D01*
X0265562Y0360818D01*
X0266831Y0361343D01*
X0267920Y0362179D01*
X0268757Y0363269D01*
X0268950Y0363736D01*
X0269450D01*
X0269643Y0363269D01*
X0270479Y0362179D01*
X0271569Y0361343D01*
X0272838Y0360818D01*
X0273314Y0360755D01*
Y0360251D01*
X0273044Y0360215D01*
X0271966Y0359769D01*
X0271041Y0359059D01*
X0270331Y0358134D01*
X0269885Y0357056D01*
X0269733Y0355900D01*
X0269885Y0354744D01*
X0270331Y0353666D01*
X0271041Y0352741D01*
X0271966Y0352031D01*
X0273044Y0351585D01*
X0274200Y0351433D01*
X0275356Y0351585D01*
X0276434Y0352031D01*
X0277359Y0352741D01*
X0278069Y0353666D01*
X0278515Y0354744D01*
X0278667Y0355900D01*
X0278515Y0357056D01*
X0278069Y0358134D01*
X0277359Y0359059D01*
X0276434Y0359769D01*
X0275356Y0360215D01*
X0275086Y0360251D01*
Y0360755D01*
X0275562Y0360818D01*
X0276831Y0361343D01*
X0277921Y0362179D01*
X0278757Y0363269D01*
X0279282Y0364538D01*
X0279330Y0364900D01*
X0274200D01*
Y0366900D01*
X0279330D01*
X0279282Y0367262D01*
X0278757Y0368531D01*
X0277921Y0369620D01*
X0276831Y0370457D01*
X0275562Y0370982D01*
X0275086Y0371045D01*
Y0371549D01*
X0275356Y0371585D01*
X0276434Y0372031D01*
X0277359Y0372741D01*
X0278069Y0373666D01*
X0278515Y0374744D01*
X0278667Y0375900D01*
X0278515Y0377056D01*
X0278069Y0378134D01*
X0277359Y0379059D01*
X0276434Y0379769D01*
X0275356Y0380215D01*
X0274200Y0380367D01*
X0273044Y0380215D01*
X0271966Y0379769D01*
X0271041Y0379059D01*
X0270331Y0378134D01*
X0269885Y0377056D01*
X0269733Y0375900D01*
X0269885Y0374744D01*
X0270331Y0373666D01*
X0271041Y0372741D01*
X0271966Y0372031D01*
X0273044Y0371585D01*
X0273314Y0371549D01*
Y0371045D01*
X0272838Y0370982D01*
X0271569Y0370457D01*
X0270479Y0369620D01*
X0269643Y0368531D01*
X0269450Y0368064D01*
X0268950D01*
X0268757Y0368531D01*
X0267920Y0369620D01*
X0266831Y0370457D01*
X0265684Y0370932D01*
X0265783Y0371432D01*
X0266636D01*
X0267414Y0371586D01*
X0268073Y0372027D01*
X0268513Y0372686D01*
X0268668Y0373464D01*
Y0378336D01*
X0268513Y0379114D01*
X0268073Y0379773D01*
X0267414Y0380213D01*
X0266636Y0380368D01*
D02*
G37*
G36*
X0249476Y0352275D02*
X0248669Y0352115D01*
X0247985Y0351658D01*
X0247529Y0350974D01*
X0247368Y0350168D01*
X0247383Y0350095D01*
X0246932Y0349796D01*
X0246420Y0350138D01*
X0245613Y0350299D01*
X0244807Y0350138D01*
X0244123Y0349681D01*
X0243666Y0348998D01*
X0243506Y0348191D01*
X0243666Y0347385D01*
X0244123Y0346701D01*
X0244807Y0346244D01*
X0245613Y0346084D01*
X0246420Y0346244D01*
X0247104Y0346701D01*
X0247560Y0347385D01*
X0247721Y0348191D01*
X0247706Y0348264D01*
X0248157Y0348563D01*
X0248669Y0348221D01*
X0249476Y0348060D01*
X0250282Y0348221D01*
X0250966Y0348678D01*
X0251423Y0349361D01*
X0251583Y0350168D01*
X0251423Y0350974D01*
X0250966Y0351658D01*
X0250282Y0352115D01*
X0249476Y0352275D01*
D02*
G37*
G36*
X0094212Y0353619D02*
X0093544Y0353531D01*
X0092921Y0353273D01*
X0092387Y0352863D01*
X0091976Y0352328D01*
X0091719Y0351706D01*
X0091631Y0351038D01*
X0091719Y0350370D01*
X0091976Y0349747D01*
X0092387Y0349213D01*
X0092921Y0348802D01*
X0093544Y0348545D01*
X0094212Y0348457D01*
X0094880Y0348545D01*
X0095502Y0348802D01*
X0096037Y0349213D01*
X0096447Y0349747D01*
X0096705Y0350370D01*
X0096793Y0351038D01*
X0096705Y0351706D01*
X0096447Y0352328D01*
X0096037Y0352863D01*
X0095502Y0353273D01*
X0094880Y0353531D01*
X0094212Y0353619D01*
D02*
G37*
G36*
X0172609Y0350023D02*
X0171803Y0349863D01*
X0171119Y0349406D01*
X0170662Y0348722D01*
X0170609Y0348453D01*
X0170534Y0348422D01*
X0169728Y0348582D01*
X0168921Y0348422D01*
X0168237Y0347965D01*
X0167781Y0347281D01*
X0167660Y0346676D01*
X0167358Y0346736D01*
X0166551Y0346575D01*
X0165867Y0346118D01*
X0165410Y0345435D01*
X0165314Y0344948D01*
X0165125Y0344476D01*
X0164319Y0344316D01*
X0163635Y0343859D01*
X0163178Y0343175D01*
X0163018Y0342369D01*
X0163178Y0341562D01*
X0163635Y0340878D01*
X0164319Y0340422D01*
X0165125Y0340261D01*
X0165932Y0340422D01*
X0166615Y0340878D01*
X0167072Y0341562D01*
X0167169Y0342049D01*
X0167358Y0342521D01*
X0168164Y0342681D01*
X0168848Y0343138D01*
X0169305Y0343822D01*
X0169425Y0344428D01*
X0169728Y0344367D01*
X0170534Y0344528D01*
X0171218Y0344985D01*
X0171675Y0345668D01*
X0171728Y0345938D01*
X0171803Y0345969D01*
X0172609Y0345808D01*
X0173416Y0345969D01*
X0174100Y0346426D01*
X0174556Y0347109D01*
X0174717Y0347916D01*
X0174556Y0348722D01*
X0174100Y0349406D01*
X0173416Y0349863D01*
X0172609Y0350023D01*
D02*
G37*
G36*
X0154732Y0356362D02*
X0153925Y0356201D01*
X0153241Y0355745D01*
X0152785Y0355061D01*
X0152624Y0354254D01*
X0152785Y0353448D01*
X0153226Y0352787D01*
X0152859Y0352238D01*
X0152699Y0351431D01*
X0152859Y0350625D01*
X0153316Y0349941D01*
X0154000Y0349484D01*
X0154806Y0349324D01*
X0155243Y0349411D01*
X0155249Y0349381D01*
X0155706Y0348697D01*
X0156390Y0348240D01*
X0157196Y0348080D01*
X0158002Y0348240D01*
X0158686Y0348697D01*
X0159143Y0349381D01*
X0159303Y0350187D01*
X0159143Y0350994D01*
X0158686Y0351678D01*
X0158002Y0352134D01*
X0157196Y0352295D01*
X0156759Y0352208D01*
X0156753Y0352238D01*
X0156312Y0352899D01*
X0156678Y0353448D01*
X0156839Y0354254D01*
X0156678Y0355061D01*
X0156222Y0355745D01*
X0155538Y0356201D01*
X0154732Y0356362D01*
D02*
G37*
G36*
X0221275Y0354586D02*
X0220468Y0354426D01*
X0219785Y0353969D01*
X0219328Y0353285D01*
X0219179Y0352536D01*
X0218445Y0352390D01*
X0217761Y0351934D01*
X0217304Y0351250D01*
X0217144Y0350443D01*
X0217304Y0349637D01*
X0217761Y0348953D01*
X0218445Y0348496D01*
X0219251Y0348336D01*
X0220058Y0348496D01*
X0220741Y0348953D01*
X0220898Y0349187D01*
X0221499D01*
X0221729Y0348843D01*
X0222413Y0348386D01*
X0223220Y0348226D01*
X0224026Y0348386D01*
X0224710Y0348843D01*
X0225260Y0348766D01*
X0225471Y0348449D01*
X0226155Y0347992D01*
X0226961Y0347832D01*
X0227768Y0347992D01*
X0228452Y0348449D01*
X0228908Y0349132D01*
X0229069Y0349939D01*
X0228908Y0350746D01*
X0228452Y0351429D01*
X0227768Y0351886D01*
X0227096Y0352020D01*
X0227138Y0352231D01*
X0226978Y0353037D01*
X0226521Y0353721D01*
X0225837Y0354178D01*
X0225031Y0354338D01*
X0224224Y0354178D01*
X0223540Y0353721D01*
X0223536Y0353714D01*
X0222935D01*
X0222765Y0353969D01*
X0222081Y0354426D01*
X0221275Y0354586D01*
D02*
G37*
G36*
X0235338Y0348126D02*
X0234531Y0347965D01*
X0233848Y0347508D01*
X0233422Y0346871D01*
X0232779Y0347000D01*
X0231972Y0346839D01*
X0231289Y0346382D01*
X0230832Y0345699D01*
X0230671Y0344892D01*
X0230832Y0344086D01*
X0231289Y0343402D01*
X0231972Y0342945D01*
X0232779Y0342785D01*
X0233585Y0342945D01*
X0234269Y0343402D01*
X0234694Y0344039D01*
X0235338Y0343911D01*
X0236144Y0344071D01*
X0236828Y0344528D01*
X0237285Y0345212D01*
X0237445Y0346018D01*
X0237285Y0346825D01*
X0236828Y0347508D01*
X0236144Y0347965D01*
X0235338Y0348126D01*
D02*
G37*
G36*
X0274200Y0350367D02*
X0273044Y0350215D01*
X0271966Y0349769D01*
X0271041Y0349059D01*
X0270331Y0348134D01*
X0269885Y0347056D01*
X0269733Y0345900D01*
X0269885Y0344744D01*
X0270331Y0343666D01*
X0271041Y0342741D01*
X0271966Y0342031D01*
X0273044Y0341585D01*
X0274200Y0341433D01*
X0275356Y0341585D01*
X0276434Y0342031D01*
X0277359Y0342741D01*
X0278069Y0343666D01*
X0278515Y0344744D01*
X0278667Y0345900D01*
X0278515Y0347056D01*
X0278069Y0348134D01*
X0277359Y0349059D01*
X0276434Y0349769D01*
X0275356Y0350215D01*
X0274200Y0350367D01*
D02*
G37*
G36*
X0264200D02*
X0263044Y0350215D01*
X0261966Y0349769D01*
X0261041Y0349059D01*
X0260331Y0348134D01*
X0259885Y0347056D01*
X0259733Y0345900D01*
X0259885Y0344744D01*
X0260331Y0343666D01*
X0261041Y0342741D01*
X0261966Y0342031D01*
X0263044Y0341585D01*
X0264200Y0341433D01*
X0265356Y0341585D01*
X0266434Y0342031D01*
X0267359Y0342741D01*
X0268069Y0343666D01*
X0268515Y0344744D01*
X0268667Y0345900D01*
X0268515Y0347056D01*
X0268069Y0348134D01*
X0267359Y0349059D01*
X0266434Y0349769D01*
X0265356Y0350215D01*
X0264200Y0350367D01*
D02*
G37*
G36*
X0239318Y0344653D02*
X0238512Y0344493D01*
X0237828Y0344036D01*
X0237371Y0343352D01*
X0237211Y0342546D01*
X0237371Y0341739D01*
X0237828Y0341055D01*
X0238512Y0340599D01*
X0239318Y0340438D01*
X0240125Y0340599D01*
X0240808Y0341055D01*
X0241265Y0341739D01*
X0241425Y0342546D01*
X0241265Y0343352D01*
X0240808Y0344036D01*
X0240125Y0344493D01*
X0239318Y0344653D01*
D02*
G37*
G36*
X0212787Y0342669D02*
X0211980Y0342508D01*
X0211297Y0342052D01*
X0210840Y0341368D01*
X0210679Y0340561D01*
X0210840Y0339755D01*
X0211297Y0339071D01*
X0211980Y0338614D01*
X0212787Y0338454D01*
X0213593Y0338614D01*
X0214277Y0339071D01*
X0214734Y0339755D01*
X0214894Y0340561D01*
X0214734Y0341368D01*
X0214277Y0342052D01*
X0213593Y0342508D01*
X0212787Y0342669D01*
D02*
G37*
G36*
X0217204Y0340021D02*
X0216359Y0339853D01*
X0215643Y0339374D01*
X0215164Y0338658D01*
X0214996Y0337813D01*
X0215164Y0336968D01*
X0215643Y0336252D01*
X0216359Y0335774D01*
X0217204Y0335606D01*
X0218049Y0335774D01*
X0218765Y0336252D01*
X0219244Y0336968D01*
X0219412Y0337813D01*
X0219244Y0338658D01*
X0218765Y0339374D01*
X0218049Y0339853D01*
X0217204Y0340021D01*
D02*
G37*
G36*
X0192260Y0338293D02*
X0191415Y0338125D01*
X0190699Y0337646D01*
X0190220Y0336930D01*
X0190052Y0336085D01*
X0190220Y0335240D01*
X0190699Y0334524D01*
X0191415Y0334045D01*
X0192260Y0333877D01*
X0193105Y0334045D01*
X0193821Y0334524D01*
X0194299Y0335240D01*
X0194467Y0336085D01*
X0194299Y0336930D01*
X0193821Y0337646D01*
X0193105Y0338125D01*
X0192260Y0338293D01*
D02*
G37*
G36*
X0241692Y0337909D02*
X0240886Y0337749D01*
X0240202Y0337292D01*
X0239745Y0336608D01*
X0239585Y0335802D01*
X0239745Y0334995D01*
X0240202Y0334311D01*
X0240886Y0333855D01*
X0241692Y0333694D01*
X0242499Y0333855D01*
X0243182Y0334311D01*
X0243639Y0334995D01*
X0243799Y0335802D01*
X0243639Y0336608D01*
X0243182Y0337292D01*
X0242499Y0337749D01*
X0241692Y0337909D01*
D02*
G37*
G36*
X0274200Y0340367D02*
X0273044Y0340215D01*
X0271966Y0339769D01*
X0271041Y0339059D01*
X0270331Y0338134D01*
X0269885Y0337056D01*
X0269733Y0335900D01*
X0269885Y0334744D01*
X0270331Y0333666D01*
X0271041Y0332741D01*
X0271966Y0332031D01*
X0273044Y0331585D01*
X0274200Y0331433D01*
X0275356Y0331585D01*
X0276434Y0332031D01*
X0277359Y0332741D01*
X0278069Y0333666D01*
X0278515Y0334744D01*
X0278667Y0335900D01*
X0278515Y0337056D01*
X0278069Y0338134D01*
X0277359Y0339059D01*
X0276434Y0339769D01*
X0275356Y0340215D01*
X0274200Y0340367D01*
D02*
G37*
G36*
X0264200D02*
X0263044Y0340215D01*
X0261966Y0339769D01*
X0261041Y0339059D01*
X0260331Y0338134D01*
X0259885Y0337056D01*
X0259733Y0335900D01*
X0259885Y0334744D01*
X0260331Y0333666D01*
X0261041Y0332741D01*
X0261966Y0332031D01*
X0263044Y0331585D01*
X0264200Y0331433D01*
X0265356Y0331585D01*
X0266434Y0332031D01*
X0267359Y0332741D01*
X0268069Y0333666D01*
X0268515Y0334744D01*
X0268667Y0335900D01*
X0268515Y0337056D01*
X0268069Y0338134D01*
X0267359Y0339059D01*
X0266434Y0339769D01*
X0265356Y0340215D01*
X0264200Y0340367D01*
D02*
G37*
G36*
X0097346Y0340455D02*
X0091054D01*
X0090515Y0340347D01*
X0090058Y0340042D01*
X0089753Y0339585D01*
X0089645Y0339046D01*
Y0332754D01*
X0089753Y0332215D01*
X0090058Y0331758D01*
X0090515Y0331453D01*
X0091054Y0331345D01*
X0097346D01*
X0097885Y0331453D01*
X0098342Y0331758D01*
X0098647Y0332215D01*
X0098755Y0332754D01*
Y0339046D01*
X0098647Y0339585D01*
X0098342Y0340042D01*
X0097885Y0340347D01*
X0097346Y0340455D01*
D02*
G37*
G36*
X0104200Y0340467D02*
X0103018Y0340311D01*
X0101917Y0339855D01*
X0100971Y0339129D01*
X0100245Y0338183D01*
X0099789Y0337082D01*
X0099633Y0335900D01*
X0099789Y0334718D01*
X0100245Y0333617D01*
X0100971Y0332671D01*
X0101917Y0331945D01*
X0103018Y0331489D01*
X0104200Y0331333D01*
X0105382Y0331489D01*
X0106483Y0331945D01*
X0107429Y0332671D01*
X0108155Y0333617D01*
X0108611Y0334718D01*
X0108767Y0335900D01*
X0108611Y0337082D01*
X0108155Y0338183D01*
X0107429Y0339129D01*
X0106483Y0339855D01*
X0105382Y0340311D01*
X0104200Y0340467D01*
D02*
G37*
G36*
X0216094Y0331389D02*
X0215287Y0331229D01*
X0214603Y0330772D01*
X0214147Y0330088D01*
X0213986Y0329282D01*
X0214147Y0328475D01*
X0214603Y0327792D01*
X0215287Y0327335D01*
X0216094Y0327174D01*
X0216900Y0327335D01*
X0217584Y0327792D01*
X0218041Y0328475D01*
X0218201Y0329282D01*
X0218041Y0330088D01*
X0217584Y0330772D01*
X0216900Y0331229D01*
X0216094Y0331389D01*
D02*
G37*
G36*
X0201216Y0331318D02*
X0200409Y0331158D01*
X0199726Y0330701D01*
X0199269Y0330017D01*
X0199108Y0329211D01*
X0199269Y0328405D01*
X0199726Y0327721D01*
X0200409Y0327264D01*
X0201216Y0327104D01*
X0202022Y0327264D01*
X0202706Y0327721D01*
X0203163Y0328405D01*
X0203323Y0329211D01*
X0203163Y0330017D01*
X0202706Y0330701D01*
X0202022Y0331158D01*
X0201216Y0331318D01*
D02*
G37*
G36*
X0275168Y0330338D02*
Y0326963D01*
X0278544D01*
X0278522Y0327130D01*
X0278072Y0328217D01*
X0277356Y0329150D01*
X0276422Y0329866D01*
X0275335Y0330316D01*
X0275168Y0330338D01*
D02*
G37*
G36*
X0273168D02*
X0273002Y0330316D01*
X0271915Y0329866D01*
X0270982Y0329150D01*
X0270265Y0328217D01*
X0269815Y0327130D01*
X0269793Y0326963D01*
X0273168D01*
Y0330338D01*
D02*
G37*
G36*
X0278544Y0324963D02*
X0275168D01*
Y0321588D01*
X0275335Y0321609D01*
X0276422Y0322060D01*
X0277356Y0322776D01*
X0278072Y0323710D01*
X0278522Y0324797D01*
X0278544Y0324963D01*
D02*
G37*
G36*
X0273168D02*
X0269793D01*
X0269815Y0324797D01*
X0270265Y0323710D01*
X0270982Y0322776D01*
X0271915Y0322060D01*
X0273002Y0321609D01*
X0273168Y0321588D01*
Y0324963D01*
D02*
G37*
G36*
X0104200Y0330467D02*
X0103018Y0330311D01*
X0101917Y0329855D01*
X0100971Y0329129D01*
X0100245Y0328183D01*
X0099789Y0327082D01*
X0099633Y0325900D01*
X0099789Y0324718D01*
X0100245Y0323617D01*
X0100971Y0322671D01*
X0101917Y0321945D01*
X0103018Y0321489D01*
X0104200Y0321333D01*
X0105382Y0321489D01*
X0106483Y0321945D01*
X0107429Y0322671D01*
X0108155Y0323617D01*
X0108611Y0324718D01*
X0108767Y0325900D01*
X0108611Y0327082D01*
X0108155Y0328183D01*
X0107429Y0329129D01*
X0106483Y0329855D01*
X0105382Y0330311D01*
X0104200Y0330467D01*
D02*
G37*
G36*
X0094200D02*
X0093018Y0330311D01*
X0091917Y0329855D01*
X0090971Y0329129D01*
X0090245Y0328183D01*
X0089789Y0327082D01*
X0089633Y0325900D01*
X0089789Y0324718D01*
X0090245Y0323617D01*
X0090971Y0322671D01*
X0091917Y0321945D01*
X0093018Y0321489D01*
X0094200Y0321333D01*
X0095382Y0321489D01*
X0096483Y0321945D01*
X0097429Y0322671D01*
X0098155Y0323617D01*
X0098611Y0324718D01*
X0098767Y0325900D01*
X0098611Y0327082D01*
X0098155Y0328183D01*
X0097429Y0329129D01*
X0096483Y0329855D01*
X0095382Y0330311D01*
X0094200Y0330467D01*
D02*
G37*
G36*
X0169109Y0320793D02*
X0168265Y0320625D01*
X0167548Y0320146D01*
X0167070Y0319430D01*
X0166902Y0318585D01*
X0167070Y0317740D01*
X0167548Y0317024D01*
X0168265Y0316545D01*
X0169109Y0316377D01*
X0169954Y0316545D01*
X0170671Y0317024D01*
X0171149Y0317740D01*
X0171317Y0318585D01*
X0171149Y0319430D01*
X0170671Y0320146D01*
X0169954Y0320625D01*
X0169109Y0320793D01*
D02*
G37*
G36*
X0183501Y0320618D02*
X0182656Y0320450D01*
X0181940Y0319971D01*
X0181462Y0319255D01*
X0181293Y0318410D01*
X0181462Y0317565D01*
X0181940Y0316849D01*
X0182656Y0316370D01*
X0183501Y0316202D01*
X0184346Y0316370D01*
X0185062Y0316849D01*
X0185541Y0317565D01*
X0185709Y0318410D01*
X0185541Y0319255D01*
X0185062Y0319971D01*
X0184346Y0320450D01*
X0183501Y0320618D01*
D02*
G37*
G36*
X0275200Y0310831D02*
Y0306900D01*
X0279131D01*
X0279090Y0307210D01*
X0278585Y0308432D01*
X0277780Y0309480D01*
X0276731Y0310285D01*
X0275510Y0310790D01*
X0275200Y0310831D01*
D02*
G37*
G36*
X0273200D02*
X0272890Y0310790D01*
X0271669Y0310285D01*
X0270620Y0309480D01*
X0269815Y0308432D01*
X0269309Y0307210D01*
X0269269Y0306900D01*
X0273200D01*
Y0310831D01*
D02*
G37*
G36*
X0173484Y0310677D02*
X0172677Y0310516D01*
X0171993Y0310059D01*
X0171537Y0309376D01*
X0171376Y0308569D01*
X0171537Y0307763D01*
X0171993Y0307079D01*
X0172677Y0306622D01*
X0173484Y0306462D01*
X0174290Y0306622D01*
X0174974Y0307079D01*
X0175430Y0307763D01*
X0175591Y0308569D01*
X0175430Y0309376D01*
X0174974Y0310059D01*
X0174290Y0310516D01*
X0173484Y0310677D01*
D02*
G37*
G36*
X0203267Y0310622D02*
X0202461Y0310461D01*
X0201777Y0310004D01*
X0201320Y0309321D01*
X0201160Y0308514D01*
X0201320Y0307708D01*
X0201777Y0307024D01*
X0202461Y0306567D01*
X0203267Y0306407D01*
X0204073Y0306567D01*
X0204757Y0307024D01*
X0205214Y0307708D01*
X0205374Y0308514D01*
X0205214Y0309321D01*
X0204757Y0310004D01*
X0204073Y0310461D01*
X0203267Y0310622D01*
D02*
G37*
G36*
X0264200Y0310169D02*
X0263095Y0310023D01*
X0262066Y0309597D01*
X0261181Y0308918D01*
X0260503Y0308034D01*
X0260077Y0307005D01*
X0259931Y0305900D01*
X0260077Y0304795D01*
X0260503Y0303766D01*
X0261181Y0302882D01*
X0262066Y0302203D01*
X0263095Y0301777D01*
X0264200Y0301631D01*
X0265305Y0301777D01*
X0266334Y0302203D01*
X0267218Y0302882D01*
X0267897Y0303766D01*
X0268323Y0304795D01*
X0268469Y0305900D01*
X0268323Y0307005D01*
X0267897Y0308034D01*
X0267218Y0308918D01*
X0266334Y0309597D01*
X0265305Y0310023D01*
X0264200Y0310169D01*
D02*
G37*
G36*
X0104200D02*
X0103095Y0310023D01*
X0102066Y0309597D01*
X0101181Y0308918D01*
X0100503Y0308034D01*
X0100077Y0307005D01*
X0099931Y0305900D01*
X0100077Y0304795D01*
X0100503Y0303766D01*
X0101181Y0302882D01*
X0102066Y0302203D01*
X0103095Y0301777D01*
X0104200Y0301631D01*
X0105305Y0301777D01*
X0106334Y0302203D01*
X0107219Y0302882D01*
X0107897Y0303766D01*
X0108323Y0304795D01*
X0108469Y0305900D01*
X0108323Y0307005D01*
X0107897Y0308034D01*
X0107219Y0308918D01*
X0106334Y0309597D01*
X0105305Y0310023D01*
X0104200Y0310169D01*
D02*
G37*
G36*
X0094200D02*
X0093095Y0310023D01*
X0092066Y0309597D01*
X0091181Y0308918D01*
X0090503Y0308034D01*
X0090077Y0307005D01*
X0089931Y0305900D01*
X0090077Y0304795D01*
X0090503Y0303766D01*
X0091181Y0302882D01*
X0092066Y0302203D01*
X0093095Y0301777D01*
X0094200Y0301631D01*
X0095305Y0301777D01*
X0096334Y0302203D01*
X0097219Y0302882D01*
X0097897Y0303766D01*
X0098323Y0304795D01*
X0098469Y0305900D01*
X0098323Y0307005D01*
X0097897Y0308034D01*
X0097219Y0308918D01*
X0096334Y0309597D01*
X0095305Y0310023D01*
X0094200Y0310169D01*
D02*
G37*
G36*
X0279131Y0304900D02*
X0275200D01*
Y0300969D01*
X0275510Y0301009D01*
X0276731Y0301515D01*
X0277780Y0302320D01*
X0278585Y0303368D01*
X0279090Y0304590D01*
X0279131Y0304900D01*
D02*
G37*
G36*
X0273200D02*
X0269269D01*
X0269309Y0304590D01*
X0269815Y0303368D01*
X0270620Y0302320D01*
X0271669Y0301515D01*
X0272890Y0301009D01*
X0273200Y0300969D01*
Y0304900D01*
D02*
G37*
G36*
X0105200Y0300831D02*
Y0296900D01*
X0109131D01*
X0109090Y0297210D01*
X0108585Y0298431D01*
X0107780Y0299480D01*
X0106731Y0300285D01*
X0105510Y0300791D01*
X0105200Y0300831D01*
D02*
G37*
G36*
X0103200D02*
X0102890Y0300791D01*
X0101669Y0300285D01*
X0100620Y0299480D01*
X0099815Y0298431D01*
X0099309Y0297210D01*
X0099269Y0296900D01*
X0103200D01*
Y0300831D01*
D02*
G37*
G36*
X0133684Y0302960D02*
X0132878Y0302800D01*
X0132194Y0302343D01*
X0131737Y0301659D01*
X0131577Y0300853D01*
X0131737Y0300046D01*
X0132194Y0299363D01*
X0132878Y0298906D01*
X0133604Y0298761D01*
X0133788Y0298495D01*
X0133880Y0298274D01*
X0133666Y0297955D01*
X0133506Y0297148D01*
X0133666Y0296342D01*
X0134123Y0295658D01*
X0134807Y0295201D01*
X0135613Y0295041D01*
X0136420Y0295201D01*
X0137103Y0295658D01*
X0137560Y0296342D01*
X0137721Y0297148D01*
X0137560Y0297955D01*
X0137103Y0298638D01*
X0136420Y0299095D01*
X0135694Y0299239D01*
X0135509Y0299506D01*
X0135417Y0299726D01*
X0135631Y0300046D01*
X0135792Y0300853D01*
X0135631Y0301659D01*
X0135174Y0302343D01*
X0134491Y0302800D01*
X0133684Y0302960D01*
D02*
G37*
G36*
X0150003Y0302862D02*
X0149197Y0302701D01*
X0148513Y0302244D01*
X0148056Y0301561D01*
X0147896Y0300754D01*
X0148056Y0299948D01*
X0148513Y0299264D01*
X0148701Y0299139D01*
Y0298639D01*
X0148517Y0298516D01*
X0148060Y0297832D01*
X0147900Y0297026D01*
X0148060Y0296219D01*
X0148517Y0295536D01*
X0149201Y0295079D01*
X0150007Y0294919D01*
X0150814Y0295079D01*
X0151497Y0295536D01*
X0151954Y0296219D01*
X0152114Y0297026D01*
X0151954Y0297832D01*
X0151497Y0298516D01*
X0151310Y0298641D01*
Y0299142D01*
X0151493Y0299264D01*
X0151950Y0299948D01*
X0152111Y0300754D01*
X0151950Y0301561D01*
X0151493Y0302244D01*
X0150810Y0302701D01*
X0150003Y0302862D01*
D02*
G37*
G36*
X0274200Y0300169D02*
X0273095Y0300023D01*
X0272066Y0299597D01*
X0271182Y0298919D01*
X0270503Y0298034D01*
X0270077Y0297005D01*
X0269931Y0295900D01*
X0270077Y0294795D01*
X0270503Y0293766D01*
X0271182Y0292881D01*
X0272066Y0292203D01*
X0273095Y0291777D01*
X0274200Y0291631D01*
X0275305Y0291777D01*
X0276334Y0292203D01*
X0277219Y0292881D01*
X0277897Y0293766D01*
X0278323Y0294795D01*
X0278469Y0295900D01*
X0278323Y0297005D01*
X0277897Y0298034D01*
X0277219Y0298919D01*
X0276334Y0299597D01*
X0275305Y0300023D01*
X0274200Y0300169D01*
D02*
G37*
G36*
X0264200D02*
X0263095Y0300023D01*
X0262066Y0299597D01*
X0261181Y0298919D01*
X0260503Y0298034D01*
X0260077Y0297005D01*
X0259931Y0295900D01*
X0260077Y0294795D01*
X0260503Y0293766D01*
X0261181Y0292881D01*
X0262066Y0292203D01*
X0263095Y0291777D01*
X0264200Y0291631D01*
X0265305Y0291777D01*
X0266334Y0292203D01*
X0267218Y0292881D01*
X0267897Y0293766D01*
X0268323Y0294795D01*
X0268469Y0295900D01*
X0268323Y0297005D01*
X0267897Y0298034D01*
X0267218Y0298919D01*
X0266334Y0299597D01*
X0265305Y0300023D01*
X0264200Y0300169D01*
D02*
G37*
G36*
X0094200D02*
X0093095Y0300023D01*
X0092066Y0299597D01*
X0091181Y0298919D01*
X0090503Y0298034D01*
X0090077Y0297005D01*
X0089931Y0295900D01*
X0090077Y0294795D01*
X0090503Y0293766D01*
X0091181Y0292881D01*
X0092066Y0292203D01*
X0093095Y0291777D01*
X0094200Y0291631D01*
X0095305Y0291777D01*
X0096334Y0292203D01*
X0097219Y0292881D01*
X0097897Y0293766D01*
X0098323Y0294795D01*
X0098469Y0295900D01*
X0098323Y0297005D01*
X0097897Y0298034D01*
X0097219Y0298919D01*
X0096334Y0299597D01*
X0095305Y0300023D01*
X0094200Y0300169D01*
D02*
G37*
G36*
X0109131Y0294900D02*
X0105200D01*
Y0290969D01*
X0105510Y0291009D01*
X0106731Y0291515D01*
X0107780Y0292320D01*
X0108585Y0293369D01*
X0109090Y0294590D01*
X0109131Y0294900D01*
D02*
G37*
G36*
X0103200D02*
X0099269D01*
X0099309Y0294590D01*
X0099815Y0293369D01*
X0100620Y0292320D01*
X0101669Y0291515D01*
X0102890Y0291009D01*
X0103200Y0290969D01*
Y0294900D01*
D02*
G37*
G36*
X0274200Y0290169D02*
X0273095Y0290023D01*
X0272066Y0289597D01*
X0271182Y0288918D01*
X0270503Y0288034D01*
X0270077Y0287005D01*
X0269931Y0285900D01*
X0270077Y0284795D01*
X0270503Y0283766D01*
X0271182Y0282881D01*
X0272066Y0282203D01*
X0273095Y0281777D01*
X0274200Y0281631D01*
X0275305Y0281777D01*
X0276334Y0282203D01*
X0277219Y0282881D01*
X0277897Y0283766D01*
X0278323Y0284795D01*
X0278469Y0285900D01*
X0278323Y0287005D01*
X0277897Y0288034D01*
X0277219Y0288918D01*
X0276334Y0289597D01*
X0275305Y0290023D01*
X0274200Y0290169D01*
D02*
G37*
G36*
X0264200D02*
X0263095Y0290023D01*
X0262066Y0289597D01*
X0261181Y0288918D01*
X0260503Y0288034D01*
X0260077Y0287005D01*
X0259931Y0285900D01*
X0260077Y0284795D01*
X0260503Y0283766D01*
X0261181Y0282881D01*
X0262066Y0282203D01*
X0263095Y0281777D01*
X0264200Y0281631D01*
X0265305Y0281777D01*
X0266334Y0282203D01*
X0267218Y0282881D01*
X0267897Y0283766D01*
X0268323Y0284795D01*
X0268469Y0285900D01*
X0268323Y0287005D01*
X0267897Y0288034D01*
X0267218Y0288918D01*
X0266334Y0289597D01*
X0265305Y0290023D01*
X0264200Y0290169D01*
D02*
G37*
G36*
X0104200D02*
X0103095Y0290023D01*
X0102066Y0289597D01*
X0101181Y0288918D01*
X0100503Y0288034D01*
X0100077Y0287005D01*
X0099931Y0285900D01*
X0100077Y0284795D01*
X0100503Y0283766D01*
X0101181Y0282881D01*
X0102066Y0282203D01*
X0103095Y0281777D01*
X0104200Y0281631D01*
X0105305Y0281777D01*
X0106334Y0282203D01*
X0107219Y0282881D01*
X0107897Y0283766D01*
X0108323Y0284795D01*
X0108469Y0285900D01*
X0108323Y0287005D01*
X0107897Y0288034D01*
X0107219Y0288918D01*
X0106334Y0289597D01*
X0105305Y0290023D01*
X0104200Y0290169D01*
D02*
G37*
G36*
X0094200D02*
X0093095Y0290023D01*
X0092066Y0289597D01*
X0091181Y0288918D01*
X0090503Y0288034D01*
X0090077Y0287005D01*
X0089931Y0285900D01*
X0090077Y0284795D01*
X0090503Y0283766D01*
X0091181Y0282881D01*
X0092066Y0282203D01*
X0093095Y0281777D01*
X0094200Y0281631D01*
X0095305Y0281777D01*
X0096334Y0282203D01*
X0097219Y0282881D01*
X0097897Y0283766D01*
X0098323Y0284795D01*
X0098469Y0285900D01*
X0098323Y0287005D01*
X0097897Y0288034D01*
X0097219Y0288918D01*
X0096334Y0289597D01*
X0095305Y0290023D01*
X0094200Y0290169D01*
D02*
G37*
G36*
X0149704Y0284838D02*
X0148898Y0284678D01*
X0148214Y0284221D01*
X0147757Y0283537D01*
X0147597Y0282731D01*
X0147757Y0281924D01*
X0148214Y0281241D01*
X0148898Y0280784D01*
X0149704Y0280623D01*
X0150510Y0280784D01*
X0151194Y0281241D01*
X0151651Y0281924D01*
X0151811Y0282731D01*
X0151651Y0283537D01*
X0151194Y0284221D01*
X0150510Y0284678D01*
X0149704Y0284838D01*
D02*
G37*
G36*
X0140157Y0284822D02*
X0139350Y0284662D01*
X0138666Y0284205D01*
X0138210Y0283521D01*
X0138049Y0282715D01*
X0138210Y0281908D01*
X0138666Y0281225D01*
X0139350Y0280768D01*
X0140157Y0280608D01*
X0140963Y0280768D01*
X0141647Y0281225D01*
X0142104Y0281908D01*
X0142264Y0282715D01*
X0142104Y0283521D01*
X0141647Y0284205D01*
X0140963Y0284662D01*
X0140157Y0284822D01*
D02*
G37*
G36*
X0138846Y0279204D02*
X0138039Y0279044D01*
X0137355Y0278587D01*
X0136899Y0277903D01*
X0136738Y0277097D01*
X0136899Y0276290D01*
X0137355Y0275607D01*
X0138039Y0275150D01*
X0138846Y0274989D01*
X0139652Y0275150D01*
X0140336Y0275607D01*
X0140793Y0276290D01*
X0140953Y0277097D01*
X0140793Y0277903D01*
X0140336Y0278587D01*
X0139652Y0279044D01*
X0138846Y0279204D01*
D02*
G37*
G36*
X0148091Y0279200D02*
X0147284Y0279039D01*
X0146600Y0278583D01*
X0146144Y0277899D01*
X0145983Y0277092D01*
X0146144Y0276286D01*
X0146600Y0275602D01*
X0147284Y0275145D01*
X0148091Y0274985D01*
X0148897Y0275145D01*
X0149581Y0275602D01*
X0150038Y0276286D01*
X0150198Y0277092D01*
X0150038Y0277899D01*
X0149581Y0278583D01*
X0148897Y0279039D01*
X0148091Y0279200D01*
D02*
G37*
G36*
X0274200Y0280169D02*
X0273095Y0280023D01*
X0272066Y0279597D01*
X0271182Y0278919D01*
X0270503Y0278034D01*
X0270077Y0277005D01*
X0269931Y0275900D01*
X0270077Y0274795D01*
X0270503Y0273766D01*
X0271182Y0272882D01*
X0272066Y0272203D01*
X0273095Y0271777D01*
X0274200Y0271631D01*
X0275305Y0271777D01*
X0276334Y0272203D01*
X0277219Y0272882D01*
X0277897Y0273766D01*
X0278323Y0274795D01*
X0278469Y0275900D01*
X0278323Y0277005D01*
X0277897Y0278034D01*
X0277219Y0278919D01*
X0276334Y0279597D01*
X0275305Y0280023D01*
X0274200Y0280169D01*
D02*
G37*
G36*
X0264200D02*
X0263095Y0280023D01*
X0262066Y0279597D01*
X0261181Y0278919D01*
X0260503Y0278034D01*
X0260077Y0277005D01*
X0259931Y0275900D01*
X0260077Y0274795D01*
X0260503Y0273766D01*
X0261181Y0272882D01*
X0262066Y0272203D01*
X0263095Y0271777D01*
X0264200Y0271631D01*
X0265305Y0271777D01*
X0266334Y0272203D01*
X0267218Y0272882D01*
X0267897Y0273766D01*
X0268323Y0274795D01*
X0268469Y0275900D01*
X0268323Y0277005D01*
X0267897Y0278034D01*
X0267218Y0278919D01*
X0266334Y0279597D01*
X0265305Y0280023D01*
X0264200Y0280169D01*
D02*
G37*
G36*
X0104200D02*
X0103095Y0280023D01*
X0102066Y0279597D01*
X0101181Y0278919D01*
X0100503Y0278034D01*
X0100077Y0277005D01*
X0099931Y0275900D01*
X0100077Y0274795D01*
X0100503Y0273766D01*
X0101181Y0272882D01*
X0102066Y0272203D01*
X0103095Y0271777D01*
X0104200Y0271631D01*
X0105305Y0271777D01*
X0106334Y0272203D01*
X0107219Y0272882D01*
X0107897Y0273766D01*
X0108323Y0274795D01*
X0108469Y0275900D01*
X0108323Y0277005D01*
X0107897Y0278034D01*
X0107219Y0278919D01*
X0106334Y0279597D01*
X0105305Y0280023D01*
X0104200Y0280169D01*
D02*
G37*
G36*
X0094200D02*
X0093095Y0280023D01*
X0092066Y0279597D01*
X0091181Y0278919D01*
X0090503Y0278034D01*
X0090077Y0277005D01*
X0089931Y0275900D01*
X0090077Y0274795D01*
X0090503Y0273766D01*
X0091181Y0272882D01*
X0092066Y0272203D01*
X0093095Y0271777D01*
X0094200Y0271631D01*
X0095305Y0271777D01*
X0096334Y0272203D01*
X0097219Y0272882D01*
X0097897Y0273766D01*
X0098323Y0274795D01*
X0098469Y0275900D01*
X0098323Y0277005D01*
X0097897Y0278034D01*
X0097219Y0278919D01*
X0096334Y0279597D01*
X0095305Y0280023D01*
X0094200Y0280169D01*
D02*
G37*
G36*
X0251342Y0271350D02*
X0250535Y0271189D01*
X0249852Y0270733D01*
X0249395Y0270049D01*
X0249234Y0269243D01*
X0249395Y0268436D01*
X0249852Y0267752D01*
X0250535Y0267296D01*
X0251342Y0267135D01*
X0252148Y0267296D01*
X0252832Y0267752D01*
X0253289Y0268436D01*
X0253449Y0269243D01*
X0253289Y0270049D01*
X0252832Y0270733D01*
X0252148Y0271189D01*
X0251342Y0271350D01*
D02*
G37*
G36*
X0198279Y0273464D02*
X0197472Y0273304D01*
X0196789Y0272847D01*
X0196332Y0272163D01*
X0196241Y0271706D01*
X0195983Y0271248D01*
X0195177Y0271087D01*
X0194493Y0270630D01*
X0194036Y0269947D01*
X0193876Y0269140D01*
X0194036Y0268334D01*
X0194493Y0267650D01*
X0195177Y0267193D01*
X0195984Y0267033D01*
X0196790Y0267193D01*
X0197474Y0267650D01*
X0197930Y0268334D01*
X0198021Y0268791D01*
X0198279Y0269249D01*
X0199085Y0269410D01*
X0199769Y0269866D01*
X0200226Y0270550D01*
X0200386Y0271357D01*
X0200226Y0272163D01*
X0199769Y0272847D01*
X0199085Y0273304D01*
X0198279Y0273464D01*
D02*
G37*
G36*
X0274200Y0270169D02*
X0273095Y0270023D01*
X0272066Y0269597D01*
X0271182Y0268918D01*
X0270503Y0268034D01*
X0270077Y0267005D01*
X0269931Y0265900D01*
X0270077Y0264795D01*
X0270503Y0263766D01*
X0271182Y0262881D01*
X0272066Y0262203D01*
X0273095Y0261777D01*
X0274200Y0261631D01*
X0275305Y0261777D01*
X0276334Y0262203D01*
X0277219Y0262881D01*
X0277897Y0263766D01*
X0278323Y0264795D01*
X0278469Y0265900D01*
X0278323Y0267005D01*
X0277897Y0268034D01*
X0277219Y0268918D01*
X0276334Y0269597D01*
X0275305Y0270023D01*
X0274200Y0270169D01*
D02*
G37*
G36*
X0264200D02*
X0263095Y0270023D01*
X0262066Y0269597D01*
X0261181Y0268918D01*
X0260503Y0268034D01*
X0260077Y0267005D01*
X0259931Y0265900D01*
X0260077Y0264795D01*
X0260503Y0263766D01*
X0261181Y0262881D01*
X0262066Y0262203D01*
X0263095Y0261777D01*
X0264200Y0261631D01*
X0265305Y0261777D01*
X0266334Y0262203D01*
X0267218Y0262881D01*
X0267897Y0263766D01*
X0268323Y0264795D01*
X0268469Y0265900D01*
X0268323Y0267005D01*
X0267897Y0268034D01*
X0267218Y0268918D01*
X0266334Y0269597D01*
X0265305Y0270023D01*
X0264200Y0270169D01*
D02*
G37*
G36*
X0104200D02*
X0103095Y0270023D01*
X0102066Y0269597D01*
X0101181Y0268918D01*
X0100503Y0268034D01*
X0100077Y0267005D01*
X0099931Y0265900D01*
X0100077Y0264795D01*
X0100503Y0263766D01*
X0101181Y0262881D01*
X0102066Y0262203D01*
X0103095Y0261777D01*
X0104200Y0261631D01*
X0105305Y0261777D01*
X0106334Y0262203D01*
X0107219Y0262881D01*
X0107897Y0263766D01*
X0108323Y0264795D01*
X0108469Y0265900D01*
X0108323Y0267005D01*
X0107897Y0268034D01*
X0107219Y0268918D01*
X0106334Y0269597D01*
X0105305Y0270023D01*
X0104200Y0270169D01*
D02*
G37*
G36*
X0094200D02*
X0093095Y0270023D01*
X0092066Y0269597D01*
X0091181Y0268918D01*
X0090503Y0268034D01*
X0090077Y0267005D01*
X0089931Y0265900D01*
X0090077Y0264795D01*
X0090503Y0263766D01*
X0091181Y0262881D01*
X0092066Y0262203D01*
X0093095Y0261777D01*
X0094200Y0261631D01*
X0095305Y0261777D01*
X0096334Y0262203D01*
X0097219Y0262881D01*
X0097897Y0263766D01*
X0098323Y0264795D01*
X0098469Y0265900D01*
X0098323Y0267005D01*
X0097897Y0268034D01*
X0097219Y0268918D01*
X0096334Y0269597D01*
X0095305Y0270023D01*
X0094200Y0270169D01*
D02*
G37*
G36*
X0235255Y0263377D02*
X0234449Y0263217D01*
X0233765Y0262760D01*
X0233308Y0262076D01*
X0233148Y0261270D01*
X0233308Y0260464D01*
X0233765Y0259780D01*
X0234449Y0259323D01*
X0235255Y0259163D01*
X0236062Y0259323D01*
X0236745Y0259780D01*
X0237202Y0260464D01*
X0237363Y0261270D01*
X0237202Y0262076D01*
X0236745Y0262760D01*
X0236062Y0263217D01*
X0235255Y0263377D01*
D02*
G37*
G36*
X0282830Y0263318D02*
X0282024Y0263158D01*
X0281340Y0262701D01*
X0280883Y0262017D01*
X0280722Y0261211D01*
X0280883Y0260405D01*
X0281340Y0259721D01*
X0282024Y0259264D01*
X0282830Y0259104D01*
X0283636Y0259264D01*
X0284320Y0259721D01*
X0284777Y0260405D01*
X0284937Y0261211D01*
X0284777Y0262017D01*
X0284320Y0262701D01*
X0283636Y0263158D01*
X0282830Y0263318D01*
D02*
G37*
G36*
X0235105Y0258263D02*
X0234299Y0258103D01*
X0233615Y0257646D01*
X0233158Y0256962D01*
X0232998Y0256156D01*
X0233158Y0255349D01*
X0233615Y0254666D01*
X0234299Y0254209D01*
X0235105Y0254048D01*
X0235912Y0254209D01*
X0236596Y0254666D01*
X0237052Y0255349D01*
X0237213Y0256156D01*
X0237052Y0256962D01*
X0236596Y0257646D01*
X0235912Y0258103D01*
X0235105Y0258263D01*
D02*
G37*
G36*
X0242145Y0258232D02*
X0241338Y0258071D01*
X0240655Y0257615D01*
X0240198Y0256931D01*
X0240037Y0256124D01*
X0240198Y0255318D01*
X0240655Y0254634D01*
X0241338Y0254177D01*
X0242145Y0254017D01*
X0242951Y0254177D01*
X0243635Y0254634D01*
X0244092Y0255318D01*
X0244252Y0256124D01*
X0244092Y0256931D01*
X0243635Y0257615D01*
X0242951Y0258071D01*
X0242145Y0258232D01*
D02*
G37*
G36*
X0208507Y0256366D02*
X0207701Y0256205D01*
X0207017Y0255748D01*
X0206560Y0255065D01*
X0206400Y0254258D01*
X0206560Y0253452D01*
X0207017Y0252768D01*
X0207701Y0252311D01*
X0208507Y0252151D01*
X0209314Y0252311D01*
X0209997Y0252768D01*
X0210454Y0253452D01*
X0210614Y0254258D01*
X0210454Y0255065D01*
X0209997Y0255748D01*
X0209314Y0256205D01*
X0208507Y0256366D01*
D02*
G37*
G36*
X0274200Y0260169D02*
X0273095Y0260023D01*
X0272066Y0259597D01*
X0271182Y0258918D01*
X0270503Y0258034D01*
X0270077Y0257005D01*
X0269931Y0255900D01*
X0270077Y0254795D01*
X0270503Y0253766D01*
X0271182Y0252882D01*
X0272066Y0252203D01*
X0273095Y0251777D01*
X0274200Y0251631D01*
X0275305Y0251777D01*
X0276334Y0252203D01*
X0277219Y0252882D01*
X0277897Y0253766D01*
X0278323Y0254795D01*
X0278469Y0255900D01*
X0278323Y0257005D01*
X0277897Y0258034D01*
X0277219Y0258918D01*
X0276334Y0259597D01*
X0275305Y0260023D01*
X0274200Y0260169D01*
D02*
G37*
G36*
X0264200D02*
X0263095Y0260023D01*
X0262066Y0259597D01*
X0261181Y0258918D01*
X0260503Y0258034D01*
X0260077Y0257005D01*
X0259931Y0255900D01*
X0260077Y0254795D01*
X0260503Y0253766D01*
X0261181Y0252882D01*
X0262066Y0252203D01*
X0263095Y0251777D01*
X0264200Y0251631D01*
X0265305Y0251777D01*
X0266334Y0252203D01*
X0267218Y0252882D01*
X0267897Y0253766D01*
X0268323Y0254795D01*
X0268469Y0255900D01*
X0268323Y0257005D01*
X0267897Y0258034D01*
X0267218Y0258918D01*
X0266334Y0259597D01*
X0265305Y0260023D01*
X0264200Y0260169D01*
D02*
G37*
G36*
X0104200D02*
X0103095Y0260023D01*
X0102066Y0259597D01*
X0101181Y0258918D01*
X0100503Y0258034D01*
X0100077Y0257005D01*
X0099931Y0255900D01*
X0100077Y0254795D01*
X0100503Y0253766D01*
X0101181Y0252882D01*
X0102066Y0252203D01*
X0103095Y0251777D01*
X0104200Y0251631D01*
X0105305Y0251777D01*
X0106334Y0252203D01*
X0107219Y0252882D01*
X0107897Y0253766D01*
X0108323Y0254795D01*
X0108469Y0255900D01*
X0108323Y0257005D01*
X0107897Y0258034D01*
X0107219Y0258918D01*
X0106334Y0259597D01*
X0105305Y0260023D01*
X0104200Y0260169D01*
D02*
G37*
G36*
X0094200D02*
X0093095Y0260023D01*
X0092066Y0259597D01*
X0091181Y0258918D01*
X0090503Y0258034D01*
X0090077Y0257005D01*
X0089931Y0255900D01*
X0090077Y0254795D01*
X0090503Y0253766D01*
X0091181Y0252882D01*
X0092066Y0252203D01*
X0093095Y0251777D01*
X0094200Y0251631D01*
X0095305Y0251777D01*
X0096334Y0252203D01*
X0097219Y0252882D01*
X0097897Y0253766D01*
X0098323Y0254795D01*
X0098469Y0255900D01*
X0098323Y0257005D01*
X0097897Y0258034D01*
X0097219Y0258918D01*
X0096334Y0259597D01*
X0095305Y0260023D01*
X0094200Y0260169D01*
D02*
G37*
G36*
X0241554Y0253283D02*
X0240748Y0253123D01*
X0240064Y0252666D01*
X0239607Y0251982D01*
X0239447Y0251176D01*
X0239607Y0250369D01*
X0240064Y0249685D01*
X0240748Y0249229D01*
X0241554Y0249068D01*
X0242361Y0249229D01*
X0243044Y0249685D01*
X0243501Y0250369D01*
X0243662Y0251176D01*
X0243501Y0251982D01*
X0243044Y0252666D01*
X0242361Y0253123D01*
X0241554Y0253283D01*
D02*
G37*
G36*
X0219141D02*
X0218335Y0253123D01*
X0217651Y0252666D01*
X0217194Y0251982D01*
X0217034Y0251176D01*
X0217194Y0250369D01*
X0217651Y0249685D01*
X0218335Y0249229D01*
X0219141Y0249068D01*
X0219947Y0249229D01*
X0220631Y0249685D01*
X0221088Y0250369D01*
X0221248Y0251176D01*
X0221088Y0251982D01*
X0220631Y0252666D01*
X0219947Y0253123D01*
X0219141Y0253283D01*
D02*
G37*
G36*
X0201480Y0250441D02*
X0200673Y0250280D01*
X0199989Y0249823D01*
X0199532Y0249139D01*
X0199372Y0248333D01*
X0199532Y0247527D01*
X0199989Y0246843D01*
X0200673Y0246386D01*
X0201480Y0246226D01*
X0202286Y0246386D01*
X0202970Y0246843D01*
X0203427Y0247527D01*
X0203587Y0248333D01*
X0203427Y0249139D01*
X0202970Y0249823D01*
X0202286Y0250280D01*
X0201480Y0250441D01*
D02*
G37*
G36*
X0167548Y0252298D02*
X0166587Y0252172D01*
X0165692Y0251801D01*
X0164923Y0251211D01*
X0164333Y0250442D01*
X0163962Y0249546D01*
X0163835Y0248585D01*
X0163962Y0247624D01*
X0164333Y0246729D01*
X0164923Y0245960D01*
X0165692Y0245370D01*
X0166587Y0244999D01*
X0167548Y0244872D01*
X0168509Y0244999D01*
X0169405Y0245370D01*
X0170174Y0245960D01*
X0170764Y0246729D01*
X0171135Y0247624D01*
X0171261Y0248585D01*
X0171135Y0249546D01*
X0170764Y0250442D01*
X0170174Y0251211D01*
X0169405Y0251801D01*
X0168509Y0252172D01*
X0167548Y0252298D01*
D02*
G37*
G36*
X0274200Y0250169D02*
X0273095Y0250023D01*
X0272066Y0249597D01*
X0271182Y0248919D01*
X0270503Y0248034D01*
X0270077Y0247005D01*
X0269931Y0245900D01*
X0270077Y0244795D01*
X0270503Y0243766D01*
X0271182Y0242881D01*
X0272066Y0242203D01*
X0273095Y0241777D01*
X0274200Y0241631D01*
X0275305Y0241777D01*
X0276334Y0242203D01*
X0277219Y0242881D01*
X0277897Y0243766D01*
X0278323Y0244795D01*
X0278469Y0245900D01*
X0278323Y0247005D01*
X0277897Y0248034D01*
X0277219Y0248919D01*
X0276334Y0249597D01*
X0275305Y0250023D01*
X0274200Y0250169D01*
D02*
G37*
G36*
X0264200D02*
X0263095Y0250023D01*
X0262066Y0249597D01*
X0261181Y0248919D01*
X0260503Y0248034D01*
X0260077Y0247005D01*
X0259931Y0245900D01*
X0260077Y0244795D01*
X0260503Y0243766D01*
X0261181Y0242881D01*
X0262066Y0242203D01*
X0263095Y0241777D01*
X0264200Y0241631D01*
X0265305Y0241777D01*
X0266334Y0242203D01*
X0267218Y0242881D01*
X0267897Y0243766D01*
X0268323Y0244795D01*
X0268469Y0245900D01*
X0268323Y0247005D01*
X0267897Y0248034D01*
X0267218Y0248919D01*
X0266334Y0249597D01*
X0265305Y0250023D01*
X0264200Y0250169D01*
D02*
G37*
G36*
X0104200D02*
X0103095Y0250023D01*
X0102066Y0249597D01*
X0101181Y0248919D01*
X0100503Y0248034D01*
X0100077Y0247005D01*
X0099931Y0245900D01*
X0100077Y0244795D01*
X0100503Y0243766D01*
X0101181Y0242881D01*
X0102066Y0242203D01*
X0103095Y0241777D01*
X0104200Y0241631D01*
X0105305Y0241777D01*
X0106334Y0242203D01*
X0107219Y0242881D01*
X0107897Y0243766D01*
X0108323Y0244795D01*
X0108469Y0245900D01*
X0108323Y0247005D01*
X0107897Y0248034D01*
X0107219Y0248919D01*
X0106334Y0249597D01*
X0105305Y0250023D01*
X0104200Y0250169D01*
D02*
G37*
G36*
X0094200D02*
X0093095Y0250023D01*
X0092066Y0249597D01*
X0091181Y0248919D01*
X0090503Y0248034D01*
X0090077Y0247005D01*
X0089931Y0245900D01*
X0090077Y0244795D01*
X0090503Y0243766D01*
X0091181Y0242881D01*
X0092066Y0242203D01*
X0093095Y0241777D01*
X0094200Y0241631D01*
X0095305Y0241777D01*
X0096334Y0242203D01*
X0097219Y0242881D01*
X0097897Y0243766D01*
X0098323Y0244795D01*
X0098469Y0245900D01*
X0098323Y0247005D01*
X0097897Y0248034D01*
X0097219Y0248919D01*
X0096334Y0249597D01*
X0095305Y0250023D01*
X0094200Y0250169D01*
D02*
G37*
G36*
X0185153Y0245712D02*
X0184346Y0245552D01*
X0183663Y0245095D01*
X0183206Y0244411D01*
X0183045Y0243605D01*
X0183206Y0242798D01*
X0183663Y0242115D01*
X0184346Y0241658D01*
X0185153Y0241497D01*
X0185959Y0241658D01*
X0186643Y0242115D01*
X0187100Y0242798D01*
X0187260Y0243605D01*
X0187100Y0244411D01*
X0186643Y0245095D01*
X0185959Y0245552D01*
X0185153Y0245712D01*
D02*
G37*
G36*
X0174672Y0245637D02*
X0173866Y0245477D01*
X0173182Y0245020D01*
X0172725Y0244336D01*
X0172565Y0243530D01*
X0172725Y0242723D01*
X0173182Y0242040D01*
X0173866Y0241583D01*
X0174672Y0241423D01*
X0175479Y0241583D01*
X0176163Y0242040D01*
X0176619Y0242723D01*
X0176780Y0243530D01*
X0176619Y0244336D01*
X0176163Y0245020D01*
X0175479Y0245477D01*
X0174672Y0245637D01*
D02*
G37*
G36*
X0201523Y0244480D02*
X0200716Y0244319D01*
X0200033Y0243863D01*
X0199576Y0243179D01*
X0199415Y0242372D01*
X0199576Y0241566D01*
X0200033Y0240882D01*
X0200716Y0240425D01*
X0201523Y0240265D01*
X0202329Y0240425D01*
X0203013Y0240882D01*
X0203470Y0241566D01*
X0203630Y0242372D01*
X0203470Y0243179D01*
X0203013Y0243863D01*
X0202329Y0244319D01*
X0201523Y0244480D01*
D02*
G37*
G36*
X0226192Y0243795D02*
X0225386Y0243634D01*
X0224702Y0243178D01*
X0224245Y0242494D01*
X0224085Y0241687D01*
X0224245Y0240881D01*
X0224702Y0240197D01*
X0225386Y0239740D01*
X0226192Y0239580D01*
X0226999Y0239740D01*
X0227682Y0240197D01*
X0228139Y0240881D01*
X0228299Y0241687D01*
X0228139Y0242494D01*
X0227682Y0243178D01*
X0226999Y0243634D01*
X0226192Y0243795D01*
D02*
G37*
G36*
X0283125Y0243370D02*
X0282319Y0243209D01*
X0281635Y0242752D01*
X0281178Y0242069D01*
X0281018Y0241262D01*
X0281178Y0240456D01*
X0281635Y0239772D01*
X0282319Y0239315D01*
X0283125Y0239155D01*
X0283932Y0239315D01*
X0284615Y0239772D01*
X0285072Y0240456D01*
X0285233Y0241262D01*
X0285072Y0242069D01*
X0284615Y0242752D01*
X0283932Y0243209D01*
X0283125Y0243370D01*
D02*
G37*
G36*
X0244676Y0240507D02*
X0243870Y0240347D01*
X0243186Y0239890D01*
X0242729Y0239207D01*
X0242569Y0238400D01*
X0242729Y0237594D01*
X0243186Y0236910D01*
X0243870Y0236453D01*
X0244676Y0236293D01*
X0245483Y0236453D01*
X0246166Y0236910D01*
X0246623Y0237594D01*
X0246784Y0238400D01*
X0246623Y0239207D01*
X0246166Y0239890D01*
X0245483Y0240347D01*
X0244676Y0240507D01*
D02*
G37*
G36*
X0156432D02*
X0155626Y0240347D01*
X0154942Y0239890D01*
X0154485Y0239207D01*
X0154325Y0238400D01*
X0154485Y0237594D01*
X0154942Y0236910D01*
X0155626Y0236453D01*
X0156432Y0236293D01*
X0157239Y0236453D01*
X0157922Y0236910D01*
X0158379Y0237594D01*
X0158540Y0238400D01*
X0158379Y0239207D01*
X0157922Y0239890D01*
X0157239Y0240347D01*
X0156432Y0240507D01*
D02*
G37*
G36*
X0274200Y0240169D02*
X0273095Y0240023D01*
X0272066Y0239597D01*
X0271182Y0238918D01*
X0270503Y0238034D01*
X0270077Y0237005D01*
X0269931Y0235900D01*
X0270077Y0234795D01*
X0270503Y0233766D01*
X0271182Y0232881D01*
X0272066Y0232203D01*
X0273095Y0231777D01*
X0274200Y0231631D01*
X0275305Y0231777D01*
X0276334Y0232203D01*
X0277219Y0232881D01*
X0277897Y0233766D01*
X0278323Y0234795D01*
X0278469Y0235900D01*
X0278323Y0237005D01*
X0277897Y0238034D01*
X0277219Y0238918D01*
X0276334Y0239597D01*
X0275305Y0240023D01*
X0274200Y0240169D01*
D02*
G37*
G36*
X0264200D02*
X0263095Y0240023D01*
X0262066Y0239597D01*
X0261181Y0238918D01*
X0260503Y0238034D01*
X0260077Y0237005D01*
X0259931Y0235900D01*
X0260077Y0234795D01*
X0260503Y0233766D01*
X0261181Y0232881D01*
X0262066Y0232203D01*
X0263095Y0231777D01*
X0264200Y0231631D01*
X0265305Y0231777D01*
X0266334Y0232203D01*
X0267218Y0232881D01*
X0267897Y0233766D01*
X0268323Y0234795D01*
X0268469Y0235900D01*
X0268323Y0237005D01*
X0267897Y0238034D01*
X0267218Y0238918D01*
X0266334Y0239597D01*
X0265305Y0240023D01*
X0264200Y0240169D01*
D02*
G37*
G36*
X0104200D02*
X0103095Y0240023D01*
X0102066Y0239597D01*
X0101181Y0238918D01*
X0100503Y0238034D01*
X0100077Y0237005D01*
X0099931Y0235900D01*
X0100077Y0234795D01*
X0100503Y0233766D01*
X0101181Y0232881D01*
X0102066Y0232203D01*
X0103095Y0231777D01*
X0104200Y0231631D01*
X0105305Y0231777D01*
X0106334Y0232203D01*
X0107219Y0232881D01*
X0107897Y0233766D01*
X0108323Y0234795D01*
X0108469Y0235900D01*
X0108323Y0237005D01*
X0107897Y0238034D01*
X0107219Y0238918D01*
X0106334Y0239597D01*
X0105305Y0240023D01*
X0104200Y0240169D01*
D02*
G37*
G36*
X0094200D02*
X0093095Y0240023D01*
X0092066Y0239597D01*
X0091181Y0238918D01*
X0090503Y0238034D01*
X0090077Y0237005D01*
X0089931Y0235900D01*
X0090077Y0234795D01*
X0090503Y0233766D01*
X0091181Y0232881D01*
X0092066Y0232203D01*
X0093095Y0231777D01*
X0094200Y0231631D01*
X0095305Y0231777D01*
X0096334Y0232203D01*
X0097219Y0232881D01*
X0097897Y0233766D01*
X0098323Y0234795D01*
X0098469Y0235900D01*
X0098323Y0237005D01*
X0097897Y0238034D01*
X0097219Y0238918D01*
X0096334Y0239597D01*
X0095305Y0240023D01*
X0094200Y0240169D01*
D02*
G37*
G36*
X0202043Y0229661D02*
X0201236Y0229501D01*
X0200552Y0229044D01*
X0200096Y0228360D01*
X0199935Y0227554D01*
X0200096Y0226747D01*
X0200552Y0226063D01*
X0201236Y0225606D01*
X0202043Y0225446D01*
X0202849Y0225606D01*
X0203533Y0226063D01*
X0203990Y0226747D01*
X0204150Y0227554D01*
X0203990Y0228360D01*
X0203533Y0229044D01*
X0202849Y0229501D01*
X0202043Y0229661D01*
D02*
G37*
G36*
X0274200Y0230169D02*
X0273095Y0230023D01*
X0272066Y0229597D01*
X0271182Y0228919D01*
X0270503Y0228034D01*
X0270077Y0227005D01*
X0269931Y0225900D01*
X0270077Y0224795D01*
X0270503Y0223766D01*
X0271182Y0222882D01*
X0272066Y0222203D01*
X0273095Y0221777D01*
X0274200Y0221631D01*
X0275305Y0221777D01*
X0276334Y0222203D01*
X0277219Y0222882D01*
X0277897Y0223766D01*
X0278323Y0224795D01*
X0278469Y0225900D01*
X0278323Y0227005D01*
X0277897Y0228034D01*
X0277219Y0228919D01*
X0276334Y0229597D01*
X0275305Y0230023D01*
X0274200Y0230169D01*
D02*
G37*
G36*
X0264200D02*
X0263095Y0230023D01*
X0262066Y0229597D01*
X0261181Y0228919D01*
X0260503Y0228034D01*
X0260077Y0227005D01*
X0259931Y0225900D01*
X0260077Y0224795D01*
X0260503Y0223766D01*
X0261181Y0222882D01*
X0262066Y0222203D01*
X0263095Y0221777D01*
X0264200Y0221631D01*
X0265305Y0221777D01*
X0266334Y0222203D01*
X0267218Y0222882D01*
X0267897Y0223766D01*
X0268323Y0224795D01*
X0268469Y0225900D01*
X0268323Y0227005D01*
X0267897Y0228034D01*
X0267218Y0228919D01*
X0266334Y0229597D01*
X0265305Y0230023D01*
X0264200Y0230169D01*
D02*
G37*
G36*
X0104200D02*
X0103095Y0230023D01*
X0102066Y0229597D01*
X0101181Y0228919D01*
X0100503Y0228034D01*
X0100077Y0227005D01*
X0099931Y0225900D01*
X0100077Y0224795D01*
X0100503Y0223766D01*
X0101181Y0222882D01*
X0102066Y0222203D01*
X0103095Y0221777D01*
X0104200Y0221631D01*
X0105305Y0221777D01*
X0106334Y0222203D01*
X0107219Y0222882D01*
X0107897Y0223766D01*
X0108323Y0224795D01*
X0108469Y0225900D01*
X0108323Y0227005D01*
X0107897Y0228034D01*
X0107219Y0228919D01*
X0106334Y0229597D01*
X0105305Y0230023D01*
X0104200Y0230169D01*
D02*
G37*
G36*
X0094200D02*
X0093095Y0230023D01*
X0092066Y0229597D01*
X0091181Y0228919D01*
X0090503Y0228034D01*
X0090077Y0227005D01*
X0089931Y0225900D01*
X0090077Y0224795D01*
X0090503Y0223766D01*
X0091181Y0222882D01*
X0092066Y0222203D01*
X0093095Y0221777D01*
X0094200Y0221631D01*
X0095305Y0221777D01*
X0096334Y0222203D01*
X0097219Y0222882D01*
X0097897Y0223766D01*
X0098323Y0224795D01*
X0098469Y0225900D01*
X0098323Y0227005D01*
X0097897Y0228034D01*
X0097219Y0228919D01*
X0096334Y0229597D01*
X0095305Y0230023D01*
X0094200Y0230169D01*
D02*
G37*
G36*
X0200125Y0224657D02*
X0199319Y0224497D01*
X0198635Y0224040D01*
X0198178Y0223356D01*
X0198018Y0222550D01*
X0198178Y0221743D01*
X0198635Y0221059D01*
X0199319Y0220603D01*
X0200125Y0220442D01*
X0200932Y0220603D01*
X0201615Y0221059D01*
X0202072Y0221743D01*
X0202233Y0222550D01*
X0202072Y0223356D01*
X0201615Y0224040D01*
X0200932Y0224497D01*
X0200125Y0224657D01*
D02*
G37*
G36*
X0212594Y0220200D02*
X0211787Y0220040D01*
X0211104Y0219583D01*
X0210647Y0218899D01*
X0210486Y0218093D01*
X0210647Y0217286D01*
X0211104Y0216603D01*
X0211787Y0216146D01*
X0212594Y0215985D01*
X0213400Y0216146D01*
X0214084Y0216603D01*
X0214541Y0217286D01*
X0214701Y0218093D01*
X0214541Y0218899D01*
X0214084Y0219583D01*
X0213400Y0220040D01*
X0212594Y0220200D01*
D02*
G37*
G36*
X0274200Y0220169D02*
X0273095Y0220023D01*
X0272066Y0219597D01*
X0271182Y0218918D01*
X0270503Y0218034D01*
X0270077Y0217005D01*
X0269931Y0215900D01*
X0270077Y0214795D01*
X0270503Y0213766D01*
X0271182Y0212881D01*
X0272066Y0212203D01*
X0273095Y0211777D01*
X0274200Y0211631D01*
X0275305Y0211777D01*
X0276334Y0212203D01*
X0277219Y0212881D01*
X0277897Y0213766D01*
X0278323Y0214795D01*
X0278469Y0215900D01*
X0278323Y0217005D01*
X0277897Y0218034D01*
X0277219Y0218918D01*
X0276334Y0219597D01*
X0275305Y0220023D01*
X0274200Y0220169D01*
D02*
G37*
G36*
X0264200D02*
X0263095Y0220023D01*
X0262066Y0219597D01*
X0261181Y0218918D01*
X0260503Y0218034D01*
X0260077Y0217005D01*
X0259931Y0215900D01*
X0260077Y0214795D01*
X0260503Y0213766D01*
X0261181Y0212881D01*
X0262066Y0212203D01*
X0263095Y0211777D01*
X0264200Y0211631D01*
X0265305Y0211777D01*
X0266334Y0212203D01*
X0267218Y0212881D01*
X0267897Y0213766D01*
X0268323Y0214795D01*
X0268469Y0215900D01*
X0268323Y0217005D01*
X0267897Y0218034D01*
X0267218Y0218918D01*
X0266334Y0219597D01*
X0265305Y0220023D01*
X0264200Y0220169D01*
D02*
G37*
G36*
X0104200D02*
X0103095Y0220023D01*
X0102066Y0219597D01*
X0101181Y0218918D01*
X0100503Y0218034D01*
X0100077Y0217005D01*
X0099931Y0215900D01*
X0100077Y0214795D01*
X0100503Y0213766D01*
X0101181Y0212881D01*
X0102066Y0212203D01*
X0103095Y0211777D01*
X0104200Y0211631D01*
X0105305Y0211777D01*
X0106334Y0212203D01*
X0107219Y0212881D01*
X0107897Y0213766D01*
X0108323Y0214795D01*
X0108469Y0215900D01*
X0108323Y0217005D01*
X0107897Y0218034D01*
X0107219Y0218918D01*
X0106334Y0219597D01*
X0105305Y0220023D01*
X0104200Y0220169D01*
D02*
G37*
G36*
X0094200D02*
X0093095Y0220023D01*
X0092066Y0219597D01*
X0091181Y0218918D01*
X0090503Y0218034D01*
X0090077Y0217005D01*
X0089931Y0215900D01*
X0090077Y0214795D01*
X0090503Y0213766D01*
X0091181Y0212881D01*
X0092066Y0212203D01*
X0093095Y0211777D01*
X0094200Y0211631D01*
X0095305Y0211777D01*
X0096334Y0212203D01*
X0097219Y0212881D01*
X0097897Y0213766D01*
X0098323Y0214795D01*
X0098469Y0215900D01*
X0098323Y0217005D01*
X0097897Y0218034D01*
X0097219Y0218918D01*
X0096334Y0219597D01*
X0095305Y0220023D01*
X0094200Y0220169D01*
D02*
G37*
G36*
X0241000Y0217613D02*
X0240039Y0217486D01*
X0239144Y0217115D01*
X0238375Y0216525D01*
X0237785Y0215756D01*
X0237414Y0214861D01*
X0237287Y0213900D01*
X0237414Y0212939D01*
X0237785Y0212044D01*
X0238375Y0211275D01*
X0239144Y0210685D01*
X0240039Y0210314D01*
X0241000Y0210187D01*
X0241961Y0210314D01*
X0242856Y0210685D01*
X0243625Y0211275D01*
X0244215Y0212044D01*
X0244586Y0212939D01*
X0244713Y0213900D01*
X0244586Y0214861D01*
X0244215Y0215756D01*
X0243625Y0216525D01*
X0242856Y0217115D01*
X0241961Y0217486D01*
X0241000Y0217613D01*
D02*
G37*
G36*
X0225083Y0217499D02*
X0224122Y0217372D01*
X0223226Y0217001D01*
X0222457Y0216411D01*
X0221867Y0215642D01*
X0221496Y0214747D01*
X0221370Y0213786D01*
X0221496Y0212825D01*
X0221867Y0211929D01*
X0222457Y0211160D01*
X0223226Y0210570D01*
X0224122Y0210199D01*
X0225083Y0210073D01*
X0226044Y0210199D01*
X0226939Y0210570D01*
X0227708Y0211160D01*
X0228298Y0211929D01*
X0228669Y0212825D01*
X0228796Y0213786D01*
X0228669Y0214747D01*
X0228298Y0215642D01*
X0227708Y0216411D01*
X0226939Y0217001D01*
X0226044Y0217372D01*
X0225083Y0217499D01*
D02*
G37*
G36*
X0231188Y0212765D02*
X0230382Y0212605D01*
X0229698Y0212148D01*
X0229241Y0211464D01*
X0229081Y0210658D01*
X0229241Y0209851D01*
X0229698Y0209168D01*
X0230382Y0208711D01*
X0231188Y0208550D01*
X0231995Y0208711D01*
X0232678Y0209168D01*
X0233135Y0209851D01*
X0233296Y0210658D01*
X0233135Y0211464D01*
X0232678Y0212148D01*
X0231995Y0212605D01*
X0231188Y0212765D01*
D02*
G37*
G36*
X0197991Y0205696D02*
X0197185Y0205536D01*
X0196501Y0205079D01*
X0196044Y0204396D01*
X0195884Y0203589D01*
X0196044Y0202783D01*
X0196501Y0202099D01*
X0197185Y0201642D01*
X0197991Y0201482D01*
X0198798Y0201642D01*
X0199481Y0202099D01*
X0199938Y0202783D01*
X0200099Y0203589D01*
X0199938Y0204396D01*
X0199481Y0205079D01*
X0198798Y0205536D01*
X0197991Y0205696D01*
D02*
G37*
G36*
X0275200Y0201030D02*
Y0196900D01*
X0279330D01*
X0279282Y0197262D01*
X0278757Y0198531D01*
X0277921Y0199620D01*
X0276831Y0200457D01*
X0275562Y0200982D01*
X0275200Y0201030D01*
D02*
G37*
G36*
X0095200D02*
Y0196900D01*
X0099330D01*
X0099282Y0197262D01*
X0098757Y0198531D01*
X0097921Y0199620D01*
X0096831Y0200457D01*
X0095562Y0200982D01*
X0095200Y0201030D01*
D02*
G37*
G36*
X0093200D02*
X0092838Y0200982D01*
X0091569Y0200457D01*
X0090479Y0199620D01*
X0089643Y0198531D01*
X0089118Y0197262D01*
X0089070Y0196900D01*
X0093200D01*
Y0201030D01*
D02*
G37*
G36*
X0273200D02*
X0272838Y0200982D01*
X0271569Y0200457D01*
X0270479Y0199620D01*
X0269643Y0198531D01*
X0269118Y0197262D01*
X0269070Y0196900D01*
X0273200D01*
Y0201030D01*
D02*
G37*
G36*
X0099330Y0194900D02*
X0094200D01*
X0089070D01*
X0089118Y0194538D01*
X0089643Y0193269D01*
X0090479Y0192180D01*
X0091569Y0191343D01*
X0092036Y0191150D01*
Y0190650D01*
X0091569Y0190457D01*
X0090479Y0189620D01*
X0089643Y0188531D01*
X0089118Y0187262D01*
X0089070Y0186900D01*
X0094200D01*
X0099330D01*
X0099282Y0187262D01*
X0098757Y0188531D01*
X0097921Y0189620D01*
X0096831Y0190457D01*
X0096364Y0190650D01*
Y0191150D01*
X0096831Y0191343D01*
X0097921Y0192180D01*
X0098757Y0193269D01*
X0099282Y0194538D01*
X0099330Y0194900D01*
D02*
G37*
G36*
X0279330D02*
X0274200D01*
X0269070D01*
X0269118Y0194538D01*
X0269643Y0193269D01*
X0270479Y0192180D01*
X0271569Y0191343D01*
X0272036Y0191150D01*
Y0190650D01*
X0271569Y0190457D01*
X0270479Y0189620D01*
X0269643Y0188531D01*
X0269118Y0187262D01*
X0269070Y0186900D01*
X0274200D01*
X0279330D01*
X0279282Y0187262D01*
X0278757Y0188531D01*
X0277921Y0189620D01*
X0276831Y0190457D01*
X0276364Y0190650D01*
Y0191150D01*
X0276831Y0191343D01*
X0277921Y0192180D01*
X0278757Y0193269D01*
X0279282Y0194538D01*
X0279330Y0194900D01*
D02*
G37*
G36*
X0168901Y0181073D02*
X0167940Y0180947D01*
X0167044Y0180576D01*
X0166275Y0179986D01*
X0165685Y0179217D01*
X0165314Y0178322D01*
X0165188Y0177361D01*
X0165314Y0176400D01*
X0165685Y0175504D01*
X0166275Y0174735D01*
X0167044Y0174145D01*
X0167940Y0173774D01*
X0168901Y0173648D01*
X0169862Y0173774D01*
X0170757Y0174145D01*
X0171526Y0174735D01*
X0172116Y0175504D01*
X0172487Y0176400D01*
X0172614Y0177361D01*
X0172487Y0178322D01*
X0172116Y0179217D01*
X0171526Y0179986D01*
X0170757Y0180576D01*
X0169862Y0180947D01*
X0168901Y0181073D01*
D02*
G37*
G36*
X0219161Y0177834D02*
X0218354Y0177674D01*
X0217670Y0177217D01*
X0217214Y0176533D01*
X0217053Y0175727D01*
X0217214Y0174920D01*
X0217670Y0174237D01*
X0218354Y0173780D01*
X0219161Y0173619D01*
X0219967Y0173780D01*
X0220651Y0174237D01*
X0221108Y0174920D01*
X0221268Y0175727D01*
X0221108Y0176533D01*
X0220651Y0177217D01*
X0219967Y0177674D01*
X0219161Y0177834D01*
D02*
G37*
G36*
X0208487D02*
X0207681Y0177674D01*
X0206997Y0177217D01*
X0206540Y0176533D01*
X0206380Y0175727D01*
X0206540Y0174920D01*
X0206997Y0174237D01*
X0207681Y0173780D01*
X0208487Y0173619D01*
X0209294Y0173780D01*
X0209978Y0174237D01*
X0210434Y0174920D01*
X0210595Y0175727D01*
X0210434Y0176533D01*
X0209978Y0177217D01*
X0209294Y0177674D01*
X0208487Y0177834D01*
D02*
G37*
G36*
X0197511Y0177811D02*
X0196704Y0177650D01*
X0196021Y0177193D01*
X0195564Y0176510D01*
X0195404Y0175703D01*
X0195564Y0174897D01*
X0196021Y0174213D01*
X0196704Y0173756D01*
X0197511Y0173596D01*
X0198318Y0173756D01*
X0199001Y0174213D01*
X0199458Y0174897D01*
X0199618Y0175703D01*
X0199458Y0176510D01*
X0199001Y0177193D01*
X0198318Y0177650D01*
X0197511Y0177811D01*
D02*
G37*
G36*
X0159062Y0176834D02*
X0158256Y0176674D01*
X0157572Y0176217D01*
X0157115Y0175533D01*
X0156955Y0174727D01*
X0157115Y0173920D01*
X0157572Y0173237D01*
X0158256Y0172780D01*
X0159062Y0172619D01*
X0159869Y0172780D01*
X0160552Y0173237D01*
X0161009Y0173920D01*
X0161170Y0174727D01*
X0161009Y0175533D01*
X0160552Y0176217D01*
X0159869Y0176674D01*
X0159062Y0176834D01*
D02*
G37*
G36*
X0148062D02*
X0147256Y0176674D01*
X0146572Y0176217D01*
X0146115Y0175533D01*
X0145955Y0174727D01*
X0146115Y0173920D01*
X0146572Y0173237D01*
X0147256Y0172780D01*
X0148062Y0172619D01*
X0148869Y0172780D01*
X0149552Y0173237D01*
X0150009Y0173920D01*
X0150170Y0174727D01*
X0150009Y0175533D01*
X0149552Y0176217D01*
X0148869Y0176674D01*
X0148062Y0176834D01*
D02*
G37*
G36*
X0136432Y0176515D02*
X0135626Y0176355D01*
X0134942Y0175898D01*
X0134485Y0175214D01*
X0134325Y0174408D01*
X0134485Y0173601D01*
X0134942Y0172918D01*
X0135626Y0172461D01*
X0136432Y0172301D01*
X0137239Y0172461D01*
X0137922Y0172918D01*
X0138379Y0173601D01*
X0138540Y0174408D01*
X0138379Y0175214D01*
X0137922Y0175898D01*
X0137239Y0176355D01*
X0136432Y0176515D01*
D02*
G37*
G36*
X0279330Y0184900D02*
X0274200D01*
X0269070D01*
X0269118Y0184538D01*
X0269643Y0183269D01*
X0270479Y0182179D01*
X0271569Y0181343D01*
X0272838Y0180818D01*
X0272761Y0180329D01*
X0269771D01*
Y0171471D01*
X0278629D01*
Y0180329D01*
X0275639D01*
X0275562Y0180818D01*
X0276831Y0181343D01*
X0277921Y0182179D01*
X0278757Y0183269D01*
X0279282Y0184538D01*
X0279330Y0184900D01*
D02*
G37*
G36*
X0099330D02*
X0094200D01*
X0089070D01*
X0089118Y0184538D01*
X0089643Y0183269D01*
X0090479Y0182179D01*
X0091569Y0181343D01*
X0092838Y0180818D01*
X0092761Y0180329D01*
X0089771D01*
Y0171471D01*
X0098629D01*
Y0180329D01*
X0095639D01*
X0095562Y0180818D01*
X0096831Y0181343D01*
X0097921Y0182179D01*
X0098757Y0183269D01*
X0099282Y0184538D01*
X0099330Y0184900D01*
D02*
G37*
G36*
X0173200Y0168530D02*
X0172838Y0168482D01*
X0171569Y0167957D01*
X0170480Y0167121D01*
X0169643Y0166031D01*
X0169118Y0164762D01*
X0169070Y0164400D01*
X0173200D01*
Y0168530D01*
D02*
G37*
G36*
X0233200D02*
X0232838Y0168482D01*
X0231569Y0167957D01*
X0230480Y0167121D01*
X0229643Y0166031D01*
X0229118Y0164762D01*
X0229070Y0164400D01*
X0233200D01*
Y0168530D01*
D02*
G37*
G36*
X0113200D02*
X0112838Y0168482D01*
X0111569Y0167957D01*
X0110479Y0167121D01*
X0109643Y0166031D01*
X0109118Y0164762D01*
X0109070Y0164400D01*
X0113200D01*
Y0168530D01*
D02*
G37*
G36*
X0258629Y0167829D02*
X0249771D01*
Y0158971D01*
X0258629D01*
Y0167829D01*
D02*
G37*
G36*
X0215824Y0167853D02*
X0212576D01*
X0211844Y0167757D01*
X0211161Y0167474D01*
X0210575Y0167025D01*
X0210126Y0166439D01*
X0209843Y0165756D01*
X0209747Y0165024D01*
Y0161776D01*
X0209843Y0161044D01*
X0210126Y0160361D01*
X0210575Y0159775D01*
X0211161Y0159326D01*
X0211844Y0159043D01*
X0212576Y0158947D01*
X0215824D01*
X0216556Y0159043D01*
X0217239Y0159326D01*
X0217825Y0159775D01*
X0218274Y0160361D01*
X0218557Y0161044D01*
X0218653Y0161776D01*
Y0165024D01*
X0218557Y0165756D01*
X0218274Y0166439D01*
X0217825Y0167025D01*
X0217239Y0167474D01*
X0216556Y0167757D01*
X0215824Y0167853D01*
D02*
G37*
G36*
X0155824D02*
X0152576D01*
X0151844Y0167757D01*
X0151161Y0167474D01*
X0150575Y0167025D01*
X0150126Y0166439D01*
X0149843Y0165756D01*
X0149747Y0165024D01*
Y0161776D01*
X0149843Y0161044D01*
X0150126Y0160361D01*
X0150575Y0159775D01*
X0151161Y0159326D01*
X0151844Y0159043D01*
X0152576Y0158947D01*
X0155824D01*
X0156556Y0159043D01*
X0157239Y0159326D01*
X0157825Y0159775D01*
X0158274Y0160361D01*
X0158557Y0161044D01*
X0158653Y0161776D01*
Y0165024D01*
X0158557Y0165756D01*
X0158274Y0166439D01*
X0157825Y0167025D01*
X0157239Y0167474D01*
X0156556Y0167757D01*
X0155824Y0167853D01*
D02*
G37*
G36*
X0235200Y0168530D02*
Y0163400D01*
Y0158270D01*
X0235562Y0158318D01*
X0236831Y0158843D01*
X0237920Y0159679D01*
X0238757Y0160769D01*
X0239282Y0162038D01*
X0239345Y0162514D01*
X0239849D01*
X0239885Y0162244D01*
X0240331Y0161166D01*
X0241041Y0160241D01*
X0241966Y0159531D01*
X0243044Y0159085D01*
X0244200Y0158933D01*
X0245356Y0159085D01*
X0246434Y0159531D01*
X0247359Y0160241D01*
X0248069Y0161166D01*
X0248515Y0162244D01*
X0248667Y0163400D01*
X0248515Y0164556D01*
X0248069Y0165634D01*
X0247359Y0166559D01*
X0246434Y0167269D01*
X0245356Y0167715D01*
X0244200Y0167867D01*
X0243044Y0167715D01*
X0241966Y0167269D01*
X0241041Y0166559D01*
X0240331Y0165634D01*
X0239885Y0164556D01*
X0239849Y0164286D01*
X0239345D01*
X0239282Y0164762D01*
X0238757Y0166031D01*
X0237920Y0167121D01*
X0236831Y0167957D01*
X0235562Y0168482D01*
X0235200Y0168530D01*
D02*
G37*
G36*
X0204200Y0167867D02*
X0203044Y0167715D01*
X0201966Y0167269D01*
X0201041Y0166559D01*
X0200331Y0165634D01*
X0199885Y0164556D01*
X0199733Y0163400D01*
X0199885Y0162244D01*
X0200331Y0161166D01*
X0201041Y0160241D01*
X0201966Y0159531D01*
X0203044Y0159085D01*
X0204200Y0158933D01*
X0205356Y0159085D01*
X0206434Y0159531D01*
X0207359Y0160241D01*
X0208069Y0161166D01*
X0208515Y0162244D01*
X0208667Y0163400D01*
X0208515Y0164556D01*
X0208069Y0165634D01*
X0207359Y0166559D01*
X0206434Y0167269D01*
X0205356Y0167715D01*
X0204200Y0167867D01*
D02*
G37*
G36*
X0194200D02*
X0193044Y0167715D01*
X0191966Y0167269D01*
X0191041Y0166559D01*
X0190331Y0165634D01*
X0189885Y0164556D01*
X0189733Y0163400D01*
X0189885Y0162244D01*
X0190331Y0161166D01*
X0191041Y0160241D01*
X0191966Y0159531D01*
X0193044Y0159085D01*
X0194200Y0158933D01*
X0195356Y0159085D01*
X0196434Y0159531D01*
X0197359Y0160241D01*
X0198069Y0161166D01*
X0198515Y0162244D01*
X0198667Y0163400D01*
X0198515Y0164556D01*
X0198069Y0165634D01*
X0197359Y0166559D01*
X0196434Y0167269D01*
X0195356Y0167715D01*
X0194200Y0167867D01*
D02*
G37*
G36*
X0175200Y0168530D02*
Y0163400D01*
Y0158270D01*
X0175562Y0158318D01*
X0176831Y0158843D01*
X0177920Y0159679D01*
X0178757Y0160769D01*
X0179282Y0162038D01*
X0179345Y0162514D01*
X0179849D01*
X0179885Y0162244D01*
X0180331Y0161166D01*
X0181041Y0160241D01*
X0181966Y0159531D01*
X0183044Y0159085D01*
X0184200Y0158933D01*
X0185356Y0159085D01*
X0186434Y0159531D01*
X0187359Y0160241D01*
X0188069Y0161166D01*
X0188515Y0162244D01*
X0188667Y0163400D01*
X0188515Y0164556D01*
X0188069Y0165634D01*
X0187359Y0166559D01*
X0186434Y0167269D01*
X0185356Y0167715D01*
X0184200Y0167867D01*
X0183044Y0167715D01*
X0181966Y0167269D01*
X0181041Y0166559D01*
X0180331Y0165634D01*
X0179885Y0164556D01*
X0179849Y0164286D01*
X0179345D01*
X0179282Y0164762D01*
X0178757Y0166031D01*
X0177920Y0167121D01*
X0176831Y0167957D01*
X0175562Y0168482D01*
X0175200Y0168530D01*
D02*
G37*
G36*
X0144200Y0167867D02*
X0143044Y0167715D01*
X0141966Y0167269D01*
X0141041Y0166559D01*
X0140331Y0165634D01*
X0139885Y0164556D01*
X0139733Y0163400D01*
X0139885Y0162244D01*
X0140331Y0161166D01*
X0141041Y0160241D01*
X0141966Y0159531D01*
X0143044Y0159085D01*
X0144200Y0158933D01*
X0145356Y0159085D01*
X0146434Y0159531D01*
X0147359Y0160241D01*
X0148069Y0161166D01*
X0148515Y0162244D01*
X0148667Y0163400D01*
X0148515Y0164556D01*
X0148069Y0165634D01*
X0147359Y0166559D01*
X0146434Y0167269D01*
X0145356Y0167715D01*
X0144200Y0167867D01*
D02*
G37*
G36*
X0134200D02*
X0133044Y0167715D01*
X0131966Y0167269D01*
X0131041Y0166559D01*
X0130331Y0165634D01*
X0129885Y0164556D01*
X0129733Y0163400D01*
X0129885Y0162244D01*
X0130331Y0161166D01*
X0131041Y0160241D01*
X0131966Y0159531D01*
X0133044Y0159085D01*
X0134200Y0158933D01*
X0135356Y0159085D01*
X0136434Y0159531D01*
X0137359Y0160241D01*
X0138069Y0161166D01*
X0138515Y0162244D01*
X0138667Y0163400D01*
X0138515Y0164556D01*
X0138069Y0165634D01*
X0137359Y0166559D01*
X0136434Y0167269D01*
X0135356Y0167715D01*
X0134200Y0167867D01*
D02*
G37*
G36*
X0115200Y0168530D02*
Y0163400D01*
Y0158270D01*
X0115562Y0158318D01*
X0116831Y0158843D01*
X0117920Y0159679D01*
X0118757Y0160769D01*
X0119282Y0162038D01*
X0119345Y0162514D01*
X0119849D01*
X0119885Y0162244D01*
X0120331Y0161166D01*
X0121041Y0160241D01*
X0121966Y0159531D01*
X0123044Y0159085D01*
X0124200Y0158933D01*
X0125356Y0159085D01*
X0126434Y0159531D01*
X0127359Y0160241D01*
X0128069Y0161166D01*
X0128515Y0162244D01*
X0128667Y0163400D01*
X0128515Y0164556D01*
X0128069Y0165634D01*
X0127359Y0166559D01*
X0126434Y0167269D01*
X0125356Y0167715D01*
X0124200Y0167867D01*
X0123044Y0167715D01*
X0121966Y0167269D01*
X0121041Y0166559D01*
X0120331Y0165634D01*
X0119885Y0164556D01*
X0119849Y0164286D01*
X0119345D01*
X0119282Y0164762D01*
X0118757Y0166031D01*
X0117920Y0167121D01*
X0116831Y0167957D01*
X0115562Y0168482D01*
X0115200Y0168530D01*
D02*
G37*
G36*
X0233200Y0162400D02*
X0229070D01*
X0229118Y0162038D01*
X0229643Y0160769D01*
X0230480Y0159679D01*
X0231569Y0158843D01*
X0232838Y0158318D01*
X0233200Y0158270D01*
Y0162400D01*
D02*
G37*
G36*
X0173200D02*
X0169070D01*
X0169118Y0162038D01*
X0169643Y0160769D01*
X0170480Y0159679D01*
X0171569Y0158843D01*
X0172838Y0158318D01*
X0173200Y0158270D01*
Y0162400D01*
D02*
G37*
G36*
X0113200D02*
X0109070D01*
X0109118Y0162038D01*
X0109643Y0160769D01*
X0110479Y0159679D01*
X0111569Y0158843D01*
X0112838Y0158318D01*
X0113200Y0158270D01*
Y0162400D01*
D02*
G37*
%LPD*%
G54D19*
X0137675Y0073096D02*
X0136675Y0074096D01*
X0134676D01*
X0133676Y0073096D01*
Y0069097D01*
X0134676Y0068098D01*
X0136675D01*
X0137675Y0069097D01*
Y0071096D01*
X0135675D01*
X0139674Y0068098D02*
Y0074096D01*
X0143673Y0068098D01*
Y0074096D01*
X0145672D02*
Y0068098D01*
X0148671D01*
X0149671Y0069097D01*
Y0073096D01*
X0148671Y0074096D01*
X0145672D01*
G54D140*
X0121283Y0665975D02*
X0123627Y0668319D01*
X0109078Y0665975D02*
X0121283D01*
X0107106Y0667947D02*
X0109078Y0665975D01*
X0111377Y0676758D02*
X0114216D01*
X0107106Y0672487D02*
X0111377Y0676758D01*
X0107106Y0667947D02*
Y0672487D01*
G54D141*
X0113354Y0673703D02*
X0124039D01*
X0110109Y0669498D02*
Y0670459D01*
X0127267Y0668868D02*
Y0670475D01*
X0124039Y0673703D02*
X0127267Y0670475D01*
X0110109Y0670459D02*
X0113354Y0673703D01*
G54D149*
X0104200Y0545900D02*
D03*
X0274200Y0555900D02*
D03*
X0104200Y0295900D02*
D03*
X0274200Y0305900D02*
D03*
G54D150*
X0264200Y0365900D02*
D03*
X0274200D02*
D03*
X0174200Y0163400D02*
D03*
X0114200D02*
D03*
X0234200D02*
D03*
X0094200Y0385900D02*
D03*
X0274200Y0435900D02*
D03*
Y0445900D02*
D03*
X0094200Y0435900D02*
D03*
Y0445900D02*
D03*
X0274200Y0185900D02*
D03*
Y0195900D02*
D03*
X0094200Y0185900D02*
D03*
Y0195900D02*
D03*
G54D159*
X0274168Y0325963D02*
D03*
G54D160*
X0101503Y0678676D02*
D03*
X0132960D02*
D03*
G54D161*
X0100224Y0676314D02*
D03*
X0134239D02*
D03*
G54D162*
X0094200Y0697180D02*
D03*
X0140263D02*
D03*
G54D163*
X0090700Y0597337D02*
D03*
Y0593006D02*
D03*
X0188531Y0362302D02*
D03*
X0138200Y0471565D02*
D03*
X0137865Y0464616D02*
D03*
X0145968Y0386105D02*
D03*
X0142444Y0380455D02*
D03*
X0185027Y0365601D02*
D03*
X0184739Y0361589D02*
D03*
X0138200Y0479898D02*
D03*
Y0488400D02*
D03*
Y0497539D02*
D03*
Y0506400D02*
D03*
Y0513900D02*
D03*
Y0521900D02*
D03*
X0138200Y0538900D02*
D03*
X0138068Y0530400D02*
D03*
G54D164*
X0258704Y0583337D02*
D03*
X0274375Y0567679D02*
D03*
X0257224Y0574542D02*
D03*
X0176023Y0595475D02*
D03*
X0185968Y0566983D02*
D03*
X0149822Y0568975D02*
D03*
X0204464Y0565333D02*
D03*
X0185987Y0597924D02*
D03*
X0162574Y0600857D02*
D03*
X0164696Y0603065D02*
D03*
X0210704Y0587375D02*
D03*
X0213794Y0574805D02*
D03*
X0218818Y0433940D02*
D03*
X0170224Y0660424D02*
D03*
X0170145Y0630329D02*
D03*
X0130188Y0626691D02*
D03*
X0178917Y0630345D02*
D03*
X0230964Y0673088D02*
D03*
X0127289Y0413513D02*
D03*
X0240200Y0676939D02*
D03*
X0229133Y0675719D02*
D03*
X0177751Y0684011D02*
D03*
X0280930Y0342802D02*
D03*
X0236097Y0386135D02*
D03*
X0098767Y0231235D02*
D03*
X0115684Y0468542D02*
D03*
X0186061Y0524935D02*
D03*
X0192051Y0524971D02*
D03*
X0259790Y0675368D02*
D03*
X0261562Y0699189D02*
D03*
X0266779Y0685959D02*
D03*
X0247326Y0680329D02*
D03*
X0242940Y0672140D02*
D03*
X0242743Y0664262D02*
D03*
X0245499Y0656589D02*
D03*
X0250617Y0665280D02*
D03*
X0252350Y0673376D02*
D03*
X0275342Y0657461D02*
D03*
X0203728Y0650723D02*
D03*
X0236858Y0693400D02*
D03*
X0150684Y0338246D02*
D03*
X0151243Y0305896D02*
D03*
X0150892Y0361950D02*
D03*
X0103881Y0178569D02*
D03*
X0108798Y0230853D02*
D03*
X0110865Y0220227D02*
D03*
X0144668Y0215207D02*
D03*
X0146291Y0221849D02*
D03*
X0110385Y0241172D02*
D03*
X0144987Y0230967D02*
D03*
X0124550Y0244372D02*
D03*
X0143267Y0248939D02*
D03*
X0110338Y0248376D02*
D03*
X0114531Y0254128D02*
D03*
X0111775Y0261077D02*
D03*
X0111995Y0270998D02*
D03*
X0088070Y0270227D02*
D03*
X0087960Y0281140D02*
D03*
X0109318Y0280687D02*
D03*
X0127913Y0269806D02*
D03*
X0127798Y0278235D02*
D03*
X0249621Y0371101D02*
D03*
X0238231Y0360136D02*
D03*
X0248102Y0361069D02*
D03*
X0255637Y0496246D02*
D03*
X0260050Y0530829D02*
D03*
X0259216Y0540309D02*
D03*
X0242759Y0523388D02*
D03*
X0242432Y0496487D02*
D03*
X0241401Y0476451D02*
D03*
X0253917Y0520416D02*
D03*
X0255960Y0507955D02*
D03*
X0255767Y0503506D02*
D03*
X0252334Y0527947D02*
D03*
X0251125Y0537522D02*
D03*
X0184696Y0488357D02*
D03*
X0183263Y0478006D02*
D03*
X0258704Y0488313D02*
D03*
X0226818Y0488416D02*
D03*
X0257921Y0468325D02*
D03*
X0256649Y0463758D02*
D03*
X0185302Y0449959D02*
D03*
X0231381Y0277542D02*
D03*
X0213397Y0265014D02*
D03*
X0215775Y0208782D02*
D03*
X0257424Y0482932D02*
D03*
X0255739Y0459636D02*
D03*
X0232617Y0459321D02*
D03*
X0212365Y0459617D02*
D03*
X0250121Y0606424D02*
D03*
X0250031Y0594841D02*
D03*
X0287031Y0520876D02*
D03*
X0293109Y0495790D02*
D03*
X0286519Y0252691D02*
D03*
X0281078Y0222455D02*
D03*
X0260495Y0184829D02*
D03*
X0253062Y0222329D02*
D03*
X0232428Y0229207D02*
D03*
X0156385Y0265833D02*
D03*
X0168098Y0278912D02*
D03*
X0197621Y0289128D02*
D03*
X0203519Y0337707D02*
D03*
X0107621Y0443345D02*
D03*
X0128842Y0439569D02*
D03*
X0110003Y0480699D02*
D03*
X0129858Y0475593D02*
D03*
X0160267Y0515691D02*
D03*
X0135405Y0491247D02*
D03*
X0113039Y0497896D02*
D03*
X0135239Y0500892D02*
D03*
X0116365Y0502884D02*
D03*
X0114700Y0510368D02*
D03*
X0130082Y0510286D02*
D03*
X0130334Y0517935D02*
D03*
X0127094Y0534569D02*
D03*
X0112928Y0532932D02*
D03*
X0169641Y0541140D02*
D03*
X0176621Y0673152D02*
D03*
X0279491Y0698632D02*
D03*
X0241220Y0698313D02*
D03*
X0213523Y0697699D02*
D03*
X0202094Y0681235D02*
D03*
X0162224Y0627022D02*
D03*
X0164413Y0643140D02*
D03*
X0164220Y0658857D02*
D03*
Y0677451D02*
D03*
X0163452Y0698152D02*
D03*
X0127279Y0592506D02*
D03*
X0084712Y0627337D02*
D03*
X0085168Y0645124D02*
D03*
X0132861Y0670120D02*
D03*
X0121050Y0652000D02*
D03*
X0125783Y0643810D02*
D03*
X0076649Y0652306D02*
D03*
X0095503Y0639042D02*
D03*
X0103086Y0636172D02*
D03*
X0104003Y0644790D02*
D03*
X0103775Y0651223D02*
D03*
X0074019Y0640652D02*
D03*
X0084472Y0657656D02*
D03*
X0094239Y0662939D02*
D03*
X0089184Y0668802D02*
D03*
X0073787Y0662711D02*
D03*
Y0682932D02*
D03*
X0087574Y0698786D02*
D03*
X0143641Y0680061D02*
D03*
X0143243Y0657258D02*
D03*
X0143558Y0671463D02*
D03*
X0143452Y0644412D02*
D03*
X0143401Y0626794D02*
D03*
X0211320Y0431674D02*
D03*
X0157905Y0493620D02*
D03*
X0152952Y0505998D02*
D03*
X0150066Y0519613D02*
D03*
X0157629Y0528963D02*
D03*
X0144015Y0538451D02*
D03*
X0170692Y0493345D02*
D03*
Y0526211D02*
D03*
X0189170Y0530487D02*
D03*
X0208787Y0528687D02*
D03*
X0188924Y0548002D02*
D03*
X0173354Y0550050D02*
D03*
X0156649Y0549821D02*
D03*
X0133822Y0550676D02*
D03*
X0111298Y0549935D02*
D03*
X0158239Y0556983D02*
D03*
X0292436Y0683880D02*
D03*
X0216259Y0682581D02*
D03*
X0229987Y0665065D02*
D03*
X0246416Y0683735D02*
D03*
X0280507Y0605361D02*
D03*
X0273968Y0619920D02*
D03*
X0191326Y0629931D02*
D03*
X0197424Y0656522D02*
D03*
X0189000Y0668868D02*
D03*
X0195499Y0646073D02*
D03*
X0199830Y0633990D02*
D03*
X0291334Y0656176D02*
D03*
X0259554Y0646668D02*
D03*
X0251011Y0650526D02*
D03*
X0230578Y0648558D02*
D03*
X0242771Y0651105D02*
D03*
X0228452Y0656235D02*
D03*
X0240940Y0642943D02*
D03*
X0227428Y0638014D02*
D03*
X0215342Y0649502D02*
D03*
X0073720Y0548628D02*
D03*
X0072830Y0528121D02*
D03*
X0074102Y0493546D02*
D03*
X0072625Y0458475D02*
D03*
X0106401Y0424514D02*
D03*
X0106956Y0452939D02*
D03*
X0126948Y0325735D02*
D03*
X0176696Y0322951D02*
D03*
X0184125Y0336093D02*
D03*
X0168472Y0336207D02*
D03*
X0215562Y0229825D02*
D03*
X0242676Y0246365D02*
D03*
X0227834Y0246116D02*
D03*
X0219759Y0258231D02*
D03*
X0225913Y0288010D02*
D03*
X0213243Y0299581D02*
D03*
X0218948Y0315742D02*
D03*
X0208728Y0281514D02*
D03*
X0197318Y0301483D02*
D03*
X0114834Y0314085D02*
D03*
X0126885Y0312904D02*
D03*
X0112842Y0341912D02*
D03*
X0128633Y0345243D02*
D03*
X0098255Y0359077D02*
D03*
X0072995Y0367443D02*
D03*
X0073641Y0402038D02*
D03*
X0102279Y0378546D02*
D03*
X0116117Y0376455D02*
D03*
X0129054Y0369975D02*
D03*
X0128696Y0421809D02*
D03*
X0130113Y0454148D02*
D03*
X0248373Y0422699D02*
D03*
X0242184Y0402727D02*
D03*
X0231035Y0470097D02*
D03*
X0225940Y0480711D02*
D03*
X0212920Y0479581D02*
D03*
X0180201Y0505900D02*
D03*
X0233861Y0495471D02*
D03*
X0214338Y0495861D02*
D03*
X0230842Y0508786D02*
D03*
X0222550Y0508613D02*
D03*
X0227570Y0555278D02*
D03*
X0222027Y0565054D02*
D03*
X0211027Y0552798D02*
D03*
X0227570Y0579258D02*
D03*
X0238413Y0557900D02*
D03*
X0235806Y0569187D02*
D03*
X0271613Y0584396D02*
D03*
X0291354Y0637731D02*
D03*
Y0618136D02*
D03*
X0292519Y0548026D02*
D03*
X0295184Y0527589D02*
D03*
X0294676Y0471684D02*
D03*
X0295539Y0402435D02*
D03*
X0265078Y0329069D02*
D03*
X0294153Y0377943D02*
D03*
X0294873Y0350479D02*
D03*
X0295102Y0324865D02*
D03*
X0256554Y0274510D02*
D03*
X0255094Y0291644D02*
D03*
X0294842Y0296506D02*
D03*
X0294369Y0267900D02*
D03*
X0294909Y0240542D02*
D03*
X0294901Y0222030D02*
D03*
X0294968Y0203207D02*
D03*
X0279385Y0206022D02*
D03*
X0261826Y0204534D02*
D03*
X0265302Y0191817D02*
D03*
X0251027Y0193376D02*
D03*
X0246350Y0177782D02*
D03*
X0248515Y0208585D02*
D03*
X0238885Y0196077D02*
D03*
X0232936Y0202227D02*
D03*
X0221239Y0195187D02*
D03*
X0221834Y0204506D02*
D03*
X0202302Y0201431D02*
D03*
X0210928Y0196077D02*
D03*
X0186283Y0180412D02*
D03*
X0164991Y0184054D02*
D03*
X0184157Y0187912D02*
D03*
X0181861Y0205861D02*
D03*
X0184995Y0215585D02*
D03*
X0171979Y0208687D02*
D03*
X0175267Y0234502D02*
D03*
X0162298Y0234719D02*
D03*
X0163377Y0224451D02*
D03*
X0159566Y0208817D02*
D03*
X0160877Y0199857D02*
D03*
X0136200Y0200290D02*
D03*
X0118743Y0185849D02*
D03*
X0117129Y0200290D02*
D03*
X0103334Y0192746D02*
D03*
X0262401Y0171506D02*
D03*
X0264200Y0162197D02*
D03*
X0224023Y0158164D02*
D03*
X0160688Y0157424D02*
D03*
X0089582Y0168443D02*
D03*
X0104200Y0163526D02*
D03*
X0074200Y0181600D02*
D03*
X0073928Y0205302D02*
D03*
X0074417Y0229790D02*
D03*
X0074172Y0257459D02*
D03*
Y0275821D02*
D03*
X0073684Y0294924D02*
D03*
X0073928Y0318920D02*
D03*
X0074417Y0340223D02*
D03*
X0251401Y0302723D02*
D03*
X0251310Y0312191D02*
D03*
X0249432Y0310113D02*
D03*
X0249027Y0300664D02*
D03*
X0077665Y0592258D02*
D03*
X0244720Y0588546D02*
D03*
X0239720D02*
D03*
X0234720D02*
D03*
X0224720D02*
D03*
X0219743Y0588522D02*
D03*
X0134783Y0410355D02*
D03*
X0248999Y0560746D02*
D03*
Y0550140D02*
D03*
X0199196Y0525963D02*
D03*
X0153799Y0541246D02*
D03*
X0254740Y0613133D02*
D03*
X0291581Y0598494D02*
D03*
X0291621Y0590211D02*
D03*
X0291551Y0563180D02*
D03*
X0288075Y0567679D02*
D03*
X0280366Y0572872D02*
D03*
X0284378Y0569176D02*
D03*
X0080011Y0589912D02*
D03*
X0091949Y0571822D02*
D03*
X0088559Y0575344D02*
D03*
X0204798Y0499317D02*
D03*
X0190232D02*
D03*
X0177755Y0267510D02*
D03*
X0177582Y0256534D02*
D03*
Y0247699D02*
D03*
X0190192Y0279691D02*
D03*
X0184322Y0425880D02*
D03*
X0193350Y0413845D02*
D03*
X0185932Y0411884D02*
D03*
X0192720Y0403841D02*
D03*
X0199365Y0409928D02*
D03*
X0178865Y0420353D02*
D03*
X0190550Y0420912D02*
D03*
X0183413Y0390315D02*
D03*
X0204668Y0668636D02*
D03*
Y0657613D02*
D03*
X0249456Y0623849D02*
D03*
X0264098Y0623632D02*
D03*
X0254180Y0632321D02*
D03*
X0263629D02*
D03*
X0265298Y0635565D02*
D03*
X0270653Y0631892D02*
D03*
X0252255Y0616353D02*
D03*
X0281452Y0651624D02*
D03*
X0278468Y0654518D02*
D03*
X0290487Y0677561D02*
D03*
X0294086Y0673376D02*
D03*
X0283936Y0661026D02*
D03*
X0278507Y0659660D02*
D03*
X0278704Y0680640D02*
D03*
X0281940Y0683424D02*
D03*
X0193672Y0694124D02*
D03*
X0201346Y0694018D02*
D03*
X0185389Y0694038D02*
D03*
X0188133Y0650408D02*
D03*
X0188031Y0656445D02*
D03*
X0260700Y0663876D02*
D03*
Y0659148D02*
D03*
X0239865Y0632632D02*
D03*
X0247889Y0632380D02*
D03*
X0234983Y0676841D02*
D03*
X0224377Y0676939D02*
D03*
X0223046Y0671475D02*
D03*
X0221090Y0667506D02*
D03*
X0220294Y0641810D02*
D03*
X0112172Y0590183D02*
D03*
X0093562Y0585695D02*
D03*
X0123627Y0668319D02*
D03*
X0130554Y0660333D02*
D03*
X0104314Y0668790D02*
D03*
X0125273Y0657879D02*
D03*
X0101149Y0666018D02*
D03*
X0129263Y0673558D02*
D03*
X0236114Y0511282D02*
D03*
X0235180Y0530920D02*
D03*
X0203782Y0403903D02*
D03*
X0144386Y0401266D02*
D03*
X0142994Y0402658D02*
D03*
X0151072Y0407952D02*
D03*
X0149680Y0409344D02*
D03*
X0104948Y0385310D02*
D03*
X0177476Y0218656D02*
D03*
X0174917D02*
D03*
X0172357D02*
D03*
X0169798D02*
D03*
X0169798Y0226630D02*
D03*
X0172357D02*
D03*
X0174917D02*
D03*
X0177476D02*
D03*
X0174917Y0203402D02*
D03*
X0172357D02*
D03*
X0169798D02*
D03*
X0227240Y0274128D02*
D03*
X0186503Y0269010D02*
D03*
X0186501Y0274128D02*
D03*
X0186503Y0271569D02*
D03*
X0194476Y0274128D02*
D03*
X0216283Y0322250D02*
D03*
X0201220Y0322333D02*
D03*
X0173550Y0301455D02*
D03*
X0188204Y0301294D02*
D03*
X0183501Y0297808D02*
D03*
X0168934D02*
D03*
X0211511Y0318554D02*
D03*
X0196944D02*
D03*
X0250192Y0386325D02*
D03*
X0233554Y0375899D02*
D03*
X0228404Y0517887D02*
D03*
X0137007Y0547030D02*
D03*
X0205428Y0549372D02*
D03*
X0117850Y0388349D02*
D03*
X0124196Y0365885D02*
D03*
X0159062Y0185073D02*
D03*
X0148062D02*
D03*
X0137062D02*
D03*
X0197487Y0186073D02*
D03*
X0219161D02*
D03*
X0208487D02*
D03*
X0193755Y0208660D02*
D03*
X0236188Y0210658D02*
D03*
X0194086Y0217640D02*
D03*
X0205306Y0235967D02*
D03*
X0196724Y0247924D02*
D03*
X0196747Y0254471D02*
D03*
X0177007Y0440002D02*
D03*
X0166109Y0403325D02*
D03*
X0160691Y0407593D02*
D03*
X0177416Y0426896D02*
D03*
X0221058Y0398888D02*
D03*
X0137814Y0215012D02*
D03*
Y0223524D02*
D03*
X0137814Y0232024D02*
D03*
X0137814Y0240524D02*
D03*
Y0248900D02*
D03*
Y0257400D02*
D03*
X0137830Y0265539D02*
D03*
X0135424Y0271634D02*
D03*
X0135424Y0279634D02*
D03*
X0135409Y0287494D02*
D03*
X0153093Y0393291D02*
D03*
X0168580Y0375301D02*
D03*
X0174624Y0396696D02*
D03*
X0193737Y0424144D02*
D03*
G54D165*
X0143934Y0602569D02*
D03*
X0118046Y0626892D02*
D03*
X0144934Y0611290D02*
D03*
X0114798Y0613054D02*
D03*
X0107066Y0608388D02*
D03*
X0115735Y0602624D02*
D03*
X0090854Y0602487D02*
D03*
X0094212Y0613117D02*
D03*
X0089987Y0640408D02*
D03*
X0094184Y0628719D02*
D03*
X0109456Y0634290D02*
D03*
X0127267Y0668868D02*
D03*
X0110109Y0669498D02*
D03*
X0120224Y0648239D02*
D03*
G54D166*
X0114216Y0676758D02*
D03*
M02*
