G04*
G04 #@! TF.GenerationSoftware,Altium Limited,Altium Designer,20.1.14 (287)*
G04*
G04 Layer_Color=16711935*
%FSAX25Y25*%
%MOIN*%
G70*
G04*
G04 #@! TF.SameCoordinates,A9E8F4E5-7F2A-47C3-BED5-AE4669AA653D*
G04*
G04*
G04 #@! TF.FilePolarity,Negative*
G04*
G01*
G75*
%ADD19C,0.00800*%
G04:AMPARAMS|DCode=33|XSize=19.68mil|YSize=19.68mil|CornerRadius=1.97mil|HoleSize=0mil|Usage=FLASHONLY|Rotation=180.000|XOffset=0mil|YOffset=0mil|HoleType=Round|Shape=RoundedRectangle|*
%AMROUNDEDRECTD33*
21,1,0.01968,0.01575,0,0,180.0*
21,1,0.01575,0.01968,0,0,180.0*
1,1,0.00394,-0.00787,0.00787*
1,1,0.00394,0.00787,0.00787*
1,1,0.00394,0.00787,-0.00787*
1,1,0.00394,-0.00787,-0.00787*
%
%ADD33ROUNDEDRECTD33*%
G04:AMPARAMS|DCode=38|XSize=19.68mil|YSize=19.68mil|CornerRadius=1.97mil|HoleSize=0mil|Usage=FLASHONLY|Rotation=90.000|XOffset=0mil|YOffset=0mil|HoleType=Round|Shape=RoundedRectangle|*
%AMROUNDEDRECTD38*
21,1,0.01968,0.01575,0,0,90.0*
21,1,0.01575,0.01968,0,0,90.0*
1,1,0.00394,0.00787,0.00787*
1,1,0.00394,0.00787,-0.00787*
1,1,0.00394,-0.00787,-0.00787*
1,1,0.00394,-0.00787,0.00787*
%
%ADD38ROUNDEDRECTD38*%
%ADD79R,0.02762X0.03550*%
%ADD80R,0.03550X0.02762*%
G04:AMPARAMS|DCode=81|XSize=27.62mil|YSize=35.5mil|CornerRadius=0mil|HoleSize=0mil|Usage=FLASHONLY|Rotation=225.000|XOffset=0mil|YOffset=0mil|HoleType=Round|Shape=Rectangle|*
%AMROTATEDRECTD81*
4,1,4,-0.00278,0.02232,0.02232,-0.00278,0.00278,-0.02232,-0.02232,0.00278,-0.00278,0.02232,0.0*
%
%ADD81ROTATEDRECTD81*%

%ADD83C,0.07874*%
%ADD89R,0.04337X0.04140*%
%ADD91R,0.04140X0.04337*%
%ADD118C,0.05150*%
%ADD119C,0.05006*%
G04:AMPARAMS|DCode=123|XSize=65.02mil|YSize=65.02mil|CornerRadius=3.83mil|HoleSize=0mil|Usage=FLASHONLY|Rotation=270.000|XOffset=0mil|YOffset=0mil|HoleType=Round|Shape=RoundedRectangle|*
%AMROUNDEDRECTD123*
21,1,0.06502,0.05736,0,0,270.0*
21,1,0.05736,0.06502,0,0,270.0*
1,1,0.00766,-0.02868,-0.02868*
1,1,0.00766,-0.02868,0.02868*
1,1,0.00766,0.02868,0.02868*
1,1,0.00766,0.02868,-0.02868*
%
%ADD123ROUNDEDRECTD123*%
%ADD124C,0.06502*%
%ADD125C,0.06896*%
G04:AMPARAMS|DCode=126|XSize=68.96mil|YSize=68.96mil|CornerRadius=10.12mil|HoleSize=0mil|Usage=FLASHONLY|Rotation=270.000|XOffset=0mil|YOffset=0mil|HoleType=Round|Shape=RoundedRectangle|*
%AMROUNDEDRECTD126*
21,1,0.06896,0.04872,0,0,270.0*
21,1,0.04872,0.06896,0,0,270.0*
1,1,0.02024,-0.02436,-0.02436*
1,1,0.02024,-0.02436,0.02436*
1,1,0.02024,0.02436,0.02436*
1,1,0.02024,0.02436,-0.02436*
%
%ADD126ROUNDEDRECTD126*%
G04:AMPARAMS|DCode=127|XSize=68.96mil|YSize=68.96mil|CornerRadius=18.24mil|HoleSize=0mil|Usage=FLASHONLY|Rotation=180.000|XOffset=0mil|YOffset=0mil|HoleType=Round|Shape=RoundedRectangle|*
%AMROUNDEDRECTD127*
21,1,0.06896,0.03248,0,0,180.0*
21,1,0.03248,0.06896,0,0,180.0*
1,1,0.03648,-0.01624,0.01624*
1,1,0.03648,0.01624,0.01624*
1,1,0.03648,0.01624,-0.01624*
1,1,0.03648,-0.01624,-0.01624*
%
%ADD127ROUNDEDRECTD127*%
%ADD128R,0.06896X0.06896*%
%ADD129R,0.06896X0.06896*%
G04:AMPARAMS|DCode=130|XSize=70.93mil|YSize=70.93mil|CornerRadius=4.01mil|HoleSize=0mil|Usage=FLASHONLY|Rotation=180.000|XOffset=0mil|YOffset=0mil|HoleType=Round|Shape=RoundedRectangle|*
%AMROUNDEDRECTD130*
21,1,0.07093,0.06291,0,0,180.0*
21,1,0.06291,0.07093,0,0,180.0*
1,1,0.00802,-0.03146,0.03146*
1,1,0.00802,0.03146,0.03146*
1,1,0.00802,0.03146,-0.03146*
1,1,0.00802,-0.03146,-0.03146*
%
%ADD130ROUNDEDRECTD130*%
%ADD131C,0.07093*%
G04:AMPARAMS|DCode=132|XSize=70.93mil|YSize=70.93mil|CornerRadius=4.01mil|HoleSize=0mil|Usage=FLASHONLY|Rotation=270.000|XOffset=0mil|YOffset=0mil|HoleType=Round|Shape=RoundedRectangle|*
%AMROUNDEDRECTD132*
21,1,0.07093,0.06291,0,0,270.0*
21,1,0.06291,0.07093,0,0,270.0*
1,1,0.00802,-0.03146,-0.03146*
1,1,0.00802,-0.03146,0.03146*
1,1,0.00802,0.03146,0.03146*
1,1,0.00802,0.03146,-0.03146*
%
%ADD132ROUNDEDRECTD132*%
%ADD133C,0.12400*%
%ADD134C,0.05400*%
G04:AMPARAMS|DCode=135|XSize=53.21mil|YSize=31.56mil|CornerRadius=15.78mil|HoleSize=0mil|Usage=FLASHONLY|Rotation=180.000|XOffset=0mil|YOffset=0mil|HoleType=Round|Shape=RoundedRectangle|*
%AMROUNDEDRECTD135*
21,1,0.05321,0.00000,0,0,180.0*
21,1,0.02165,0.03156,0,0,180.0*
1,1,0.03156,-0.01083,0.00000*
1,1,0.03156,0.01083,0.00000*
1,1,0.03156,0.01083,0.00000*
1,1,0.03156,-0.01083,0.00000*
%
%ADD135ROUNDEDRECTD135*%
G04:AMPARAMS|DCode=136|XSize=27.62mil|YSize=78.8mil|CornerRadius=13.81mil|HoleSize=0mil|Usage=FLASHONLY|Rotation=180.000|XOffset=0mil|YOffset=0mil|HoleType=Round|Shape=RoundedRectangle|*
%AMROUNDEDRECTD136*
21,1,0.02762,0.05118,0,0,180.0*
21,1,0.00000,0.07880,0,0,180.0*
1,1,0.02762,0.00000,0.02559*
1,1,0.02762,0.00000,0.02559*
1,1,0.02762,0.00000,-0.02559*
1,1,0.02762,0.00000,-0.02559*
%
%ADD136ROUNDEDRECTD136*%
G04:AMPARAMS|DCode=137|XSize=31.56mil|YSize=63.06mil|CornerRadius=15.78mil|HoleSize=0mil|Usage=FLASHONLY|Rotation=180.000|XOffset=0mil|YOffset=0mil|HoleType=Round|Shape=RoundedRectangle|*
%AMROUNDEDRECTD137*
21,1,0.03156,0.03150,0,0,180.0*
21,1,0.00000,0.06306,0,0,180.0*
1,1,0.03156,0.00000,0.01575*
1,1,0.03156,0.00000,0.01575*
1,1,0.03156,0.00000,-0.01575*
1,1,0.03156,0.00000,-0.01575*
%
%ADD137ROUNDEDRECTD137*%
%ADD138C,0.02368*%
G04:AMPARAMS|DCode=168|XSize=31.5mil|YSize=35.43mil|CornerRadius=2.05mil|HoleSize=0mil|Usage=FLASHONLY|Rotation=315.000|XOffset=0mil|YOffset=0mil|HoleType=Round|Shape=RoundedRectangle|*
%AMROUNDEDRECTD168*
21,1,0.03150,0.03134,0,0,315.0*
21,1,0.02740,0.03543,0,0,315.0*
1,1,0.00409,-0.00139,-0.02077*
1,1,0.00409,-0.02077,-0.00139*
1,1,0.00409,0.00139,0.02077*
1,1,0.00409,0.02077,0.00139*
%
%ADD168ROUNDEDRECTD168*%
G04:AMPARAMS|DCode=169|XSize=19.68mil|YSize=19.68mil|CornerRadius=1.97mil|HoleSize=0mil|Usage=FLASHONLY|Rotation=315.000|XOffset=0mil|YOffset=0mil|HoleType=Round|Shape=RoundedRectangle|*
%AMROUNDEDRECTD169*
21,1,0.01968,0.01575,0,0,315.0*
21,1,0.01575,0.01968,0,0,315.0*
1,1,0.00394,0.00000,-0.01114*
1,1,0.00394,-0.01114,0.00000*
1,1,0.00394,0.00000,0.01114*
1,1,0.00394,0.01114,0.00000*
%
%ADD169ROUNDEDRECTD169*%
G04:AMPARAMS|DCode=170|XSize=19.68mil|YSize=19.68mil|CornerRadius=1.97mil|HoleSize=0mil|Usage=FLASHONLY|Rotation=45.000|XOffset=0mil|YOffset=0mil|HoleType=Round|Shape=RoundedRectangle|*
%AMROUNDEDRECTD170*
21,1,0.01968,0.01575,0,0,45.0*
21,1,0.01575,0.01968,0,0,45.0*
1,1,0.00394,0.01114,0.00000*
1,1,0.00394,0.00000,-0.01114*
1,1,0.00394,-0.01114,0.00000*
1,1,0.00394,0.00000,0.01114*
%
%ADD170ROUNDEDRECTD170*%
G04:AMPARAMS|DCode=175|XSize=41.4mil|YSize=43.37mil|CornerRadius=0mil|HoleSize=0mil|Usage=FLASHONLY|Rotation=45.000|XOffset=0mil|YOffset=0mil|HoleType=Round|Shape=Rectangle|*
%AMROTATEDRECTD175*
4,1,4,0.00070,-0.02997,-0.02997,0.00070,-0.00070,0.02997,0.02997,-0.00070,0.00070,-0.02997,0.0*
%
%ADD175ROTATEDRECTD175*%

G04:AMPARAMS|DCode=176|XSize=54mil|YSize=67mil|CornerRadius=0mil|HoleSize=0mil|Usage=FLASHONLY|Rotation=45.000|XOffset=0mil|YOffset=0mil|HoleType=Round|Shape=Rectangle|*
%AMROTATEDRECTD176*
4,1,4,0.00460,-0.04278,-0.04278,0.00460,-0.00460,0.04278,0.04278,-0.00460,0.00460,-0.04278,0.0*
%
%ADD176ROTATEDRECTD176*%

G04:AMPARAMS|DCode=177|XSize=27.62mil|YSize=43.37mil|CornerRadius=4.01mil|HoleSize=0mil|Usage=FLASHONLY|Rotation=90.000|XOffset=0mil|YOffset=0mil|HoleType=Round|Shape=RoundedRectangle|*
%AMROUNDEDRECTD177*
21,1,0.02762,0.03535,0,0,90.0*
21,1,0.01961,0.04337,0,0,90.0*
1,1,0.00802,0.01768,0.00980*
1,1,0.00802,0.01768,-0.00980*
1,1,0.00802,-0.01768,-0.00980*
1,1,0.00802,-0.01768,0.00980*
%
%ADD177ROUNDEDRECTD177*%
G36*
X0103419Y0680315D02*
X0104028Y0679705D01*
X0104358Y0678910D01*
X0104358Y0678479D01*
X0104364Y0678095D01*
X0104112Y0677369D01*
X0103625Y0676774D01*
X0102964Y0676383D01*
X0102586Y0676314D01*
X0102586Y0676314D01*
Y0673558D01*
X0102586Y0673088D01*
X0102226Y0672220D01*
X0101562Y0671555D01*
X0100694Y0671195D01*
X0100224Y0671195D01*
X0099754D01*
X0098886Y0671555D01*
X0098221Y0672220D01*
X0097861Y0673088D01*
X0097861Y0673558D01*
Y0678282D01*
X0097861Y0678752D01*
X0098221Y0679620D01*
X0098886Y0680285D01*
X0099754Y0680644D01*
X0100224Y0680644D01*
X0102192D01*
X0102623Y0680644D01*
X0103419Y0680315D01*
D02*
G37*
G36*
X0094793Y0701262D02*
X0095293Y0701087D01*
X0095747Y0700814D01*
X0096135Y0700453D01*
X0096442Y0700021D01*
X0096653Y0699535D01*
X0096760Y0699016D01*
X0096759Y0698750D01*
X0096759Y0692451D01*
X0096759Y0692060D01*
X0096459Y0691336D01*
X0095906Y0690782D01*
X0095182Y0690483D01*
X0094791Y0690483D01*
Y0690483D01*
X0093609D01*
X0093218Y0690483D01*
X0092494Y0690782D01*
X0091941Y0691336D01*
X0091641Y0692060D01*
Y0692451D01*
X0091641D01*
X0091641Y0698751D01*
X0091640Y0699235D01*
X0091991Y0700138D01*
X0092648Y0700850D01*
X0093520Y0701272D01*
X0094003Y0701310D01*
X0094267Y0701330D01*
X0094793Y0701262D01*
D02*
G37*
G36*
X0135577Y0680285D02*
X0136242Y0679620D01*
X0136602Y0678752D01*
X0136601Y0678282D01*
X0136602Y0673558D01*
X0136601Y0673558D01*
X0136602Y0673088D01*
X0136242Y0672220D01*
X0135577Y0671555D01*
X0134709Y0671196D01*
X0134239Y0671195D01*
X0133770Y0671195D01*
X0132901Y0671555D01*
X0132237Y0672220D01*
X0131877Y0673088D01*
X0131877Y0673558D01*
X0131877Y0676314D01*
X0131499Y0676383D01*
X0130838Y0676774D01*
X0130351Y0677369D01*
X0130099Y0678095D01*
X0130105Y0678479D01*
X0130105Y0678910D01*
X0130435Y0679705D01*
X0131044Y0680315D01*
X0131840Y0680644D01*
X0132271Y0680644D01*
X0134239D01*
X0134709Y0680644D01*
X0135577Y0680285D01*
D02*
G37*
G36*
X0140460Y0701310D02*
X0140943Y0701272D01*
X0141815Y0700850D01*
X0142472Y0700138D01*
X0142824Y0699235D01*
X0142822Y0698751D01*
Y0692451D01*
Y0692060D01*
X0142522Y0691336D01*
X0141969Y0690782D01*
X0141245Y0690483D01*
X0140854Y0690483D01*
X0139672D01*
X0139672Y0690483D01*
X0139281Y0690483D01*
X0138557Y0690782D01*
X0138004Y0691336D01*
X0137704Y0692060D01*
X0137704Y0692451D01*
X0137704Y0698750D01*
X0137704D01*
X0137703Y0699016D01*
X0137810Y0699535D01*
X0138021Y0700021D01*
X0138328Y0700453D01*
X0138716Y0700814D01*
X0139170Y0701087D01*
X0139670Y0701262D01*
X0140196Y0701330D01*
X0140460Y0701310D01*
D02*
G37*
G54D19*
X0128000Y0073649D02*
Y0067651D01*
X0130999D01*
X0131999Y0068650D01*
Y0069650D01*
X0130999Y0070650D01*
X0128000D01*
X0130999D01*
X0131999Y0071649D01*
Y0072649D01*
X0130999Y0073649D01*
X0128000D01*
X0134998Y0067651D02*
X0136997D01*
X0137997Y0068650D01*
Y0070650D01*
X0136997Y0071649D01*
X0134998D01*
X0133998Y0070650D01*
Y0068650D01*
X0134998Y0067651D01*
X0140996Y0072649D02*
Y0071649D01*
X0139996D01*
X0141996D01*
X0140996D01*
Y0068650D01*
X0141996Y0067651D01*
X0145994Y0072649D02*
Y0071649D01*
X0144994D01*
X0146994D01*
X0145994D01*
Y0068650D01*
X0146994Y0067651D01*
X0150993D02*
X0152992D01*
X0153992Y0068650D01*
Y0070650D01*
X0152992Y0071649D01*
X0150993D01*
X0149993Y0070650D01*
Y0068650D01*
X0150993Y0067651D01*
X0155991D02*
Y0071649D01*
X0156991D01*
X0157990Y0070650D01*
Y0067651D01*
Y0070650D01*
X0158990Y0071649D01*
X0159990Y0070650D01*
Y0067651D01*
X0171986Y0072649D02*
X0170986Y0073649D01*
X0168987D01*
X0167987Y0072649D01*
Y0071649D01*
X0168987Y0070650D01*
X0170986D01*
X0171986Y0069650D01*
Y0068650D01*
X0170986Y0067651D01*
X0168987D01*
X0167987Y0068650D01*
X0174985Y0067651D02*
X0176984D01*
X0177984Y0068650D01*
Y0070650D01*
X0176984Y0071649D01*
X0174985D01*
X0173985Y0070650D01*
Y0068650D01*
X0174985Y0067651D01*
X0179983D02*
X0181983D01*
X0180983D01*
Y0073649D01*
X0179983D01*
X0188980D02*
Y0067651D01*
X0185981D01*
X0184982Y0068650D01*
Y0070650D01*
X0185981Y0071649D01*
X0188980D01*
X0193979Y0067651D02*
X0191979D01*
X0190980Y0068650D01*
Y0070650D01*
X0191979Y0071649D01*
X0193979D01*
X0194978Y0070650D01*
Y0069650D01*
X0190980D01*
X0196978Y0071649D02*
Y0067651D01*
Y0069650D01*
X0197977Y0070650D01*
X0198977Y0071649D01*
X0199977D01*
G54D33*
X0175834Y0541278D02*
D03*
X0171897D02*
D03*
X0228432Y0530947D02*
D03*
X0232368D02*
D03*
X0117834Y0365885D02*
D03*
X0121771D02*
D03*
X0203113Y0549372D02*
D03*
X0199176D02*
D03*
X0247897Y0629928D02*
D03*
X0243960D02*
D03*
X0239905D02*
D03*
X0235968D02*
D03*
X0218212Y0641711D02*
D03*
X0214275D02*
D03*
X0218969Y0666400D02*
D03*
X0215032D02*
D03*
X0198023Y0222550D02*
D03*
X0194086D02*
D03*
X0193806Y0206451D02*
D03*
X0197743D02*
D03*
X0231231Y0207433D02*
D03*
X0235169D02*
D03*
G54D38*
X0240200Y0678932D02*
D03*
Y0682868D02*
D03*
X0224279Y0679022D02*
D03*
Y0682959D02*
D03*
X0234885Y0678924D02*
D03*
Y0682861D02*
D03*
X0270653Y0634435D02*
D03*
Y0638372D02*
D03*
G54D79*
X0265948Y0570500D02*
D03*
Y0575225D02*
D03*
X0263121Y0654451D02*
D03*
Y0659176D02*
D03*
X0263204Y0668790D02*
D03*
Y0664065D02*
D03*
X0229283Y0683002D02*
D03*
Y0678278D02*
D03*
G54D80*
X0255542Y0583337D02*
D03*
X0250818D02*
D03*
X0248735Y0511282D02*
D03*
X0244011Y0511282D02*
D03*
X0219960Y0671542D02*
D03*
X0215235D02*
D03*
X0193578Y0211317D02*
D03*
X0198302D02*
D03*
X0248735Y0506282D02*
D03*
X0244011D02*
D03*
G54D81*
X0195397Y0384164D02*
D03*
X0198738Y0380823D02*
D03*
X0187257Y0402653D02*
D03*
X0190597Y0399312D02*
D03*
X0203011Y0385463D02*
D03*
X0199670Y0388804D02*
D03*
G54D83*
X0274200Y0160769D02*
D03*
X0079987Y0673088D02*
D03*
X0094200Y0161166D02*
D03*
G54D89*
X0137940Y0410400D02*
D03*
X0144239D02*
D03*
X0258599Y0429790D02*
D03*
X0252300D02*
D03*
X0252257Y0435900D02*
D03*
X0258556D02*
D03*
G54D91*
X0244121Y0577691D02*
D03*
Y0571392D02*
D03*
X0197850Y0335616D02*
D03*
Y0329317D02*
D03*
X0212322Y0329317D02*
D03*
Y0335616D02*
D03*
G54D118*
X0100500Y0678005D02*
D03*
X0133963D02*
D03*
G54D119*
X0094200Y0695900D02*
D03*
X0140263Y0695900D02*
D03*
G54D123*
X0094200Y0555900D02*
D03*
G54D124*
Y0545900D02*
D03*
Y0535900D02*
D03*
Y0525900D02*
D03*
Y0515900D02*
D03*
Y0505900D02*
D03*
Y0495900D02*
D03*
Y0485900D02*
D03*
Y0475900D02*
D03*
Y0465900D02*
D03*
X0104200Y0555900D02*
D03*
Y0545900D02*
D03*
Y0535900D02*
D03*
Y0525900D02*
D03*
Y0515900D02*
D03*
Y0505900D02*
D03*
Y0495900D02*
D03*
Y0485900D02*
D03*
Y0475900D02*
D03*
Y0465900D02*
D03*
X0264200Y0555900D02*
D03*
Y0545900D02*
D03*
Y0535900D02*
D03*
Y0525900D02*
D03*
Y0515900D02*
D03*
Y0505900D02*
D03*
Y0495900D02*
D03*
Y0485900D02*
D03*
Y0475900D02*
D03*
Y0465900D02*
D03*
X0274200Y0555900D02*
D03*
Y0545900D02*
D03*
Y0535900D02*
D03*
Y0525900D02*
D03*
Y0515900D02*
D03*
Y0505900D02*
D03*
Y0495900D02*
D03*
Y0485900D02*
D03*
Y0475900D02*
D03*
Y0465900D02*
D03*
X0094200Y0305900D02*
D03*
Y0295900D02*
D03*
Y0285900D02*
D03*
Y0275900D02*
D03*
Y0265900D02*
D03*
Y0255900D02*
D03*
Y0245900D02*
D03*
Y0235900D02*
D03*
Y0225900D02*
D03*
Y0215900D02*
D03*
X0104200Y0305900D02*
D03*
Y0295900D02*
D03*
Y0285900D02*
D03*
Y0275900D02*
D03*
Y0265900D02*
D03*
Y0255900D02*
D03*
Y0245900D02*
D03*
Y0235900D02*
D03*
Y0225900D02*
D03*
Y0215900D02*
D03*
X0274200D02*
D03*
Y0225900D02*
D03*
Y0235900D02*
D03*
Y0245900D02*
D03*
Y0255900D02*
D03*
Y0265900D02*
D03*
Y0275900D02*
D03*
Y0285900D02*
D03*
Y0295900D02*
D03*
Y0305900D02*
D03*
X0264200Y0215900D02*
D03*
Y0225900D02*
D03*
Y0235900D02*
D03*
Y0245900D02*
D03*
Y0255900D02*
D03*
Y0265900D02*
D03*
Y0275900D02*
D03*
Y0285900D02*
D03*
Y0295900D02*
D03*
Y0305900D02*
D03*
G54D125*
Y0335900D02*
D03*
Y0345900D02*
D03*
Y0355900D02*
D03*
Y0365900D02*
D03*
X0274200Y0335900D02*
D03*
Y0345900D02*
D03*
Y0355900D02*
D03*
Y0365900D02*
D03*
Y0375900D02*
D03*
X0204200Y0163400D02*
D03*
X0194200D02*
D03*
X0184200D02*
D03*
X0174200D02*
D03*
X0144200D02*
D03*
X0134200D02*
D03*
X0124200D02*
D03*
X0114200D02*
D03*
X0244200D02*
D03*
X0234200D02*
D03*
X0094200Y0385900D02*
D03*
X0274200Y0435900D02*
D03*
Y0445900D02*
D03*
X0094200Y0435900D02*
D03*
Y0445900D02*
D03*
X0274200Y0185900D02*
D03*
Y0195900D02*
D03*
X0094200Y0185900D02*
D03*
Y0195900D02*
D03*
G54D126*
X0264200Y0375900D02*
D03*
G54D127*
X0214200Y0163400D02*
D03*
X0154200D02*
D03*
G54D128*
X0254200D02*
D03*
G54D129*
X0094200Y0395900D02*
D03*
X0274200Y0425900D02*
D03*
X0094200D02*
D03*
X0274200Y0175900D02*
D03*
X0094200D02*
D03*
G54D130*
X0201200Y0585900D02*
D03*
X0123200D02*
D03*
G54D131*
X0191200D02*
D03*
X0181200D02*
D03*
X0171200D02*
D03*
X0161200D02*
D03*
X0151200D02*
D03*
X0201200Y0575900D02*
D03*
X0191200D02*
D03*
X0181200D02*
D03*
X0171200D02*
D03*
X0161200D02*
D03*
X0151200D02*
D03*
X0133200D02*
D03*
X0123200D02*
D03*
X0133200Y0585900D02*
D03*
X0104200Y0325900D02*
D03*
Y0335900D02*
D03*
X0094200Y0325900D02*
D03*
G54D132*
Y0335900D02*
D03*
G54D133*
X0079200Y0693400D02*
D03*
X0289200D02*
D03*
X0079200Y0163400D02*
D03*
X0289200D02*
D03*
G54D134*
X0211523Y0439377D02*
D03*
X0154019Y0368348D02*
D03*
X0132519Y0398132D02*
D03*
X0167548Y0248585D02*
D03*
X0168901Y0177361D02*
D03*
X0274168Y0325963D02*
D03*
X0241000Y0213900D02*
D03*
X0225083Y0213786D02*
D03*
G54D135*
X0101503Y0678676D02*
D03*
X0132960D02*
D03*
G54D136*
X0100224Y0676314D02*
D03*
X0134239D02*
D03*
G54D137*
X0094200Y0697180D02*
D03*
X0140263D02*
D03*
G54D138*
X0090700Y0597337D02*
D03*
Y0593006D02*
D03*
G54D168*
X0174995Y0433014D02*
D03*
X0170819Y0437190D02*
D03*
X0178663Y0367701D02*
D03*
X0182839Y0363525D02*
D03*
X0183976Y0382526D02*
D03*
X0179800Y0386702D02*
D03*
G54D169*
X0170097Y0379830D02*
D03*
X0172881Y0377046D02*
D03*
X0163580Y0402375D02*
D03*
X0166364Y0399591D02*
D03*
X0212755Y0399959D02*
D03*
X0215539Y0397176D02*
D03*
X0176840Y0380737D02*
D03*
X0179623Y0377953D02*
D03*
X0207080Y0429071D02*
D03*
X0204296Y0431855D02*
D03*
G54D170*
X0170773Y0445193D02*
D03*
X0173556Y0447977D02*
D03*
X0218536Y0399559D02*
D03*
X0221320Y0402343D02*
D03*
X0216992Y0435930D02*
D03*
X0214208Y0433146D02*
D03*
X0174997Y0441705D02*
D03*
X0177781Y0444489D02*
D03*
G54D175*
X0162411Y0395570D02*
D03*
X0157957Y0400025D02*
D03*
X0147758Y0379858D02*
D03*
X0143304Y0384312D02*
D03*
G54D176*
X0157776Y0390583D02*
D03*
X0152120Y0384926D02*
D03*
X0189544Y0378354D02*
D03*
X0183887Y0372698D02*
D03*
G54D177*
X0249842Y0578282D02*
D03*
Y0574542D02*
D03*
Y0570802D02*
D03*
X0260668D02*
D03*
Y0574542D02*
D03*
Y0578282D02*
D03*
M02*
