M48
;Layer_Color=9474304
;FILE_FORMAT=2:5
INCH
;TYPE=PLATED
T1F00S00C0.00787
T2F00S00C0.00984
T3F00S00C0.01181
T4F00S00C0.01575
T6F00S00C0.02500
T8F00S00C0.04016
T9F00S00C0.04331
T10F00S00C0.04331
T11F00S00C0.04528
;TYPE=NON_PLATED
T12F00S00C0.03543
T13F00S00C0.12500
%
T01
X0090700Y0593006
Y0597337
X0115487Y0670498
X0117936
X0119050Y0677279
X0116661Y0677325
X0114216Y0676758
T02
X0160688Y0157424
X0159062Y0174727
Y0185073
X0164991Y0184054
X0160877Y0199857
X0159566Y0208817
X0171979Y0208687
X0172357Y0203402
X0174917
X0169798
X0181861Y0205861
X0184995Y0215585
X0177476Y0218656
X0174917
X0172357
X0169798
X0169798Y0226630
X0172357
X0174917
X0177476
X0175267Y0234502
X0174672Y0243530
X0177582Y0247699
Y0256534
X0177755Y0267510
X0186503Y0269010
Y0271569
X0186501Y0274128
X0194476Y0274128
X0195984Y0269140
X0198279Y0271357
X0190192Y0279691
X0197621Y0289128
X0197318Y0301483
X0188204Y0301294
X0183501Y0297808
X0173550Y0301455
X0173484Y0308569
X0168934Y0297808
X0168098Y0278912
X0156385Y0265833
X0156432Y0238400
X0162298Y0234719
X0163377Y0224451
X0194086Y0217640
X0193755Y0208660
X0197991Y0203589
X0202302Y0201431
X0210928Y0196077
X0221239Y0195187
X0221834Y0204506
X0215775Y0208782
X0212594Y0218093
X0215562Y0229825
X0202043Y0227554
X0200125Y0222550
X0205306Y0235967
X0201523Y0242372
X0201480Y0248333
X0196724Y0247924
X0196747Y0254471
X0208507Y0254258
X0219141Y0251176
X0219759Y0258231
X0213397Y0265014
X0208728Y0281514
X0213243Y0299581
X0203267Y0308514
X0225913Y0288010
X0227240Y0274128
X0231381Y0277542
X0235255Y0261270
X0235105Y0256156
X0242145Y0256124
X0241554Y0251176
X0242676Y0246365
X0244676Y0238400
X0232428Y0229207
X0226192Y0241687
X0227834Y0246116
X0231188Y0210658
X0236188
X0232936Y0202227
X0238885Y0196077
X0251027Y0193376
X0265302Y0191817
X0260495Y0184829
X0262401Y0171506
X0264200Y0162197
X0246350Y0177782
X0219161Y0175727
Y0186073
X0208487
Y0175727
X0197511Y0175703
X0197487Y0186073
X0184157Y0187912
X0186283Y0180412
X0224023Y0158164
X0248515Y0208585
X0261826Y0204534
X0279385Y0206022
X0281078Y0222455
X0294901Y0222030
X0294909Y0240542
X0283125Y0241262
X0286519Y0252691
X0282830Y0261211
X0294369Y0267900
X0294842Y0296506
X0255094Y0291644
X0251401Y0302723
X0249027Y0300664
X0249432Y0310113
X0251310Y0312191
X0256554Y0274510
X0251342Y0269243
X0253062Y0222329
X0294968Y0203207
X0185153Y0243605
X0143267Y0248939
X0137814Y0248900
Y0240524
X0137814Y0232024
X0144987Y0230967
X0146291Y0221849
X0144668Y0215207
X0137814Y0215012
Y0223524
X0136200Y0200290
X0137062Y0185073
X0148062
Y0174727
X0136432Y0174408
X0118743Y0185849
X0117129Y0200290
X0103334Y0192746
X0103881Y0178569
X0104200Y0163526
X0089582Y0168443
X0074200Y0181600
X0073928Y0205302
X0074417Y0229790
X0098767Y0231235
X0108798Y0230853
X0110385Y0241172
X0110338Y0248376
X0114531Y0254128
X0111775Y0261077
X0111995Y0270998
X0109318Y0280687
X0127798Y0278235
X0127913Y0269806
X0135424Y0271634
X0135424Y0279634
X0138846Y0277097
X0140157Y0282715
X0135409Y0287494
X0135613Y0297148
X0133684Y0300853
X0150003Y0300754
X0150007Y0297026
X0151243Y0305896
X0149704Y0282731
X0148091Y0277092
X0137830Y0265539
X0137814Y0257400
X0124550Y0244372
X0110865Y0220227
X0088070Y0270227
X0087960Y0281140
X0074172Y0275821
Y0257459
X0073684Y0294924
X0073928Y0318920
X0074417Y0340223
X0072995Y0367443
X0098255Y0359077
X0113751Y0358644
X0117826Y0363719
X0124196Y0365885
X0129054Y0369975
X0116117Y0376455
X0117850Y0388349
X0104948Y0385310
X0102279Y0378546
X0121787Y0356817
X0128633Y0345243
X0112842Y0341912
X0114834Y0314085
X0126885Y0312904
X0126948Y0325735
X0150684Y0338246
X0154806Y0351431
X0154732Y0354254
X0150892Y0361950
X0153269Y0390613
X0153093Y0393291
X0150485Y0393397
X0146228Y0391861
X0144386Y0401266
X0142994Y0402658
X0139109Y0399435
X0134783Y0410355
X0132700Y0417054
X0135287Y0418939
X0141157Y0419199
X0141302Y0422435
X0141385Y0425349
X0142787Y0428132
X0144511Y0430042
X0146987Y0425281
X0150341Y0424801
X0153102Y0427593
X0152554Y0430849
X0155700Y0433332
X0151072Y0407952
X0149680Y0409344
X0147529Y0411451
X0127289Y0413513
X0128696Y0421809
X0128842Y0439569
X0134712Y0448538
X0130113Y0454148
X0132078Y0459093
X0141019Y0460857
X0125448Y0451719
X0121676Y0453609
X0117735Y0451199
X0106956Y0452939
X0107621Y0443345
X0106401Y0424514
X0115684Y0468542
X0072625Y0458475
X0073641Y0402038
X0160691Y0407593
X0163717Y0405272
X0166109Y0403325
X0167739Y0400920
X0171734Y0396834
X0174624Y0396696
X0177407Y0393913
X0177370Y0391056
X0183413Y0390315
X0187082Y0389168
X0186779Y0392333
X0191300Y0393913
X0195161Y0395357
X0195160Y0398080
X0197964Y0398113
X0200599Y0400887
X0200753Y0403673
X0203782Y0403903
X0204872Y0413008
X0204662Y0415630
X0201891Y0418400
X0199304Y0418576
X0199287Y0421237
X0196520Y0421360
X0193737Y0424144
X0193527Y0426765
X0190953Y0426928
X0188169Y0429711
X0184322Y0425880
X0177416Y0426896
X0177637Y0429681
X0180200Y0429680
X0180438Y0432332
X0183806Y0438365
X0186165Y0441317
X0179808Y0442671
X0177007Y0440002
X0171806Y0449168
X0170283Y0451443
X0164830Y0451589
X0162629Y0453159
X0162243Y0455720
X0159680Y0457250
X0161456Y0460959
X0166078Y0461557
X0163247Y0448518
X0185302Y0449959
X0192873Y0449821
X0196046Y0447187
X0200106Y0446805
X0198747Y0444471
X0205712Y0446593
X0205180Y0440093
X0205590Y0437408
X0208244Y0434575
X0211320Y0431674
X0216574Y0431558
X0218818Y0433940
X0217951Y0427473
X0215377Y0427635
X0218161Y0424851
X0223712Y0427687
X0225519Y0429514
X0245735Y0430613
X0248373Y0422699
X0256137Y0425388
X0258854Y0441959
X0257413Y0444648
X0259755Y0446979
X0255389Y0449361
X0252535Y0445935
X0255739Y0459636
X0256649Y0463758
X0257921Y0468325
X0265771Y0458085
X0268712Y0455553
X0269763Y0451648
X0281909Y0453644
X0279818Y0457711
X0277771Y0459868
X0232617Y0459321
X0233645Y0451565
X0219759Y0445727
X0216730Y0444975
X0212365Y0459617
X0201531Y0459213
X0199724Y0468408
X0197082Y0466010
X0190550Y0420912
X0193350Y0413845
X0185932Y0411884
X0192720Y0403841
X0199365Y0409928
X0212137Y0413172
X0214495Y0414983
X0229854Y0410042
X0231302Y0405747
X0236700Y0403302
X0242184Y0402727
X0234830Y0396408
X0236097Y0386135
X0226641Y0388294
X0220677Y0396297
X0217987Y0396018
X0215203Y0393234
X0209636Y0387667
X0213527Y0383621
X0207629Y0381132
X0205503Y0383105
X0217306Y0378451
X0233554Y0375899
X0238231Y0360136
X0244775Y0356778
X0248102Y0361069
X0249621Y0371101
X0250192Y0386325
X0249476Y0350168
X0245613Y0348191
X0239318Y0342546
X0235338Y0346018
X0232779Y0344892
X0231834Y0350420
X0226961Y0349939
X0223220Y0350333
X0225031Y0352231
X0221275Y0352479
X0219251Y0350443
X0210094Y0354435
X0208165Y0358585
X0204834Y0359479
X0201547Y0359628
X0209598Y0362680
X0212787Y0340561
X0203519Y0337707
X0201216Y0329211
X0201220Y0322333
X0196944Y0318554
X0211511
X0216283Y0322250
X0216094Y0329282
X0218948Y0315742
X0241692Y0335802
X0233696Y0354463
X0187318Y0359266
X0172562Y0365396
X0169747Y0365203
X0169358Y0372420
X0171364Y0372517
X0171188Y0375196
X0168580Y0375301
X0159863Y0382897
X0159764Y0354900
X0162692Y0355329
X0157196Y0350187
X0167358Y0344628
X0169728Y0346475
X0172609Y0347916
X0165125Y0342369
X0168472Y0336207
X0184125Y0336093
X0176696Y0322951
X0265078Y0329069
X0280930Y0342802
X0294873Y0350479
X0295102Y0324865
X0294153Y0377943
X0288424Y0383337
X0286058Y0384660
X0283924Y0380628
X0284310Y0406931
X0293239Y0409121
X0295539Y0402435
X0221058Y0398888
X0178865Y0420353
X0174632Y0424112
X0171999Y0423901
X0171848Y0421328
X0169064Y0418545
X0166442Y0418334
X0163798Y0471329
X0160574Y0475506
X0165858Y0478054
X0168078Y0485624
X0170692Y0493345
X0173373Y0502443
X0180201Y0505900
X0190232Y0499317
X0204798
X0214338Y0495861
X0212920Y0479581
X0207515Y0482113
X0196806Y0473609
X0197901Y0470920
X0183263Y0478006
X0184696Y0488357
X0157905Y0493620
X0160267Y0515691
X0157629Y0528963
X0161625Y0535002
X0169641Y0541140
X0179168Y0541278
X0182141Y0534841
X0189170Y0530487
X0192051Y0524971
X0186061Y0524935
X0190204Y0519813
X0204826Y0519932
X0210873Y0515502
X0208787Y0528687
X0199196Y0525963
X0201141Y0543207
X0194235Y0543199
X0188924Y0548002
X0199165Y0551739
X0205428Y0549372
X0211027Y0552798
X0227570Y0555278
X0238413Y0557900
X0248999Y0560746
Y0550140
X0251125Y0537522
X0252334Y0527947
X0253917Y0520416
X0242759Y0523388
X0235180Y0530920
X0238515Y0535424
X0228404Y0528714
Y0517887
X0230842Y0508786
X0236114Y0511282
Y0506282
X0233861Y0495471
X0242432Y0496487
X0255637Y0496246
X0255767Y0503506
X0255960Y0507955
X0258704Y0488313
X0257424Y0482932
X0238381Y0479979
X0241401Y0476451
X0240554Y0470711
X0231035Y0470097
X0225940Y0480711
X0226818Y0488416
X0222550Y0508613
X0218287Y0535739
X0222027Y0565054
X0204464Y0565333
X0213794Y0574805
X0210704Y0587375
X0211511Y0593189
X0206527Y0591743
X0201165Y0593786
X0204997Y0599487
X0209035Y0609782
X0212141Y0613341
X0214239Y0621069
X0214483Y0624065
X0222110Y0618668
X0225566
X0229550Y0621420
X0231885Y0623337
X0249456Y0623849
X0252255Y0616353
X0254740Y0613133
X0250121Y0606424
X0244625Y0605144
X0239771
X0239720Y0588546
X0244720
X0234720
X0224720
X0219743Y0588522
X0227570Y0579258
X0235806Y0569187
X0244121Y0567455
X0255346Y0570664
X0257224Y0574542
X0253287
X0258704Y0583337
X0264299Y0578300
X0264798Y0566983
X0274375Y0567679
X0280366Y0572872
X0284378Y0569176
X0288075Y0567679
X0291551Y0563180
X0292519Y0548026
X0295184Y0527589
X0287031Y0520876
X0293109Y0495790
X0294676Y0471684
X0260050Y0530829
X0259216Y0540309
X0271613Y0584396
X0272125Y0592077
X0272110Y0596817
Y0601817
Y0606817
X0272224Y0611703
X0273968Y0619920
X0264098Y0623632
X0291354Y0618136
X0291581Y0598494
X0291621Y0590211
X0280507Y0605361
X0250031Y0594841
X0185987Y0597924
X0176023Y0595475
X0168629Y0596349
X0166613Y0594211
X0164487Y0596412
X0162574Y0600857
X0164696Y0603065
X0171200Y0599388
X0176917Y0603168
X0185968Y0566983
X0173354Y0550050
X0156649Y0549821
X0158239Y0556983
X0170692Y0526211
X0150066Y0519613
X0152952Y0505998
X0148247Y0494510
X0141200Y0494400
X0135405Y0491247
X0135239Y0500892
X0130082Y0510286
X0130334Y0517935
X0127094Y0534569
X0112928Y0532932
X0110031Y0538042
X0111298Y0549935
X0133822Y0550676
X0137007Y0547030
X0136964Y0557502
X0149822Y0568975
X0153799Y0541246
X0144015Y0538451
X0114700Y0510368
X0116365Y0502884
X0113039Y0497896
X0110003Y0480699
X0129858Y0475593
X0140964Y0475742
X0143893Y0475536
X0142775Y0471321
X0141251Y0482282
X0074102Y0493546
X0072830Y0528121
X0073720Y0548628
X0091949Y0571822
X0088559Y0575344
X0093562Y0585695
X0080011Y0589912
X0077665Y0592258
X0112172Y0590183
X0127279Y0592506
X0130188Y0626691
X0143401Y0626794
X0143452Y0644412
X0143243Y0657258
X0143558Y0671463
X0143641Y0680061
X0132861Y0670120
X0129263Y0673558
X0123627Y0668319
X0119846Y0668384
X0118153Y0660546
X0115338Y0660495
X0125273Y0657879
X0130554Y0660333
X0121050Y0652000
X0125783Y0643810
X0120271Y0639491
X0120133Y0636668
X0103086Y0636172
X0104003Y0644790
X0103775Y0651223
X0101149Y0666018
X0104314Y0668790
X0089184Y0668802
X0094239Y0662939
X0084472Y0657656
X0076649Y0652306
X0073787Y0662711
Y0682932
X0087574Y0698786
X0085168Y0645124
X0074019Y0640652
X0095503Y0639042
X0084712Y0627337
X0162224Y0627022
X0170145Y0630329
X0178917Y0630345
X0191326Y0629931
X0191732Y0636794
Y0639353
X0195499Y0646073
X0188133Y0650408
X0188031Y0656445
X0182070Y0654600
X0182100Y0652500
X0197424Y0656522
X0204668Y0657613
X0203728Y0650723
X0215342Y0649502
X0212771Y0643439
Y0640290
X0220294Y0641810
X0227428Y0638014
X0224259Y0631951
X0236858
X0239865Y0632632
X0243920Y0632065
X0247889Y0632380
X0254180Y0632321
X0263629
X0265298Y0635565
X0265669Y0640290
X0273850Y0637947
X0270653Y0631892
X0259554Y0646668
X0251011Y0650526
X0242771Y0651105
X0245499Y0656589
X0250539Y0658951
Y0661510
X0250617Y0665280
X0242743Y0664262
X0242940Y0672140
X0240200Y0676939
X0234983Y0676841
X0229133Y0675719
X0230964Y0673088
X0229987Y0665065
X0228452Y0656235
X0230578Y0648558
X0240940Y0642943
X0260700Y0659148
Y0663876
X0265728Y0668577
X0265669Y0673361
X0259790Y0675368
X0252350Y0673376
X0247326Y0680329
X0246416Y0683735
X0238432Y0684849
X0235283
X0236858Y0693400
X0241220Y0698313
X0261562Y0699189
X0266779Y0685959
X0272468Y0686392
X0278704Y0680640
X0281940Y0683424
X0292436Y0683880
X0290487Y0677561
X0294086Y0673376
X0291334Y0656176
X0283936Y0661026
X0278507Y0659660
X0278468Y0654518
X0281452Y0651624
X0275342Y0657461
X0265417Y0655947
X0257330Y0684849
X0224259
X0224377Y0676939
X0223046Y0671475
X0221090Y0667506
X0214940Y0664065
X0212771Y0671786
X0204668Y0668636
X0202094Y0681235
X0201346Y0694018
X0193672Y0694124
X0185389Y0694038
X0177751Y0684011
X0176621Y0673152
X0189000Y0668868
X0170224Y0660424
X0164220Y0658857
X0164413Y0643140
X0164220Y0677451
X0163452Y0698152
X0213523Y0697699
X0216259Y0682581
X0199830Y0633990
X0291354Y0637731
X0279491Y0698632
T03
X0131267Y0375899
X0142444Y0380455
X0145968Y0386105
X0137865Y0464616
X0174814Y0361624
X0177932Y0361589
X0184739
X0185027Y0365601
X0188531Y0362302
X0192260Y0336085
X0183501Y0318410
X0169109Y0318585
X0217204Y0337813
X0138200Y0471565
Y0479898
Y0488400
Y0497539
Y0506400
Y0513900
Y0521900
X0138068Y0530400
X0138200Y0538900
T04
X0094212Y0351038
X0083934Y0593189
X0083358Y0597731
X0090854Y0602487
X0094212Y0613117
X0107066Y0608388
X0114798Y0613054
X0115735Y0602624
X0143934Y0602569
X0144934Y0611290
X0118046Y0626892
X0109456Y0634290
X0094184Y0628719
X0089987Y0640408
X0120224Y0648239
X0127267Y0668868
X0110109Y0669498
T06
X0168901Y0177361
X0167548Y0248585
X0225083Y0213786
X0241000Y0213900
X0154019Y0368348
X0132519Y0398132
X0211523Y0439377
X0274168Y0325963
T08
X0264200Y0215900
X0274200
Y0225900
Y0235900
Y0245900
Y0255900
Y0265900
Y0275900
Y0285900
Y0295900
Y0305900
X0264200
Y0295900
Y0285900
Y0275900
Y0265900
Y0255900
Y0245900
Y0235900
Y0225900
X0104200
X0094200
Y0235900
Y0245900
Y0255900
Y0265900
Y0275900
Y0285900
Y0295900
Y0305900
X0104200
Y0295900
Y0285900
Y0275900
Y0265900
Y0255900
Y0245900
Y0235900
Y0215900
X0094200
Y0465900
X0104200
X0264200
X0274200
Y0475900
X0264200
Y0485900
Y0495900
Y0505900
Y0515900
Y0525900
Y0535900
Y0545900
Y0555900
X0274200
Y0545900
Y0535900
Y0525900
Y0515900
Y0505900
Y0495900
Y0485900
X0104200
X0094200
Y0495900
Y0505900
Y0515900
Y0525900
Y0535900
Y0545900
Y0555900
X0104200
Y0545900
Y0535900
Y0525900
Y0515900
Y0505900
Y0495900
Y0475900
X0094200
T09
X0174200Y0163400
X0184200
X0194200
X0204200
X0214200
X0154200
X0144200
X0134200
X0124200
X0114200
T10
X0094200Y0325900
X0104200
Y0335900
X0094200
X0161200Y0575900
Y0585900
X0171200
X0181200
X0191200
X0201200
Y0575900
X0191200
X0181200
X0171200
X0151200
Y0585900
X0133200
Y0575900
X0123200
Y0585900
T11
X0234200Y0163400
X0244200
X0254200
X0274200Y0175900
Y0185900
Y0195900
X0094200
Y0185900
Y0175900
Y0385900
Y0395900
Y0425900
Y0435900
Y0445900
X0274200
Y0435900
Y0425900
Y0375900
Y0365900
X0264200
Y0355900
Y0345900
Y0335900
X0274200
Y0345900
Y0355900
X0264200Y0375900
T12
X0288578Y0576372
Y0585428
T13
X0289200Y0163400
X0079200
Y0693400
X0289200
M30
